<svg width="70" height="70" fill="none" xmlns="http://www.w3.org/2000/svg"><path d="M35 70c19.33 0 35-15.67 35-35S54.33 0 35 0 0 15.67 0 35s15.67 35 35 35z" fill="#57A4FF"/><path d="M69.757 39.125l-23.57-23.569A15.175 15.175 0 0035 10.652c-2.44 0-4.746.575-6.79 1.596a4.565 4.565 0 00-5.384 4.49l-.046.062a5.327 5.327 0 00-2.996 8.992l-.001.078v1.982a8.025 8.025 0 00-10.705 7.564v3.37c0 .424.186.806.479 1.07l4.08 4.081a4.814 4.814 0 00-2.598 4.274v2.006L30.54 69.718C32 69.904 33.49 70 35 70c17.934 0 32.715-13.49 34.757-30.875z" fill="#2488FF"/><path d="M58.961 50.217H46.835v-2.006a4.815 4.815 0 014.815-4.815h2.496a4.815 4.815 0 014.815 4.815v2.006z" fill="#fff"/><path d="M54.146 43.396h-1.248v6.821h6.063v-2.006a4.815 4.815 0 00-4.815-4.815z" fill="#E1E3FA"/><path d="M52.008 48.256l.89 1.203v.01-.01l.89-1.203-.424-3.286 1.05-1.574h-3.032l1.05 1.574-.424 3.286z" fill="#000"/><path d="M52.898 27.391a8.025 8.025 0 00-8.025 8.025v3.21h16.05v-3.21a8.025 8.025 0 00-8.025-8.025z" fill="#1D1D1F"/><path d="M52.898 27.391v11.235h8.025v-3.21a8.025 8.025 0 00-8.025-8.025z" fill="#000"/><path d="M52.898 27.391v11.235h8.025v-3.21a8.025 8.025 0 00-8.025-8.025z" fill="#000"/><path d="M48.083 40.231h-1.765c-.795 0-1.445-.65-1.445-1.444v-.321c0-.795.65-1.445 1.445-1.445h1.765v3.21z" fill="#FFC477"/><path d="M57.713 40.231h1.765c.795 0 1.445-.65 1.445-1.444v-.321c0-.795-.65-1.445-1.445-1.445h-1.765v3.21z" fill="#FFB655"/><path d="M55.56 34.517a9.143 9.143 0 01-.722-.602 14.267 14.267 0 01-7.771 2.303H45.72a7.222 7.222 0 1014.355-.007c-1.479-.06-3.087-.623-4.515-1.694z" fill="#FFDAAA"/><path d="M60.075 36.212c-1.48-.06-3.087-.623-4.515-1.695a9.159 9.159 0 01-.722-.602c-.62.402-1.268.755-1.94 1.056v9.273a7.222 7.222 0 007.177-8.032z" fill="#FFC477"/><path d="M49.12 39.094a1.037 1.037 0 100-2.073 1.037 1.037 0 000 2.073zM56.676 39.094a1.037 1.037 0 100-2.073 1.037 1.037 0 000 2.073z" fill="#000"/><path d="M52.898 42.638a2.407 2.407 0 002.407-2.407H50.49a2.407 2.407 0 002.408 2.407z" fill="#F072AE"/><path d="M52.898 40.231v2.407a2.407 2.407 0 002.407-2.407h-2.407z" fill="#ED539D"/><path d="M23.165 50.217H11.04v-2.006a4.815 4.815 0 014.815-4.815h2.496a4.815 4.815 0 014.815 4.815v2.006z" fill="#fff"/><path d="M18.35 43.396h-1.248v6.821h6.063v-2.006a4.815 4.815 0 00-4.815-4.815z" fill="#E1E3FA"/><path d="M16.212 48.256l.89 1.203v.01-.01l.89-1.203-.424-3.286 1.05-1.574h-3.032l1.05 1.574-.424 3.286z" fill="#000"/><path d="M17.102 27.391a8.025 8.025 0 00-8.025 8.025v3.21h16.05v-3.21a8.025 8.025 0 00-8.025-8.025z" fill="#1D1D1F"/><path d="M17.102 27.391v11.235h8.025v-3.21a8.024 8.024 0 00-8.025-8.025z" fill="#000"/><path d="M17.102 27.391v11.235h8.025v-3.21a8.024 8.024 0 00-8.025-8.025z" fill="#000"/><path d="M12.287 40.231h-1.765c-.795 0-1.445-.65-1.445-1.444v-.321c0-.795.65-1.445 1.445-1.445h1.765v3.21z" fill="#FFC477"/><path d="M21.917 40.231h1.766c.794 0 1.444-.65 1.444-1.444v-.321c0-.795-.65-1.445-1.444-1.445h-1.766v3.21z" fill="#FFB655"/><path d="M19.765 34.517a9.162 9.162 0 01-.723-.602 14.267 14.267 0 01-7.77 2.303H9.923a7.222 7.222 0 1014.355-.007c-1.479-.06-3.086-.623-4.515-1.694z" fill="#FFDAAA"/><path d="M24.28 36.212c-1.48-.06-3.087-.623-4.515-1.695a9.123 9.123 0 01-.723-.602 14.3 14.3 0 01-1.94 1.056v9.273a7.222 7.222 0 007.177-8.032z" fill="#FFC477"/><path d="M13.324 39.094a1.037 1.037 0 100-2.073 1.037 1.037 0 000 2.073zM20.88 39.094a1.037 1.037 0 100-2.073 1.037 1.037 0 000 2.073z" fill="#000"/><path d="M17.102 42.638a2.407 2.407 0 002.407-2.407h-4.814a2.408 2.408 0 002.407 2.407z" fill="#F072AE"/><path d="M17.102 40.231v2.407a2.407 2.407 0 002.407-2.407h-2.407z" fill="#ED539D"/><path d="M47.174 54.783H22.826v-4.566a9.13 9.13 0 019.13-9.13h6.088a9.13 9.13 0 019.13 9.13v4.566z" fill="#fff"/><path d="M38.044 41.087H35v13.696h12.174v-4.566a9.13 9.13 0 00-9.13-9.13z" fill="#E1E3FA"/><path d="M38.044 41.087h-6.087l2.106 3.16-2.107 10.536h6.088l-2.107-10.536 2.107-3.16z" fill="#000"/><path d="M22.826 50.217v4.566H35l-4.525-13.575c-4.338.708-7.649 4.471-7.649 9.01z" fill="#3E3D42"/><path d="M39.525 41.209L35 54.782h12.174v-4.565c0-4.539-3.311-8.302-7.65-9.01z" fill="#2D2D30"/><path d="M35 10.652c-2.44 0-4.746.575-6.79 1.596a4.565 4.565 0 00-5.384 4.49 7.07 7.07 0 00-.046.062 5.327 5.327 0 00-2.996 8.992l-.001.078v6.087h30.434V25.87c0-8.405-6.813-15.218-15.217-15.218z" fill="#1D1D1F"/><path d="M35 10.652v21.304h15.217V25.87c0-8.404-6.813-15.217-15.217-15.217z" fill="#000"/><path d="M25.87 35h-3.348a2.747 2.747 0 01-2.74-2.74v-.608a2.747 2.747 0 012.74-2.739h3.348V35z" fill="#FFC477"/><path d="M44.13 35h3.348a2.747 2.747 0 002.74-2.74v-.608a2.747 2.747 0 00-2.74-2.739h-3.347V35z" fill="#FFB655"/><path d="M40.049 24.165c-.484-.363-.94-.745-1.37-1.142a27.053 27.053 0 01-14.736 4.368h-2.554c-.055.5-.085 1.008-.085 1.522 0 7.564 6.132 13.696 13.696 13.696s13.696-6.132 13.696-13.696c0-.519-.03-1.03-.087-1.535-2.804-.113-5.852-1.182-8.56-3.213z" fill="#FFDAAA"/><path d="M48.61 27.378c-2.805-.113-5.853-1.182-8.561-3.213-.484-.363-.94-.745-1.37-1.142A27.109 27.109 0 0135 25.025V42.61c7.564 0 13.696-6.132 13.696-13.696 0-.519-.03-1.03-.087-1.535z" fill="#FFC477"/><path d="M27.836 32.845a1.966 1.966 0 100-3.931 1.966 1.966 0 000 3.93zM42.164 32.845a1.966 1.966 0 100-3.931 1.966 1.966 0 000 3.93z" fill="#000"/><path d="M35 39.565A4.565 4.565 0 0039.565 35h-9.13A4.565 4.565 0 0035 39.565z" fill="#F072AE"/><path d="M35 35v4.565A4.565 4.565 0 0039.565 35H35z" fill="#ED539D"/></svg>