<svg width="70" height="70" fill="none" xmlns="http://www.w3.org/2000/svg"><path d="M35 70c19.33 0 35-15.67 35-35S54.33 0 35 0 0 15.67 0 35s15.67 35 35 35z" fill="#005ECE"/><path d="M44.542 16.74h11.762l13.36 13.39c.221 1.592.336 3.217.336 4.87 0 19.33-15.67 35-35 35L13.696 48.696V16.739H35.24a21.06 21.06 0 00.358-1.89 3.119 3.119 0 015.328-1.725l3.616 3.615z" fill="#00479B"/><path d="M56.304 16.739v31.957H33.42l-9.072 9.13v-9.13H13.696V16.739h42.608z" fill="#57A4FF"/><path d="M56.304 16.739H35v31.957h21.304V16.739z" fill="#2488FF"/><path d="M46.34 27.315h-4.536v-4.536h4.536a2.275 2.275 0 012.269 2.268 2.275 2.275 0 01-2.269 2.268z" fill="#FFC477"/><path d="M46.34 31.851h-4.536v-4.536h4.536a2.275 2.275 0 012.269 2.268 2.275 2.275 0 01-2.269 2.268z" fill="#FFC477"/><path d="M45.206 36.387h-3.402V31.85h3.402a2.275 2.275 0 012.269 2.268 2.275 2.275 0 01-2.269 2.268zM41.804 36.388h2.268a2.275 2.275 0 012.268 2.268 2.275 2.275 0 01-2.268 2.268h-2.268v-4.536z" fill="#FFB655"/><path d="M39.686 22.778c1.004-2.029 1.704-4.381 2.086-7.041a3.119 3.119 0 10-6.174-.888c-.438 3.05-1.425 5.558-2.853 7.252-.24.284-.47.52-.686.719a5.67 5.67 0 00-4.997 5.629v6.804a5.67 5.67 0 005.67 5.67h11.34V22.778h-4.386z" fill="#FFDAAA"/><path d="M27.061 31.85v3.403a5.67 5.67 0 005.67 5.67h11.341v-9.072h-17.01z" fill="#FFC477"/><path d="M28.196 22.779H21.39v18.145h6.805V22.779z" fill="#fff"/><path d="M28.196 31.852H21.39v9.073h6.805v-9.073z" fill="#E1E3FA"/></svg>