<svg width="70" height="70" fill="none" xmlns="http://www.w3.org/2000/svg"><path d="M35 70c19.33 0 35-15.67 35-35S54.33 0 35 0 0 15.67 0 35s15.67 35 35 35z" fill="#57A4FF"/><path d="M32.915 69.939c.69.04 1.385.06 2.085.06 19.33 0 35-15.67 35-35 0-.96-.039-1.91-.115-2.852L53.26 15.485h-.021c-.637.003-14.702.165-21.816 7.279-.54.54-1.051 1.09-1.533 1.647a2.67 2.67 0 00-.034-.033 1.953 1.953 0 00-.076-.076 1.953 1.953 0 00-.077-.077 1.953 1.953 0 00-.076-.076 2.028 2.028 0 00-.076-.076 2.023 2.023 0 00-.076-.076 2.028 2.028 0 00-.076-.076 2.023 2.023 0 00-.076-.076 2.028 2.028 0 00-.076-.077 2.023 2.023 0 00-.076-.076 2.028 2.028 0 00-.077-.076 2.023 2.023 0 00-.076-.076 2.106 2.106 0 00-.076-.076 2.023 2.023 0 00-.076-.076 2.106 2.106 0 00-.076-.077 1.886 1.886 0 00-.076-.076 2.025 2.025 0 00-.077-.076 1.886 1.886 0 00-.076-.076 2.025 2.025 0 00-.076-.076 1.886 1.886 0 00-.076-.076 2.025 2.025 0 00-.076-.076 1.953 1.953 0 00-.076-.076 2.025 2.025 0 00-.077-.077 1.953 1.953 0 00-.076-.076 1.953 1.953 0 00-.076-.076 2.028 2.028 0 00-.076-.076 2.023 2.023 0 00-.076-.076 2.028 2.028 0 00-.076-.076 2.023 2.023 0 00-.076-.077 2.028 2.028 0 00-.077-.076 2.023 2.023 0 00-.076-.076 2.028 2.028 0 00-.076-.076 2.023 2.023 0 00-.076-.076 2.106 2.106 0 00-.076-.076 2.023 2.023 0 00-.076-.076 2.106 2.106 0 00-.076-.077 1.886 1.886 0 00-.077-.076 2.025 2.025 0 00-.076-.076 1.886 1.886 0 00-.076-.076 2.025 2.025 0 00-.076-.076 1.886 1.886 0 00-.076-.076 2.025 2.025 0 00-.076-.077 1.953 1.953 0 00-.077-.076 2.025 2.025 0 00-.076-.076 1.953 1.953 0 00-.076-.076 1.953 1.953 0 00-.076-.076 2.028 2.028 0 00-.076-.076 2.023 2.023 0 00-.076-.076 2.028 2.028 0 00-.076-.077 2.023 2.023 0 00-.077-.076 2.028 2.028 0 00-.076-.076 2.118 2.118 0 00-.583-.433 1.971 1.971 0 00-.07-.07 2.38 2.38 0 00-.075-.075 2.275 2.275 0 00-.077-.076 2.38 2.38 0 00-.076-.077 2.187 2.187 0 00-.076-.076 2.278 2.278 0 00-.076-.076 2.278 2.278 0 00-.076-.076 2.278 2.278 0 00-.076-.076 2.278 2.278 0 00-.077-.076 2.278 2.278 0 00-.076-.076 2.38 2.38 0 00-.076-.077 2.374 2.374 0 00-.076-.076 2.38 2.38 0 00-.076-.076 2.374 2.374 0 00-.076-.076 2.38 2.38 0 00-.076-.076 2.482 2.482 0 00-.077-.076 2.38 2.38 0 00-.076-.077 2.482 2.482 0 00-.076-.076 2.38 2.38 0 00-.076-.076 2.482 2.482 0 00-.076-.076 2.38 2.38 0 00-.076-.076 2.354 2.354 0 00-2.7-.511 3.4 3.4 0 00-.072-.071 3.417 3.417 0 00-.076-.076 3.905 3.905 0 00-.076-.076 3.417 3.417 0 00-.076-.076 3.905 3.905 0 00-.076-.077 3.417 3.417 0 00-.077-.076 3.905 3.905 0 00-.076-.076 3.417 3.417 0 00-.076-.076 3.645 3.645 0 00-.076-.076 3.645 3.645 0 00-.076-.076 3.411 3.411 0 00-5.598 1.061h-.524a2.895 2.895 0 00-2.886 2.886c0 .813.34 1.55.886 2.076l.076.076c.025.026.05.051.077.076l.076.076.076.076.076.077.076.076.076.076.076.076.076.076c.026.026.05.051.077.076l.076.076.076.077.076.076.076.076c.025.026.05.051.077.076.024.026.05.051.076.076l.076.076.076.077.076.076.076.076.076.076.076.076c.026.026.05.051.077.076.025.026.05.052.076.076l.076.077.076.076.076.076.076.076c.025.026.05.051.077.076l.076.076.076.077.076.076.076.076.076.076c.025.026.05.051.077.076.024.026.05.051.076.076l.076.076.076.077.076.076.076.076.076.076c.025.026.05.051.077.076l.076.076.076.077.076.076.076.076.076.076c.025.026.05.051.077.076l.076.076c.025.026.05.052.076.076l.076.077.076.076.076.076.076.076c.025.026.05.051.077.076l.076.076.076.076.076.077.076.076.076.076.076.076c.026.026.05.051.077.076l.076.077.076.076.076.076.076.076.076.076.076.076c.026.026.05.051.077.076.025.026.05.052.076.076l.076.077.076.076.076.076.076.076c.026.026.05.051.077.076l.076.076.076.077.076.076.076.076.076.076.076.076c.026.026.05.051.077.076l.076.076.076.077.076.076.076.076.076.076c.025.026.05.051.077.076l.076.076.076.077.076.076.076.076.076.076.076.076c.025.026.05.051.077.076.025.026.05.052.076.076l.076.077.076.076.076.076.076.076c.025.026.05.051.077.076l.076.076.076.076.076.077.076.076.076.076.076.076c.026.026.05.051.077.076l.076.077.076.076.076.076.076.076.076.076.076.076c.026.026.05.051.077.076l.076.077.076.076.076.076.076.076.076.076c.026.026.05.051.077.076l.076.076.076.077.076.076.076.076.076.076.076.076c.026.026.05.051.077.076l.076.076.076.077.076.076.076.076.076.076c.026.026.05.051.077.076l.076.076.076.077.076.076.076.076.076.076.076.076c.026.026.05.051.077.076a2.878 2.878 0 00.121.122l-4.263-.473-1.01 1.01 5.054 5.056.127.633c-.817-.11-1.685-.1-2.526.135-3.113.559-6.301 4.686-6.301 4.686l1.704 1.69c-.578 3.098-.08 6-.08 6l17.057 17.042z" fill="#2488FF"/><path d="M28.228 48.214c.85-3.04-1.254-6.443-1.254-6.443s-3.403-2.105-6.443-1.254c-3.113.56-6.301 4.686-6.301 4.686s.844.478 1.924.71c-.908 3.436-.3 6.98-.3 6.98s3.542.607 6.978-.302c.232 1.08.71 1.925.71 1.925s4.127-3.189 4.686-6.302z" fill="#FFDA44"/><path d="M18.996 49.749s-.695-4.056 1.409-6.16c1.816-1.816 4.751 0 4.751 0s1.816 2.936 0 4.752c-2.104 2.104-6.16 1.408-6.16 1.408z" fill="#FFA733"/><path d="M53.26 15.484s-14.558 0-21.837 7.28c-7.28 7.279-9.1 16.378-9.1 16.378l.607.607 1.011 5.055 5.055 1.01.607.607s9.099-1.82 16.378-9.099c7.28-7.28 7.28-21.838 7.28-21.838z" fill="#fff"/><path d="M53.26 15.484l-29.319 29.32 5.055 1.01.607.608s9.099-1.82 16.378-9.1c7.28-7.279 7.28-21.838 7.28-21.838z" fill="#E0E0E2"/><path d="M22.93 39.749l-5.055-5.055 1.011-1.011 9.1 1.01-5.056 5.056z" fill="#FF3501"/><path d="M28.996 45.815l5.055 5.055 1.011-1.01-1.01-9.1-5.056 5.055z" fill="#C70024"/><path d="M38.095 36.369a5.72 5.72 0 100-11.439 5.72 5.72 0 000 11.439z" fill="#C6C5CA"/><path d="M42.14 26.605l-8.089 8.089a5.72 5.72 0 008.089-8.089z" fill="#ACABB1"/><path d="M38.095 34.717a4.068 4.068 0 100-8.136 4.068 4.068 0 000 8.136z" fill="#46F8FF"/><path d="M40.972 27.773l-5.753 5.753a4.068 4.068 0 105.753-5.753z" fill="#00D7DF"/><path d="M53.26 15.484s-6.002.001-12.225 1.928l5.149 5.15 5.148 5.148c1.928-6.224 1.929-12.226 1.929-12.226z" fill="#C6C5CA"/><path d="M51.333 27.71c1.927-6.224 1.928-12.226 1.928-12.226l-7.077 7.077 5.149 5.15z" fill="#ACABB1"/><path d="M44.237 16.571c-1.04.23-2.117.506-3.202.842l5.149 5.148 5.148 5.15c.336-1.086.613-2.163.842-3.203l-7.937-7.937z" fill="#FF3501"/><path d="M52.174 24.508l-3.968-3.968-2.022 2.022 5.149 5.148a39.67 39.67 0 00.84-3.202z" fill="#C70024"/><path d="M24.531 19.918h-.014a2.361 2.361 0 00-3.5-1.798 3.41 3.41 0 00-6.194.224H14.3a2.895 2.895 0 00-2.886 2.886 2.895 2.895 0 002.886 2.886h10.232a2.105 2.105 0 002.1-2.099c0-1.154-.945-2.099-2.1-2.099zM56.488 47.047h-.015a2.361 2.361 0 00-3.499-1.798 3.41 3.41 0 00-6.194.224h-.524a2.895 2.895 0 00-2.886 2.886 2.895 2.895 0 002.886 2.886h10.232a2.105 2.105 0 002.099-2.099c0-1.154-.945-2.099-2.099-2.099z" fill="#fff"/></svg>