<svg width="70" height="70" fill="none" xmlns="http://www.w3.org/2000/svg"><path d="M35 70c19.33 0 35-15.67 35-35S54.33 0 35 0 0 15.67 0 35s15.67 35 35 35z" fill="#005ECE"/><path d="M69.843 38.316L56.678 25.15a10.902 10.902 0 00-8.26-3.776c-.887 0-1.75.106-2.575.306l-4.757-4.757-.005.005H10.651v28.533l24.536 24.536c18.126-.096 32.99-13.969 34.655-31.682z" fill="#00479B"/><path d="M10.652 16.93v28.532H25.87l7.61 7.609v-7.609h7.608V16.93H10.652z" fill="#fff"/><path d="M25.87 16.93v28.532l7.608 7.609v-7.609h7.609V16.93H25.869z" fill="#BDFDFF"/><path d="M27.772 37.853v-9.511h-3.805v9.511h-3.804v3.804h11.413v-3.804h-3.804zM25.87 26.44a2.853 2.853 0 100-5.707 2.853 2.853 0 000 5.707z" fill="#003F8A"/><path d="M57.162 53.07H39.674v-1.092a8.744 8.744 0 0117.488 0v1.093z" fill="#fff"/><path d="M50.604 43.234h-2.186v9.837h8.744v-3.28a6.558 6.558 0 00-6.558-6.557z" fill="#E1E3FA"/><path d="M50.604 53.07h-4.372l2.186-10.929 2.186 10.93z" fill="#000"/><path d="M48.418 46.513l2.186-3.28h-4.372l2.186 3.28z" fill="#000"/><path d="M39.674 49.792v3.279h8.744l-3.25-9.75a6.558 6.558 0 00-5.494 6.47z" fill="#3E3D42"/><path d="M51.668 43.321l-3.25 9.75h8.744v-3.28a6.559 6.559 0 00-5.494-6.47z" fill="#2D2D30"/><path d="M48.418 21.375c-1.752 0-3.408.413-4.877 1.146a3.279 3.279 0 00-3.867 3.225c-.01.015-.022.03-.033.044a3.826 3.826 0 00-2.152 6.459v4.427h21.859v-4.372c0-6.036-4.893-10.93-10.93-10.93z" fill="#1D1D1F"/><path d="M48.418 21.375v15.301h10.93v-4.372c0-6.036-4.893-10.93-10.93-10.93z" fill="#000"/><path d="M41.86 38.862h-2.186a2.192 2.192 0 01-2.186-2.186c0-1.202.984-2.186 2.186-2.186h2.186v4.372z" fill="#FFC477"/><path d="M54.976 38.862h2.186a2.192 2.192 0 002.186-2.186 2.192 2.192 0 00-2.186-2.186h-2.186v4.372z" fill="#FFB655"/><path d="M52.044 31.08c-.347-.26-.674-.535-.983-.82a19.431 19.431 0 01-10.584 3.137h-1.835c-.04.36-.06.724-.06 1.093 0 5.433 4.404 9.837 9.836 9.837 5.433 0 9.837-4.404 9.837-9.837 0-.372-.022-.74-.062-1.102-2.014-.082-4.203-.85-6.148-2.308z" fill="#FFDAAA"/><path d="M58.193 33.388c-2.014-.081-4.204-.849-6.149-2.308-.347-.26-.674-.535-.983-.82a19.418 19.418 0 01-2.643 1.438v12.629c5.433 0 9.837-4.404 9.837-9.837 0-.372-.022-.74-.062-1.102z" fill="#FFC477"/><path d="M43.272 37.314a1.412 1.412 0 100-2.823 1.412 1.412 0 000 2.823zM53.564 37.314a1.412 1.412 0 100-2.823 1.412 1.412 0 000 2.823z" fill="#000"/><path d="M48.418 42.141a3.279 3.279 0 003.28-3.279h-6.559a3.279 3.279 0 003.28 3.279z" fill="#F072AE"/><path d="M48.418 38.862v3.279a3.279 3.279 0 003.28-3.279h-3.28z" fill="#ED539D"/></svg>