<svg width="70" height="70" fill="none" xmlns="http://www.w3.org/2000/svg"><path d="M35 70c19.33 0 35-15.67 35-35S54.33 0 35 0 0 15.67 0 35s15.67 35 35 35z" fill="#57A4FF"/><path d="M28.86 36.224H21.01c-1.15 0-2.091.94-2.091 2.09 0 .567.228 1.082.596 1.46l-5.122 10.444h-.696c.116.969.6 1.859 1.346 2.59l17.074 17.075c.951.078 1.913.117 2.884.117 18.16 0 33.09-13.83 34.83-31.532l-25.399-25.4a13.273 13.273 0 00-9.453-3.937c-2.135 0-4.153.503-5.941 1.396a3.994 3.994 0 00-4.71 3.929l-.042.054a4.662 4.662 0 00-2.622 7.868V28.038c0 .679.285 1.293.742 1.73l6.455 6.456z" fill="#2488FF"/><path d="M15.987 50.454l4.376-8.91 4.395 8.91h1.692l-6.087-12.41-6.087 12.41h1.711z" fill="#FFDA44"/><path d="M20.363 38.044v3.5l4.395 8.91h1.692l-6.087-12.41z" fill="#FFA733"/><path d="M13.696 50.218c.308 2.559 3.174 4.565 6.667 4.565 3.492 0 6.359-2.006 6.667-4.566H13.696z" fill="#EE8700"/><path d="M20.363 50.218v4.565c3.492 0 6.359-2.006 6.666-4.566h-6.666z" fill="#CC7400"/><path d="M45.262 50.454l4.376-8.91 4.395 8.91h1.691l-6.086-12.41-6.087 12.41h1.711z" fill="#FFDA44"/><path d="M49.638 38.044v3.5l4.395 8.91h1.691l-6.086-12.41z" fill="#FFA733"/><path d="M42.97 50.218c.308 2.559 3.175 4.565 6.668 4.565 3.492 0 6.359-2.006 6.666-4.566H42.971z" fill="#EE8700"/><path d="M49.638 50.218v4.565c3.492 0 6.359-2.006 6.666-4.566h-6.666z" fill="#CC7400"/><path d="M41.279 36.88a7.95 7.95 0 00-4.199-1.193h-4.142a7.95 7.95 0 00-4.216 1.204v10.114h12.557V36.879z" fill="#fff"/><path d="M37.08 35.687H35v11.318h6.279V36.879a7.949 7.949 0 00-4.198-1.192z" fill="#E1E3FA"/><path d="M28.712 44.49v10.06a2.522 2.522 0 002.515 2.515 2.522 2.522 0 002.515-2.515v-2.515h2.516v2.515a2.522 2.522 0 002.515 2.515 2.523 2.523 0 002.515-2.515V44.49H28.712z" fill="#1D1D1F"/><path d="M35 44.49v7.545h1.258v2.515a2.522 2.522 0 002.515 2.515 2.523 2.523 0 002.515-2.515V44.49H35z" fill="#000"/><path d="M18.918 38.315c0-1.15.94-2.09 2.09-2.09h2.788v4.18H21.01c-1.15 0-2.091-.94-2.091-2.09z" fill="#FFDAAA"/><path d="M51.082 38.312a2.1 2.1 0 01-2.094 2.094h-2.792v-4.188h2.792a2.1 2.1 0 012.094 2.094z" fill="#FFC477"/><path d="M33.523 43.75L35 45.748v.016-.017l1.477-1.997-.703-5.451 1.741-2.612h-5.03l1.741 2.612-.703 5.451z" fill="#000"/><path d="M39.939 36.224a7.926 7.926 0 00-1.541-.424L35 45.056 31.602 35.8a7.923 7.923 0 00-1.54.424h-8.405v4.182h7.064v9.114H41.28v-9.115h7.064v-4.181H39.94z" fill="#3E3D42"/><path d="M41.278 49.52h-6.287v-4.438l3.407-9.282c.533.09 1.048.234 1.54.424h8.405v4.182h-7.065v9.114z" fill="#2D2D30"/><path d="M34.978 9.13c-2.136 0-4.153.504-5.942 1.397a3.994 3.994 0 00-4.71 3.929l-.04.054a4.662 4.662 0 00-2.623 7.868V27.772h26.63v-5.326c0-7.354-5.961-13.315-13.315-13.315z" fill="#1D1D1F"/><path d="M34.978 9.13v18.642h13.315v-5.326c0-7.354-5.962-13.315-13.315-13.315z" fill="#000"/><path d="M26.989 30.435h-2.93a2.404 2.404 0 01-2.396-2.397v-.533a2.404 2.404 0 012.396-2.396h2.93v5.326z" fill="#FFC477"/><path d="M42.967 30.435h2.93a2.404 2.404 0 002.396-2.397v-.533a2.404 2.404 0 00-2.397-2.396h-2.93v5.326z" fill="#FFB655"/><path d="M39.395 20.954a15.19 15.19 0 01-1.198-1 23.672 23.672 0 01-12.895 3.823h-2.234c-.048.437-.074.881-.074 1.332 0 6.618 5.365 11.983 11.984 11.983 6.618 0 11.983-5.365 11.983-11.983 0-.455-.026-.902-.075-1.343-2.454-.1-5.12-1.034-7.49-2.812z" fill="#FFDAAA"/><path d="M46.886 23.766c-2.454-.1-5.12-1.035-7.49-2.812a15.23 15.23 0 01-1.199-1 23.704 23.704 0 01-3.22 1.752v15.386c6.619 0 11.984-5.365 11.984-11.983 0-.455-.026-.903-.075-1.343z" fill="#FFC477"/><path d="M28.71 28.549a1.72 1.72 0 100-3.44 1.72 1.72 0 000 3.44zM41.247 28.549a1.72 1.72 0 100-3.44 1.72 1.72 0 000 3.44z" fill="#000"/><path d="M34.978 34.43a3.995 3.995 0 003.994-3.995h-7.989a3.995 3.995 0 003.995 3.994z" fill="#F072AE"/><path d="M34.978 30.435v3.994a3.995 3.995 0 003.994-3.994h-3.994z" fill="#ED539D"/></svg>