<svg width="70" height="70" fill="none" xmlns="http://www.w3.org/2000/svg"><path d="M35 70c19.33 0 35-15.67 35-35S54.33 0 35 0 0 15.67 0 35s15.67 35 35 35z" fill="#005ECE"/><path d="M42.086 14.294a17.446 17.446 0 00-12.412-5.163c-9.665 0-17.5 7.835-17.5 17.5 0 4.852 1.975 9.242 5.164 12.412L35 56.705v2.643l9.435 9.359v.007c12.679-3.541 22.453-14.042 24.946-27.125L42.086 14.295z" fill="#00479B"/><path d="M29.674 44.13c9.665 0 17.5-7.834 17.5-17.5 0-9.664-7.835-17.5-17.5-17.5s-17.5 7.836-17.5 17.5c0 9.666 7.835 17.5 17.5 17.5z" fill="#ACABB1"/><path d="M29.674 9.13v35c9.665 0 17.5-7.834 17.5-17.5 0-9.664-7.835-17.5-17.5-17.5z" fill="#898890"/><path d="M29.674 41.717c8.332 0 15.086-6.755 15.086-15.086 0-8.333-6.754-15.087-15.086-15.087S14.587 18.298 14.587 26.63c0 8.331 6.755 15.086 15.087 15.086z" fill="#fff"/><path d="M29.674 11.544v30.173c8.332 0 15.086-6.755 15.086-15.087 0-8.331-6.754-15.086-15.086-15.086z" fill="#D8D7DA"/><path d="M39.071 19.77l-2.56-2.56-7.61 7.61h-7.072v3.621h8.531l8.711-8.67z" fill="#000"/><path d="M56.304 30.435H35v28.913h21.304V30.435z" fill="#fff"/><path d="M56.304 30.435H45.652v28.913h10.652V30.435z" fill="#E1E3FA"/><path d="M53.261 51.74h-9.13v1.52h9.13v-1.52zM40.326 54.783a2.283 2.283 0 100-4.566 2.283 2.283 0 000 4.566zM53.261 44.13h-9.13v1.522h9.13V44.13z" fill="#C6C5CA"/><path d="M39.588 47.174l-2.033-1.799.947-1.07.926.82 2.08-2.516 1.1.91-3.02 3.655z" fill="#000"/><path d="M53.261 36.522h-9.13v1.521h9.13v-1.521z" fill="#C6C5CA"/><path d="M39.588 39.565l-2.033-1.799.947-1.069.926.82L41.508 35l1.1.91-3.02 3.655z" fill="#000"/></svg>