<svg width="13" height="13" fill="none" xmlns="http://www.w3.org/2000/svg"><path d="M8.442 7.636a5.35 5.35 0 011.556.838c.465.356.859.768 1.18 1.238.326.47.576.984.75 1.542.173.559.26 1.14.26 1.746h-.813c0-.694-.125-1.337-.374-1.93a4.684 4.684 0 00-1.022-1.549A4.683 4.683 0 008.429 8.5 4.918 4.918 0 006.5 8.125a4.948 4.948 0 00-2.482.66 4.788 4.788 0 00-2.222 2.907A4.947 4.947 0 001.625 13H.812c0-.61.09-1.191.267-1.746.178-.558.43-1.07.755-1.536.326-.465.72-.876 1.181-1.231a5.811 5.811 0 011.555-.844 3.992 3.992 0 01-.888-.648 4.157 4.157 0 01-.673-.844 4.419 4.419 0 01-.425-.997 4.116 4.116 0 01-.147-1.091A4.077 4.077 0 014.913.317 3.995 3.995 0 016.5 0c.563 0 1.09.106 1.58.317.496.212.927.502 1.295.87.369.368.659.8.87 1.295a3.95 3.95 0 01.318 1.58c0 .373-.051.735-.153 1.086-.097.351-.239.681-.425.99a4.132 4.132 0 01-.667.85c-.258.255-.55.47-.876.648zM3.25 4.062c0 .45.085.87.254 1.264.173.393.406.738.698 1.034a3.43 3.43 0 001.035.699c.393.169.814.253 1.263.253.449 0 .87-.084 1.263-.253A3.282 3.282 0 009.49 5.326c.173-.394.26-.815.26-1.264 0-.448-.087-.87-.26-1.263a3.207 3.207 0 00-.699-1.028 3.207 3.207 0 00-1.028-.698A3.096 3.096 0 006.5.813c-.449 0-.87.086-1.263.26a3.282 3.282 0 00-1.733 1.726c-.17.394-.254.815-.254 1.264z" fill="#666"/></svg>