<svg width="40" height="40" fill="none" xmlns="http://www.w3.org/2000/svg"><path d="M12.56 13.242l-9.239-9.24C4.514 2.808 5.704 1.613 6.9.42A1.42 1.42 0 018.898.403l7.198 7.203c.55.55.55 1.455-.007 2.01l-1.577 1.574-1.468 1.467a4.04 4.04 0 00-.483.585zm7.602 15.053c-1.513-1.302-2.964-2.683-4.372-4.089-1.406-1.415-2.783-2.86-4.087-4.38-1.067-1.232-1.276-3.017-.719-4.52L1.5 5.825c-2.207 2.268-1.925 7.892.493 12.834 1.039 2.138 2.386 4.067 3.777 5.901a52.889 52.889 0 004.52 5.158 50.4 50.4 0 005.147 4.534c1.835 1.396 3.77 2.732 5.894 3.768 4.95 2.415 10.58 2.68 12.846.472l-9.486-9.483c-1.504.557-3.291.35-4.529-.713zm19.43 2.799l-7.198-7.198a1.434 1.434 0 00-2.01.007h-.005l-1.582 1.578-1.458 1.465c-.18.18-.377.339-.586.486l9.238 9.239c1.195-1.197 2.387-2.387 3.584-3.58.558-.552.57-1.445.017-1.997z" fill="url(#paint0_linear)"/><defs><linearGradient id="paint0_linear" x1="0" y1="40" x2="42.497" y2="37.144" gradientUnits="userSpaceOnUse"><stop stop-color="#2B74E2"/><stop offset="1" stop-color="#5A9CFF"/></linearGradient></defs></svg>