<svg width="40" height="42" fill="none" xmlns="http://www.w3.org/2000/svg"><path d="M19.882 36.503l10.227-14.77c3.836-5.114 3.282-13.52-1.187-17.988A12.7 12.7 0 0019.882 0c-3.415 0-6.626 1.33-9.04 3.745-4.469 4.467-5.023 12.873-1.203 17.967l10.243 14.791z" fill="#2B74E2"/><path d="M28.078 30.671a.667.667 0 00-.156 1.324c7.01.826 10.745 3.05 10.745 4.338 0 1.81-7.102 4.333-18.667 4.333-11.565 0-18.667-2.524-18.667-4.333 0-1.289 3.734-3.512 10.745-4.338a.667.667 0 00-.156-1.324C4.902 31.498 0 33.826 0 36.333c0 2.816 6.87 5.666 20 5.666 13.13 0 20-2.85 20-5.666 0-2.507-4.903-4.835-11.922-5.662z" fill="url(#paint0_linear)"/><path d="M20 17.333a4.672 4.672 0 004.667-4.666A4.672 4.672 0 0020 8a4.672 4.672 0 00-4.666 4.666A4.672 4.672 0 0020 17.334zm0-8a3.337 3.337 0 013.334 3.333A3.337 3.337 0 0120 16a3.337 3.337 0 01-3.333-3.334A3.337 3.337 0 0120 9.333z" fill="#fff"/><defs><linearGradient id="paint0_linear" x1="0" y1="41.999" x2="40.414" y2="32.412" gradientUnits="userSpaceOnUse"><stop stop-color="#2B74E2"/><stop offset="1" stop-color="#5A9CFF"/></linearGradient></defs></svg>