<svg width="40" height="33" fill="none" xmlns="http://www.w3.org/2000/svg"><path d="M36.428 32.67c.9 0 1.678-.303 2.34-.9L27.437 20.233c-.272.198-.535.39-.784.574a52.29 52.29 0 01-2.065 1.488c-.529.357-1.232.72-2.11 1.091-.878.372-1.696.557-2.455.557h-.045c-.759 0-1.577-.185-2.455-.557-.878-.37-1.581-.734-2.11-1.09a52.562 52.562 0 01-2.064-1.49 98.51 98.51 0 00-.783-.576L1.231 31.77c.662.596 1.442.899 2.34.899h32.857z" fill="url(#paint0_linear)"/><path d="M2.255 12.965A11.895 11.895 0 010 10.987v17.556l9.988-10.17a773.127 773.127 0 00-7.733-5.408z" fill="url(#paint1_linear)"/><path d="M37.767 12.965a657.84 657.84 0 00-7.752 5.412L40 28.544V10.987a12.387 12.387 0 01-2.233 1.978z" fill="url(#paint2_linear)"/><path d="M36.428.669H3.572c-1.146 0-2.027.394-2.645 1.181C.31 2.638.001 3.623.001 4.805c0 .954.41 1.988 1.228 3.103.818 1.113 1.688 1.988 2.611 2.624a970.3 970.3 0 004.576 3.239 1476.716 1476.716 0 015.848 4.148c.072.05.184.133.333.241l.616.452c.484.356.885.644 1.205.864.32.22.707.466 1.161.739a6.72 6.72 0 001.284.613c.402.136.774.205 1.116.205h.044c.342 0 .714-.069 1.116-.205.402-.136.83-.34 1.284-.613.453-.273.84-.52 1.16-.74.32-.219.722-.507 1.206-.863a140.524 140.524 0 01.949-.693l2.259-1.599c1.85-1.309 4.575-3.236 8.187-5.788a10.718 10.718 0 002.723-2.795C39.635 6.647 40 5.502 40 4.305c0-1-.354-1.855-1.06-2.568-.707-.712-1.544-1.068-2.512-1.068z" fill="url(#paint3_linear)"/><defs><linearGradient id="paint0_linear" x1="1.231" y1="32.67" x2="39.709" y2="24.866" gradientUnits="userSpaceOnUse"><stop stop-color="#2B74E2"/><stop offset="1" stop-color="#5A9CFF"/></linearGradient><linearGradient id="paint1_linear" x1="0" y1="28.543" x2="10.644" y2="28.136" gradientUnits="userSpaceOnUse"><stop stop-color="#2B74E2"/><stop offset="1" stop-color="#5A9CFF"/></linearGradient><linearGradient id="paint2_linear" x1="30.015" y1="28.544" x2="40.655" y2="28.137" gradientUnits="userSpaceOnUse"><stop stop-color="#2B74E2"/><stop offset="1" stop-color="#5A9CFF"/></linearGradient><linearGradient id="paint3_linear" x1=".001" y1="21.033" x2="41.957" y2="15.493" gradientUnits="userSpaceOnUse"><stop stop-color="#2B74E2"/><stop offset="1" stop-color="#5A9CFF"/></linearGradient></defs></svg>