<svg width="14" height="14" fill="none" xmlns="http://www.w3.org/2000/svg"><path d="M7 0c1.242 0 2.427.339 3.5.96a6.855 6.855 0 012.54 2.54A6.941 6.941 0 0114 7c0 1.27-.339 2.427-.96 3.5-.62 1.073-1.467 1.948-2.54 2.569A6.914 6.914 0 017 14a6.84 6.84 0 01-3.5-.931A7.006 7.006 0 01.931 10.5 6.84 6.84 0 010 7c0-1.242.31-2.427.931-3.5S2.427 1.58 3.5.96C4.573.339 5.73 0 7 0zm0 12.645a5.503 5.503 0 002.823-.762c.846-.508 1.552-1.185 2.06-2.06A5.43 5.43 0 0012.645 7a5.503 5.503 0 00-.762-2.823 5.999 5.999 0 00-2.06-2.06A5.502 5.502 0 007 1.355a5.43 5.43 0 00-2.823.762c-.875.508-1.552 1.214-2.06 2.06A5.502 5.502 0 001.355 7a5.43 5.43 0 00.762 2.823 5.552 5.552 0 002.06 2.06A5.43 5.43 0 007 12.645zm3.02-2.85a.256.256 0 00.085-.198c0-.085 0-.17-.028-.254l-.565-.762c-.085-.057-.17-.113-.254-.113-.113 0-.198.028-.254.084-.226.17-.452.34-.677.452a2.33 2.33 0 01-1.186.31c-.677 0-1.242-.254-1.637-.762-.395-.423-.564-.96-.564-1.608 0-.621.197-1.158.592-1.61.395-.423.932-.649 1.61-.649.62 0 1.185.226 1.72.621.086.085.17.113.283.085.085 0 .17-.056.226-.141l.508-.819c.028-.056.028-.112.028-.197a.32.32 0 00-.084-.226 3.886 3.886 0 00-.875-.564 4.282 4.282 0 00-1.863-.424c-.762 0-1.44.198-2.033.536-.62.34-1.072.819-1.41 1.412A4.175 4.175 0 003.132 7c0 .734.17 1.411.508 2.004.339.621.79 1.1 1.411 1.44.593.338 1.27.508 2.033.508.705 0 1.383-.142 2.004-.48.367-.17.677-.395.931-.678z" fill="url(#paint0_linear)"/><defs><linearGradient id="paint0_linear" x1="0" y1="14" x2="16.677" y2="9.09" gradientUnits="userSpaceOnUse"><stop stop-color="#34AAFF"/><stop offset="1" stop-color="#1B96EE"/></linearGradient></defs></svg>