<svg width="970" height="472" fill="none" xmlns="http://www.w3.org/2000/svg"><path d="M51.57 469.212c-24.857-25.283-36.173-63.206-29.124-98.156 7.05-34.949 32.092-65.436 64.926-79.007 14.099-5.949 29.495-8.737 43.408-15.244 48.417-22.68 66.596-80.68 93.865-126.783C264.529 83.098 335.206 33.834 412.561 26.398c77.355-7.436 158.977 29.744 199.045 96.482 21.519 36.065 31.165 79.008 57.136 112.098 18.179 23.237 43.964 40.154 72.346 47.962 25.043 6.692 51.385 6.321 76.613 11.898 38.956 8.737 75.871 33.833 91.268 70.641 15.397 36.995 4.638 85.329-29.309 106.521l-828.09-2.788z" fill="url(#paint0_linear)" opacity=".34"/><path opacity=".34" d="M125.215 469.397c-18.921-19.147-27.455-48.148-22.075-74.545 5.38-26.398 24.487-49.636 49.159-60.046 10.759-4.462 22.446-6.692 32.834-11.526 36.73-17.289 50.457-61.347 71.419-96.296 30.237-50.751 84.033-88.117 142.652-93.879 58.62-5.763 120.763 22.493 151.186 73.244 16.324 27.327 23.745 60.046 43.408 85.142 13.727 17.661 33.391 30.488 54.909 36.437 18.922 5.205 38.956 4.833 58.248 9.109 29.681 6.506 57.692 25.654 69.379 53.725 11.687 28.071 3.524 64.693-22.261 80.866l-628.858-2.231z" fill="#DDD6FE"/><path opacity=".57" d="M654.272 468.839l-112.23-17.66c-9.831-1.488-16.695-10.968-15.025-20.821l17.066-108.752c1.484-9.852 10.945-16.73 20.776-15.057l112.23 17.66c9.832 1.487 16.696 10.968 15.026 20.821l-17.066 108.751c-1.67 9.853-10.945 16.731-20.777 15.058z" fill="#EDE40B"/><path opacity=".57" d="M648.151 457.685l-96.833-15.244c-8.533-1.301-14.47-9.481-12.986-18.032l14.655-93.694c1.299-8.551 9.461-14.5 17.994-13.013l96.833 15.244c8.533 1.301 14.469 9.481 12.985 18.032l-14.654 93.694c-1.484 8.551-9.461 14.314-17.994 13.013z" fill="#E4DC10"/><path opacity=".33" d="M561.891 454.711c-.371 0-.742-.372-.556-.93l22.631-144.258c0-.372.371-.744.928-.558.371 0 .742.372.556.93l-22.631 144.258a1.021 1.021 0 01-.928.558zM599.734 460.66c-.371 0-.742-.372-.556-.93l22.631-144.258c0-.372.371-.744.928-.558.371 0 .742.372.556.93l-22.631 144.258a1.021 1.021 0 01-.928.558zM637.577 466.608c-.371 0-.742-.371-.557-.929l22.632-144.258c0-.372.371-.744.927-.558.371 0 .742.372.557.929l-22.632 144.259a1.02 1.02 0 01-.927.557z" fill="#6455BC"/><path opacity=".33" d="M685.993 375.889l-145.064-22.866c-.371 0-.742-.371-.556-.929 0-.372.371-.744.927-.558l145.064 22.866c.371 0 .742.372.557.929 0 .372-.371.744-.928.558zM678.202 426.082l-145.064-22.865c-.371 0-.742-.372-.556-.93 0-.371.371-.743.927-.557l145.064 22.865c.371 0 .742.372.557.93-.186.372-.557.743-.928.557z" fill="#6455BC"/><path d="M580.998 357.857c-.371 2.045-2.226 3.346-4.267 2.974-2.04-.372-3.339-2.231-2.968-4.275.371-2.045 2.226-3.347 4.267-2.975 1.855.558 3.154 2.417 2.968 4.276zM656.869 369.941c-.371 2.044-2.226 3.346-4.266 2.974-2.041-.372-3.339-2.231-2.968-4.276s2.226-3.346 4.266-2.974c1.855.372 3.339 2.231 2.968 4.276zM573.207 408.236c-.371 2.045-2.226 3.346-4.266 2.974-2.041-.371-3.34-2.23-2.969-4.275.371-2.045 2.226-3.347 4.267-2.975 1.855.372 3.339 2.231 2.968 4.276zM648.893 420.133c-.371 2.045-2.226 3.346-4.267 2.975-2.04-.372-3.339-2.231-2.968-4.276s2.226-3.346 4.267-2.975c1.855.372 3.153 2.417 2.968 4.276z" fill="#6455BC"/><g opacity=".44"><path opacity=".44" d="M248.761 351.351s40.625-55.398 122.432-44.058c0 0 53.425 71.757 51.756 120.277 0 0-65.112 44.244-120.763 41.641-.186 0-40.254-18.59-53.425-117.86z" fill="#6455BC"/><path opacity=".53" d="M261.56 351.35s36.174-49.263 109.262-39.224c0 0 47.675 63.949 46.005 107.264 0 0-58.063 39.411-107.778 37.18 0 0-35.616-16.545-47.489-105.22z" fill="#DDD6FE"/><path opacity=".44" d="M344.905 388.737c5.248-.918 8.731-6.09 7.779-11.552-.952-5.461-5.977-9.144-11.225-8.226-5.249.918-8.732 6.09-7.78 11.552.952 5.461 5.977 9.144 11.226 8.226z" fill="#6455BC"/></g><path d="M288.913 385.3l-2.003 3.537 7.085 4.102 2.003-3.537-7.085-4.102z" fill="#3D1526"/><path fill-rule="evenodd" clip-rule="evenodd" d="M286.559 381.038l8.064 2.242c.201.102.403.204.504.306l5.947 5.808c.504.51.504 1.223 0 1.733-.303.305-.807.407-1.21.305l-8.063-2.241c-.202-.102-.404-.204-.504-.306l-5.847-5.809c-.503-.509-.503-1.223 0-1.732a1.13 1.13 0 011.109-.306z" fill="#3D1526"/><path d="M243.822 429.238c0 2.14 1.311 4.28 3.125 5.911 1.915 1.732 4.435 2.955 6.753 2.955a8.13 8.13 0 003.125-.612c1.008-.407 1.915-1.019 2.62-1.834l1.613 1.529c-.907 1.019-2.117 1.732-3.326 2.344-1.21.509-2.52.815-3.931.815-2.822 0-5.947-1.427-8.165-3.567-2.217-2.038-3.83-4.789-3.83-7.541h2.016z" fill="#3D1526"/><path d="M235.053 409.368c-.202-.612.202-1.223.706-1.325.604-.204 1.209.204 1.31.713l7.358 26.393c.202.612-.202 1.223-.706 1.325-.604.204-1.209-.204-1.31-.713l-7.358-26.393z" fill="#3D1526"/><path fill-rule="evenodd" clip-rule="evenodd" d="M263.88 430.156c2.823 0 5.04 2.344 5.04 5.095 0 2.853-2.318 5.095-5.04 5.095-2.822 0-5.039-2.344-5.039-5.095s2.217-5.095 5.039-5.095zM290.994 430.156c2.822 0 5.04 2.344 5.04 5.095 0 2.853-2.318 5.095-5.04 5.095-2.822 0-5.04-2.344-5.04-5.095s2.319-5.095 5.04-5.095z" fill="#3D1526"/><path fill-rule="evenodd" clip-rule="evenodd" d="M277.488 450.027c-3.629 0-7.761-1.529-9.374-4.993l-2.621-6.319c-1.109-2.241-1.915-4.585-2.923-6.827-.403-1.019-.806-2.038-.705-3.057.1-.815.504-1.427 1.108-1.936 1.008-.917 2.823-1.733 4.032-2.446.504.713 1.008 1.325 1.512 1.936 2.217 2.955 5.443 4.178 9.072 4.28 3.527-.102 6.753-1.325 9.071-4.28.504-.713 1.008-1.325 1.512-1.936 1.31.713 3.024 1.529 4.032 2.446.605.509 1.008 1.121 1.109 1.936.1 1.121-.303 2.14-.706 3.057-1.008 2.242-1.915 4.586-2.923 6.827l-2.621 6.319c-1.814 3.566-5.947 5.095-9.575 4.993z" fill="#2B74E2"/><path fill-rule="evenodd" clip-rule="evenodd" d="M277.588 459.504c-4.535 0-8.164.816-8.164 1.835 0 1.019 3.629 1.834 8.164 1.834 4.536 0 8.165-.815 8.165-1.834 0-1.019-3.629-1.835-8.165-1.835z" fill="#3D1526"/><path fill-rule="evenodd" clip-rule="evenodd" d="M286.861 434.844c-.503 5.4-2.62 10.292-5.846 14.266.202-.102.504-.204.706-.306 1.713-.815 3.125-2.038 3.931-3.668l3.629-7.745v-.102c.705-1.426 1.411-2.853 2.015-4.28a33.852 33.852 0 01-4.435 1.835z" fill="#1C65D2"/><path d="M272.146 447.785c1.612.815 3.527 1.223 5.241 1.223 1.814 0 3.629-.408 5.241-1.223 1.311-.713 2.52-1.732 3.125-3.159l2.621-6.318c.705-1.528 1.31-3.057 2.015-4.585.303-.816.706-1.631.908-2.242.201-.51.403-.917.504-1.325.1-.408.201-.815.1-1.121 0-.204-.1-.51-.201-.713-.101-.204-.303-.408-.504-.612-.706-.713-2.016-1.325-3.024-1.936-.302.408-.706.815-1.008 1.223a12.52 12.52 0 01-4.233 3.465c-1.714.815-3.629 1.222-5.645 1.222h.101c-2.016-.101-3.931-.407-5.645-1.222-1.612-.714-3.023-1.835-4.233-3.465-.302-.408-.605-.815-1.008-1.223-1.109.611-2.318 1.223-3.024 1.936-.201.204-.403.408-.504.612-.1.203-.201.407-.201.713-.101.408 0 .815.101 1.121.1.408.302.917.503 1.325.303.713.605 1.426.908 2.242.604 1.528 1.31 3.057 1.915 4.585l2.62 6.318a9.02 9.02 0 003.327 3.159zm5.342 3.363c-2.117 0-4.334-.408-6.35-1.528-1.714-.918-3.226-2.344-4.133-4.179l-2.621-6.318c-.705-1.528-1.411-3.057-2.015-4.585a51.406 51.406 0 01-.908-2.242c-.201-.51-.403-1.019-.604-1.631-.202-.611-.303-1.324-.202-2.038.101-.509.202-1.019.504-1.426.202-.408.605-.816 1.008-1.223.907-.815 2.318-1.631 3.528-2.242.101-.102.302-.204.705-.408l.807-.407.604.713c.504.611 1.008 1.223 1.512 1.936.908 1.223 2.117 2.14 3.427 2.752 1.412.713 3.024 1.019 4.738 1.019 1.713 0 3.326-.408 4.737-1.019 1.31-.612 2.419-1.529 3.427-2.752.504-.713 1.008-1.324 1.512-2.038l.605-.713.806.407c.403.204.504.306.706.408 1.209.611 2.62 1.427 3.528 2.242.403.306.705.713 1.008 1.223.201.407.403.917.503 1.426.101.714 0 1.427-.201 2.039a28.63 28.63 0 01-.605 1.63c-.403.815-.605 1.529-.907 2.242a93.54 93.54 0 01-2.016 4.687l-2.621 6.217a9.17 9.17 0 01-4.132 4.178c-2.016 1.222-4.234 1.63-6.35 1.63z" fill="#3D1526"/><path fill-rule="evenodd" clip-rule="evenodd" d="M261.562 431.786c-2.923-1.426-7.459-9.375-8.366-12.738-5.241-18.648 9.475-31.59 24.292-31.895 14.817.305 29.432 13.247 24.291 31.895-.907 3.363-5.443 11.312-8.366 12.738-7.761 3.771-24.19 3.771-31.851 0z" fill="#2B74E2"/><path fill-rule="evenodd" clip-rule="evenodd" d="M277.488 424.042c-4.838-.102-12.499-.714-14.918-3.771-2.419-3.261-3.024-8.356-1.613-11.923 2.722-6.725 30.239-6.725 32.96 0 1.512 3.669.907 8.764-1.612 11.923-2.319 3.057-9.979 3.669-14.817 3.771z" fill="#fff"/><path fill-rule="evenodd" clip-rule="evenodd" d="M277.488 424.042c-4.838-.102-12.499-.714-14.918-3.771-2.419-3.261-3.024-8.356-1.613-11.923.202-.407.404-.815.807-1.223-.907 3.567-.303 8.051 1.713 11.006 2.218 3.159 9.273 3.771 13.708 3.771 4.435-.102 11.592-.714 13.708-3.771 2.117-3.057 2.722-7.948 1.613-11.515.605.509 1.109 1.121 1.31 1.732 1.512 3.669.908 8.764-1.612 11.923-2.218 3.057-9.878 3.669-14.716 3.771z" fill="#E6E6E6"/><path fill-rule="evenodd" clip-rule="evenodd" d="M261.562 420.271c-1.411-3.159-2.621-7.337-2.016-10.19.605-3.261 1.915-5.503 6.35-6.624 8.265-2.242 12.801-.815 19.051-.917-1.613-5.707-5.746-7.745-9.475-8.356-11.592-2.14-25.4 13.451-13.91 26.087z" fill="#3C84F0"/><path d="M269.323 422.207c2.722.51 5.846.714 8.165.714 2.318 0 5.443-.204 8.164-.714 2.621-.509 4.838-1.325 5.846-2.649 1.109-1.427 1.814-3.363 2.016-5.197.302-1.937.101-3.975-.605-5.605-.403-.917-1.512-1.834-3.225-2.446-3.125-1.223-7.661-1.936-12.297-1.936-4.637 0-9.172.611-12.297 1.936-1.613.714-2.822 1.529-3.226 2.446-.705 1.63-.907 3.668-.604 5.605.302 1.936.907 3.77 2.016 5.197 1.108 1.324 3.427 2.14 6.047 2.649zm8.064 2.854c-2.52 0-5.645-.204-8.568-.816-3.024-.611-5.846-1.63-7.156-3.464-1.31-1.733-2.117-3.975-2.419-6.318-.303-2.344-.101-4.688.705-6.726.605-1.529 2.218-2.752 4.435-3.669 3.327-1.426 8.266-2.038 13.104-2.038 4.838 0 9.777.714 13.103 2.038 2.217.917 3.729 2.14 4.435 3.669.806 2.038 1.008 4.382.706 6.726-.303 2.343-1.109 4.585-2.42 6.318-1.411 1.834-4.132 2.853-7.156 3.464-3.024.612-6.249.816-8.769.816zM293.816 434.945c1.613.815 2.923 2.14 3.931 3.669.907 1.528 1.411 3.261 1.411 5.197 0 .815-.1 1.732-.302 2.547a9.416 9.416 0 01-.907 2.344l-1.915-1.121c.302-.611.605-1.223.705-1.834.202-.612.202-1.223.202-1.936 0-1.427-.403-2.854-1.109-3.975a7.438 7.438 0 00-3.024-2.853l1.008-2.038z" fill="#3D1526"/><path d="M294.724 449.314c.1.611-.202 1.223-.807 1.324-.605.102-1.209-.203-1.31-.815-.202-.917-.101-1.834.403-2.649.504-.816 1.21-1.325 2.117-1.631.907-.204 1.814-.102 2.62.408.706.509 1.311 1.223 1.613 2.14.202.917.101 1.834-.403 2.649-.504.816-1.21 1.325-2.117 1.631-.605.102-1.209-.204-1.31-.815-.101-.612.202-1.223.806-1.325a1.57 1.57 0 00.807-.612c.201-.305.201-.611.201-.917v-.102c-.101-.305-.302-.611-.605-.713-.302-.204-.604-.204-.907-.204h-.1c-.303.102-.605.306-.706.612-.302.305-.403.713-.302 1.019z" fill="#3D1526"/><path fill-rule="evenodd" clip-rule="evenodd" d="M293.01 431.99c-.101.102-.302.102-.403.204-.101 0-.202.102-.403.102-.101 0-.202.101-.403.101-.101 0-.202.102-.404.102-.1 0-.201.102-.403.102-.101 0-.302.102-.403.102h-.101c-.101 0-.302.102-.403.102-.101 0-.302.102-.403.102h-.101c-.101 0-.302.102-.403.102h-.101c-.101 0-.302.102-.403.102h-.101c-.101 0-.302.102-.403.102h-.101c-.101 0-.302.102-.403.102h-.101c-.101 0-.302.102-.403.102h-.101c-.101 0-.302.101-.403.101h-.101c-.101 0-.302 0-.403.102h-.101c-.101 0-.302 0-.403.102h-.101c-.101 0-.302 0-.403.102h-2.419c9.979-3.057 16.833-12.534 16.833-23.54 0-7.337-3.024-13.96-7.963-18.648.504.306 1.008.713 1.512 1.019 7.358 5.503 11.793 14.878 8.567 26.495-.907 3.363-5.442 11.311-8.366 12.738-.1 0-.201 0-.302.102z" fill="#1C65D2"/><path d="M258.034 426.385c1.411 2.14 2.822 3.873 3.931 4.484 3.629 1.834 9.475 2.65 15.422 2.65 5.846 0 11.692-.917 15.421-2.65 1.109-.509 2.621-2.344 3.931-4.484 1.815-2.649 3.327-5.808 3.831-7.642a23.216 23.216 0 001.008-6.726c.1-5.809-1.916-10.802-5.141-14.674-3.225-3.873-7.761-6.726-12.599-8.051-2.117-.611-4.335-.917-6.552-1.019-2.217 0-4.435.408-6.552 1.019-4.838 1.427-9.374 4.178-12.599 8.051-3.225 3.872-5.241 8.865-5.141 14.674 0 2.14.404 4.382 1.008 6.726.706 1.732 2.319 4.891 4.032 7.642zm3.024 6.42c-1.512-.713-3.225-2.853-4.838-5.197-1.915-2.853-3.528-6.216-4.133-8.254-.705-2.548-1.108-4.993-1.108-7.337-.101-6.318 2.015-11.821 5.644-16.101 3.528-4.28 8.366-7.337 13.708-8.764 2.318-.611 4.738-1.019 7.157-1.121 2.419 0 4.838.408 7.156 1.121 5.241 1.529 10.18 4.586 13.708 8.764 3.528 4.28 5.745 9.783 5.645 16.101 0 2.344-.404 4.789-1.109 7.337-.504 1.936-2.218 5.401-4.133 8.254-1.612 2.446-3.326 4.484-4.838 5.197-3.931 1.936-10.18 2.956-16.329 2.956-6.148 0-12.498-1.02-16.53-2.956z" fill="#3D1526"/><path d="M289.684 409.775c-.806-.815-2.016-1.325-3.226-1.325-1.31 0-2.419.51-3.225 1.325s-1.31 2.038-1.31 3.261c0 1.325.504 2.445 1.31 3.261.806.815 2.016 1.324 3.225 1.324 1.311 0 2.42-.509 3.226-1.324.806-.816 1.31-2.038 1.31-3.261 0-1.325-.504-2.446-1.31-3.261zm-3.326-3.057c1.713 0 3.326.713 4.435 1.834 1.108 1.121 1.814 2.751 1.814 4.484 0 1.732-.706 3.363-1.814 4.484a6.296 6.296 0 01-4.435 1.834 6.293 6.293 0 01-4.435-1.834c-1.109-1.121-1.815-2.752-1.815-4.484 0-1.733.706-3.363 1.815-4.484 1.209-1.121 2.721-1.834 4.435-1.834zM272.145 410.081c-.806-.815-2.016-1.325-3.225-1.325-1.31 0-2.419.51-3.226 1.325-.806.815-1.31 2.038-1.31 3.261 0 1.325.504 2.446 1.31 3.261.807.815 2.016 1.325 3.226 1.325 1.31 0 2.419-.51 3.225-1.325.807-.815 1.311-2.038 1.311-3.261.1-1.223-.504-2.344-1.311-3.261zm-3.225-2.955c1.713 0 3.326.713 4.435 1.834 1.109 1.121 1.814 2.751 1.814 4.484 0 1.732-.705 3.363-1.814 4.484a6.3 6.3 0 01-4.435 1.834 6.299 6.299 0 01-4.435-1.834c-1.109-1.121-1.814-2.752-1.814-4.484 0-1.733.705-3.363 1.814-4.484a6.294 6.294 0 014.435-1.834zM275.069 418.131c-.202-.611 0-1.223.604-1.426.605-.204 1.21 0 1.411.611.202.408.404.713.504.917 0 0 0 .102.101.102l.101-.102c.202-.204.403-.509.605-.917.302-.509.907-.815 1.411-.509.504.305.806.917.504 1.426-.403.713-.807 1.325-1.21 1.631-.504.407-1.008.611-1.512.509a1.98 1.98 0 01-1.411-.611c-.504-.306-.806-.816-1.108-1.631z" fill="#3D1526"/><path fill-rule="evenodd" clip-rule="evenodd" d="M282.931 413.036c0-.815.302-1.732 1.411-2.751 1.008-.918 3.124-1.223 4.536.305 1.31 1.325 1.209 3.567-.202 4.994-1.915 1.936-5.645.815-5.745-2.548zM271.742 413.444c0-.816-.302-1.733-1.411-2.752-1.008-.917-3.125-1.223-4.536.306-1.31 1.325-1.209 3.567.202 4.993 1.915 1.936 5.644.815 5.745-2.547z" fill="#3D1526"/><path fill-rule="evenodd" clip-rule="evenodd" d="M266.501 411.508c-.403.101-.705.611-.504 1.019.101.407.605.713 1.008.509.403-.102.706-.611.504-1.019-.101-.408-.605-.713-1.008-.509zM284.745 411.508c-.404.101-.706.611-.504 1.019.1.407.604.713 1.008.509.403-.102.705-.611.504-1.019-.101-.408-.605-.713-1.008-.509z" fill="#fff"/><path d="M275.169 414.157c-.1.407-.504.713-1.008.611-.403-.102-.705-.509-.604-1.019.302-1.019.806-1.936 1.512-2.547.705-.612 1.612-1.019 2.62-1.019s1.915.407 2.621 1.019c.705.611 1.209 1.528 1.512 2.547.101.408-.202.917-.605 1.019-.403.102-.907-.204-1.008-.611-.201-.713-.504-1.325-1.008-1.733-.403-.407-.907-.611-1.512-.611s-1.109.204-1.512.611c-.504.408-.806 1.02-1.008 1.733z" fill="#3D1526"/><path opacity=".34" d="M743.685 261.003c7.991 0 14.469-6.825 14.469-15.244s-6.478-15.243-14.469-15.243-14.469 6.824-14.469 15.243 6.478 15.244 14.469 15.244zM700.463 241.298c4.2 0 7.605-3.412 7.605-7.622 0-4.209-3.405-7.622-7.605-7.622-4.201 0-7.606 3.413-7.606 7.622 0 4.21 3.405 7.622 7.606 7.622zM122.247 256.542c7.991 0 14.469-6.825 14.469-15.244s-6.478-15.244-14.469-15.244-14.469 6.825-14.469 15.244 6.478 15.244 14.469 15.244zM138.942 210.996c4.201 0 7.606-3.412 7.606-7.622 0-4.209-3.405-7.622-7.606-7.622-4.2 0-7.605 3.413-7.605 7.622 0 4.21 3.405 7.622 7.605 7.622zM155.452 239.811c4.201 0 7.606-3.412 7.606-7.622 0-4.209-3.405-7.622-7.606-7.622-4.2 0-7.605 3.413-7.605 7.622 0 4.21 3.405 7.622 7.605 7.622z" fill="#DDD6FE"/><path d="M311.461 326.998v-35.879c0-9.109-7.42-16.731-16.695-16.731h-68.822c-9.09 0-16.696 7.436-16.696 16.731v35.507c0 9.109 7.421 16.731 16.696 16.731H320.922c-6.678-.557-9.461-16.359-9.461-16.359z" fill="#F6F6F6" stroke="#1965D7" stroke-width=".749" stroke-miterlimit="10"/><path d="M222.79 291.863h78.468c.742 0 1.484-.744 1.484-1.487 0-.744-.742-1.487-1.484-1.487H222.79c-.742 0-1.484.743-1.484 1.487 0 .929.557 1.487 1.484 1.487zM222.79 311.196h78.468c.742 0 1.484-.743 1.484-1.487 0-.743-.742-1.487-1.484-1.487H222.79c-.742 0-1.484.744-1.484 1.487 0 .93.557 1.487 1.484 1.487zM247.462 301.344h53.982c.556 0 1.113-.558 1.113-1.116v-.186c0-.557-.557-1.115-1.113-1.115h-53.982c-.556 0-1.113.558-1.113 1.115v.186c0 .558.557 1.116 1.113 1.116zM247.462 320.677h53.982c.556 0 1.113-.557 1.113-1.115v-.186c0-.558-.557-1.115-1.113-1.115h-53.982c-.556 0-1.113.557-1.113 1.115v.186c0 .558.557 1.115 1.113 1.115z" fill="#1965D7"/><path d="M564.709 188.998v-35.879c0-9.109 7.42-16.731 16.695-16.731h68.822c9.09 0 16.696 7.436 16.696 16.731v35.507c0 9.109-7.42 16.731-16.696 16.731H555.248c6.679-.557 9.461-16.359 9.461-16.359z" fill="#F6F6F6" stroke="#1965D7" stroke-width=".749" stroke-miterlimit="10"/><path d="M653.38 153.863h-78.468c-.742 0-1.484-.744-1.484-1.487 0-.744.742-1.487 1.484-1.487h78.468c.742 0 1.484.743 1.484 1.487 0 .929-.557 1.487-1.484 1.487zM653.38 173.196h-78.468c-.742 0-1.484-.743-1.484-1.487 0-.743.742-1.487 1.484-1.487h78.468c.742 0 1.484.744 1.484 1.487 0 .93-.557 1.487-1.484 1.487zM628.708 163.344h-53.982c-.556 0-1.113-.558-1.113-1.116v-.186c0-.557.557-1.115 1.113-1.115h53.982c.556 0 1.113.558 1.113 1.115v.186c0 .558-.557 1.116-1.113 1.116zM628.708 182.677h-53.982c-.556 0-1.113-.557-1.113-1.115v-.186c0-.558.557-1.115 1.113-1.115h53.982c.556 0 1.113.557 1.113 1.115v.186c0 .558-.557 1.115-1.113 1.115z" fill="#1965D7"/><path d="M708.44 376.447c7.786 0 14.098-6.658 14.098-14.872 0-8.213-6.312-14.872-14.098-14.872-7.787 0-14.099 6.659-14.099 14.872 0 8.214 6.312 14.872 14.099 14.872z" fill="#fff"/><path d="M769.285 459.173h-21.704v-98.341c3.154-4.648 4.267-10.411 3.154-15.988l4.452-2.602c2.782-1.487 3.71-5.205 2.226-7.994-1.484-2.788-5.194-3.718-7.977-2.231l-4.452 2.603c-6.307-5.949-15.953-7.622-23.93-2.974-3.154 1.859-5.751 4.461-7.42 7.436l-.186-.558-22.631 1.301 27.454 48.892 12.986-18.776-.186-.558c3.525 0 6.864-.743 10.203-2.602.185 0 .371-.186.556-.372v92.578h-24.857c-2.968 0-5.38 2.417-5.38 5.391s2.412 5.391 5.38 5.391h52.868c2.969 0 5.38-2.417 5.38-5.391-.556-2.788-2.968-5.205-5.936-5.205z" fill="#3F2F7C"/><path d="M630.899 455.826c4.266 8.552 11.501 14.129 19.848 14.129 12.986 0 23.56-13.943 23.56-31.046v-2.602h-47.118v2.045c-4.638 1.487-7.792 4.833-7.792 8.923.186 4.647 5.194 8.365 11.502 8.551zm-6.493-8.923c0-2.231.927-4.276 2.597-5.949a35.439 35.439 0 003.154 13.385c-3.339-1.487-5.566-4.276-5.751-7.436z" fill="#fff"/><path opacity=".34" d="M619.398 447.089c.185 4.833 5.194 8.551 11.501 8.551 4.266 8.552 11.501 14.129 19.849 14.129 5.565 0 10.573-2.417 14.469-6.507-2.968.186-5.936 0-8.719-.557-5.936-1.116-12.057-3.161-16.881-6.693-6.678-4.833-10.388-12.083-12.428-19.705v2.045c-4.823 1.301-7.977 4.833-7.791 8.737zm5.008-.186c0-2.231.928-4.276 2.597-5.949a35.439 35.439 0 003.154 13.385c-3.339-1.487-5.565-4.276-5.751-7.436z" fill="#DDD6FE"/><path d="M650.562 439.653c13.216 0 23.93-1.331 23.93-2.974 0-1.643-10.714-2.974-23.93-2.974s-23.93 1.331-23.93 2.974c0 1.643 10.714 2.974 23.93 2.974z" fill="#DDD6FE"/><path d="M630.528 436.679c0 1.301 8.904 2.416 20.034 2.416 11.13 0 20.034-1.115 20.034-2.416 0-1.302-8.904-2.417-20.034-2.417-11.13 0-20.034 1.115-20.034 2.417z" fill="#6455BC"/><path d="M652.788 437.051c1.113 0 2.226-.558 2.968-1.302.928-.743 1.484-1.859 1.855-2.788.371-1.116.557-2.231.371-3.346 0-1.116-.371-2.231-.742-3.347-.742-2.045-2.04-3.904-3.153-5.577s-2.041-3.346-2.783-5.205-1.298-3.532-1.298-5.391.185-3.718 1.113-5.391c.371-.744.927-1.487 1.484-2.231.556-.743 1.298-1.115 2.226-1.487.742-.372 1.669-.372 2.597.186.742.372 1.484 1.301 1.484 2.417a2.594 2.594 0 000-1.674 4.063 4.063 0 00-.928-1.487 3.582 3.582 0 00-1.669-.929 3.153 3.153 0 00-1.855 0c-2.412.372-4.267 2.045-5.565 3.904-1.299 2.045-1.855 4.275-1.855 6.692s.556 4.648 1.484 6.692c.927 2.045 2.04 3.904 3.153 5.577a39.22 39.22 0 013.339 5.02c.371.929.742 1.673 1.113 2.602.186.93.186 1.859.186 2.789-.371 1.487-1.484 3.346-3.525 4.276zM646.296 433.332c.927-.557 1.484-1.673 1.669-2.602.186-1.116.186-2.231-.185-3.346-.742-2.231-2.041-3.904-3.154-5.206-.557-.743-1.113-1.487-1.67-2.044-.556-.744-.927-1.488-1.298-2.231-.928-1.673-1.484-3.346-2.226-5.205-.557 1.859-.557 4.089 0 6.134.185.93.556 2.045 1.113 2.975.556.929 1.113 1.859 1.669 2.602 1.299 1.487 2.598 2.789 3.34 4.276.371.744.742 1.487.927 2.231.186.557.186 1.301-.185 2.416z" fill="#fff"/><path d="M668.185 444.672c0 .558.371.93.928.93.556 0 .927-.372.927-.93 0-.557-.371-.929-.927-.929-.371 0-.928.558-.928.929zM657.055 446.903c0 .558.371.93.927.93.557 0 .928-.372.928-.93s-.371-.929-.928-.929c-.556 0-.927.371-.927.929zM644.812 448.019a.928.928 0 00.927-.93.928.928 0 10-1.855 0c0 .514.415.93.928.93zM631.641 445.044c0 .558.371.93.927.93.557 0 .928-.372.928-.93s-.371-.929-.928-.929c-.556 0-.927.371-.927.929zM663.177 452.852c0 .558.371.929.927.929.557 0 .928-.371.928-.929s-.371-.93-.928-.93c-.556 0-.927.558-.927.93zM650.562 455.64c0 .558.371.93.928.93.556 0 .927-.372.927-.93 0-.557-.371-.929-.927-.929-.557 0-.928.558-.928.929zM636.649 453.224c0 .558.371.93.928.93.556 0 .927-.372.927-.93s-.371-.929-.927-.929c-.371 0-.928.371-.928.929zM657.426 462.519c0 .558.371.93.927.93.557 0 .928-.372.928-.93s-.371-.929-.928-.929c-.371 0-.927.371-.927.929zM644.255 462.89a.929.929 0 000-1.859.93.93 0 000 1.859z" fill="#6455BC"/><path d="M521.823 76.962c-2.226 2.045-4.638 3.904-6.864 5.95" stroke="#A793F7" stroke-width=".816" stroke-miterlimit="10"/><path d="M500.119 94.437c-37.658 28.071-80.88 48.706-126.514 60.231-7.977 2.045-16.324 3.718-24.487 2.231-8.162-1.673-15.953-7.25-17.622-15.43-2.227-11.154 7.42-21.006 17.251-26.397 7.977-4.462 17.809-7.622 26.156-3.904 7.235 3.346 11.502 11.34 12.8 19.333 2.412 14.872-3.153 29.744-11.13 42.571-7.977 12.642-17.994 23.981-25.971 36.623-18.921 30.301-23.93 68.783-13.727 102.988 7.606 25.468 24.858 49.078 47.86 61.719" stroke="#A793F7" stroke-width=".816" stroke-miterlimit="10" stroke-dasharray="10.09 10.09"/><path d="M393.268 378.12c2.783 1.116 5.566 2.045 8.534 2.975" stroke="#A793F7" stroke-width=".816" stroke-miterlimit="10"/><path d="M525.161 56.328s-19.292-7.25-44.335 2.788c0 0 21.333 19.334 29.681 23.61 0 0 23.559-22.866 14.654-26.398z" fill="#FF8A33"/><path d="M526.831 61.718c-3.71.93-7.606 1.86-11.316 2.231-10.202.93-19.849-1.673-28.567-6.878-1.855.558-3.896 1.301-5.936 2.045 0 0 21.333 19.334 29.68 23.61-.185 0 13.357-13.014 16.139-21.008z" fill="#F7710E"/><path d="M545.196 92.764s-6.122 19.705-29.124 33.647c0 0-2.412-28.628-.742-37.923.185.186 32.463-4.834 29.866 4.276z" fill="#FF8A33"/><path d="M534.251 87.373c-8.533-.186-18.736 1.301-18.736 1.301-1.669 9.11.742 37.924.742 37.924.742-.372 1.484-.93 2.041-1.302 5.936-12.455 7.977-26.77 15.953-37.923z" fill="#F7710E"/><path d="M564.117 82.54c-26.156 14.871-52.126 18.589-58.062 8.365-5.937-10.225 10.759-30.674 37.1-45.546 26.156-14.872 58.063-8.365 58.063-8.365s-10.945 30.86-37.101 45.545z" fill="#EDE40B"/><path opacity=".38" d="M599.363 41.27c-10.574 13.012-24.301 23.237-39.141 30.487-8.348 4.09-17.438 6.692-26.713 7.994-7.42 1.115-16.51 1.487-23.002-2.789a4.384 4.384 0 01-1.67-1.487c-3.71 5.949-4.637 11.34-2.411 15.43 5.75 10.224 31.721 6.506 58.062-8.366 19.849-11.34 30.979-32.346 34.875-41.27z" fill="#E25F97"/><path d="M590.459 57.443c7.42-10.782 10.759-20.263 10.759-20.263s-9.832-2.045-22.817-1.302c5.565 6.135 9.646 13.571 12.058 21.565zM570.054 69.712c-6.122 3.532-13.913 1.3-17.252-4.834-3.525-6.135-1.299-13.942 4.823-17.288 6.121-3.533 13.913-1.302 17.252 4.833 3.524 5.949 1.298 13.757-4.823 17.289z" fill="#FF8A33"/><path d="M568.604 66.948c4.654-2.6 6.324-8.487 3.731-13.15-2.594-4.664-8.469-6.337-13.122-3.738-4.654 2.598-6.324 8.486-3.73 13.15 2.593 4.663 8.468 6.336 13.121 3.738z" fill="#fff"/><path d="M520.895 78.635l2.968 5.577-30.794 14.5 27.826-20.077z" fill="#FF8A33"/><path d="M285.305 210.625h-94.236c-10.017 0-18.179-8.18-18.179-18.218v-52.424c0-10.039 8.162-18.218 18.179-18.218h94.236c10.017 0 18.179 8.179 18.179 18.218v52.424c0 10.038-8.162 18.218-18.179 18.218z" stroke="#9ABCFF" stroke-width=".749" stroke-miterlimit="10"/><path d="M302.929 135.335c-2.041-7.808-9.09-13.571-17.438-13.571H191.07c-8.348 0-15.397 5.763-17.438 13.571h129.297zM174.93 200.586c2.968 5.949 9.09 10.224 16.325 10.224h94.235a18.17 18.17 0 0016.325-10.224H174.93zM282.307 183.546c9.345-9.365 9.345-24.549 0-33.914-9.345-9.365-24.497-9.365-33.842 0-9.345 9.365-9.345 24.549 0 33.914 9.345 9.365 24.497 9.365 33.842 0z" fill="#9ABCFF"/><path d="M275.844 145.188l-10.388 22.866 22.817-8.551c0 .185-2.782-11.34-12.429-14.315z" fill="#518CFF"/><path d="M226.686 150.951h-41.553c-.742 0-1.484-.744-1.484-1.487 0-.744.742-1.487 1.484-1.487h41.553c.742 0 1.484.743 1.484 1.487 0 .743-.742 1.487-1.484 1.487zM226.686 157.085h-41.553c-.742 0-1.484-.743-1.484-1.487 0-.744.742-1.487 1.484-1.487h41.553c.742 0 1.484.743 1.484 1.487 0 .744-.742 1.487-1.484 1.487z" fill="#9ABCFF"/><path d="M207.393 262.49l-6.678-4.647-7.605 2.974 2.226-7.808-5.009-6.134 7.977-.372 4.452-6.878 2.782 7.621 7.792 2.045-6.308 5.02.371 8.179zM439.459 101.315l-6.122-.186-3.896 5.02-1.669-6.135-5.751-2.045 5.194-3.346v-6.32l5.009 3.903 5.936-1.859-2.226 5.949 3.525 5.019zM625.519 267.138l-5.75-5.763-7.977 1.673 3.524-7.25-3.895-7.064 7.977 1.115 5.565-5.949 1.298 7.994 7.42 3.346-7.234 3.718-.928 8.18zM510.321 23.238l-5.751-5.578-7.976 1.674 3.524-7.436-4.081-7.065 8.162 1.116L509.579 0l1.484 7.994 7.42 3.346-7.235 3.904-.927 7.994z" fill="#2B74E2"/><path d="M217.782 451.365c-1.113-3.904-2.783-7.622-4.452-11.154l9.831-9.109-12.243-13.385-7.791 7.25c-3.525-4.089-7.42-7.622-11.687-10.968l6.307-12.455-16.324-8.366-5.936 11.712c-5.38-2.231-11.13-3.904-17.067-4.833v-13.199h-18.179v12.641a73.423 73.423 0 00-17.066 3.718l-5.38-10.41-16.324 8.365 5.194 10.039c-4.638 3.16-9.09 6.692-12.985 10.782l-7.606-6.878-12.243 13.384 8.904 8.18c-2.597 4.648-4.823 9.481-6.307 14.686H64.37v18.218H93.494c1.484-28.442 24.858-51.122 53.611-51.122 28.753 0 52.126 22.68 53.61 51.122H231.324v-18.218h-13.542z" fill="#2100A6"/><path d="M178.269 461.218c-.556-1.859-1.298-3.532-2.04-5.205l4.637-4.276-5.75-6.321-3.71 3.347c-1.67-1.859-3.525-3.533-5.38-5.02l2.968-5.763-7.606-3.904-2.782 5.392c-2.597-1.116-5.194-1.859-7.977-2.231v-6.135h-8.533v5.949c-2.783.186-5.38.929-7.977 1.673l-2.411-4.833-7.606 3.903 2.412 4.648a40.047 40.047 0 00-6.122 5.019l-3.525-3.16-5.75 6.321 4.081 3.903c-1.299 2.231-2.226 4.462-2.968 6.879h-5.565v8.551h13.541c.742-13.199 11.502-23.795 24.858-23.795s24.301 10.596 24.858 23.795h14.098v-8.551h-5.751v-.186z" fill="#2100A6"/><path d="M813.249 428.685h-13.171v41.084h13.171v-41.084zM837.179 411.582h-13.356v58.187h13.356v-58.187zM860.553 398.384h-13.171v71.385h13.171v-71.385zM884.297 380.723h-13.356v89.046h13.356v-89.046z" fill="#1965D7"/><path d="M883.741 345.96a125.643 125.643 0 00-12.244 6.134c-2.04 1.116-3.895 2.417-5.936 3.532-1.855 1.302-3.895 2.603-5.75 4.09 2.411-.372 4.637-.929 6.863-1.487 2.226-.558 4.452-1.301 6.678-2.045 2.041-.744 4.081-1.487 5.936-2.231-5.565 5.949-11.315 11.526-17.437 16.731-3.71 2.975-7.049 6.135-10.945 8.738-3.71 2.974-7.42 5.577-11.315 8.365-3.896 2.603-7.792 5.391-11.687 7.808-1.855 1.301-3.896 2.602-5.936 3.718-2.041 1.301-3.896 2.602-5.936 3.718-7.977 4.833-16.139 9.667-24.487 14.314 9.09-2.788 17.809-6.506 26.342-10.782 2.226-1.115 4.266-2.231 6.307-3.346 2.04-1.116 4.081-2.231 6.307-3.532 4.081-2.417 8.162-5.02 12.058-7.808 3.895-2.789 7.791-5.577 11.315-8.737 1.855-1.488 3.711-2.975 5.38-4.648 1.855-1.673 3.525-3.16 5.194-5.019 5.565-5.577 10.574-11.712 14.84-18.404-.371 1.487-.927 3.16-1.298 4.833-.557 2.231-1.113 4.276-1.484 6.507-.371 2.23-.742 4.461-.928 6.692a100.14 100.14 0 003.71-5.763c1.114-2.045 2.041-3.904 3.154-5.949 1.855-4.089 3.71-8.179 5.194-12.269l2.412-6.693-6.307 3.533z" fill="#F6710E"/><path d="M0 470.327h970" stroke="#1E154A" stroke-width=".795" stroke-miterlimit="10"/><path d="M386.59 456.384L268.61 122.322h392.526L559.48 458.987l-172.89-2.603z" fill="url(#paint1_linear)"/><path d="M540.373 239.997c-8.533-3.161-13.727-20.821-21.704-58.001-7.791-36.808-43.779-31.789-45.077-31.603-1.113-.186-37.101-5.019-45.078 31.603-7.977 37.366-13.171 55.026-21.704 58.001-8.533 3.16-18.179 26.398 8.533 42.571 12.244 7.436 35.061 11.711 57.136 11.897h1.855c22.26 0 44.892-4.461 57.135-11.897 27.269-15.988 17.623-39.411 8.904-42.571z" fill="#17203A"/><path opacity=".43" d="M508.095 239.997c-15.396-23.052-12.428-50.193-13.17-76.591-10.203-4.833-23.745-3.718-34.69-2.974 1.856 11.897 2.041 23.981 1.113 35.878-1.298 15.988-4.823 33.834-15.582 46.289-6.307 7.436-15.026 10.411-23.373 14.501-6.307 3.16-10.945 8.551-14.284 14.872-.557 1.115-1.113 2.23-1.67 3.532 2.412 2.416 5.38 4.833 9.09 7.064 12.243 7.436 35.06 11.712 57.135 11.898h1.855c22.075 0 44.521-4.462 56.95-11.712.556-4.276-.186-8.737-2.412-13.757-5.008-10.968-14.283-19.147-20.962-29z" fill="#17203A"/><path d="M457.082 240.74s.185 21.193-3.896 24.353c0 0 7.606 10.411 23.93 9.667 0 0 12.614-1.115 16.139-5.763 0 0-1.299-25.468-1.113-31.045 0 0-30.423-7.808-35.06 2.788z" fill="#FFBEA4"/><path opacity=".47" d="M456.525 253.01c7.05 5.205 14.841 7.994 24.116 5.577 4.452-1.116 8.348-3.346 12.058-5.949-.186-6.135-.371-12.269-.371-14.686 0 0-30.423-7.808-35.061 2.788-.185 0-.185 6.135-.742 12.27z" fill="#FFBEA4"/><path d="M530.541 279.036c-.742-2.788-30.793-12.827-37.101-14.872-6.678 4.833-14.654 7.064-23.373 6.135-6.493-.558-13.171-3.161-17.252-8.18h-.371s-39.883 12.827-40.625 15.988c-.742 3.16 22.26 67.109 20.776 83.84-1.669 16.731-13.542 31.232-11.13 39.225 0 0 19.663 2.975 38.214 4.09v.744c19.107 2.416 61.402-3.904 61.402-3.904 2.411-7.994-9.647-22.308-11.131-39.225-1.855-16.731 21.333-80.681 20.591-83.841z" fill="#2B74E2"/><path d="M520.895 312.126c-8.162 6.692-17.994 11.898-27.083 15.43-16.881 6.506-40.069 5.391-55.837-3.718-7.42-4.276-13.356-10.411-18.179-17.289 6.121 20.449 13.541 45.917 12.614 55.584-1.67 16.731-13.542 31.231-11.13 39.225 0 0 19.663 2.974 38.213 4.09v.743c19.107 2.417 61.402-3.904 61.402-3.904 2.412-7.993-9.646-22.307-11.13-39.224-.928-9.109 5.38-31.603 11.13-50.937z" fill="#2B74E2"/><path d="M455.783 260.817l-3.339 1.302s7.606 17.66 22.075 23.795c0 0 17.994-9.667 20.962-21.75l-2.411-1.859c-.186.185-16.325 10.41-37.287-1.488z" fill="#fff"/><path d="M413.489 277.032s-59.732 73.617-51.756 89.046c8.162 15.616 51.57 37.738 62.701 37.738l15.582-11.154s-41.367-34.02-39.883-40.712c1.484-6.692 33.947-43.686 33.947-43.686s-8.719-39.039-20.591-31.232z" fill="#2B74E2"/><path d="M399.947 351.723c1.298-5.949 26.712-35.321 32.648-42.2-17.066 8.552-31.535 22.494-39.512 39.969-6.122 13.756-6.678 27.699-2.226 40.34 13.542 7.808 27.64 13.571 33.391 13.571l15.582-11.154c0 .186-41.367-33.834-39.883-40.526z" fill="#1664D9"/><path d="M436.12 427.198s-95.164-77.706-111.488-50.193c-16.324 27.327 30.979 76.962 100.358 86.443l11.13-36.25z" fill="#283764"/><path d="M531.84 279.077s59.733 73.616 51.756 89.046c-8.162 15.616-51.57 37.738-62.7 37.738l-15.583-11.154s41.368-34.02 39.884-40.712c-1.484-6.693-33.947-43.687-33.947-43.687s8.718-38.853 20.59-31.231z" fill="#2B74E2"/><path d="M572.28 373.659c-9.832-17.66-22.261-32.904-38.4-44.802a596.082 596.082 0 01-17.066-13.199l-2.783-2.231c7.792 9.11 30.052 34.95 31.165 40.527 1.484 6.692-39.883 40.712-39.883 40.712l15.582 11.154c9.09 0 40.069-15.058 55.466-29.001-1.855-.557-3.154-1.487-4.081-3.16z" fill="#1664D9"/><path d="M511.805 427.198s95.164-77.706 111.488-50.193c16.325 27.327-30.979 76.962-100.357 86.443l-11.131-36.25z" fill="#283764"/><path d="M509.95 191.477c-1.484-18.404-17.252-32.904-36.729-32.904-20.22 0-36.73 15.801-36.73 35.32 0 2.975.371 5.763 1.113 8.366 1.669 14.686 8.718 45.174 38.77 50.937 0 0 36.544-5.763 33.576-61.719z" fill="#FFBEA4"/><path d="M453.557 176.605s27.084 16.731 45.263 18.776c18.18 2.045 9.832 13.756 10.76 15.244.927 1.487 10.388-21.193-4.453-43.315-14.84-22.122-46.747-15.244-59.546 0 0-.186 3.524 5.763 7.976 9.295z" fill="#17203A"/><path d="M456.896 176.047s-21.704 13.385-18.736 40.898c0 0-18.179-35.507 11.316-54.282.186 0 15.397 1.487 7.42 13.384z" fill="#17203A"/><path d="M443.169 215.272c1.855 5.02 1.299 9.853-1.484 10.968-2.783 1.116-6.493-2.045-8.348-7.064-1.855-5.019-1.298-9.853 1.484-10.968 2.597-1.115 6.308 2.045 8.348 7.064zM517.741 218.061c-1.298 5.205-4.637 8.737-7.42 7.993-2.782-.743-4.081-5.577-2.782-10.596 1.298-5.205 4.637-8.737 7.42-7.994 2.782.744 4.081 5.391 2.782 10.597z" fill="#FFBEA4"/><path d="M465.244 215.086s-7.977 5.206-15.397-3.718h-2.783l2.783 1.116c0 .186 7.977 10.968 15.397 2.602zM466.913 207.836s-5.75-6.692-18.921-2.788c0 0 12.243-.744 16.324 2.788 0 0 2.597 2.231 2.597 0zM484.907 216.016s7.977 5.205 15.397-3.718h2.783l-2.783 1.115c.186 0-7.976 10.968-15.397 2.603zM483.238 208.766s5.75-6.693 18.921-2.789c0 0-12.243-.743-16.324 2.789 0 0-2.597 2.23-2.597 0z" fill="#3F2F7C"/><g opacity=".82" fill="#3F2F7C"><path opacity=".82" d="M472.293 226.054s4.081 4.276 6.493.558c0-.186-2.597 4.833-6.493-.558zM470.438 224.567s-2.04 2.045.742 3.347c0-.186-1.298-1.674-.742-3.347zM480.826 224.567s2.041 2.045-.742 3.347c0 0 1.113-1.488.742-3.347z"/></g><path d="M455.412 176.977s-17.623 27.885-9.275 48.148c0 0-1.67 3.718-2.968 2.045-1.299-1.859-8.348-19.706-7.049-29.373 1.113-9.666 10.945-25.096 19.292-20.82zM506.426 196.868s.742 27.699-1.484 36.437c0 0 .927 2.23 2.597.743 1.669-1.487 6.493-30.116 5.009-35.507-1.67-5.577-4.824-3.904-6.122-1.673z" fill="#17203A"/><path d="M451.888 263.234s10.388 18.032 22.446 22.68c0 0 15.953-8.737 20.961-21.75 0 0 2.783-.558 2.597 1.301-.185 1.859-9.831 19.333-23.558 23.981 0 0-11.316-2.417-26.899-25.84.186.186 3.525-2.231 4.453-.372z" fill="#74D3C5"/><path d="M451.888 263.234s10.388 18.032 22.446 22.68c0 0 15.953-8.737 20.961-21.75 0 0 2.783-.558 2.597 1.301-.185 1.859-9.831 19.333-23.558 23.981 0 0-11.316-2.417-26.899-25.84.186.186 3.525-2.231 4.453-.372z" fill="#2B74E2"/><path d="M467.47 232.933s1.855 2.974 4.638 1.673c2.968-1.116 6.121-1.859 9.646.929 0 0 2.411-.929 3.339-1.673 0 0-1.67 7.25-8.533 7.808-6.493.558-9.09-8.737-9.09-8.737z" fill="#DE312D"/><path d="M472.664 236.279s5.936.372 7.791.186c0 0-.185 2.602-3.895 2.416-3.71 0-3.896-2.602-3.896-2.602z" fill="#fff"/><path opacity=".49" d="M492.884 197.24c-7.235 0-12.985 6.878-12.985 15.244v1.673c-3.525-3.532-7.977-1.116-9.275-.186v-1.487c0-8.552-5.751-15.244-12.986-15.244-7.234 0-12.985 6.878-12.985 15.244 0 8.551 5.751 15.244 12.985 15.244 6.307 0 11.687-5.392 12.8-12.456 4.823-3.346 8.348-1.115 9.461-.372 1.113 7.251 6.307 12.642 12.799 12.642 7.235 0 12.986-6.879 12.986-15.244.185-8.18-5.565-15.058-12.8-15.058zm-35.06 29.558c-6.678 0-12.058-6.321-12.058-14.314 0-7.994 5.38-14.315 12.058-14.315s12.057 6.321 12.057 14.315c0 7.993-5.379 14.314-12.057 14.314zm35.06 0c-6.678 0-12.058-6.321-12.058-14.314 0-7.994 5.38-14.315 12.058-14.315s12.058 6.321 12.058 14.315c0 7.993-5.38 14.314-12.058 14.314z" fill="#3F2F7C"/><path d="M355.054 397.64s29.681 13.942 36.545 25.654M582.111 398.755s-27.64 14.872-34.503 27.699" stroke="#3F2F7C" stroke-width=".816" stroke-miterlimit="10"/><path d="M558.923 350.979H385.477V459.73h173.446V350.979z" fill="#17203A"/><path opacity=".36" d="M542.785 350.979c-2.597 29-13.728 56.885-37.472 75.475-17.994 13.943-40.069 20.078-62.7 19.52-19.293-.372-38.214-4.276-57.136-6.321v20.077h173.446V350.979h-16.138z" fill="#26355F"/><path d="M476.931 405.448c0 3.903-2.968 7.064-6.493 7.064-3.71 0-6.493-3.161-6.493-7.064 0-3.904 2.968-7.065 6.493-7.065 3.525 0 6.493 3.161 6.493 7.065z" fill="#DDD6FE"/><path d="M561.521 470.884H385.106c-3.339 0-5.936-2.602-5.936-5.948 0-3.347 2.597-5.949 5.936-5.949h176.415c3.339 0 5.936 2.602 5.936 5.949 0 3.16-2.783 5.948-5.936 5.948z" fill="#26355F"/><defs><linearGradient id="paint0_linear" x1="148.783" y1="-22.232" x2="323.93" y2="573.357" gradientUnits="userSpaceOnUse"><stop stop-color="#249BFF"/><stop offset="1" stop-color="#249BFF" stop-opacity="0"/></linearGradient><linearGradient id="paint1_linear" x1="464.842" y1="459.002" x2="464.842" y2="122.323" gradientUnits="userSpaceOnUse"><stop stop-color="#fff"/><stop offset=".089" stop-color="#fff" stop-opacity=".911"/><stop offset="1" stop-color="#fff" stop-opacity="0"/></linearGradient></defs></svg>