<svg width="20" height="20" fill="none" xmlns="http://www.w3.org/2000/svg"><path d="M19.2 14.635v-3.902c0-2.155-1.91-3.902-4.266-3.902h-1.6c-3.24 0-5.866 2.402-5.866 5.365v6.34L19.2 20v-1.951c-3.534 0-6.399-2.62-6.399-5.853 0-.808.716-1.463 1.6-1.463.883 0 1.6.655 1.6 1.463v1.463l3.2.976z" fill="url(#paint0_linear)"/><path d="M1.788 6.099C-.038 8.992-.42 12.284.436 15.279L4.5 14.056a7.637 7.637 0 01-.23-2.092l1.598.243v-.01c0-.497.059-.98.17-1.448l-1.581-.24A7.861 7.861 0 015.483 8.05c1.725-2.733 4.895-4.228 8.118-4.144v1.461h1.333c.09 0 .178.002.267.006V4.08a9.585 9.585 0 012.666.935L20 1.635C13.623-1.731 5.47.268 1.788 6.1z" fill="url(#paint1_linear)"/><defs><linearGradient id="paint0_linear" x1="7.468" y1="20" x2="19.944" y2="19.253" gradientUnits="userSpaceOnUse"><stop stop-color="#2B74E2"/><stop offset="1" stop-color="#5A9CFF"/></linearGradient><linearGradient id="paint1_linear" x1="0" y1="15.28" x2="21.18" y2="13.416" gradientUnits="userSpaceOnUse"><stop stop-color="#2B74E2"/><stop offset="1" stop-color="#5A9CFF"/></linearGradient></defs></svg>