<svg width="37" height="37" fill="none" xmlns="http://www.w3.org/2000/svg"><circle cx="18.5" cy="18.5" r="18.5" fill="url(#paint0_linear)"/><path d="M22.308 10h-7.617A4.697 4.697 0 0010 14.691v7.617A4.697 4.697 0 0014.691 27h7.617A4.697 4.697 0 0027 22.308v-7.617A4.697 4.697 0 0022.308 10zm3.184 12.308a3.187 3.187 0 01-3.184 3.184h-7.617a3.187 3.187 0 01-3.183-3.184v-7.617a3.187 3.187 0 013.183-3.183h7.617a3.187 3.187 0 013.184 3.183v7.617z" fill="#fff"/><path d="M18.5 14.12a4.385 4.385 0 00-4.38 4.38 4.385 4.385 0 004.38 4.38 4.385 4.385 0 004.38-4.38 4.385 4.385 0 00-4.38-4.38zm0 7.251a2.875 2.875 0 01-2.872-2.871 2.875 2.875 0 012.872-2.873 2.875 2.875 0 012.872 2.873A2.875 2.875 0 0118.5 21.37zM23.064 12.84a1.11 1.11 0 00-1.106 1.107c0 .29.119.576.325.782.205.205.49.324.781.324.292 0 .576-.119.782-.324.206-.206.324-.491.324-.782 0-.292-.118-.577-.324-.782a1.111 1.111 0 00-.782-.324z" fill="#fff"/><defs><linearGradient id="paint0_linear" x1="0" y1="0" x2="39.697" y2="3.165" gradientUnits="userSpaceOnUse"><stop stop-color="#FF9649"/><stop offset="1" stop-color="#FF4588"/></linearGradient></defs></svg>