<svg width="20" height="18" fill="none" xmlns="http://www.w3.org/2000/svg"><path d="M12.142 16.476h-1.326V3.588h5.59L14.038 7.57a.448.448 0 00.128.597.388.388 0 00.217.066.403.403 0 00.345-.202l2.054-3.455 2.053 3.455c.12.202.372.263.563.136a.448.448 0 00.127-.597l-2.368-3.983h.03c.35 0 .633-.3.633-.67 0-.37-.284-.67-.633-.67h-4.65a2.082 2.082 0 00-1.104-.858C11.368.611 10.752 0 10 0S8.63.611 8.567 1.39a2.081 2.081 0 00-1.104.857h-4.65c-.35 0-.633.3-.633.67 0 .37.283.67.632.67h.03L.474 7.572a.448.448 0 00.128.597.389.389 0 00.217.066.403.403 0 00.345-.202l2.054-3.455 2.054 3.455c.12.202.372.263.562.136a.448.448 0 00.128-.597L3.594 3.588h5.59v12.888H7.858c-.794 0-1.438.682-1.438 1.524h7.16c0-.842-.644-1.524-1.438-1.524z" fill="url(#paint0_linear)"/><path d="M6.219 8.694H.217c-.12 0-.217.103-.217.23 0 1.882 1.444 3.412 3.218 3.412 1.775 0 3.218-1.53 3.218-3.412 0-.127-.097-.23-.217-.23z" fill="url(#paint1_linear)"/><path d="M19.782 8.694h-6.001c-.12 0-.217.103-.217.23 0 1.882 1.443 3.412 3.218 3.412 1.774 0 3.218-1.53 3.218-3.412 0-.127-.098-.23-.218-.23z" fill="url(#paint2_linear)"/><defs><linearGradient id="paint0_linear" x1=".411" y1="18" x2="20.773" y2="16.542" gradientUnits="userSpaceOnUse"><stop stop-color="#2B74E2"/><stop offset="1" stop-color="#5A9CFF"/></linearGradient><linearGradient id="paint1_linear" x1="0" y1="12.336" x2="6.773" y2="11.532" gradientUnits="userSpaceOnUse"><stop stop-color="#2B74E2"/><stop offset="1" stop-color="#5A9CFF"/></linearGradient><linearGradient id="paint2_linear" x1="13.564" y1="12.336" x2="20.337" y2="11.532" gradientUnits="userSpaceOnUse"><stop stop-color="#2B74E2"/><stop offset="1" stop-color="#5A9CFF"/></linearGradient></defs></svg>