<svg width="20" height="16" fill="none" xmlns="http://www.w3.org/2000/svg"><path d="M3.06 0h-.002a.69.69 0 00-.502.218.764.764 0 00-.21.531v11.238c0 .412.321.748.716.75 1.666.003 4.457.367 6.383 2.477V3.454c0-.14-.035-.272-.099-.38C7.766.409 4.73.004 3.06 0z" fill="url(#paint0_linear)"/><path d="M17.654 11.987V.749a.764.764 0 00-.21-.531.69.69 0 00-.502-.218h-.001c-1.67.004-4.707.41-6.287 3.074a.744.744 0 00-.098.38v11.76c1.925-2.11 4.716-2.474 6.382-2.478.395-.001.716-.337.716-.749z" fill="url(#paint1_linear)"/><path d="M19.284 2.592h-.519v9.395c0 1.052-.818 1.91-1.825 1.913-1.413.003-3.743.293-5.393 1.928 2.854-.732 5.863-.256 7.577.153a.69.69 0 00.607-.145.759.759 0 00.269-.585V3.34c0-.413-.321-.75-.716-.75z" fill="url(#paint2_linear)"/><path d="M1.234 11.987V2.592H.716c-.395 0-.716.336-.716.75V15.25c0 .229.098.442.269.585a.69.69 0 00.607.145c1.714-.41 4.723-.885 7.576-.153-1.65-1.635-3.98-1.925-5.393-1.928-1.006-.003-1.825-.86-1.825-1.913z" fill="url(#paint3_linear)"/><defs><linearGradient id="paint0_linear" x1="2.346" y1="15.214" x2="9.914" y2="14.976" gradientUnits="userSpaceOnUse"><stop stop-color="#2B74E2"/><stop offset="1" stop-color="#5A9CFF"/></linearGradient><linearGradient id="paint1_linear" x1="10.556" y1="15.214" x2="18.124" y2="14.976" gradientUnits="userSpaceOnUse"><stop stop-color="#2B74E2"/><stop offset="1" stop-color="#5A9CFF"/></linearGradient><linearGradient id="paint2_linear" x1="11.547" y1="16" x2="20.552" y2="15.619" gradientUnits="userSpaceOnUse"><stop stop-color="#2B74E2"/><stop offset="1" stop-color="#5A9CFF"/></linearGradient><linearGradient id="paint3_linear" x1="0" y1="16" x2="9.004" y2="15.618" gradientUnits="userSpaceOnUse"><stop stop-color="#2B74E2"/><stop offset="1" stop-color="#5A9CFF"/></linearGradient></defs></svg>