<svg width="61" height="46" fill="none" xmlns="http://www.w3.org/2000/svg"><path d="M4.202 32.508H8.27c3.795 0 6.913-3.077 6.913-6.822 0-3.746-3.118-6.823-6.913-6.823H2.44c-1.356 0-2.44 1.07-2.44 2.408v16.722C0 39.063.949 40 2.033 40c1.085 0 2.034-.937 2.034-2.007v-5.485h.135zm3.254-10.3c1.897 0 3.388 1.47 3.388 3.344 0 1.873-1.49 3.344-3.388 3.344H4.202v-6.822h3.254v.133zm12.606 5.752v9.766c0 1.07.95 2.006 2.034 2.006 1.084 0 2.033-.936 2.033-2.006V27.96c0-1.07-.949-2.007-2.034-2.007-1.22 0-2.033.937-2.033 2.007zm-.27-6.957c0 1.338 1.083 2.275 2.303 2.275a2.27 2.27 0 002.305-2.275c0-1.337-1.084-2.274-2.304-2.274a2.27 2.27 0 00-2.305 2.274zM30.5 27.558c-.949 0-1.762.803-1.762 1.74 0 .936.813 1.739 1.762 1.739h2.44c.949 0 1.762-.803 1.762-1.74 0-.936-.813-1.739-1.762-1.739H30.5zm8.947-6.42v16.721c0 1.07.948 2.007 2.033 2.007 1.084 0 2.033-.936 2.033-2.007v-6.822H48.8c.949 0 1.762-.803 1.762-1.74 0-.936-.813-1.739-1.762-1.739h-5.287v-5.351h6.1c.95 0 1.763-.802 1.763-1.739 0-.936-.814-1.739-1.763-1.739h-7.726c-1.356 0-2.44 1.07-2.44 2.408zM56.12 27.96v9.766c0 1.07.949 2.006 2.033 2.006 1.085 0 2.034-.936 2.034-2.006V27.96c0-1.07-.95-2.007-2.034-2.007-1.084 0-2.033.937-2.033 2.007zm2.169-4.682a2.27 2.27 0 002.304-2.275c0-1.337-1.084-2.274-2.304-2.274a2.27 2.27 0 00-2.305 2.274c-.135 1.204.95 2.275 2.305 2.275z" fill="#3D1526"/><path d="M60.593 6.154c.543.535.543 1.471 0 2.007-.542.535-1.49.535-2.033 0-3.524-3.479-8.404-5.352-13.149-5.352-4.744 0-9.489 1.74-13.149 5.352-.542.535-1.49.535-2.033 0-.542-.536-.542-1.472 0-2.007C34.43 2.007 39.853 0 45.41 0s10.98 2.007 15.182 6.154z" fill="#4BC2F0"/><path d="M55.306 11.505a1.68 1.68 0 010 2.408 1.734 1.734 0 01-2.44 0 10.655 10.655 0 00-7.455-3.077c-2.711 0-5.422 1.07-7.456 3.077a1.734 1.734 0 01-2.44 0 1.68 1.68 0 010-2.408c2.712-2.676 6.236-4.013 9.896-4.013 3.524 0 7.184 1.337 9.895 4.013z" fill="#1CB0E1"/></svg>