<svg width="765" height="685" fill="none" xmlns="http://www.w3.org/2000/svg"><path d="M945 665.515s-61.191-275.887-411.473-53.461C183.245 834.481-90.211 504.542 27.92 208.351 138.706-69.426 601.459-133.397 945 48.969v616.546z" fill="url(#paint0_linear)"/><path d="M537.266 661.821H95.88c-2.37 0-4.502-1.895-4.502-4.502 0-2.37 1.896-4.503 4.502-4.503h441.623c2.37 0 4.502 1.896 4.502 4.503-.237 2.607-2.132 4.502-4.739 4.502z" fill="#E2E2F7"/><path d="M430.888 259.894c-.711 0-1.658 0-2.369-.237-11.372-1.422-20.375-12.086-21.797-13.745-1.658 1.659-12.32 11.138-22.981 10.19-5.45-.474-9.951-3.791-13.742-9.479-7.818-12.086 1.659-30.334 11.135-43.368 12.084-16.589 27.957-31.045 37.908-37.444l.474-.237v.474c.474 18.722 10.425 34.6 18.954 48.819 10.424 16.826 18.48 30.097 5.686 40.287-4.265 3.081-8.529 4.74-13.268 4.74zm-24.166-14.93l.237.237c0 .237 9.714 12.323 21.797 13.745 5.449.711 10.425-.948 15.163-4.739 12.32-9.954 4.265-22.988-5.923-39.577-8.529-13.982-18.48-29.86-19.191-48.582-9.951 6.636-25.587 20.855-37.197 37.207-13.267 18.248-17.058 33.415-11.135 42.657 3.554 5.451 8.055 8.532 13.268 9.006h1.658c10.662 0 21.086-10.191 21.086-10.191l.237.237z" fill="#fff"/><path d="M421.411 309.898c-.237-.237-12.793-17.3-15.163-64.46-2.369-47.16 7.582-70.148 7.819-70.385l.474.237c0 .237-10.188 23.225-7.819 70.148 2.369 46.923 14.926 63.986 15.163 63.986l-.474.474z" fill="#fff"/><path d="M435.153 237.855c-8.056-9.006-23.455-10.191-28.905-6.162l-.237-.474c5.686-4.266 21.323-3.081 29.616 6.162l-.474.474zM406.248 220.081s-11.135-8.058-26.772-.474l-.237-.474c15.874-7.584 27.246.474 27.246.711l-.237.237zM422.359 203.018s-5.212-6.636-13.741-3.555l-.237-.474c9.003-3.318 14.452 3.792 14.452 3.792l-.474.237zM410.75 186.429s-2.606-2.133-8.056-.237l-.236-.474c5.686-2.133 8.529.237 8.529.237l-.237.474zM377.581 232.167l-.237-.474c15.874-8.769 28.904-1.896 29.141-1.896l-.237.474c-.237 0-13.03-6.636-28.667 1.896zM428.993 218.659c-10.899-8.295-22.034-3.081-22.034-3.081l-.237-.474s11.609-5.214 22.745 3.081l-.474.474zM407.433 204.44s-6.634-5.925-17.058-1.659l-.237-.474c10.661-4.266 17.532 1.896 17.769 1.896l-.474.237zM419.042 189.273c-3.317-3.081-8.529-.237-8.529-.237l-.237-.474s5.449-3.081 9.24.474l-.474.237zM412.645 179.556s-.947-.948-3.554-.237l-.237-.474c2.844-.948 4.028.474 4.265.474l-.474.237z" fill="#fff"/><path d="M143.264 596.176h-1.895c-16.348-1.185-17.058-16.826-18.006-36.495-.711-16.589-1.659-35.311-11.609-50.952l-.237-.474h.474c11.846-.237 33.169 2.607 52.359 9.716 15.163 5.451 33.406 15.167 33.643 29.623.237 6.636-1.895 11.85-5.923 15.404-8.292 6.873-22.507 4.977-24.64 4.74-.237 2.37-1.658 16.115-10.424 23.699-3.791 3.081-8.292 4.739-13.742 4.739zm-30.8-87.684c9.951 15.641 10.662 34.363 11.61 50.952.947 19.432 1.658 34.837 17.295 36.021 5.923.474 11.135-1.184 15.163-4.739 9.24-8.058 10.188-23.462 10.188-23.699v-.237h.237c.236 0 15.873 2.844 24.64-4.502 4.027-3.318 5.923-8.532 5.923-14.931-.237-11.138-12.083-21.328-33.17-29.149-18.48-6.635-38.855-9.716-50.938-9.716h-.948z" fill="#33FF9D"/><path d="M190.886 628.644h-.711c0-.237.948-21.329-23.455-61.38-24.403-40.287-45.726-53.558-45.963-53.558l.237-.474c.237.237 21.56 13.508 45.963 53.795 24.877 40.288 23.929 61.38 23.929 61.617z" fill="#33FF9D"/><path d="M139 576.744h-.474c1.658-12.087 13.505-21.803 20.849-21.803h.237v.711h-.237c-6.871 0-18.717 9.479-20.375 21.092zM152.978 545.936l-.474-.237c0-.237 4.976-13.272 22.271-15.878v.474c-17.058 2.606-21.797 15.404-21.797 15.641zM129.997 540.722h-.711s.711-9.006 9.951-11.138l.237.474c-8.766 2.132-9.477 10.664-9.477 10.664zM130.471 520.578l-.474-.237c0-.237.948-3.555 6.871-5.213l.237.473c-5.687 1.659-6.634 4.74-6.634 4.977zM158.901 554.23l-.474-.237c0-.237 7.108-13.034 25.114-14.93v.474c-17.769 1.896-24.403 14.693-24.64 14.693zM133.551 557.311l-.474-.237c4.501-13.271 16.821-15.404 16.821-15.404v.474c0 .237-12.083 2.37-16.347 15.167zM143.028 533.612l-.474-.237s2.369-9.005 13.504-11.612l.237.474c-10.898 2.607-13.267 11.138-13.267 11.375zM125.258 527.451l-.473-.237c1.184-4.977 7.344-5.451 7.344-5.451v.711c-.237 0-5.923.474-6.871 4.977zM125.021 515.838h-.473s.237-1.895 3.08-2.606l.237.474c-2.607.71-2.844 2.132-2.844 2.132z" fill="#33FF9D"/><path d="M343.443 249.964l-.515-.247-.176.543.005.002-.005-.002-.001.001-.001.005-.007.021-.029.086a44.06 44.06 0 01-.597 1.621 67.005 67.005 0 01-1.958 4.511c-1.763 3.691-4.444 8.489-8.127 12.935-3.683 4.447-8.35 8.523-14.078 10.804-5.716 2.276-12.523 2.779-20.528.032-4.933-1.694-8.457-4.116-10.907-7.145-2.451-3.031-3.854-6.704-4.49-10.941-1.276-8.503.544-19.183 3.079-31.283.452-2.159.927-4.361 1.41-6.603 4.861-22.55 10.57-49.036 2.726-74.38 17.859 4.549 45.518 16.759 67.824 32.235 11.335 7.864 21.259 16.551 27.813 25.48 6.557 8.931 9.697 18.036 7.614 26.78-2.166 8.779-6.303 14.095-11.25 17.171-4.961 3.084-10.796 3.951-16.408 3.717-5.61-.235-10.96-1.569-14.915-2.85a65.586 65.586 0 01-4.726-1.729 48.037 48.037 0 01-1.641-.711l-.085-.04-.021-.01-.005-.002-.001-.001-.022.046.022-.046z" stroke="#fff"/><path d="M353.652 344.261l-.474-.237c0-.237 9.003-29.149-10.188-93.609-19.191-64.46-43.594-90.766-43.831-91.003l.474-.474c.237.237 24.877 26.543 44.068 91.24 18.954 64.697 9.951 93.846 9.951 94.083z" fill="#fff"/><path d="M300.818 253.733l-.474-.237c6.634-16.352 27.246-25.358 36.96-22.277l-.237.474c-9.477-2.844-29.852 6.162-36.249 22.04zM331.381 215.815l-.474-.237c0-.237 11.609-16.352 36.486-13.745v.474c-24.64-2.607-35.775 13.508-36.012 13.508zM301.529 200.411l-.474-.237c0-.237 4.027-11.849 17.295-11.849h.237v.711h-.237c-12.794 0-16.821 11.375-16.821 11.375zM309.347 172.447l-.474-.237c0-.237 2.606-4.503 11.372-4.503v.711c-8.292-.237-10.898 4.029-10.898 4.029zM336.593 229.56l-.474-.474c.237-.237 14.453-15.641 40.04-11.138v.474c-25.351-4.029-39.329 11.138-39.566 11.138zM300.344 224.583l-.474-.237c10.899-16.589 28.668-14.93 28.905-14.93v.474c-.237 0-17.77-1.659-28.431 14.693zM322.141 195.197l-.474-.237s6.16-10.901 21.323-10.901h1.658v.711c-16.11-.948-22.27 10.427-22.507 10.427zM299.633 180.267l-.474-.237c3.317-6.161 12.083-4.74 12.083-4.74v.474c-.236 0-8.529-1.185-11.609 4.503zM303.661 164.152l-.474-.237s.948-2.37 5.212-2.607v.711c-3.79.237-4.738 2.133-4.738 2.133z" fill="#fff"/><path d="M127.808 579.091h0l-.567.064.138.554h0l.001.003.003.011.011.048.044.192c.038.17.092.422.153.745.124.646.28 1.576.41 2.706.26 2.263.412 5.315-.01 8.49-.423 3.177-1.417 6.45-3.428 9.182-2.003 2.723-5.038 4.938-9.604 5.978l-.004.001c-2.799.664-5.136.566-7.143-.122-2.008-.689-3.727-1.984-5.262-3.782-3.09-3.616-5.382-9.187-7.77-15.688a656.336 656.336 0 01-1.28-3.523c-4.344-12.035-9.464-26.219-20.544-35.916 9.775-3.049 26.24-5.428 41.174-4.769 7.687.34 14.934 1.483 20.64 3.732 5.71 2.25 9.802 5.574 11.336 10.232 1.566 4.815 1.189 8.546-.201 11.445-1.397 2.911-3.847 5.046-6.534 6.6-2.685 1.554-5.577 2.51-7.806 3.077a35.085 35.085 0 01-2.719.583 26.333 26.333 0 01-.972.149l-.051.006-.012.001-.003.001h0z" stroke="#fff"/><path d="M160.086 621.06c0-.237-4.265-16.352-32.459-41.235-28.193-24.884-47.62-29.861-47.62-30.098l.236-.474c.237 0 19.665 5.214 48.095 30.098 28.431 24.883 32.696 41.472 32.696 41.472l-.948.237z" fill="#fff"/><path d="M108.2 593.807c-1.659-9.717 5.449-20.144 10.898-21.803l.237.474c-5.212 1.422-12.083 11.612-10.424 21.092l-.711.237zM111.991 566.79h-.711s.474-11.375 13.267-17.537l.237.474c-12.083 6.162-12.793 17.063-12.793 17.063zM92.8 568.449s-1.659-6.872 4.975-10.901l.237.474c-6.16 3.792-4.738 10.19-4.501 10.427H92.8zM88.061 552.808c0-.237 0-3.081 4.028-5.688l.237.474c-3.79 2.37-3.79 4.977-3.79 4.977l-.475.237zM118.624 571.767h-.473s2.132-11.849 15.637-17.3l.236.474c-13.267 5.451-15.4 16.826-15.4 16.826zM99.907 580.298h-.71c.237-11.138 9.24-15.878 9.24-15.878l.237.474c.237.237-8.53 4.503-8.767 15.404zM101.092 559.918s-.474-7.584 7.582-12.087l.237.474c-7.819 4.266-7.345 11.376-7.345 11.613h-.474zM85.93 559.444c-.238-4.029 4.264-5.925 4.264-5.925l.237.474s-4.265 1.896-4.028 5.451h-.474zM83.086 550.675s-.237-1.422 1.895-2.844l.237.474c-1.658 1.185-1.658 2.37-1.658 2.37h-.474z" fill="#fff"/><path d="M527.219 581.512l-.568-.052-.046.497.046-.498h-.005l-.018-.002-.073-.007a29.468 29.468 0 01-1.396-.184c-.95-.143-2.3-.379-3.894-.747-3.192-.739-7.342-2.007-11.212-4.125-3.871-2.119-7.429-5.07-9.489-9.158-2.053-4.076-2.65-9.345-.491-16.173l.001-.004c2.071-6.733 7.811-11.624 15.817-15.028 8.003-3.402 18.195-5.284 29.021-6.037 21.214-1.477 44.723 1.389 58.641 5.498-15.525 14.026-22.368 34.286-28.181 51.497a979.471 979.471 0 01-1.678 4.937c-3.173 9.226-6.243 17.182-10.509 22.412-2.124 2.604-4.53 4.512-7.375 5.567-2.843 1.055-6.165 1.272-10.148.429l-.003-.001c-6.52-1.339-10.916-4.387-13.861-8.188-2.953-3.812-4.47-8.411-5.173-12.877-.702-4.463-.586-8.766-.292-11.959.147-1.594.337-2.908.491-3.822a36.214 36.214 0 01.249-1.329l.015-.069.004-.016v-.004l.001-.001.126-.556z" stroke="#fff"/><path d="M482.3 641.441l-.473-.237c0-.237 5.686-23.462 44.778-59.484 39.092-36.021 66.338-43.842 66.575-44.079l.237.474c-.237 0-27.483 8.058-66.338 43.842-39.092 36.259-44.779 59.247-44.779 59.484z" fill="#fff"/><path d="M554.562 601.39h-.474c1.895-13.271-8.056-27.49-15.637-29.386l.237-.474c7.581 1.659 17.769 15.878 15.874 29.86zM548.402 563.473c0-.237-1.185-15.405-18.717-23.462l.237-.474c18.006 8.294 19.19 23.936 19.19 24.173l-.71-.237zM575.411 565.131l-.474-.237s1.896-9.479-6.871-14.456l.237-.474c9.24 5.214 7.108 14.93 7.108 15.167zM581.334 542.855h-.711s0-3.792-5.686-7.11l.237-.474c6.16 3.555 6.16 7.584 6.16 7.584zM539.399 570.582c0-.237-3.554-16.115-22.271-23.462l.237-.474c19.191 7.347 22.507 23.699 22.507 23.699l-.473.237zM565.934 581.957c-.711-15.404-13.031-21.328-13.268-21.328l.237-.474c.237 0 12.794 6.161 13.505 21.802h-.474zM563.565 553.282h-.711s.237-10.19-10.898-16.115l.236-.474c11.61 5.925 11.373 16.352 11.373 16.589zM584.888 552.097h-.711c.237-5.213-5.923-7.583-5.923-7.583l.237-.474s6.634 2.607 6.397 8.057zM588.679 539.774h-.474.237-.237s.237-1.659-2.37-3.318l.237-.474c2.843 1.659 2.607 3.792 2.607 3.792z" fill="#fff"/><path d="M536.556 552.808c-3.791 0-7.345-.948-10.662-2.607-14.215-7.346-19.664-27.964-20.138-30.808-2.843.948-22.745 6.873-37.908-.474-7.344-3.555-12.557-9.716-15.4-18.248-7.581-22.513 13.031-32.467 39.092-44.79 22.034-10.427 46.911-22.276 62.548-44.553l.237-.474.237.474c6.87 15.878 15.163 46.449 16.584 76.309 1.185 23.699-1.658 53.559-20.849 62.09-5.212 1.896-9.714 3.081-13.741 3.081zm-30.563-34.363v.237c0 .237 4.975 23.225 19.901 30.808 6.871 3.555 14.926 3.318 23.692-.474 14.926-6.635 22.271-28.438 20.613-61.616-1.422-29.623-9.24-59.72-16.348-75.598-15.637 22.276-40.514 34.126-62.311 44.316-25.824 12.323-46.2 21.803-38.855 44.079 2.843 8.295 7.818 14.457 14.926 18.011 16.111 7.821 37.671.474 37.908.474l.474-.237z" fill="#252F5A"/><path d="M435.864 585.749l-.237-.474c.237 0 29.378-10.901 69.892-66.593 40.513-55.691 46.673-91.95 46.673-92.424h.474c0 .474-6.16 36.733-46.91 92.661-40.514 56.166-69.656 66.83-69.892 66.83z" fill="#252F5A"/><path d="M517.128 502.093c-3.554-9.242-23.455-20.38-40.514-15.641l-.237-.474c17.532-4.739 37.434 6.399 41.225 16.115h-.474zM559.774 508.492c-13.268-21.566-33.169-20.855-33.406-20.855v-.711c.237 0 20.612-.948 33.88 21.092l-.474.474zM540.346 460.621c-8.055-10.901-19.901-6.873-19.901-6.636l-.237-.474c.237 0 12.32-4.265 20.612 6.873l-.474.237zM558.116 449.009c-4.976-6.873-10.188-6.162-10.188-6.162v-.474c.237 0 5.449-.711 10.661 6.399l-.473.237zM552.193 525.792c-12.32-23.225-33.407-25.121-33.643-25.358v-.711c.236 0 21.56 2.133 34.116 25.595l-.473.474zM529.448 481.713c0-.237-9.714-15.405-29.615-13.983v-.474c20.375-1.658 30.089 13.983 30.326 14.22l-.711.237zM560.011 479.106c-9.24-13.508-22.271-11.613-22.508-11.613v-.474c.237 0 13.505-1.895 22.982 11.85l-.474.237zM546.269 446.402s-4.027-7.584-10.898-6.399v-.474c7.108-1.185 11.372 6.636 11.372 6.873h-.474zM555.746 435.5c-2.606-3.08-4.738-2.606-4.738-2.606l-.237-.474s2.606-.711 5.449 2.606l-.474.474z" fill="#252F5A"/><path d="M114.36 648.313c9.24 0 9.24-72.991 0-72.991h273.408c9.24 0 9.24 72.991 0 72.991H114.36z" fill="#F5F5F7"/><path d="M393.218 587.645h-274.12c-.71 0-1.184-.474-1.184-1.185 0-.711.474-1.185 1.184-1.185h273.883c.71 0 1.184.474 1.184 1.185.237.711-.474 1.185-.947 1.185zM393.218 602.101h-274.12c-.71 0-1.184-.474-1.184-1.185 0-.711.474-1.185 1.184-1.185h273.883c.71 0 1.184.474 1.184 1.185 0 .711-.474 1.185-.947 1.185zM393.218 623.667h-274.12c-.71 0-1.184-.474-1.184-1.185 0-.711.474-1.185 1.184-1.185h273.883c.71 0 1.184.474 1.184 1.185.237.711-.474 1.185-.947 1.185zM393.218 638.123h-274.12c-.71 0-1.184-.474-1.184-1.185 0-.711.474-1.185 1.184-1.185h273.883c.71 0 1.184.474 1.184 1.185.237.711-.474 1.185-.947 1.185zM393.218 594.992h-274.12c-.71 0-1.184-.474-1.184-1.185 0-.711.474-1.185 1.184-1.185h273.883c.71 0 1.184.474 1.184 1.185 0 .711-.474 1.185-.947 1.185zM393.218 609.211h-274.12c-.71 0-1.184-.474-1.184-1.185 0-.711.474-1.185 1.184-1.185h273.883c.71 0 1.184.474 1.184 1.185.237.711-.474 1.185-.947 1.185zM393.218 616.557h-274.12c-.71 0-1.184-.474-1.184-1.185 0-.711.474-1.185 1.184-1.185h273.883c.71 0 1.184.474 1.184 1.185.237.474-.474 1.185-.947 1.185zM393.218 630.776h-274.12c-.71 0-1.184-.474-1.184-1.185 0-.711.474-1.185 1.184-1.185h273.883c.71 0 1.184.474 1.184 1.185.237.711-.474 1.185-.947 1.185z" fill="#EBEBED"/><path d="M387.768 648.313c9.24 0 9.24-72.991 0-72.991h133.625c9.239 0 9.239 72.991 0 72.991H387.768z" fill="#2B74E2"/><path d="M521.393 570.345H387.768c-2.606 0-4.738 2.133-4.738 4.74 0 2.133 1.421 3.792 3.317 4.503 4.975 7.82 4.975 56.402 0 64.223-1.896.711-3.317 2.369-3.317 4.502 0 2.607 2.132 4.74 4.738 4.74h133.625c2.843 0 11.609 0 11.609-41.235 0-41.473-8.766-41.473-11.609-41.473zm-1.422 73.229H396.298c1.895-5.925 3.08-15.878 3.08-31.756 0-16.115-1.422-25.832-3.08-31.756h123.673c4.739 8.294 4.739 54.98 0 63.512z" fill="#2B74E2"/><path d="M495.094 643.574c-.71 3.791-1.421 7.109-2.369 9.479h-35.064c.947-2.37 1.658-5.688 2.369-9.479 2.843-17.3 2.843-46.45 0-63.512-.711-3.792-1.422-7.11-2.369-9.48h35.064c.948 2.37 1.659 5.688 2.369 9.48 2.843 17.062 2.843 46.212 0 63.512zM387.768 653.053H114.36a4.754 4.754 0 01-4.739-4.74 4.754 4.754 0 014.739-4.74h271.987c4.738-8.531 4.738-55.217 0-63.512H114.36a4.754 4.754 0 01-4.739-4.74 4.753 4.753 0 014.739-4.739h273.408c2.843 0 11.609 0 11.609 41.235 0 41.236-8.766 41.236-11.609 41.236z" fill="#1965D7"/><path d="M354.362 594.518v31.993c0 1.185 1.185 2.133 2.37 1.659l7.581-2.607 7.582 2.607c1.184.474 2.369-.474 2.369-1.659v-31.993c0-.948-.711-1.659-1.659-1.659h-16.821c-.711 0-1.422.711-1.422 1.659z" fill="#EBEBED"/><path d="M356.021 629.354c-.711 0-1.185-.237-1.659-.473-.71-.474-1.184-1.422-1.184-2.37v-31.993c0-1.422 1.184-2.844 2.843-2.844h16.821c1.422 0 2.843 1.185 2.843 2.844v31.993c0 .948-.473 1.896-1.184 2.37-.711.473-1.659.71-2.606.473l-7.345-2.369-7.345 2.369h-1.184zm8.292-4.976h.474l7.581 2.607h.474s.237-.237.237-.474v-31.993a.51.51 0 00-.474-.474h-16.821a.51.51 0 00-.474.474v31.993c0 .237.237.474.237.474s.237.237.474 0l7.581-2.607h.711z" fill="#EBEBED"/><path d="M353.178 593.57v31.993c0 1.185 1.184 2.133 2.369 1.659l7.581-2.607 7.582 2.607c1.185.474 2.369-.474 2.369-1.659V593.57c0-.948-.711-1.659-1.658-1.659h-16.822c-.711.237-1.421.948-1.421 1.659z" fill="#EDE40B"/><path d="M371.184 628.643c-.237 0-.711 0-.948-.237l-7.344-2.369-7.345 2.369c-.948.237-1.895.237-2.606-.473-.711-.474-1.185-1.422-1.185-2.37V593.57c0-1.422 1.185-2.844 2.843-2.844h16.822c1.421 0 2.843 1.185 2.843 2.844v31.993c0 .948-.474 1.896-1.185 2.37-.474.473-1.184.71-1.895.71zm-16.585-35.31a.51.51 0 00-.474.474V625.8c0 .237.237.474.237.474s.237.237.474 0l7.582-2.607h.71l7.582 2.607h.474s.237-.237.237-.474v-31.993a.51.51 0 00-.474-.474h-16.348z" fill="#E8DE00"/><path d="M534.66 565.605c-9.24 0-9.24-72.991 0-72.991H364.55c-9.24 0-9.24 72.991 0 72.991h170.11z" fill="#EBEBED"/><path d="M359.101 505.174h170.584c.711 0 1.184-.474 1.184-1.185 0-.711-.473-1.185-1.184-1.185H359.101c-.711 0-1.185.474-1.185 1.185 0 .474.474 1.185 1.185 1.185zM359.101 519.393h170.584c.711 0 1.184-.474 1.184-1.185 0-.711-.473-1.185-1.184-1.185H359.101c-.711 0-1.185.474-1.185 1.185 0 .711.474 1.185 1.185 1.185zM359.101 541.196h170.584c.711 0 1.184-.474 1.184-1.185 0-.711-.473-1.185-1.184-1.185H359.101c-.711 0-1.185.474-1.185 1.185 0 .711.474 1.185 1.185 1.185zM359.101 555.415h170.584c.711 0 1.184-.474 1.184-1.185 0-.711-.473-1.185-1.184-1.185H359.101c-.711 0-1.185.474-1.185 1.185 0 .711.474 1.185 1.185 1.185zM359.101 512.284h170.584c.711 0 1.184-.474 1.184-1.185 0-.711-.473-1.185-1.184-1.185H359.101c-.711 0-1.185.474-1.185 1.185 0 .711.474 1.185 1.185 1.185zM359.101 526.74h170.584c.711 0 1.184-.474 1.184-1.185 0-.711-.473-1.185-1.184-1.185H359.101c-.711 0-1.185.474-1.185 1.185 0 .711.474 1.185 1.185 1.185zM359.101 533.849h170.584c.711 0 1.184-.474 1.184-1.185 0-.711-.473-1.185-1.184-1.185H359.101c-.711 0-1.185.474-1.185 1.185 0 .711.474 1.185 1.185 1.185zM359.101 548.305h170.584c.711 0 1.184-.474 1.184-1.185 0-.71-.473-1.184-1.184-1.184H359.101c-.711 0-1.185.474-1.185 1.184 0 .711.474 1.185 1.185 1.185z" fill="#F5F5F7"/><path d="M364.55 565.605c-9.24 0-9.24-72.991 0-72.991H176.197c-9.24 0-9.24 72.991 0 72.991H364.55z" fill="#FF8A33"/><path d="M176.197 487.874H364.55c2.606 0 4.738 2.133 4.738 4.74 0 2.133-1.421 3.792-3.317 4.503-4.975 7.82-4.975 56.402 0 64.223 1.896.711 3.317 2.369 3.317 4.502 0 2.607-2.132 4.74-4.738 4.74H176.197c-2.843 0-11.61 0-11.61-41.235 0-41.236 8.767-41.473 11.61-41.473zm1.421 72.992h178.403c-1.896-5.925-3.08-15.878-3.08-31.756 0-16.115 1.421-25.832 3.08-31.756H177.618c-4.738 8.531-4.738 54.98 0 63.512z" fill="#FF8A33"/><path d="M202.258 560.866c.711 3.791 1.422 7.109 2.369 9.479h18.243c-.947-2.37-1.658-5.688-2.369-9.479-2.843-17.3-2.843-46.449 0-63.512.711-3.792 1.422-7.11 2.369-9.48h-18.243c-.947 2.37-1.658 5.688-2.369 9.48-2.843 17.3-2.843 46.212 0 63.512zM309.347 560.866c.711 3.791 1.421 7.109 2.369 9.479h18.243c-.948-2.37-1.658-5.688-2.369-9.479-2.843-17.3-2.843-46.449 0-63.512.711-3.792 1.421-7.11 2.369-9.48h-18.243c-.948 2.37-1.658 5.688-2.369 9.48-2.843 17.3-2.843 46.212 0 63.512zM227.846 560.866c.71 3.791 1.421 7.109 2.369 9.479h11.372c-.947-2.37-1.658-5.688-2.369-9.479-2.843-17.3-2.843-46.449 0-63.512.711-3.792 1.422-7.11 2.369-9.48h-11.372c-.948 2.37-1.659 5.688-2.369 9.48-2.843 17.3-2.843 46.212 0 63.512z" fill="#FFA76C"/><path d="M243.956 560.866c.711 3.791 1.422 7.109 2.37 9.479h11.372c-.948-2.37-1.658-5.688-2.369-9.479-2.843-17.3-2.843-46.449 0-63.512.711-3.792 1.421-7.11 2.369-9.48h-11.372c-.948 2.37-1.659 5.688-2.37 9.48-3.08 17.3-3.08 46.212 0 63.512z" fill="#FFA76C"/><path d="M364.55 570.345h170.11a4.754 4.754 0 004.739-4.74 4.754 4.754 0 00-4.739-4.739H365.972c-4.739-8.532-4.739-55.218 0-63.512H534.66a4.754 4.754 0 004.739-4.74 4.754 4.754 0 00-4.739-4.74H364.55c-2.843 0-11.609 0-11.609 41.236 0 41.235 8.766 41.235 11.609 41.235z" fill="#D86212"/><path d="M397.956 512.047v31.993c0 1.185-1.185 2.133-2.369 1.659l-7.582-2.607-7.581 2.607c-1.185.474-2.37-.474-2.37-1.659v-31.993c0-.948.711-1.659 1.659-1.659h16.821c.711 0 1.422.711 1.422 1.659z" fill="#EBEBED"/><path d="M396.298 546.883c.71 0 1.184-.236 1.658-.473.711-.474 1.185-1.422 1.185-2.37v-31.993c0-1.422-1.185-2.844-2.843-2.844h-16.822c-1.421 0-2.843 1.185-2.843 2.844v31.993c0 .948.474 1.896 1.185 2.37.71.473 1.658.71 2.606.473l7.344-2.369 7.345 2.369h1.185zm-8.293-4.976h-.474l-7.581 2.607h-.474s-.237-.237-.237-.474v-31.993a.51.51 0 01.474-.474h16.822c.236 0 .473.237.473.474v31.993c0 .237-.237.474-.237.474s-.236.237-.473 0l-7.582-2.607h-.711z" fill="#EBEBED"/><path d="M399.14 511.099v31.993c0 1.185-1.184 2.133-2.369 1.659l-7.581-2.607-7.582 2.607c-1.184.474-2.369-.474-2.369-1.659v-31.993c0-.948.711-1.659 1.658-1.659h16.822c.711 0 1.421.711 1.421 1.659z" fill="#1761D0"/><path d="M380.898 545.936c.237 0 .71 0 .947-.237l7.345-2.37 7.344 2.37c.948.237 1.896.237 2.607-.474.71-.474 1.184-1.422 1.184-2.37v-31.993c0-1.422-1.184-2.844-2.843-2.844h-16.821c-1.422 0-2.843 1.185-2.843 2.844v31.993c0 .948.473 1.896 1.184 2.37.711.711 1.422.711 1.896.711zm16.584-35.311a.51.51 0 01.474.474v31.993c0 .237-.237.474-.237.474s-.237.237-.474 0l-7.581-2.607h-.711l-7.582 2.607h-.473s-.237-.237-.237-.474v-31.993a.51.51 0 01.474-.474h16.347z" fill="#2B74E2"/><path d="M197.993 439.766h312.738c16.822 0 16.822 44.553 0 44.553H197.993" fill="#E2D900"/><path d="M510.731 488.111H197.993c-2.132 0-3.79-1.659-3.79-3.792 0-2.132 1.658-3.791 3.79-3.791h312.738c5.686 0 9.003-9.48 9.003-18.485 0-9.006-3.08-18.485-9.003-18.485H197.993c-2.132 0-3.79-1.659-3.79-3.792s1.658-3.792 3.79-3.792h312.738c11.372 0 16.348 13.509 16.348 26.069 0 12.56-5.213 26.068-16.348 26.068z" fill="#E2D900"/><path d="M104.883 484.319c16.821 0 16.821-44.553 0-44.553H321.43c16.822 0 16.822 44.553 0 44.553H104.883z" fill="#F5F5F7"/><path d="M325.458 454.459H115.781c-.473 0-.947-.474-.947-.948s.474-.948.947-.948h209.914c.474 0 .947.474.947.948-.237.474-.473.948-1.184.948zM325.458 471.522H115.781c-.473 0-.947-.474-.947-.948s.474-.948.947-.948h209.914c.474 0 .947.474.947.948-.237.474-.473.948-1.184.948zM325.458 448.772H114.36c-.474 0-.948-.474-.948-.948s.474-.948.948-.948h211.098c.474 0 .947.474.947.948s-.236.948-.947.948zM325.458 460.147H116.966c-.474 0-.948-.474-.948-.948s.474-.948.948-.948h208.492c.474 0 .947.474.947.948s-.237.948-.947.948zM325.458 465.835H116.966c-.474 0-.948-.474-.948-.948s.474-.948.948-.948h208.492c.474 0 .947.474.947.948s-.237.948-.947.948zM325.458 477.21H114.36c-.474 0-.948-.474-.948-.948s.474-.948.948-.948h211.098c.474 0 .947.474.947.948s-.236.948-.947.948z" fill="#EBEBED"/><path d="M321.43 488.111H104.883c-2.132 0-3.791-1.659-3.791-3.792s1.659-3.791 3.791-3.791H321.43c5.686 0 9.003-9.48 9.003-18.485 0-9.006-3.08-18.485-9.003-18.485H104.883c-2.132 0-3.791-1.659-3.791-3.792s1.659-3.792 3.791-3.792H321.43c11.372 0 16.348 13.509 16.348 26.069 0 12.56-5.213 26.068-16.348 26.068z" fill="#EDE40B"/><path d="M296.79 449.72v15.404c0 .948.948 1.659 1.896 1.422l6.16-2.133 6.16 2.133c.947.237 1.895-.474 1.895-1.422V449.72c0-.711-.474-1.185-1.185-1.185h-13.267c-1.185 0-1.659.711-1.659 1.185z" fill="#EBEBED"/><path d="M297.975 467.493c-.474 0-.948-.236-1.422-.473-.71-.474-.947-1.185-.947-1.896V449.72c0-1.185.947-2.133 2.132-2.133h13.268c1.184 0 2.132.948 2.132 2.133v15.404c0 .711-.474 1.422-.948 1.896-.711.473-1.421.474-2.132.237l-5.686-1.896-5.686 1.896c0 .237-.474.236-.711.236zm0-18.01c-.237 0-.237.237-.237.237v15.404c0 .237.237.237.237.474 0 0 .237.237.474 0l6.16-2.133h.71l6.16 2.133h.474s.237-.237.237-.474V449.72c0-.237-.237-.237-.237-.237h-13.978z" fill="#EBEBED"/><path d="M295.842 449.246v15.404c0 .948.948 1.658 1.896 1.422l6.16-2.133 6.16 2.133c.947.236 1.895-.474 1.895-1.422v-15.404c0-.711-.474-1.185-1.184-1.185h-13.268c-1.185-.237-1.659.474-1.659 1.185z" fill="#FF8A33"/><path d="M297.264 466.782c-.474 0-.948-.237-1.422-.474-.71-.474-.947-1.184-.947-1.895v-15.404c0-1.185.947-2.133 2.132-2.133h13.268c1.184 0 2.132.948 2.132 2.133v15.404c0 .711-.474 1.421-.948 1.895-.71.474-1.421.474-2.132.237l-5.686-1.895-5.686 1.895c-.237.237-.474.237-.711.237zm6.397-4.028h.237l6.16 2.133h.474s.237-.237.237-.474v-15.404c0-.237-.237-.237-.237-.237h-13.268c-.237 0-.237.237-.237.237v15.404c0 .237.237.237.237.474 0 0 .237.237.474 0l6.16-2.133h-.237z" fill="#FF8A33"/><path d="M504.808 467.967H358.864c-3.08 0-5.923-2.606-5.923-5.924 0-3.081 2.606-5.925 5.923-5.925h145.944c3.08 0 5.923 2.607 5.923 5.925-.237 3.081-2.843 5.924-5.923 5.924z" fill="#E2D900"/><path d="M170.037 431.235h84.818c11.609-6.399 20.375-20.618 20.375-39.34l40.277-142.902h242.135l-40.277 142.902c0 18.722-8.766 32.941-20.375 39.34H359.101" fill="#462BE2"/><path d="M496.99 435.974H359.101a4.754 4.754 0 01-4.739-4.739 4.754 4.754 0 014.739-4.74h136.467c10.425-6.162 16.822-19.433 16.822-34.6 0-.474 0-.948.237-1.185l38.618-136.977H319.061l-39.092 138.873c-.237 18.959-9.003 35.311-22.745 42.657-.711.474-1.421.474-2.369.474h-84.818a4.754 4.754 0 01-4.739-4.739 4.754 4.754 0 014.739-4.74h83.633c10.425-6.162 16.822-19.433 16.822-34.6 0-.474 0-.948.237-1.185l40.277-142.902c.473-2.133 2.369-3.555 4.501-3.555h242.135c1.421 0 2.843.711 3.791 1.896.947 1.185 1.184 2.607.71 4.029l-40.039 142.191c-.237 18.959-9.004 35.311-22.745 42.657-.948.948-1.658 1.185-2.369 1.185z" fill="#2B5EE2"/><path d="M274.519 412.039c-6.397-7.11 37.434-159.965 50.228-159.965h229.341L510.02 411.328l-235.501.711z" fill="#F5F5F7"/><path d="M293.473 385.733s-.237 0 0 0c-.711 0-1.184-.711-1.184-1.422 4.975-36.733 17.295-76.546 37.196-121.81.237-.711.948-.948 1.659-.711.711.237.948.948.711 1.659-19.902 45.027-31.985 84.84-36.96 121.336-.474.474-.948.948-1.422.948z" fill="#EBEBED"/><path d="M300.818 385.733s-.237 0 0 0c-.711 0-1.185-.711-1.185-1.421 4.976-36.97 17.296-76.784 37.197-121.811.237-.711.948-.948 1.659-.711.71.237.947.948.71 1.659-19.901 44.79-31.984 84.604-36.96 121.336-.473.474-.947.948-1.421.948z" fill="#EBEBED"/><path d="M308.163 385.733s-.237 0 0 0c-.711 0-1.185-.711-1.185-1.421 4.975-37.207 17.058-77.021 37.197-121.811.237-.711.947-.948 1.658-.711s.948.948.711 1.659c-19.902 44.79-31.985 84.367-36.96 121.336-.474.474-.948.948-1.421.948z" fill="#EBEBED"/><path d="M315.507 385.733c-.237 0-.237 0 0 0-.711 0-1.185-.711-1.185-1.421 4.976-36.733 17.533-77.732 37.197-121.811.237-.711.948-.948 1.659-.711.71.237.947.948.71 1.659-19.664 43.842-31.984 84.604-36.959 121.336-.474.474-.948.948-1.422.948z" fill="#EBEBED"/><path d="M322.852 385.733c-.237 0-.237 0 0 0-.711 0-1.185-.711-1.185-1.421 4.975-36.97 17.532-77.969 37.197-121.811.237-.711.948-.948 1.658-.711.711.237.948.948.711 1.659-19.665 43.605-31.984 84.604-36.96 121.336-.474.474-.948.948-1.421.948z" fill="#EBEBED"/><path d="M330.196 385.733c-.237 0-.237 0 0 0-.711 0-1.184-.711-1.184-1.421 4.975-37.207 17.532-78.206 37.196-122.048.237-.711.948-.948 1.659-.474.711.237.948.948.711 1.659-19.665 43.605-32.222 84.367-36.96 121.337-.474.473-.948.947-1.422.947z" fill="#EBEBED"/><path d="M337.304 385.733c-.711 0-1.185-.711-1.185-1.421 4.976-37.444 17.296-78.443 37.197-122.048.237-.711.948-.948 1.659-.474.71.237.947.948.474 1.659-19.665 43.368-32.222 84.13-36.96 121.337 0 .473-.474.947-1.185.947z" fill="#EBEBED"/><path d="M344.648 385.733c-.71 0-1.184-.711-1.184-1.421 4.975-37.444 17.295-78.443 37.197-122.048.237-.711.947-.948 1.658-.474.711.237.948.948.474 1.659-19.665 43.131-32.221 83.893-36.96 121.337 0 .473-.474.947-1.185.947z" fill="#EBEBED"/><path d="M351.993 385.733c-.711 0-1.185-.711-1.185-1.421 4.976-37.681 17.296-78.68 37.197-122.048.237-.711.948-.948 1.659-.474.71.237.947.948.474 1.659-19.665 43.131-32.222 83.893-36.96 121.337 0 .473-.474.947-1.185.947z" fill="#EBEBED"/><path d="M359.338 385.733c-.711 0-1.185-.711-1.185-1.421 3.554-28.676 11.372-57.825 23.455-89.344.237-.711.948-.948 1.422-.711.711.237.948.948.711 1.422-12.083 31.282-19.665 60.194-23.219 88.633 0 .947-.474 1.421-1.184 1.421zM366.682 385.733c-.71 0-1.184-.711-1.184-1.421 4.738-37.918 17.295-79.154 37.197-122.048.236-.711.947-.948 1.658-.474.711.237.948.948.474 1.659-19.665 42.657-32.222 83.419-36.96 121.337 0 .473-.474.947-1.185.947z" fill="#EBEBED"/><path d="M374.027 385.733c-.711 0-1.185-.711-1.185-1.421 4.739-38.155 17.296-79.154 37.197-122.048.237-.711.948-.948 1.659-.474.71.237.947.948.473 1.659-19.664 42.42-32.221 83.419-36.959 121.337 0 .473-.474.947-1.185.947z" fill="#EBEBED"/><path d="M381.372 385.733c-.711 0-1.185-.711-1.185-1.421 4.738-38.392 17.295-79.391 37.197-122.048.237-.711.947-.948 1.658-.474.711.237.948.948.474 1.659-19.665 42.42-32.221 83.182-36.96 121.337 0 .473-.711.947-1.184.947z" fill="#EBEBED"/><path d="M388.716 385.733c-.711 0-1.185-.711-1.185-1.421 4.739-38.392 17.296-79.628 37.197-122.048.237-.711.948-.948 1.659-.474.71.237.947.948.473 1.659-19.664 42.183-32.221 82.945-36.959 121.337 0 .473-.711.947-1.185.947z" fill="#EBEBED"/><path d="M396.061 385.733s-.237 0 0 0c-.711 0-1.185-.711-1.185-1.421 4.738-38.629 17.295-79.628 37.197-122.048.237-.474.947-.948 1.658-.474.711.237.948.948.474 1.659-19.901 41.946-32.221 82.945-36.96 121.336-.237.474-.711.948-1.184.948z" fill="#EBEBED"/><path d="M403.405 385.733s-.237 0 0 0c-.711 0-1.184-.711-1.184-1.421 4.738-38.866 17.295-79.865 37.196-122.048.237-.711.948-.948 1.659-.474.711.237.947.948.474 1.659-19.902 41.946-32.222 82.708-36.96 121.337-.237.473-.711.947-1.185.947z" fill="#EBEBED"/><path d="M410.75 385.733s-.237 0 0 0c-.711 0-1.185-.711-1.185-1.421 3.08-26.069 9.714-53.085 19.665-80.339.237-.71.947-.947 1.421-.71.711.237.948.947.711 1.421-9.951 27.254-16.348 54.033-19.664 79.864 0 .711-.474 1.185-.948 1.185zM418.095 385.733c-.237 0-.237 0 0 0-.711 0-1.185-.711-1.185-1.421 4.738-39.103 17.295-80.102 37.197-122.048.237-.474.947-.948 1.658-.474.474.237.948.948.474 1.659-19.901 41.472-32.221 82.471-36.96 121.336-.237.474-.711.948-1.184.948z" fill="#EBEBED"/><path d="M425.439 385.733c-.237 0-.237 0 0 0-.711 0-1.185-.711-1.185-1.421 4.739-39.34 17.296-80.339 37.197-122.048.237-.711.948-.948 1.659-.474.474.237.947.948.474 1.659-19.902 41.472-32.222 82.234-36.96 121.337-.237.473-.711.947-1.185.947z" fill="#EBEBED"/><path d="M432.547 385.733c-.711 0-1.185-.711-1.185-1.421 4.739-39.34 17.295-80.576 37.197-122.048.237-.474.948-.948 1.658-.474.474.237.948.948.474 1.659-19.901 41.235-32.221 81.997-36.96 121.336 0 .474-.474.948-1.184.948z" fill="#EBEBED"/><path d="M439.891 385.733c-.71 0-1.184-.711-1.184-1.421 4.738-39.577 17.295-80.576 37.196-122.048.237-.474.948-.948 1.659-.474.474.237.948.948.474 1.659-19.902 40.998-32.222 81.997-36.96 121.336 0 .474-.474.948-1.185.948z" fill="#EBEBED"/><path d="M447.236 385.733c-.711 0-1.185-.71-1.185-1.421 4.739-39.814 17.059-80.812 37.197-122.048.237-.474.948-.711 1.659-.474.473.237.947.948.473 1.659-19.901 40.998-32.458 81.76-36.96 121.1 0 .71-.473 1.184-1.184 1.184z" fill="#EBEBED"/><path d="M454.58 385.733c-.71 0-1.184-.71-1.184-1.421 4.738-39.814 17.058-81.049 37.197-122.048.237-.474.947-.711 1.658-.474.474.237.948.948.474 1.659-19.901 40.761-32.458 81.523-36.96 121.1 0 .71-.474 1.184-1.185 1.184z" fill="#EBEBED"/><path d="M461.925 385.733c-.711 0-1.185-.711-1.185-1.421 4.502-40.051 17.059-81.049 37.197-122.048.237-.474.948-.948 1.659-.474.474.237.711.948.474 1.659-19.902 40.761-32.459 81.523-36.96 121.099 0 .711-.474 1.185-1.185 1.185z" fill="#EBEBED"/><path d="M469.27 385.733c-.711 0-1.185-.71-1.185-1.421 4.501-40.288 17.058-81.286 37.197-122.048.237-.474.947-.711 1.658-.474.474.237.711.948.474 1.659-19.901 40.525-32.458 81.286-36.96 121.1 0 .71-.474 1.184-1.184 1.184z" fill="#EBEBED"/><path d="M476.614 385.733c-.71 0-1.184-.71-1.184-1.421 4.501-40.288 17.058-81.286 37.196-122.048.237-.474.948-.711 1.659-.474.474.237.711.948.474 1.659-19.902 40.288-32.459 81.049-36.96 121.1 0 .71-.474 1.184-1.185 1.184z" fill="#EBEBED"/><path d="M483.959 385.733c-.711 0-1.185-.711-1.185-1.421 1.896-17.774 5.45-35.785 10.662-53.559.237-.711.711-.948 1.421-.711.711.237.948.948.711 1.422-4.975 17.774-8.529 35.548-10.424 53.085 0 .71-.711 1.184-1.185 1.184z" fill="#EBEBED"/><path d="M551.719 252.074c-9.714 5.687-23.693 34.363-35.302 74.413-22.507 77.02-21.086 69.911-8.529 77.968 12.083 7.584 7.582 1.422 7.582 1.422l40.039-154.04-3.79.237z" fill="#DDD"/><path d="M132.129 431.235s12.083-12.561 17.295-22.988c.711-1.185 2.133-2.133 3.554-1.896 12.083 1.422 66.339 7.11 128.412 2.844 37.908-2.607 165.135-21.092 221.997-8.294 7.107 1.658 10.661 9.479 7.344 15.878-3.317 6.398-8.055 13.034-13.741 14.456H132.129z" fill="#fff"/><path d="M365.261 404.929c-.237 9.48-3.554 22.277-4.502 26.306H496.99c5.923-1.422 10.661-8.058 13.741-14.456 3.317-6.399-.474-14.457-7.581-15.879-31.985-7.109-85.766-4.502-133.862-.237-2.132 0-3.79 1.896-4.027 4.266z" fill="#DDD"/><path d="M429.704 435.974H116.966a4.752 4.752 0 01-4.738-4.739c0-2.607 2.132-4.74 4.738-4.74h312.738c2.606 0 4.738 2.133 4.738 4.74a4.752 4.752 0 01-4.738 4.739z" fill="#5E4EF9"/><path d="M496.99 435.974H359.101a4.754 4.754 0 01-4.739-4.739 4.754 4.754 0 014.739-4.74h136.467c10.425-6.162 16.822-19.433 16.822-34.6 0-.474 0-.948.236-1.185l40.277-142.902c.711-2.607 3.317-4.029 5.923-3.318 2.606.711 4.028 3.318 3.317 5.925l-40.04 142.191c-.237 18.959-9.003 35.311-22.744 42.657-.948.474-1.659.711-2.369.711z" fill="#2B5EE2"/><path d="M222.16 541.907c-5.687 0-11.61-6.636-13.031-14.693l-17.769-91.003c-1.659-8.057 1.658-14.693 7.344-14.693s11.609 6.636 13.031 14.693l17.769 91.003c1.659 8.057-1.658 14.693-7.344 14.693zM193.729 541.907c-5.686 0-12.083-6.636-14.452-14.693l-26.773-91.003c-2.369-8.057.237-14.693 5.923-14.693s12.083 6.636 14.453 14.693l26.772 91.003c2.369 8.057-.237 14.693-5.923 14.693z" fill="#C0C0CE"/><path d="M222.397 289.517c1.421 10.902 1.658 21.566 1.421 32.467-.237 5.451-.711 10.902-1.658 16.589a56.146 56.146 0 01-2.133 8.532c-.947 2.844-2.132 5.688-3.317 8.294-2.606 5.214-5.923 9.954-9.476 14.456-3.554 4.266-7.819 8.295-12.32 11.85-4.502 3.554-9.477 6.635-14.927 8.768-5.449 2.133-11.372 3.555-17.532 3.081-2.369-.237-4.028-2.133-4.028-4.503.237-2.133 1.896-3.792 3.791-3.792 4.502-.473 9.003-1.895 13.031-4.265 4.028-2.133 8.055-5.214 11.609-8.295 6.871-6.635 13.031-14.693 16.822-23.224a33.867 33.867 0 002.132-6.399c.474-2.133.948-4.503 1.422-6.872.71-4.74.947-9.717 1.184-14.931a161.86 161.86 0 000-15.167c0-4.976-.237-10.427-.474-15.167v-.237c-.237-4.028 2.843-7.346 6.871-7.346 3.791-.237 7.108 2.37 7.582 6.161z" fill="#EF9D7F"/><path d="M220.027 272.928c4.739-1.184 7.819 13.983 9.714 22.04 1.422 5.688 2.132 18.248 2.369 25.121 0 2.606-1.895 4.502-4.501 4.265l-19.902-1.659c-2.132-.237-3.79-1.896-3.79-4.028-.474-10.428-.711-41.473 16.11-45.739z" fill="#256EDC"/><path d="M174.064 516.786c2.843 5.925 7.819 19.196 7.819 19.196l8.292-2.133s-3.791-16.115-5.449-20.854l-10.662 3.791zM206.997 523.422c2.132 5.925 5.686 19.196 5.686 19.196l7.581-2.133s-2.369-16.115-3.554-20.855l-9.713 3.792z" fill="#FFBEA4"/><path d="M280.679 284.778c-2.369-11.376-12.557-19.67-24.166-19.67h-.474l-21.796.474c-1.185 0-2.133.237-3.08.711l-12.084 6.398c-8.766 4.503-13.267 14.457-11.135 23.936 10.425 47.871 9.003 86.974 9.003 87.448 0 2.132.711 4.028 2.369 5.45 1.422 1.185 3.08 1.896 4.739 1.896h.711l55.203-6.162c3.316-.473 6.16-3.08 6.396-6.635 3.08-42.657-2.369-77.02-5.686-93.846z" fill="#2B74E2"/><path d="M235.19 286.911c-7.344 0-13.504-6.162-13.504-13.509 0-7.346 6.16-13.508 13.504-13.508 7.345 0 13.505 6.162 13.505 13.508-.237 7.347-6.16 13.509-13.505 13.509zm0-26.543a12.743 12.743 0 00-12.794 12.797c0 7.11 5.687 12.798 12.794 12.798a12.743 12.743 0 0012.794-12.798c0-6.872-5.686-12.797-12.794-12.797zM235.664 300.656c-1.184 0-2.132-.474-2.843-1.659-.711-.948-1.185-2.37-1.185-3.792 0-3.081 1.659-5.451 4.028-5.688 1.185 0 2.132.474 2.843 1.659.711.948 1.185 2.37 1.185 3.792 0 1.422-.237 2.844-1.185 3.792-.711 1.422-1.658 1.896-2.843 1.896zm-.237-10.428c-1.895 0-3.554 2.37-3.554 4.977 0 1.422.474 2.607 1.185 3.555.711.948 1.422 1.422 2.369 1.422.948 0 1.659-.474 2.369-1.422.711-.948.948-2.133.948-3.555a5.827 5.827 0 00-1.184-3.555c-.237-.948-1.185-1.422-2.133-1.422zM237.559 314.401c-2.132 0-4.027-2.37-4.027-5.451 0-1.422.474-2.844 1.184-3.792.711-1.184 1.659-1.658 2.843-1.658 1.185 0 2.133.474 2.843 1.658.711.948 1.185 2.37 1.185 3.792 0 1.422-.237 2.844-1.185 3.792-.71.948-1.658 1.659-2.843 1.659zm0-10.427c-.237 0-.237 0 0 0-.947 0-1.895.473-2.369 1.421-.711.948-.948 2.133-.948 3.555 0 2.607 1.659 4.977 3.554 4.977.948 0 1.659-.474 2.37-1.422.71-.948.947-2.133.947-3.555a5.827 5.827 0 00-1.184-3.555c-.711-.948-1.659-1.421-2.37-1.421z" fill="#fff"/><path d="M224.292 389.051h-6.397c-4.265 0-8.292.237-12.557.474-8.292.474-16.821 1.185-25.351 2.37-8.529 1.185-17.058 2.844-25.587 5.214-8.529 2.37-17.296 5.687-26.062 10.664l-1.658.948c-.711.474-1.659.948-2.369 1.659-6.16 5.214-6.871 14.456-1.659 20.618.474.474 1.185 1.422 1.659 2.133l1.658 2.606c1.185 1.659 2.369 3.555 3.554 5.214 2.369 3.555 4.501 7.347 6.871 10.901 4.501 7.347 8.766 15.167 12.793 22.751 4.028 7.821 8.056 15.641 11.847 23.699 3.79 8.057 7.344 16.115 10.898 24.172l14.689-4.977a539.803 539.803 0 00-7.108-26.305c-2.606-8.768-5.212-17.537-8.055-26.068-2.843-8.769-5.923-17.3-9.477-25.832-1.184-2.844-2.369-5.924-3.554-8.768 1.422-.474 3.08-.948 4.502-1.422 6.634-1.896 13.978-3.318 21.086-4.266a337.532 337.532 0 0122.271-2.133c3.79-.237 7.581-.237 11.372-.237h5.686c2.843 0 5.449-2.37 5.449-5.213l1.422-27.728c-1.895-.474-3.791-.474-5.923-.474z" fill="#17203A"/><path d="M290.156 394.739l-1.421-17.537c-.237-1.896-1.185-3.792-2.606-4.977-1.422-1.185-3.317-1.896-5.213-1.659l-58.993 6.636c-3.791.474-6.397 3.555-6.397 7.347l.237 7.346c-5.213 1.185-10.662 2.607-16.111 4.029-8.292 2.37-16.821 5.214-25.351 9.005l-1.421.474c-.474.237-.948.474-1.659.711-7.107 4.029-9.477 13.271-5.449 20.381.474.711.948 1.659 1.422 2.607l1.421 2.844 2.843 5.924c1.896 4.029 3.554 8.058 5.449 12.323 3.554 8.295 6.871 16.589 9.951 25.121 3.317 8.531 6.16 17.063 9.24 25.594 2.843 8.532 5.686 17.3 8.529 26.069l15.4-3.555c-1.421-9.242-2.843-18.248-4.264-27.49-1.659-9.243-3.317-18.248-5.213-27.491-1.895-9.242-4.027-18.248-6.16-27.49-.947-3.792-1.895-7.583-2.843-11.138 2.37-.711 4.976-1.659 7.345-2.37 7.345-2.133 14.926-3.792 22.508-5.451 7.581-1.659 15.4-3.081 23.218-4.265 2.369-.474 4.502-.711 6.871-.948l9.24-.474c2.369-.237 4.738-.711 6.87-1.659h.474v-.237c2.606-1.185 5.213-2.844 7.108-5.214 3.554-3.555 5.449-8.768 4.975-14.456z" fill="#252F5A"/><path d="M215.526 373.41c0 2.607 0 7.347-.237 10.191 0 .237.237.711.711.711 6.16-.237 53.781-2.844 72.498-6.636a.51.51 0 00.474-.474c0-1.185 0-5.214-.474-10.19-.237-1.896-1.896-3.318-3.791-2.844-10.424 1.422-42.646 5.687-67.523 7.583-.947 0-1.658.711-1.658 1.659z" fill="#3021BF"/><path d="M234.48 282.171c-2.37 0-4.502-.711-6.397-2.37-12.794-11.612-13.979-29.623-14.216-31.756-.237-5.214 3.791-9.716 9.003-9.953 5.213-.237 9.714 3.791 9.951 9.005.237 3.318 2.132 13.271 7.818 18.722 3.791 3.555 4.265 9.479.711 13.508-1.895 1.896-4.264 2.844-6.87 2.844z" fill="#FFBEA4"/><path d="M229.741 257.761s-24.403 5.688-8.055 17.774c13.978 10.428 18.243-12.086 8.055-17.774z" fill="#DD8B66"/><path d="M229.267 237.381c0 1.658.237 3.791.474 5.45l.474 5.688c.237 1.896.474 3.555.711 5.451.237 1.658.474 3.317.71 4.739l.237 1.185c1.896 9.243-4.264 18.011-13.267 19.907-8.056 1.659-15.874-2.844-18.954-10.19-.948-2.607-1.895-4.74-2.606-7.11-.711-2.133-1.422-4.503-1.896-6.636-.71-2.132-1.184-4.265-1.658-6.398s-.948-4.266-1.659-6.636v-.474c-2.369-10.19 4.265-20.38 14.453-22.75 10.187-2.37 20.375 4.265 22.744 14.456 0 .948.237 2.133.237 3.318z" fill="#FFBEA4"/><path d="M211.972 252.785c.237.711.948 1.185 1.895.948.711-.237 1.185-.948.948-1.896-.237-.711-.948-1.185-1.895-.948-.711.474-1.185 1.185-.948 1.896zM196.572 257.05c.237.711.948 1.185 1.895.948.711-.237 1.185-.948.948-1.896-.237-.71-.948-1.184-1.895-.947-.711.236-1.185 1.184-.948 1.895zM208.655 247.808l-.474-.948c.237-.237 5.449-3.081 9.714-.474l-.474.711c-3.791-2.133-8.766.711-8.766.711zM215.474 267.711L215 267c3.5-1.875 5.975-6.158 5.975-6.158l.948.474c-.474 0-2.423 4.184-6.449 6.395zM191.834 251.837l-.948-.237s1.421-4.74 6.397-4.029v.948c-4.265-.711-5.213 3.081-5.449 3.318z" fill="#252F5A"/><path d="M208.418 265.108h-4.265v-.474c.711-3.792.237-7.584-1.421-11.375l.948-.474c1.658 3.791 2.132 7.583 1.658 11.375h3.08v.948z" fill="#DD8B66"/><path d="M235.901 237.618c-.237-8.058-.237-11.613-4.501-11.85l3.316-1.896s-1.658-.711-3.316.237c1.421-2.843-.237-4.976-.237-4.976l-1.659 5.45c-2.606-5.924-10.661-11.138-23.218-5.213-11.372 5.45-18.954 5.213-18.954 5.213s1.422 1.659 4.265 3.081c-4.739.474-9.477 0-9.477 0 1.184 2.133 3.317 3.792 5.923 4.74-3.791.237-6.634.237-6.634.237 1.658 2.844 4.975 4.503 8.766 4.977-2.843 1.422-4.738 2.132-4.738 2.132 5.686 5.214 20.375 1.185 28.43-6.398 4.739 9.005 12.794 19.196 16.348 18.959 5.686 0 5.923-1.896 5.686-14.693z" fill="#252F5A"/><path d="M222.633 249.704c1.896-5.925 5.213-9.243 8.766-4.503 5.45 6.636-.473 17.537-4.501 13.745-3.791-3.791-4.265-9.242-4.265-9.242z" fill="#FFBEA4"/><path opacity=".2" d="M216 524.37c-9.24-50.004-20.139-86.026-24.403-99.297-.948-3.081.473-6.399 3.553-7.584 33.406-13.745 80.791-18.958 81.265-18.958v.474c-.474 0-47.859 5.213-81.028 18.958-2.606 1.185-4.027 4.029-3.08 6.873 4.265 13.271 15.163 49.293 24.403 99.297l-.71.237z" fill="#fff"/><path d="M219.079 534.56c-1.895 2.133-5.212 4.029-7.107 4.74-.474.237-.948.711-.948 1.185-.948 3.555-5.212 16.589-10.188 20.144-5.449 4.028 8.293 3.791 12.794-2.844 4.502-6.873 7.819-10.902 10.899-13.271 2.606-1.896 1.184-6.162-2.843-9.717-.711-1.185-1.896-.948-2.607-.237zM188.99 530.531c-2.369 1.659-6.16 2.607-8.055 2.844-.474 0-.948.474-1.185.948-1.658 3.318-9.003 14.93-14.452 17.3-6.16 2.607 7.345 5.688 13.031 0 5.923-5.687 9.95-8.768 13.741-10.427 2.843-1.422 2.606-5.688-.474-10.191-.71-.947-1.658-.947-2.606-.474z" fill="#31457C"/><path d="M206.523 544.514c-.474 0-1.185-.237-1.659-.474s-.71-.711-.474-1.185c0-.948.948-1.896 2.133-2.37 1.658-.711 3.317-.237 4.975.948v.474c-.237.237-2.606 2.607-4.975 2.607zm1.658-3.555c-.474 0-.947.237-1.421.237-1.185.474-1.659 1.185-1.896 1.896 0 .237 0 .474.237.711 1.896 1.185 4.739-.948 5.686-1.659-.947-.948-1.895-1.185-2.606-1.185z" fill="#fff"/><path d="M211.261 542.144c-.237 0-3.554-.237-5.212-1.896-.474-.474-.711-1.185-.711-2.133s.711-1.422 1.422-1.659c1.421 0 3.79 1.659 4.501 5.214.237.237.237.237 0 .474.237 0 0 0 0 0zm-4.265-4.977c-.71 0-.947.474-.947.948 0 .711.237 1.185.474 1.659.947 1.185 3.317 1.659 4.264 1.659-.711-2.607-2.606-4.266-3.791-4.266zM175.012 537.878c-.711 0-1.658-.237-2.132-.711-.474-.237-.474-.711-.237-1.185.237-.948 1.421-1.659 2.606-1.896 1.658-.474 3.317.237 4.738 1.896v.237s0 .237-.237.237c-.236-.237-2.369 1.422-4.738 1.422zm.948-3.555h-.711c-1.185.237-1.895.948-2.132 1.422 0 .237 0 .474.237.711 1.658 1.659 4.975-.237 5.686-.711-.948-1.185-2.133-1.422-3.08-1.422z" fill="#fff"/><path d="M179.514 536.219c-.237 0-3.554-.711-4.739-2.844-.474-.711-.474-1.422-.237-2.132.237-.948.948-1.422 1.659-1.185 1.421.237 3.553 2.369 3.79 5.924-.237 0-.237 0-.473.237.236 0 0 0 0 0zm-3.554-5.687c-.474 0-.711.474-.948.947-.237.711 0 1.185.237 1.659.948 1.422 3.08 2.133 4.028 2.37-.237-3.081-2.133-4.739-3.317-4.976z" fill="#fff"/><path d="M287.313 310.135c-2.369-11.138-5.923-21.329-10.661-31.756-1.422-3.318-5.45-4.977-9.003-3.792-3.791 1.422-5.45 5.451-4.265 9.243v.237c1.658 4.739 3.554 9.716 4.975 14.456 1.659 4.977 2.843 9.716 4.028 14.693.948 4.977 1.895 9.716 2.132 14.456.237 4.74-.237 9.242-1.658 12.086-.237.474-.948 1.896-1.659 2.844l-1.895 3.318-4.265 6.399c-2.843 4.028-6.16 7.82-9.476 11.375-6.871 6.872-15.163 11.612-24.403 13.034-3.08-.474-7.108-.948-11.61-2.37-.71-.237-1.658-.237-2.369 0-4.501.948-9.477 10.191-8.292 14.693.711 2.844 4.738.711 9.003.237 9.477-1.422 20.612-1.422 20.849-3.555v-.947c3.554-.474 6.871-1.422 10.188-2.607 5.449-2.37 10.661-5.451 15.163-9.243 4.501-3.555 8.529-7.82 12.083-12.323 1.895-2.133 3.554-4.503 4.975-6.636l2.369-3.554c.711-1.185 1.422-2.133 2.37-4.029 1.658-3.318 2.606-6.636 3.08-9.953.474-3.081.71-6.399.473-9.243 0-5.688-.71-11.375-2.132-17.063z" fill="#FFBEA4"/><path d="M262.2 265.819c-4.739-.474-1.896 16.115-1.422 24.409.474 8.295 3.08 23.936 3.08 23.936l24.166-4.029c1.659-.237 2.843-1.896 2.606-3.555-1.658-9.716-8.292-38.628-28.43-40.761z" fill="#2269D4"/><path d="M263.384 314.164c0-.237-2.606-15.641-3.08-23.936 0-.948 0-1.659-.237-2.843-.237-4.029-.474-8.769-.474-12.798h.711c-.237 4.029.237 9.006.474 12.798 0 .947 0 1.895.237 2.843.474 8.295 3.08 23.699 3.08 23.936h-.711z" fill="#fff"/><path d="M202.258 524.607l1.659 6.162 18.716-3.081-1.184-7.821-19.191 4.74z" fill="#37477C"/><path d="M168.615 517.971l1.895 6.162 18.48-3.792-1.184-7.583-19.191 5.213z" fill="#252F5A"/><path d="M245.852 224.109h-.711v13.746h.711v-13.746z" fill="#fff"/><path d="M245.378 239.75h-.474c-.474-.237-.711-.474-.948-.947-.236-.474-.236-.948 0-1.185.237-.474.474-.711.948-.948s.948-.237 1.185 0c.474.237.711.474.947.948.237.474.237.948 0 1.185-.236.473-.473.71-.947.947-.237-.237-.474 0-.711 0zm0-2.843h-.474c-.237.237-.474.237-.474.711v.948c.237.237.237.473.711.473h.948c.237-.236.474-.236.474-.71v-.948c-.237-.237-.237-.474-.711-.474h-.474zM233.295 238.329c-4.739 0-12.083-1.659-19.191-4.266-10.898-3.792-21.323-9.954-20.138-13.271l3.08-8.769.474.237-2.844 8.769c-.947 2.369 6.871 8.057 19.665 12.56 12.794 4.503 22.508 5.214 23.218 2.844l3.08-8.769.474.237-3.08 8.769c-.237 1.185-2.132 1.659-4.738 1.659z" fill="#fff"/><path d="M254.381 225.294s-.237 0 0 0l-33.406-3.554c-1.422-.237-2.843-.711-4.028-1.422l-27.957-18.485c-.947-.474-.947-1.422-.71-2.133.236-.711.947-1.422 1.895-1.185l33.169 3.555c1.422.237 2.843.711 4.028 1.422l27.957 18.485c.947.474.947 1.421.71 2.132-.236.711-.71 1.185-1.658 1.185zm-64.443-26.068c-.711 0-.948.474-1.185.948-.237.474 0 .948.474 1.422l27.957 18.485c1.185.711 2.606 1.185 3.791 1.422l33.169 3.554c.711 0 1.185-.474 1.422-.711.236-.474 0-.948-.474-1.422l-27.957-18.484c-1.185-.711-2.606-1.185-3.791-1.422l-33.406-3.792z" fill="#fff"/><path d="M247.273 221.266l-25.113-2.607c-1.422-.237-2.843-.711-4.028-1.422l-14.452-9.48.237-.474 14.452 9.48c1.184.711 2.606 1.185 3.791 1.422l25.113 2.607v.474z" fill="#fff"/><path d="M238.033 386.918c-.71 0-1.184-.711-1.184-1.185.237-2.606-.237-4.502-1.422-5.687-1.184-1.185-3.317-1.896-6.634-1.896-.71 0-1.184-.474-1.184-1.185 0-.711.474-1.185 1.184-1.185 4.028 0 6.634.948 8.293 2.607 1.658 1.659 2.132 4.266 2.132 7.583 0 .474-.474.948-1.185.948z" fill="#252F5A"/><path d="M240.166 376.728c0 1.185-2.843 2.133-6.397 2.607-3.554.237-6.634-.237-6.871-1.422v-.948l13.268-1.185v.948z" fill="#F5F5F7"/><path d="M240.166 375.78c0 1.185-2.843 2.133-6.397 2.607-3.554.237-6.634-.237-6.871-1.422 0-1.185 2.843-2.133 6.397-2.607 3.554-.237 6.634.237 6.871 1.422z" fill="#252F5A"/><path d="M238.507 376.017c0 .711-2.132 1.422-4.975 1.659-2.843.237-5.213 0-5.213-.711s2.133-1.422 4.976-1.659c2.843-.237 5.212 0 5.212.711z" fill="#F5F5F7"/><path d="M109.621 403.744c.237 2.133 2.37 3.792 4.739 3.555l137.652-20.144c2.132-.237 3.79-2.369 3.554-4.739l-145.945 21.328z" fill="#1E64CD"/><path d="M207.233 389.525c.711 2.37 2.843 3.792 5.213 3.318l39.092-5.688c2.132-.237 3.791-2.369 3.554-4.739l-47.859 7.109z" fill="#0A4DB1"/><path d="M205.338 391.184l-91.689 13.508c-4.028.474-8.292-2.133-9.477-5.924l-18.48-61.143c-1.184-3.791 1.185-7.583 4.976-8.057l91.689-13.508c4.027-.474 8.292 2.133 9.476 5.924l18.48 61.143c1.185 4.028-.947 7.583-4.975 8.057z" fill="#1E64CD"/><path d="M203.206 391.658l-91.689 13.271c-4.028.474-8.293-2.133-9.477-5.925l-18.48-61.142c-1.185-3.792 1.184-7.584 4.975-8.058l91.926-13.508c4.028-.474 8.292 2.133 9.477 5.925l18.48 61.142c1.185 4.029-1.185 7.584-5.212 8.295z" fill="#2B74E2"/><path d="M110.095 403.033c-2.606 0-5.212-1.896-5.923-4.265l-18.48-61.143c-.473-1.421-.237-2.606.474-3.791.71-1.185 1.895-1.896 3.317-2.133l91.689-13.508c2.843-.474 5.923 1.422 6.634 4.265l18.48 61.143c.474 1.421.237 2.843-.474 3.791-.711 1.185-1.895 1.896-3.317 2.133l-91.689 13.508h-.711zm.711-.711v.237-.237l91.689-13.508c1.185-.237 2.132-.711 2.843-1.659.711-.948.711-2.133.474-3.317l-18.48-61.143c-.711-2.606-3.554-4.265-5.923-3.791L89.72 332.412c-1.185.237-2.132.711-2.843 1.659-.71.948-.71 2.133-.474 3.317l18.48 61.143c.711 2.606 3.317 4.265 5.923 3.791z" fill="#fff"/><path d="M145.634 376.017c-1.185 0-2.133 0-3.317-.237-1.422-.237-2.606-1.185-3.08-2.607-.474-1.185-.474-2.607.237-3.792 1.421-2.369 1.658-5.213.71-8.057-.947-2.844-2.843-5.451-5.449-7.11-1.421-.948-1.895-2.369-1.895-4.028.237-1.659 1.184-2.844 2.606-3.555 1.185-.474 2.369-.711 3.554-.948 8.292-1.185 17.058 4.503 19.664 12.56 1.185 4.029.711 8.058-1.421 11.375-2.132 3.318-5.449 5.214-9.477 5.925-.474.474-1.185.474-2.132.474zm-5.213-5.925c-.473.711-.473 1.659 0 2.607.474.948 1.185 1.659 2.37 1.896 1.658.237 3.553.474 5.212.237 3.791-.474 6.871-2.37 8.529-5.451 1.895-3.08 2.369-6.635 1.185-10.427-2.37-7.583-10.662-13.034-18.243-11.849-1.185.237-2.133.474-3.317.948-.948.474-1.659 1.422-1.896 2.607-.237 1.185.474 2.132 1.422 2.843 2.843 1.896 4.975 4.74 5.686 7.821.948 3.081.711 6.162-.948 8.768z" fill="#fff"/><path d="M105 255c0 6.066-5.163 11-11.313 11C87.41 266 82 260.945 82 255c0-6.065 5.163-11 11.313-11C99.59 244 105 249.055 105 255z" stroke="#fff" stroke-width="8"/><path d="M575.411 314.638c-5.686 0-10.188-4.503-10.188-10.191 0-5.687 4.502-10.19 10.188-10.19 5.686 0 10.187 4.503 10.187 10.19-.236 5.688-4.738 10.191-10.187 10.191zm0-19.67c-5.212 0-9.477 4.266-9.477 9.479 0 5.214 4.265 9.48 9.477 9.48 5.212 0 9.477-4.266 9.477-9.48 0-5.213-4.265-9.479-9.477-9.479z" fill="#fff"/><path d="M473.646 199L462 218h23l-11.354-19z" fill="#2B5EE2"/><path d="M473.544 208L470 214h7l-3.456-6z" fill="#93CEFF"/><path d="M154.4 292.124l-.237-.474-4.975-18.722 19.19 5.214-.474.474-13.504 13.508zm-4.502-18.248l4.739 17.3 12.557-12.56-17.296-4.74z" fill="#FFA76C"/><path d="M573.027 339.796l-11.392 11.395 11.392 11.394 11.392-11.394-11.392-11.395z" fill="#B8FFF6"/><path d="M573.027 347.026l-4.163 4.165 4.163 4.164 4.163-4.164-4.163-4.165z" fill="#92CDFF"/><path d="M570.672 201.122l-.236-.474 25.587-25.595.474.237-25.825 25.832z" fill="#33FF9D"/><path d="M65.442 398.253l-.335.335 25.632 25.639.335-.335-25.632-25.639z" fill="#FFA76C"/><defs><linearGradient id="paint0_linear" x1="1045.93" y1="51.967" x2="172.942" y2="710.288" gradientUnits="userSpaceOnUse"><stop stop-color="#249BFF"/><stop offset="1" stop-color="#249BFF" stop-opacity="0"/></linearGradient></defs></svg>