<svg width="132" height="120" fill="none" xmlns="http://www.w3.org/2000/svg"><path fill-rule="evenodd" clip-rule="evenodd" d="M54.007 72.448c2.83 0 5.14 2.34 5.14 5.207 0 2.868-2.31 5.207-5.14 5.207-2.83 0-5.14-2.34-5.14-5.207 0-2.792 2.31-5.207 5.14-5.207z" fill="#290A1A"/><path fill-rule="evenodd" clip-rule="evenodd" d="M54.007 72.448c-2.83 0-5.14 2.34-5.14 5.207 0 2.868 2.31 5.207 5.14 5.207 2.83 0 5.14-2.34 5.14-5.207 0-2.868-2.31-5.207-5.14-5.207z" fill="#290A1A"/><path d="M52.219 79.315c-1.267.68-2.384 1.66-3.129 2.944-.745 1.207-1.117 2.565-1.117 4.075 0 .679.074 1.358.223 1.962.15.679.447 1.283.745 1.886l-1.937 1.132c-.372-.754-.744-1.509-.968-2.414-.224-.83-.298-1.66-.298-2.566a9.9 9.9 0 011.49-5.283 10.597 10.597 0 013.948-3.773l1.043 2.037z" fill="#290A1A"/><path d="M52.368 92.522c-.149.604-.745.981-1.34.83a1.126 1.126 0 01-.82-1.358c.074-.378 0-.68-.15-.981-.148-.302-.446-.453-.744-.604h-.075c-.298-.076-.67 0-.893.15-.298.152-.447.454-.596.755v.076c-.075.302 0 .68.148.906.15.301.447.528.82.603.596.151.968.755.82 1.359-.15.603-.746.98-1.341.83a3.393 3.393 0 01-2.16-1.585c-.448-.755-.671-1.736-.373-2.717a3.431 3.431 0 011.564-2.188c.745-.453 1.713-.68 2.682-.378.968.227 1.713.83 2.16 1.585.373.83.522 1.811.298 2.717z" fill="#290A1A"/><path fill-rule="evenodd" clip-rule="evenodd" d="M81.643 72.448c2.831 0 5.14 2.34 5.14 5.207 0 2.868-2.309 5.207-5.14 5.207-2.83 0-5.14-2.34-5.14-5.207 0-2.868 2.31-5.207 5.14-5.207z" fill="#290A1A"/><path fill-rule="evenodd" clip-rule="evenodd" d="M67.862 92.748c-3.724.076-7.896-1.584-9.61-5.131l-2.68-6.415c-1.044-2.264-2.012-4.679-2.98-7.018-.447-.981-.894-2.038-.745-3.17.074-.83.521-1.434 1.117-1.962 1.043-.981 2.83-1.811 4.172-2.49l1.564 2.037c2.31 3.019 5.587 4.226 9.162 4.302 3.65-.076 6.928-1.359 9.163-4.302l1.564-2.038c1.341.68 3.054 1.585 4.172 2.49a3.49 3.49 0 011.117 1.963c.15 1.132-.298 2.189-.745 3.17-.968 2.34-1.936 4.678-2.98 7.018l-2.681 6.415c-1.713 3.622-5.96 5.207-9.61 5.131z" fill="#F4C327"/><path fill-rule="evenodd" clip-rule="evenodd" d="M77.397 77.278c-.521 5.509-2.681 10.565-5.959 14.565.224-.076.447-.227.67-.302 1.714-.83 3.204-2.113 4.023-3.698l3.65-7.924v-.075c.745-1.434 1.415-2.944 2.086-4.377a39.61 39.61 0 01-4.47 1.81z" fill="#D8A700"/><path d="M62.424 90.409c1.64.905 3.576 1.283 5.364 1.283 1.788 0 3.724-.377 5.363-1.283 1.341-.755 2.533-1.811 3.203-3.245l2.682-6.415v-.075c.745-1.51 1.341-3.094 2.011-4.604.373-.83.67-1.66.969-2.34.223-.452.372-.98.521-1.358.075-.377.15-.754.075-1.207 0-.227-.075-.453-.224-.68-.149-.226-.298-.452-.521-.603-.745-.68-2.011-1.358-3.129-1.962-.372.453-.67.906-.968 1.283a11.214 11.214 0 01-4.32 3.471c-1.789.83-3.725 1.208-5.737 1.283h.075c-2.011-.075-4.023-.453-5.736-1.283a11.214 11.214 0 01-4.32-3.471c-.299-.377-.671-.83-.969-1.283-1.117.604-2.384 1.283-3.129 1.962-.223.226-.372.377-.521.604a1.228 1.228 0 00-.224.679c-.074.377 0 .755.075 1.207.149.453.298.906.521 1.359.298.679.596 1.51.969 2.34.67 1.584 1.266 3.169 2.011 4.678v.076l2.682 6.414c.745 1.359 1.937 2.415 3.277 3.17zm5.438 3.471c-2.16 0-4.47-.452-6.406-1.509-1.788-.981-3.278-2.34-4.172-4.302v-.075l-2.681-6.415a64.799 64.799 0 01-2.012-4.754 51.975 51.975 0 00-.968-2.264c-.223-.528-.447-1.057-.596-1.66-.149-.68-.298-1.359-.149-2.038.075-.528.224-1.056.447-1.434.223-.453.596-.83.968-1.207.969-.906 2.384-1.66 3.65-2.264l.745-.378.82-.452.596.754c.521.68.968 1.283 1.564 2.038a8.898 8.898 0 003.501 2.792c1.49.68 3.129 1.057 4.842 1.057 1.714-.076 3.352-.378 4.842-1.057 1.341-.604 2.533-1.585 3.501-2.792.596-.755 1.043-1.359 1.565-2.038l.596-.754.82.452.744.378c1.266.679 2.682 1.434 3.65 2.264.373.377.745.754.969 1.207.223.453.447.906.447 1.434.074.755 0 1.434-.15 2.038-.148.603-.372 1.132-.595 1.66-.373.83-.67 1.585-.969 2.264l-2.011 4.754-2.682 6.415v.075c-.894 1.887-2.384 3.321-4.171 4.302-2.31 1.057-4.619 1.51-6.705 1.51z" fill="#290A1A"/><path fill-rule="evenodd" clip-rule="evenodd" d="M51.623 74.108c-2.98-1.434-7.598-9.584-8.566-12.98-5.29-19.018 9.683-32.3 24.73-32.602 15.048.302 30.021 13.509 24.732 32.602-.968 3.471-5.587 11.546-8.566 12.98-7.748 3.773-24.508 3.773-32.33 0z" fill="#F4C327"/><path fill-rule="evenodd" clip-rule="evenodd" d="M67.862 66.184c-4.916-.075-12.738-.68-15.196-3.924-2.458-3.32-3.129-8.452-1.564-12.226 2.756-6.867 30.765-6.867 33.521 0 1.49 3.698.894 8.905-1.564 12.226-2.459 3.245-10.28 3.849-15.197 3.924z" fill="#fff"/><path fill-rule="evenodd" clip-rule="evenodd" d="M67.862 66.184c-4.916-.075-12.738-.68-15.196-3.924-2.458-3.32-3.129-8.452-1.564-12.226.149-.453.447-.83.819-1.207-.968 3.622-.298 8.226 1.788 11.244 2.234 3.245 9.46 3.774 14.004 3.925 4.544-.076 11.77-.68 14.005-3.925 2.16-3.17 2.83-8.075 1.639-11.772.67.528 1.117 1.132 1.34 1.735 1.49 3.698.894 8.905-1.564 12.226-2.533 3.245-10.354 3.849-15.27 3.924z" fill="#E8E7E7"/><path fill-rule="evenodd" clip-rule="evenodd" d="M51.623 62.335c-1.415-3.245-2.607-7.47-2.086-10.414.67-3.396 1.937-5.585 6.481-6.792 8.418-2.264 13.036-.83 19.443-.981-1.64-5.811-5.885-7.924-9.61-8.528-11.844-2.037-25.923 13.886-14.228 26.715z" fill="#FFDA65"/><path d="M59.52 64.297c2.83.529 5.884.68 8.342.755 2.384-.075 5.513-.226 8.343-.755 2.608-.528 4.991-1.358 5.96-2.716 1.117-1.51 1.788-3.396 2.086-5.358.297-2.038.074-4.076-.596-5.736-.373-.981-1.565-1.811-3.278-2.49-3.129-1.283-7.822-1.962-12.515-1.962-4.693 0-9.386.679-12.514 1.962-1.714.679-2.831 1.509-3.278 2.49-.67 1.66-.894 3.773-.596 5.736.224 1.962.969 3.848 2.086 5.358.968 1.358 3.277 2.188 5.96 2.716zm8.268 2.944c-2.533-.076-5.81-.227-8.716-.83-3.128-.604-5.885-1.66-7.3-3.547-1.34-1.812-2.16-4.076-2.533-6.415-.298-2.415-.074-4.83.745-6.867.67-1.585 2.235-2.868 4.47-3.774 3.426-1.434 8.343-2.113 13.334-2.113 4.916 0 9.907.68 13.334 2.113 2.235.906 3.874 2.189 4.47 3.773.819 2.038 1.042 4.528.744 6.868-.298 2.34-1.117 4.603-2.532 6.415-1.416 1.886-4.172 2.943-7.3 3.547-2.906.679-6.109.83-8.716.83z" fill="#290A1A"/><path d="M65.404 60.222A1.12 1.12 0 0166 58.788a1.096 1.096 0 011.415.604c.15.453.373.755.522.906l.074.075.075-.075c.223-.151.447-.453.67-.906.298-.528.894-.755 1.49-.528.521.302.745.906.521 1.51-.372.754-.82 1.358-1.266 1.66-.447.377-.968.603-1.564.528-.522 0-1.043-.227-1.49-.68-.373-.377-.745-.905-1.043-1.66zM84.474 77.353c1.639.83 2.98 2.189 3.948 3.773.894 1.51 1.49 3.321 1.49 5.283 0 .906-.149 1.736-.298 2.566-.224.83-.521 1.66-.968 2.415l-1.937-1.132c.298-.604.596-1.207.745-1.887a8.327 8.327 0 00.223-1.962c0-1.51-.447-2.943-1.117-4.075-.745-1.208-1.788-2.264-3.129-2.943l1.043-2.038z" fill="#290A1A"/><path d="M85.442 91.994a1.126 1.126 0 01-.819 1.358c-.596.151-1.192-.226-1.34-.83a3.788 3.788 0 01.372-2.717 3.393 3.393 0 012.16-1.585 3.656 3.656 0 012.682.378 3.432 3.432 0 011.564 2.188 3.788 3.788 0 01-.373 2.717 3.393 3.393 0 01-2.16 1.585c-.596.15-1.192-.227-1.34-.83a1.126 1.126 0 01.819-1.359c.372-.075.596-.302.82-.603.148-.302.223-.604.148-.906v-.076a1.197 1.197 0 00-.596-.754c-.298-.151-.596-.227-.894-.151h-.074a1.186 1.186 0 00-.745.604c-.224.301-.298.679-.224.98z" fill="#290A1A"/><path fill-rule="evenodd" clip-rule="evenodd" d="M74.269 55.015c0-.906.297-1.811 1.415-2.868 1.043-.905 3.129-1.283 4.618.302 1.341 1.434 1.267 3.698-.223 5.132-1.862 1.962-5.736.83-5.81-2.566zM62.052 55.392c0-.905-.298-1.81-1.415-2.867-1.043-.906-3.129-1.208-4.619.302-1.34 1.433-1.266 3.697.224 5.131 1.862 1.962 5.736.83 5.81-2.566z" fill="#290A1A"/><path fill-rule="evenodd" clip-rule="evenodd" d="M57.061 53.355c-.447.15-.67.604-.596 1.056.149.453.596.68 1.043.604.447-.15.67-.604.596-1.056-.15-.453-.596-.755-1.043-.604zM76.429 53.053c-.447.15-.67.604-.596 1.056.149.453.596.68 1.043.604.447-.15.67-.604.596-1.056-.15-.529-.596-.755-1.043-.604z" fill="#fff"/><path fill-rule="evenodd" clip-rule="evenodd" d="M83.654 74.26c-.148.075-.297.15-.372.15-.149.076-.223.076-.372.15h-.075c-.149.076-.223.076-.372.152h-.075c-.149.075-.223.075-.372.15h-.075c-.149.076-.223.076-.372.152h-.075c-.149.075-.298.075-.372.15h-.075c-.149.076-.298.076-.372.152H80.6c-.149.075-.298.075-.372.075h-.075c-.149 0-.298.075-.372.075h-.075c-.148 0-.297.076-.372.076h-.075c-.148 0-.297.076-.372.076h-.074c-.15 0-.298.075-.373.075h-.074c-.15 0-.298.075-.373.075h-.074c-.15 0-.298.076-.373.076h-.149c-.149 0-.298.075-.372.075h-.15c-.148 0-.297.076-.372.076h-.149c-.149 0-.223.075-.372.075h-.15c-.148 0-.223 0-.372.076h-.223c-.149 0-.224 0-.372.075h-.15c-.148 0-.297 0-.372.076h-.149c-.149 0-.223 0-.372.075h-.15c9.908-3.698 16.91-13.282 16.91-24.602 0-7.547-3.128-14.263-8.12-19.093.522.377 1.044.68 1.565 1.056 7.524 5.66 11.993 15.245 8.716 27.018-.969 3.471-5.587 11.546-8.567 12.98-.298.453-.447.528-.522.528z" fill="#D8A700"/><path d="M48.122 68.524c1.415 2.188 2.905 4 4.023 4.528 3.724 1.81 9.683 2.716 15.717 2.716 5.96 0 11.919-.905 15.718-2.716 1.118-.529 2.607-2.415 4.023-4.528 1.788-2.793 3.426-5.962 3.873-7.773.67-2.415 1.043-4.755 1.043-6.943.075-5.887-1.937-11.019-5.214-14.943-3.278-4-7.896-6.867-12.813-8.301-2.16-.604-4.395-.981-6.704-.981-2.235.075-4.47.377-6.704.98-4.992 1.435-9.536 4.302-12.813 8.302-3.278 4-5.29 9.056-5.215 14.943A29.64 29.64 0 0044.1 60.75c.596 1.886 2.16 5.056 4.023 7.773zm3.054 6.565c-1.564-.754-3.352-2.867-4.916-5.358-1.937-2.943-3.65-6.415-4.172-8.377-.745-2.566-1.117-5.056-1.117-7.47-.15-6.491 2.085-12.076 5.736-16.453 3.575-4.301 8.566-7.47 13.93-8.98a29.439 29.439 0 017.225-1.132c2.459.075 4.917.453 7.226 1.132 5.363 1.51 10.354 4.679 13.93 8.98 3.576 4.377 5.81 9.962 5.661 16.452-.074 2.415-.372 4.905-1.117 7.471-.596 2.038-2.235 5.434-4.171 8.377-1.64 2.415-3.427 4.604-4.917 5.358-4.023 1.962-10.354 2.943-16.686 2.943-6.257.076-12.59-.905-16.612-2.943z" fill="#290A1A"/><path d="M71.96 25.206h-8.344v4.15h8.343v-4.15z" fill="#290A1A"/><path fill-rule="evenodd" clip-rule="evenodd" d="M59.445 22.64l8.194-2.113c.223-.076.447-.076.596 0l8.194 2.113c.67.15 1.043.83.894 1.51a1.352 1.352 0 01-.894.905l-8.194 2.113c-.224.075-.447.075-.596 0l-8.194-2.113c-.67-.151-1.043-.83-.894-1.51.149-.452.521-.83.894-.905z" fill="#290A1A"/><path d="M115.537 92.9c-.372.528-.894.83-1.34.452-.671-.528 0-1.66.521-2.566l1.192.906c0 .453-.149.83-.373 1.207zm-2.532 2.263c1.192.906 2.607.453 3.501-.754.447-.604.745-1.208.819-2.038.373 0 .745-.15.969-.528.372-.529.223-1.208-.224-1.585l-3.352-2.415c-.819-.604-1.49-.755-2.086-.68-.968.152-1.713.906-2.16 1.51-.447.68-.82 1.359-1.043 2.113-.149.604-.149 1.132.298 1.434.372.302.894.151 1.117-.226.373-.529.298-1.359.82-2.113.223-.302.521-.529.819-.529.298 0 .596.076.894.378l.075.075c-1.118 2.113-2.086 4.15-.447 5.358zm-5.215.68l3.576 3.47a1.14 1.14 0 001.564-.075c.447-.452.447-1.207 0-1.584l-4.246-4.151a1.14 1.14 0 00-1.564.076l-3.278 3.471c-.447.453-.447 1.207 0 1.585 1.117 1.132 1.862 1.962 2.309 2.792.596 1.057.373 1.887.894 2.339.447.453 1.192.378 1.565-.075.447-.453.521-1.207.149-2.189-.447-1.358-1.639-2.792-2.682-3.924l1.713-1.736zm-10.28 11.395c.745 1.056 1.714 1.66 2.756 1.736 1.043.151 2.086-.151 3.055-.83.894-.68 1.564-1.585 1.787-2.642.224-1.056 0-2.188-.67-3.245-.745-1.056-1.713-1.66-2.831-1.736-1.043-.151-2.085.151-3.054.831-.968.679-1.564 1.584-1.788 2.641-.149 1.056 0 2.188.745 3.245zm1.863-1.283a2.455 2.455 0 01-.447-1.736c.074-.528.298-.981.819-1.358.447-.302.968-.453 1.49-.302.521.151 1.043.453 1.415.981a2.45 2.45 0 01.447 1.736 1.902 1.902 0 01-.819 1.358 1.58 1.58 0 01-1.49.302c-.522-.151-1.043-.453-1.415-.981zm-8.195 1.283c-.297-.528-.894-.755-1.49-.528-.52.302-.819.981-.52 1.509l2.68 5.434c.224.528.97.754 1.49.452.522-.301.746-.981.522-1.509l-.894-1.887.745-.377 3.054 1.434c.447.226.745.226 1.118 0 .596-.302.745-.906.521-1.509a2.277 2.277 0 00-.596-.604l-2.756-1.283.67-2.717c.075-.302.075-.528-.074-.755-.298-.528-.894-.83-1.49-.528-.372.227-.521.453-.596.83l-.67 3.245-.745.378-.969-1.585zm-3.203 1.887c-.149-.604-.82-.906-1.415-.755a1.126 1.126 0 00-.82 1.358l1.341 4.83-2.83.755-1.341-4.83c-.15-.604-.82-.906-1.341-.755-.596.151-.968.83-.82 1.359l1.341 4.83-2.83.754-1.341-4.83c-.15-.603-.82-.905-1.341-.754-.596.151-.968.83-.82 1.358l1.565 5.736c.149.528.67.905 1.266.754l10.206-2.867c.521-.151.82-.755.67-1.283l-1.49-5.66zm-14.6 6.641c.596-.076.968-.529.968-1.132-.074-.529-.521-1.057-1.117-.981l-3.948.301c-.596.076-.969.604-.969 1.132.075.604.522 1.057 1.118.982l3.948-.302zm-9.163-3.019l-.223 1.962-3.278-.377.224-1.962c.074-.604-.373-1.208-.969-1.208-.596-.075-1.192.378-1.266.981l-.67 6.038c-.075.603.372 1.132.968 1.207.596.076 1.192-.377 1.266-.981l.224-2.113 3.277.377-.223 2.113c-.075.604.372 1.132.968 1.208.596.075 1.192-.378 1.267-.981l.67-6.038c.075-.603-.372-1.132-.968-1.207a1.117 1.117 0 00-1.267.981zm-9.833-6.415c-1.117-.302-.67-1.584-1.49-1.811-.446-.151-.893.076-.968.528-.298 1.208.82 2.491 2.086 2.868 1.34.377 2.905-.151 3.278-1.358a.755.755 0 00-.596-.981c-.894-.227-1.192 1.056-2.31.754zm-1.117 10.717a1.126 1.126 0 00.82 1.358 1.177 1.177 0 001.415-.755l1.564-5.811a1.126 1.126 0 00-.82-1.358 1.177 1.177 0 00-1.415.755l-.074.226-4.172 2.113.894-3.32a1.126 1.126 0 00-.82-1.359 1.177 1.177 0 00-1.415.755l-1.564 5.811a1.125 1.125 0 00.82 1.358 1.177 1.177 0 001.415-.754l.074-.227 4.172-2.113-.894 3.321zm-10.652-4.528c-.596-.227-.969-.755-.745-1.208.372-.755 1.639-.377 2.607 0l-.596 1.359c-.521.075-.894 0-1.266-.151zm-2.757-2.038c-.596 1.358.075 2.717 1.416 3.321.67.301 1.34.528 2.086.452.074.378.298.68.67.83.521.227 1.266 0 1.49-.528l1.639-3.773c.372-.906.447-1.585.223-2.189-.298-.981-1.192-1.509-1.862-1.811-.745-.302-1.49-.528-2.235-.604-.596 0-1.117.076-1.34.604-.224.453 0 .906.446 1.132.596.302 1.341 0 2.16.377.373.151.596.378.67.68.075.302 0 .603-.148.981l-.075.151c-2.085-.981-4.32-1.51-5.14.377zm-1.192-5.283l-2.905 4.076c-.372.452-.223 1.207.298 1.584.522.378 1.192.227 1.565-.226l3.426-4.83c.373-.453.224-1.207-.298-1.585l-3.873-2.792c-.522-.377-1.192-.226-1.565.226-.893 1.283-1.638 2.189-2.383 2.717-.969.755-1.788.679-2.16 1.208-.373.528-.224 1.207.297 1.584.522.378 1.267.302 2.16-.15 1.267-.68 2.459-2.038 3.502-3.321l1.936 1.509zm-6.63-6.64l-1.34 1.433-2.384-2.34 1.341-1.433c.447-.453.372-1.132 0-1.585a1.07 1.07 0 00-1.564 0l-4.172 4.377a1.178 1.178 0 00.075 1.585 1.07 1.07 0 001.564 0l1.415-1.51 2.384 2.34-1.415 1.509a1.178 1.178 0 00.074 1.585 1.07 1.07 0 001.564 0l4.172-4.377a1.104 1.104 0 000-1.585c-.596-.453-1.34-.453-1.713 0zM20.04 88.597c-1.043.754-1.64 1.735-1.714 2.792-.149 1.056.15 2.113.82 3.094.67.906 1.564 1.585 2.607 1.811 1.043.227 2.16 0 3.203-.679 1.043-.755 1.639-1.736 1.713-2.868.15-1.056-.149-2.113-.82-3.094-.67-.98-1.563-1.585-2.606-1.811-1.043-.15-2.16.075-3.204.755zm1.266 1.886a2.376 2.376 0 011.713-.452c.522.075.969.301 1.341.83.298.453.447.98.298 1.509-.149.528-.447 1.057-.968 1.434a2.377 2.377 0 01-1.714.453c-.521-.076-.968-.302-1.34-.83a1.635 1.635 0 01-.299-1.51c.15-.528.447-1.056.969-1.434z" fill="#290A1A"/><path fill-rule="evenodd" clip-rule="evenodd" d="M52.964 10.188c-.596.68-1.565.83-2.31.226-.67-.603-.819-1.584-.223-2.34a22.194 22.194 0 017.45-5.96A21.367 21.367 0 0167.19 0c3.278 0 6.407.755 9.238 2.113a22.194 22.194 0 017.449 5.962c.596.68.447 1.736-.224 2.34-.67.603-1.713.452-2.309-.227a18.886 18.886 0 00-6.332-5.056C72.63 4 70.023 3.32 67.192 3.32c-2.831 0-5.438.679-7.822 1.81-2.533 1.133-4.693 2.868-6.406 5.057zm6.555 5.358c-.67.83-1.862.981-2.682.302-.82-.68-.968-1.887-.298-2.717 1.267-1.585 2.905-2.943 4.768-3.849 1.788-.905 3.799-1.358 5.885-1.358 2.085 0 4.097.528 5.885 1.358 1.862.906 3.5 2.189 4.767 3.85.67.83.522 2.037-.298 2.716-.82.68-2.011.528-2.682-.302-.894-1.132-2.085-2.113-3.426-2.717a9.777 9.777 0 00-4.246-.98c-1.49 0-2.98.377-4.246.98-1.341.68-2.533 1.585-3.427 2.717z" fill="#290A1A"/><path d="M5.885 65.882h5.736c5.363 0 9.758-4.452 9.758-9.886 0-5.433-4.395-9.886-9.758-9.886H3.427C1.564 46.035 0 47.62 0 49.581V73.58c0 1.66 1.34 2.943 2.905 2.943 1.639 0 2.905-1.358 2.905-2.943v-7.698h.075zm4.693-14.791c2.682 0 4.842 2.188 4.842 4.905s-2.16 4.905-4.842 4.905H5.885v-9.81h4.693zm17.506 8.377V73.58c0 1.66 1.34 2.943 2.905 2.943 1.638 0 2.905-1.358 2.905-2.943V59.468c0-1.66-1.341-2.944-2.905-2.944-1.565-.075-2.905 1.283-2.905 2.944zM27.71 49.43c0 1.886 1.49 3.32 3.278 3.32 1.862 0 3.277-1.51 3.277-3.32 0-1.887-1.49-3.321-3.277-3.321-1.788-.075-3.278 1.434-3.278 3.32zM102.278 49.28v23.998c0 1.66 1.34 2.943 2.905 2.943 1.639 0 2.905-1.358 2.905-2.943v-9.81h7.375c1.341 0 2.458-1.133 2.458-2.491s-1.117-2.49-2.458-2.49h-7.375V50.864h8.492c1.341 0 2.458-1.132 2.458-2.49 0-1.358-1.117-2.49-2.458-2.49h-10.801c-1.937-.076-3.501 1.509-3.501 3.396zm23.539 9.961v14.112c0 1.66 1.341 2.944 2.905 2.944 1.639 0 2.905-1.359 2.905-2.944V59.241c0-1.66-1.34-2.943-2.905-2.943-1.564-.075-2.905 1.283-2.905 2.943zm2.905-6.867c1.863 0 3.278-1.51 3.278-3.32 0-1.887-1.49-3.321-3.278-3.321-1.862 0-3.277 1.509-3.277 3.32 0 1.887 1.489 3.32 3.277 3.32z" fill="#290A1A"/></svg>