<svg width="545" height="560" fill="none" xmlns="http://www.w3.org/2000/svg"><path opacity=".7" d="M455.823 147.187c-20.4-8.196-37.644-10.104-52.183-7.41-.676-59.836-16.793-112.713-65.482-132.359-46.096-18.636-78.104-.225-100.195 33.68-6.198-4.042-13.073-7.523-20.512-10.554C70.934-28.506 104.52 201.86 104.52 201.86l83.628 57.03c-.113 2.358-.113 3.593-.113 3.593 32.263 21.991 289.597 228.502 315.773 203.972 37.783-35.404 88.05-264.483-47.985-319.267z" fill="#FFE6DB"/><path opacity=".6" d="M410.005 173.079c-13.73-5.528-25.336-6.815-35.121-4.998-.456-40.36-11.303-76.025-44.073-89.276-31.026-12.57-52.569-.152-67.437 22.716-4.173-2.725-8.8-5.073-13.806-7.117-98.615-39.83-76.009 115.551-76.009 115.551l56.286 38.467c-.076 1.59-.076 2.423-.076 2.423 21.715 14.833 194.915 154.124 212.534 137.579 25.429-23.88 59.262-178.393-32.298-215.345z" fill="#FFC5B9"/><path opacity=".97" d="M6.319 337.19c38.033 59.9 149.977 68.979 112.324 111.602-37.653 42.623-77.714 100.505 52.739 109.963 130.454 9.458 317.313-35.759 342.65-108.78 25.336-73.022-370.16-222.873-370.16-222.873C103.015 248.253-30.383 279.389 6.319 337.19z" fill="#D8D7FE"/><path opacity=".97" d="M44.23 345.967c32.288 50.804 127.324 58.505 95.358 94.657-31.965 36.151-65.976 85.244 44.774 93.265 110.75 8.022 269.387-30.329 290.897-92.263 21.509-61.934-314.252-189.032-314.252-189.032-34.686 17.94-147.936 44.348-116.778 93.373z" fill="#E7E3FF"/><path d="M55.123 234.497l-34.075 17.258 30.394 25.77L77.444 248.8l-22.321-14.303z" fill="url(#paint0_linear)"/><path d="M91.454 259.793l-34.076 17.141 30.395 25.77 26.001-28.607-22.32-14.304z" fill="url(#paint1_linear)"/><path d="M125.652 76.867c-.417.203-2.367-1.418-2.257-1.484.109-.066 1.546-.785 2.372-.671.825.114.974.3 1.643.751.757.512 1.796 1.698 1.227 1.201-.57-.497-2.567 0-2.985.203z" fill="#249BFF"/><path d="M51.917 240.998l-2.375-1.3-.356-121.638 2.375 1.3.356 121.638z" fill="#D3CB00"/><path d="M51.56 119.359l-2.374-1.3 74.205-42.674 2.375 1.418-74.205 42.556z" fill="url(#paint2_linear)"/><path d="M125.766 76.804c2.137-1.182 3.8-.236 3.8 2.128l.356 112.891c0 2.482-1.662 5.437-3.799 6.619l-74.206 42.556-.356-121.638 74.205-42.556z" fill="url(#paint3_linear)"/><path d="M69.845 248.682l-16.503-9.457-.356-117.619 16.503 9.456.356 117.62z" fill="#DEDEDE"/><path d="M126.838 81.06c-.659-.656-3.116.014-3.799.354l-69.812 40.073 16.503 9.575 69.812-40.073.713-.354c.118 0 .118-.119.237-.119s.237-.118.356-.118.119 0 .238-.118h1.781c.118 0 .237 0 .356.118h.118c.119 0 .238.118.357.118l-16.86-9.456z" fill="#E6E6E6"/><path d="M139.301 90.99c3.087-1.774 5.581-.356 5.699 3.19l.357 104.735c0 3.546-2.494 7.92-5.581 9.693l-69.812 40.074-.356-117.62L139.3 90.989z" fill="#fff"/><path d="M145.712 89.097l-2.384-1.304c.238-.118 1.57-1.023 2.484-.582.915.441 3.628 2.309 2.646 1.654-.981-.654-2.508.114-2.746.232z" fill="#249BFF"/><path d="M71.507 131.771l-2.374-1.419 74.205-42.555 2.374 1.3-74.205 42.674z" fill="url(#paint4_linear)"/><path d="M145.713 89.098c2.137-1.182 3.799-.237 3.918 2.246l.356 112.89c0 2.483-1.662 5.438-3.799 6.62l-74.497 42.552-.304-121.645 74.326-42.663z" fill="url(#paint5_linear)"/><path d="M49.305 118.06l22.083 13.712.475 121.638-22.32-13.712-.238-121.638z" fill="url(#paint6_linear)"/><path d="M52.867 115.932l22.202 13.594-3.68 2.246-22.203-13.713 3.68-2.127z" fill="url(#paint7_linear)"/><path d="M53.342 142.529v88.658c0 2.246 1.187 4.492 3.087 5.674 4.512 2.955 10.567-.237 10.567-5.674v-88.658c0-2.483-1.306-4.729-3.443-5.911-4.63-2.6-10.211.591-10.211 5.911z" fill="url(#paint8_linear)"/><path d="M168.337 95.399c-.119 0-.119-.118-.238-.118s-.183-.154-.302-.273h-.593-.238c-.118 0-.173.154-.292.273h-.356c-.118.118-.356.118-.593.236l-74.272 42.397 2.377 1.541 74.269-42.52.713-.354h.118c.238-.118.475-.118.594-.118h.594c.237 0 .356.118.593.236l-2.374-1.3z" fill="#0012B6"/><path d="M167.915 96.9c2.137-1.183 3.799-.237 3.799 2.127l.357 112.891c0 2.483-1.663 5.438-3.8 6.62l-74.205 42.674-.316-121.92L167.915 96.9z" fill="#0012B6"/><path d="M111.875 268.777l-16.384-9.456-.356-117.62 16.503 9.457.237 117.619z" fill="#DEDEDE"/><path d="M168.985 101.155s-.119 0 0 0c-.119-.118-.237-.118-.356-.118h-.831H166.492c-.119 0-.238.118-.356.118h-.119-.119l-.712.355-69.813 40.073 16.504 9.575 69.456-40.073.712-.355c.119 0 .119-.118.238-.118s.237-.118.356-.118.119 0 .237-.118H184.657c.119 0 .238 0 .357.118h.118c.119 0 .238.118.356.118l-16.503-9.457z" fill="#E6E6E6"/><path d="M181.331 111.085c3.087-1.773 5.58-.355 5.699 3.192l.356 104.734c0 3.546-2.493 7.92-5.58 9.693l-69.812 40.073-.357-117.619 69.694-40.073z" fill="#0015D4"/><path d="M114.012 273.506l-2.375-1.418-.356-121.639 2.375 1.419.356 121.638z" fill="#0012B6"/><path d="M188.217 107.539c-.118 0-.118-.118-.237-.118s-.119 0-.238-.119h-.593-.238c-.118 0-.237 0-.356.119h-.356c-.119.118-.356.118-.594.236l-74.324 42.792 2.375 1.419 74.205-42.674.712-.355h.119c.238-.118.475-.118.594-.118h.593c.238 0 .357.118.594.236l-2.256-1.418z" fill="#0012B6"/><path d="M187.861 109.194c2.137-1.182 3.8-.237 3.918 2.246l.357 112.89c0 2.483-1.663 5.438-3.8 6.62l-74.205 42.674-.475-121.756 74.205-42.674z" fill="#0015D4"/><path d="M91.454 137.919l22.321 13.83v122.348l-22.321-14.303V137.919z" fill="#0012B6"/><path d="M95.234 135.746l22.34 13.758-3.799 2.246-22.321-13.831 3.78-2.173z" fill="#0012B6"/><path d="M102.615 155.414c3.087 1.773 5.699 6.147 5.699 9.811 0 3.546-2.612 5.083-5.699 3.192-3.087-1.773-5.7-6.147-5.7-9.812 0-3.546 2.613-5.083 5.7-3.191zM102.615 199.506c3.087 1.773 5.699 6.147 5.699 9.812 0 3.546-2.612 5.083-5.699 3.191-3.087-1.773-5.7-6.147-5.7-9.811 0-3.546 2.613-4.965 5.7-3.192zM102.615 238.87c3.087 1.773 5.699 6.147 5.699 9.812 0 3.546-2.612 5.083-5.699 3.191-3.087-1.773-5.7-6.147-5.7-9.811 0-3.546 2.613-4.965 5.7-3.192zM122.086 154.586v47.521l66.606-38.537v-47.166l-66.606 38.182z" fill="#fff"/><path d="M410.003 201.043v-.473-.236-.355-.355c0-.118 0-.236-.119-.354 0-.118 0-.237-.119-.473v-.118-.118-.237c0-.118-.119-.236-.119-.473 0-.118-.118-.236-.118-.354 0-.119-.119-.237-.119-.355s-.119-.236-.119-.355v-.118-.118c0-.118-.118-.118-.118-.236 0-.119-.119-.237-.119-.355s-.119-.236-.119-.236c0-.119-.119-.237-.119-.355-.118-.118-.118-.236-.237-.473v-.118-.118c0-.119-.119-.237-.119-.355-.119-.118-.119-.236-.237-.355 0-.118-.119-.118-.119-.236v-.118c-.119-.118-.119-.237-.237-.355-.119-.118-.238-.354-.357-.473v-.118c-.118-.236-.356-.473-.475-.709-.118-.118-.237-.355-.356-.473s-.237-.236-.237-.355l-.356-.354-.357-.355-.237-.236-.356-.355-.119-.118-.119-.118-.118-.119-.357-.354-.118-.118-.119-.119-.119-.118c-.119-.118-.237-.236-.356-.236l-.237-.237c-.119-.118-.238-.118-.357-.236-.118-.118-.237-.118-.356-.237h-.119L196.885 69.711c-.119 0-.119-.118-.237-.118-.119-.118-.238-.118-.357-.118-.118 0-.237-.118-.356-.118s-.237-.118-.356-.118-.237-.119-.356-.119-.238-.118-.356-.118c-.119 0-.238-.118-.357-.118-.118 0-.237 0-.356-.118H192.611c-.119 0-.356 0-.475.118-.238 0-.356.118-.594.118-.237.118-.475.237-.593.355l-5.937 3.428c.238-.118.475-.236.594-.355.237-.118.356-.118.593-.118.119 0 .357 0 .475-.118h1.544c.119 0 .237 0 .356.118.119 0 .238 0 .356.118.119 0 .238.118.356.118.119 0 .238.119.357.119.118 0 .237.118.356.118s.237.118.356.118.237.118.356.118.119.118.238.118l205.044 117.856c.237.118.593.355.831.473.237.118.475.355.712.591l.119.118c.237.237.475.355.712.591l.119.118.712.71.713.709c.237.236.475.591.593.827.238.237.357.473.475.71.119.118.238.354.356.473.119.118.119.236.238.472 0 .119.119.119.119.237l.356.709v.118c.119.355.356.591.475.946.118.355.237.591.356.946v.118c.119.355.237.591.356.946.119.354.119.591.238.945v.118c.118.355.118.592.237.946 0 .355.119.591.119.946v1.064l-.356 144.926v1.418c0 .118 0 .236-.119.355 0 .118-.119.236-.119.354s-.119.237-.119.473c0 .118-.118.355-.237.473-.119.236-.238.355-.356.591-.356.591-.831 1.064-1.425 1.3l5.936-3.428a5.034 5.034 0 001.425-1.3c.119-.118.238-.355.356-.591.119-.118.119-.355.238-.473 0-.118.119-.236.119-.473 0-.118.118-.236.118-.354 0-.119 0-.237.119-.355v-.355-.354-.355-.355l.356-144.925c.238-.119.238-.237.238-.355z" fill="#0015D4"/><path d="M395.992 191.113c4.393 2.601 7.955 8.748 7.955 13.831l-.356 144.925c0 5.083-3.562 7.093-8.074 4.611L190.473 236.624c-4.393-2.601-8.073-8.748-7.955-13.831l.357-144.925c0-5.084 3.561-7.093 8.073-4.61l205.044 117.855z" fill="#003B95"/><path d="M396.23 195.723c2.256 1.301 4.037 4.492 4.037 6.975l-.356 146.344c0 2.601-1.781 3.665-4.037 2.364l-206.35-118.564c-2.256-1.301-4.037-4.374-4.037-6.975l.356-146.344c0-2.6 1.9-3.665 4.037-2.364l206.35 118.564z" fill="#fff"/><g opacity=".26"><path opacity=".6" d="M479.102 266.886c2.375 1.418 4.393 4.728 4.393 7.447l-.237 96.933c0 2.718-2.019 3.901-4.393 2.482l-157.197-90.313c-2.374-1.418-4.393-4.728-4.393-7.565l.238-96.932c0-2.719 2.018-3.901 4.393-2.483l157.196 90.431z" fill="url(#paint9_linear)"/></g><g opacity=".51"><g opacity=".51"><path opacity=".51" d="M385.9 240.289l-.118 67.852-58.533-33.571.237-67.971 58.414 33.69z" fill="url(#paint10_linear)"/><path opacity=".51" d="M428.999 292.656l-.119 39.955-34.431-19.741.119-39.955 34.431 19.741z" fill="url(#paint11_linear)"/><path opacity=".51" d="M472.097 317.243l-.119 39.955-34.431-19.859.119-39.955 34.431 19.859z" fill="url(#paint12_linear)"/></g><path opacity=".51" d="M386.851 231.068c.831.473 1.544 1.655 1.544 2.719 0 .946-.713 1.419-1.544.946l-60.67-34.872c-.831-.473-1.544-1.655-1.544-2.719 0-.946.713-1.419 1.544-.946l60.67 34.872z" fill="url(#paint13_linear)"/><g opacity=".51"><path opacity=".51" d="M477.321 302.94c.594.355 1.069 1.182 1.069 1.891 0 .71-.475 1.064-1.069.591l-78.954-45.392c-.594-.355-1.187-1.182-1.187-1.892 0-.709.474-1.064 1.187-.591l78.954 45.393z" fill="url(#paint14_linear)"/><path opacity=".51" d="M477.321 307.905c.594.355 1.069 1.182 1.069 1.891 0 .71-.475 1.064-1.069.591l-78.954-45.274c-.594-.355-1.187-1.182-1.187-1.891 0-.71.474-.946 1.187-.592l78.954 45.275z" fill="url(#paint15_linear)"/><path opacity=".51" d="M477.321 312.751c.594.355 1.069 1.182 1.069 1.892 0 .709-.475 1.064-1.069.591l-78.954-45.393c-.594-.355-1.187-1.182-1.187-1.891 0-.71.474-1.064 1.187-.591l78.954 45.392z" fill="url(#paint16_linear)"/><path opacity=".51" d="M477.321 292.656c.594.354 1.069 1.182 1.069 1.891 0 .709-.475 1.064-1.069.591l-78.954-45.393c-.594-.354-1.188-1.182-1.188-1.891 0-.709.475-.946 1.188-.591l78.954 45.393z" fill="#AD9DCF"/><path opacity=".51" d="M478.034 283.79c.831.473 1.543 1.655 1.543 2.719 0 .945-.712 1.418-1.543.945l-60.671-34.872c-.831-.472-1.543-1.655-1.543-2.718 0-.946.712-1.419 1.543-.946l60.671 34.872z" fill="url(#paint17_linear)"/></g></g><path opacity=".32" d="M263.966 125.507c2.137 1.3 3.918 4.255 3.918 6.738l-.118 52.603c0 2.483-1.781 3.546-3.918 2.246l-87.859-50.476c-2.138-1.3-3.918-4.255-3.918-6.738l.118-52.603c0-2.483 1.781-3.546 3.918-2.246l87.859 50.476z" fill="url(#paint18_linear)"/><g opacity=".45"><path opacity=".45" d="M191.661 99.146c4.393 2.482 7.955 8.747 7.955 13.712 0 1.419-.356 2.955-.831 4.256-1.306 3.191-4.037 5.319-7.243 3.546-3.087-1.773-5.817-6.974-7.123-11.585-.594-2.009-.832-3.901-.832-5.437.119-4.965 3.681-7.093 8.074-4.492z" fill="url(#paint19_linear)"/><path opacity=".45" d="M199.259 117.705c2.137 3.546 3.443 7.565 3.443 11.23v3.428c0 1.537-.712 2.601-1.899 2.719-1.781.236-4.631.118-8.193-1.773-.356-.119-.593-.355-.831-.473-4.036-2.364-7.123-5.793-9.142-8.157-1.187-1.418-1.899-3.31-1.899-4.846v-3.428c0-3.547 1.306-6.029 3.324-7.093.356 1.3.831 2.601 1.425 3.901 1.662 3.901 3.918 6.856 6.055 8.038 2.137 1.3 4.393.828 6.055-1.064.712-.709 1.187-1.536 1.662-2.482z" fill="url(#paint20_linear)"/></g><g opacity=".45"><path opacity=".45" d="M264.085 150.686c.475.236.831.827.831 1.418 0 .473-.356.709-.831.473l-56.752-32.626c-.475-.237-.832-.946-.832-1.419 0-.472.357-.709.832-.472l56.752 32.626z" fill="url(#paint21_linear)"/><path opacity=".45" d="M264.085 156.36c.475.236.831.827.831 1.418 0 .473-.356.71-.831.473l-56.634-32.626c-.474-.236-.831-.827-.831-1.418 0-.473.357-.71.831-.473l56.634 32.626z" fill="url(#paint22_linear)"/><path opacity=".45" d="M264.085 160.97c.475.236.831.827.831 1.419 0 .472-.356.709-.831.472l-56.752-32.626c-.475-.236-.832-.945-.832-1.418s.357-.709.832-.473l56.752 32.626z" fill="url(#paint23_linear)"/><path opacity=".45" d="M264.085 166.526c.475.236.831.827.831 1.418 0 .473-.356.71-.831.473l-56.752-32.626c-.475-.236-.832-.946-.832-1.418 0-.473.357-.71.832-.473l56.752 32.626z" fill="url(#paint24_linear)"/><path opacity=".45" d="M264.085 172.081c.475.237.831.828.831 1.419 0 .473-.356.709-.831.473l-56.752-32.626c-.475-.237-.832-.946-.832-1.419 0-.473.357-.709.832-.473l56.752 32.626z" fill="url(#paint25_linear)"/><path opacity=".45" d="M264.086 142.175c.475.236.831.827.831 1.418 0 .473-.356.709-.831.473l-56.633-32.626c-.475-.236-.831-.828-.831-1.419 0-.472.356-.709.831-.472l56.633 32.626z" fill="url(#paint26_linear)"/><path opacity=".45" d="M264.679 135.791c.593.355 1.068 1.182 1.068 1.892 0 .709-.475.945-1.068.591l-43.574-25.061c-.593-.355-1.068-1.182-1.068-1.891 0-.71.475-.946 1.068-.591l43.574 25.06z" fill="url(#paint27_linear)"/></g><path opacity=".32" d="M296.142 220.902c2.137 1.3 3.918 4.255 3.918 6.738l-.119 52.603c0 2.483-1.781 3.547-3.918 2.246l-87.859-50.475c-2.137-1.301-3.918-4.256-3.918-6.738l.118-52.604c0-2.482 1.781-3.546 3.918-2.246l87.86 50.476z" fill="url(#paint28_linear)"/><path d="M279.995 228.231c4.393 2.483 7.955 8.748 7.955 13.713 0 1.418-.356 2.955-.831 4.255-1.306 3.192-4.037 5.32-7.243 3.547-3.087-1.774-5.817-6.975-7.123-11.585-.594-2.01-.831-3.901-.831-5.438 0-5.083 3.68-7.092 8.073-4.492z" fill="#0015D0"/><path d="M287.474 246.79c2.137 3.547 3.444 7.566 3.444 11.23v3.428c0 1.537-.713 2.601-1.9 2.719-1.781.237-4.631.119-8.192-1.773-.357-.118-.594-.354-.831-.473-4.037-2.364-7.124-5.792-9.143-8.156-1.187-1.419-1.899-3.31-1.899-4.847v-3.428c0-3.546 1.306-6.029 3.324-7.093a25.716 25.716 0 001.425 3.901c1.662 3.901 3.918 6.857 6.055 8.039 2.137 1.3 4.393.827 6.055-1.064.831-.709 1.306-1.537 1.662-2.483z" fill="#0015D0"/><g opacity=".45"><path opacity=".45" d="M265.747 233.196c.475.236.832.828.832 1.419 0 .472-.357.709-.832.472l-56.752-32.626c-.475-.236-.831-.945-.831-1.418s.356-.709.831-.473l56.752 32.626zM265.747 238.988c.475.237.832.828.832 1.419 0 .473-.357.709-.832.473l-56.752-32.626c-.475-.237-.831-.828-.831-1.419 0-.473.356-.709.831-.473l56.752 32.626zM265.747 243.599c.475.236.832.827.832 1.418 0 .473-.357.709-.832.473l-56.752-32.626c-.475-.237-.831-.946-.831-1.419 0-.472.356-.709.831-.472l56.752 32.626zM265.747 249.154c.475.237.832.828.832 1.419 0 .473-.357.709-.832.473l-56.752-32.626c-.475-.237-.831-.946-.831-1.419 0-.473.356-.709.831-.473l56.752 32.626zM265.747 254.592c.475.237.832.828.832 1.419 0 .473-.357.709-.832.473l-56.752-32.626c-.475-.237-.831-.946-.831-1.419 0-.473.356-.709.831-.473l56.752 32.626zM265.747 224.685c.475.236.832.827.832 1.418 0 .473-.357.71-.832.473l-56.752-32.626c-.475-.236-.831-.827-.831-1.418 0-.473.356-.71.831-.473l56.752 32.626zM253.994 211.681c.594.355 1.069 1.183 1.069 1.892 0 .709-.475.946-1.069.591l-43.573-25.061c-.594-.354-1.069-1.182-1.069-1.891 0-.709.475-.946 1.069-.591l43.573 25.06z" fill="#AD4598"/></g><path d="M343.87 440.301l-17.809 33.69-135.469-86.767 38.705-12.53 114.573 65.607z" fill="url(#paint29_linear)"/><path d="M225.38 358.381l64.35-37.237 115.048 66.08-64.469 37.236-114.929-66.079z" fill="#FF7995"/><path d="M404.778 405.074l-.119 3.073-64.35 37.236v-3.073l64.469-37.236z" fill="url(#paint30_linear)"/><path d="M340.309 442.31v3.074l-114.929-66.08v-3.073l114.929 66.079z" fill="url(#paint31_linear)"/><path d="M225.38 376.231l64.35-37.237 115.048 66.08-64.469 37.236-114.929-66.079z" fill="#AEAEAE"/><path d="M340.309 442.31L225.38 376.231l64.35-37.237 115.048 66.08-64.469 37.236z" fill="url(#paint32_linear)"/><path d="M404.541 388.643v14.185l-62.926 36.409v-14.185l62.926-36.409z" fill="#fff"/><path d="M341.615 425.051v14.186l-112.317-64.543.119-14.185 112.198 64.542z" fill="#D6D6D6"/><path d="M341.616 425.051l-112.198-64.542 62.807-36.291 112.317 64.425-62.926 36.408z" fill="url(#paint33_linear)"/><path d="M404.778 387.224l-.118 3.074-64.351 37.236v-3.074l64.469-37.236z" fill="url(#paint34_linear)"/><path d="M340.309 424.46v3.074l-114.929-66.08v-3.073l114.929 66.079z" fill="url(#paint35_linear)"/><path d="M340.309 424.46L225.38 358.381l64.35-37.237 115.048 66.08-64.469 37.236z" fill="url(#paint36_linear)"/><path d="M404.778 387.224l-.118 20.923-2.019 1.182v-20.686l2.137-1.419z" fill="url(#paint37_linear)"/><path d="M262.779 387.224s-6.649 5.911-9.38 22.105l9.38-1.891 3.324 8.748s4.75-16.432 10.805-22.578l-14.129-6.384z" fill="url(#paint38_linear)"/><path d="M388.869 385.687l-46.423 25.061-35.856-20.096 44.76-26.597 37.519 21.632z" fill="#CC6178"/><path d="M402.641 374.458v2.955l-64.351 37.354v-3.073l64.351-37.236z" fill="#FF435C"/><path d="M338.29 411.694v3.073l-114.929-66.079v-3.074l114.929 66.08z" fill="#B076A4"/><path d="M223.361 345.614l64.351-37.236 114.929 66.08-64.351 37.236-114.929-66.08z" fill="url(#paint39_linear)"/><path d="M402.522 358.026l-.118 14.185-62.926 36.409.118-14.185 62.926-36.409z" fill="#fff"/><path d="M339.597 394.435l-.119 14.185-112.198-64.542v-14.186l112.317 64.543z" fill="#D6D6D6"/><path d="M402.641 356.608v3.074l-64.351 37.236v-3.074l64.351-37.236z" fill="#FF435C"/><path d="M338.29 393.844v3.073l-114.929-66.079v-3.074l114.929 66.08z" fill="#B076A4"/><path d="M338.29 393.844v20.923l-114.929-66.079v-20.924l114.929 66.08z" fill="#FF435C"/><path d="M324.755 391.362c2.612 1.536 4.868 5.201 4.749 8.274 0 3.074-2.137 4.256-4.868 2.719-2.612-1.537-4.868-5.201-4.749-8.275 0-2.955 2.137-4.255 4.868-2.718zM276.908 364.646c2.612 1.537 4.867 5.201 4.749 8.275 0 3.073-2.137 4.255-4.868 2.719-2.612-1.537-4.868-5.202-4.749-8.275 0-2.955 2.255-4.256 4.868-2.719zM237.371 341.004c2.612 1.537 4.868 5.201 4.749 8.275 0 3.073-2.137 4.255-4.868 2.718-2.612-1.536-4.868-5.201-4.749-8.274 0-2.956 2.256-4.256 4.868-2.719z" fill="#fff"/><path d="M223.361 327.764l64.351-37.236 114.929 66.08-64.351 37.236-114.929-66.08z" fill="url(#paint40_linear)"/><path d="M166.609 417.368l-27.545 2.6 100.681 69.153 29.208-36.763c-3.918.827-18.403-17.377-35.381-18.204-18.522-.828-40.249 15.012-56.04-1.419-3.8-4.019-7.599-8.984-10.923-15.367z" fill="url(#paint41_linear)"/><path d="M166.609 415.949v1.773c0 .709.118 1.418.237 2.128v-1.774c-.119-.709-.237-1.418-.237-2.127z" fill="#684661"/><path d="M166.846 418.077v1.773c.119.71.357 1.419.594 2.128v-1.773c-.237-.709-.475-1.419-.594-2.128z" fill="#6B4864"/><path d="M167.44 420.205v1.773c.238.709.594 1.418.951 2.128v-1.774c-.357-.709-.594-1.418-.951-2.127z" fill="#6F4A67"/><path d="M168.508 422.214v1.774c.476.709.951 1.536 1.545 2.245v-1.773c-.594-.709-1.188-1.418-1.545-2.246z" fill="#724D6A"/><path d="M169.933 424.46v1.773c.713.828 1.425 1.655 2.375 2.483v-1.773c-.831-.71-1.662-1.537-2.375-2.483z" fill="#764F6D"/><path d="M172.308 426.943v1.773c1.307 1.182 2.969 2.364 4.75 3.546v-1.773c-1.781-1.064-3.443-2.246-4.75-3.546z" fill="#795171"/><path d="M177.057 430.489v1.773c.118.119.356.237.475.237 2.493 1.418 5.224 2.6 8.192 3.546v-1.773c-2.968-.946-5.699-2.128-8.192-3.546-.119 0-.357-.119-.475-.237z" fill="#7D5474"/><path d="M185.724 434.39v1.773c2.256.709 4.631 1.3 7.124 1.773v-1.773a62.793 62.793 0 01-7.124-1.773z" fill="#795171"/><path d="M192.847 436.163v1.773c1.544.237 3.206.473 4.75.709v-1.773c-1.544-.236-3.206-.472-4.75-.709z" fill="#764F6D"/><path d="M197.597 436.754v1.773c1.424.119 2.731.237 4.156.237v-1.773c-1.307 0-2.732-.119-4.156-.237z" fill="#724D6A"/><path d="M201.752 437.109v1.773h3.8v-1.773h-3.8z" fill="#6F4A67"/><path d="M205.67 437.109v1.773c1.188 0 2.494-.119 3.681-.237v-1.773c-1.306.118-2.493.237-3.681.237z" fill="#6B4864"/><path d="M209.351 436.873v1.773c1.187-.118 2.493-.237 3.681-.355v-1.773a366.86 366.86 0 00-3.681.355z" fill="#684661"/><path d="M213.031 436.518v1.773c1.306-.118 2.494-.355 3.681-.591v-1.773c-1.187.118-2.493.355-3.681.591z" fill="#64435D"/><path d="M216.712 435.808v1.773c1.306-.236 2.612-.591 3.918-.945v-1.773c-1.306.354-2.612.709-3.918.945z" fill="#61415A"/><path d="M220.63 434.863v1.773c1.544-.473 3.087-.946 4.512-1.537v-1.773c-1.425.591-2.968 1.064-4.512 1.537z" fill="#5D3F57"/><path d="M225.142 433.326v1.773c1.9-.709 3.68-1.655 5.461-2.6 7.362-4.256 11.042-9.812 11.042-15.368v-1.773c0 5.556-3.68 11.112-11.042 15.367-1.662 1.064-3.561 1.892-5.461 2.601z" fill="#5A3C54"/><path d="M204.189 437.112c20.721-.059 37.491-9.791 37.457-21.738-.034-11.948-16.859-21.586-37.58-21.527-20.721.058-37.49 9.79-37.456 21.738.034 11.947 16.859 21.585 37.579 21.527z" fill="#fff" opacity=".22"/><path d="M177.888 397.035c.475-.236.831-.473 1.306-.709.119-.118.356-.118.475-.236.356-.119.594-.355.95-.473.237-.118.356-.118.593-.237.238-.118.594-.236.832-.354.237-.119.356-.119.593-.237.238-.118.356-.118.594-.236.119 0 .119 0 .237-.118.594-.237 1.306-.473 2.019-.71.118 0 .237-.118.237-.118.594-.236 1.187-.354 1.781-.591.119 0 .238-.118.238-.118.118 0 .237-.118.356-.118l1.068-.355c.238 0 .475-.118.713-.118.356-.118.831-.237 1.187-.237.119 0 .356-.118.475-.118h.119c.356-.118.712-.118 1.187-.236.237 0 .475-.118.594-.118.474-.119.949-.119 1.424-.237h.356c.594-.118 1.188-.118 1.781-.236h.119c.594 0 1.069-.118 1.662-.118h.594c.356 0 .831 0 1.187-.119H206.739c.475 0 .831 0 1.306.119h.712c.357 0 .832.118 1.188.118h.712c.594.118 1.306.118 1.9.236h.237l2.137.355h.238c.237 0 .356.118.593.118.357.118.594.118.95.236.238 0 .475.119.831.119.357.118.594.118.95.236.238.118.475.118.831.236.356.119.594.119.95.237.238.118.475.118.712.236.357.119.594.237.95.237.119 0 .238.118.357.118.118 0 .237.118.237.118.594.237 1.069.355 1.662.591.119 0 .238.118.356.118.594.237 1.188.473 1.9.71.119.118.356.118.475.236.475.237.95.473 1.425.591.118.118.356.118.475.237.593.354 1.187.591 1.662.945.119.118.356.118.475.237.118.118.237.118.356.236.237.118.475.236.712.473.238.118.356.236.594.355.237.118.475.236.594.472.237.119.356.237.593.473.238.118.356.355.594.473.119.118.356.236.475.473.237.118.356.355.475.473l.237.236c.119.118.238.237.475.355l.119.118c.237.236.475.591.831.827.119.119.119.119.119.237.237.236.356.473.593.709l.119.118v.119l.237.236c.238.236.357.473.594.709.119.118.119.237.237.355l.357.709.118.118c0 .119.119.237.119.237.119.236.238.354.238.591.118.118.118.354.237.473.119.236.119.354.238.591 0 .118.118.118.118.236s0 .118.119.237c.119.236.119.354.237.591 0 .118.119.354.119.472 0 .237.119.355.119.592 0 .118 0 .236.119.236v.236c0 .237.118.355.118.591 0 .119 0 .355.119.473V419.259c0-.118 0-.355-.119-.473 0-.236 0-.355-.118-.591 0-.118-.119-.355-.119-.473 0-.236-.119-.355-.119-.591 0-.118-.119-.355-.119-.473 0-.236-.118-.354-.237-.591 0-.118-.119-.355-.237-.473-.119-.236-.119-.354-.238-.591-.119-.118-.119-.354-.237-.473-.119-.236-.238-.354-.238-.591-.119-.118-.119-.354-.237-.473l-.357-.709c-.118-.118-.118-.236-.237-.354-.119-.237-.356-.473-.594-.71-.118-.118-.118-.236-.237-.354l-.119-.119c-.237-.236-.356-.472-.593-.709 0-.118-.119-.118-.119-.236-.238-.237-.475-.591-.831-.828l-.119-.118c-.237-.236-.475-.355-.594-.591-.118-.118-.356-.355-.593-.473-.119-.118-.356-.236-.475-.473-.238-.118-.356-.354-.594-.472-.237-.119-.356-.237-.593-.473-.238-.119-.357-.237-.594-.473-.238-.118-.356-.237-.594-.355-.237-.118-.475-.236-.712-.473-.238-.118-.594-.354-.831-.472-.594-.355-1.069-.592-1.662-.946-.119-.118-.357-.118-.475-.237-.475-.236-.95-.472-1.425-.591-.119-.118-.356-.118-.475-.236-.594-.236-1.187-.473-1.9-.709-.118 0-.237-.119-.356-.119-.593-.236-1.068-.354-1.662-.591-.237-.118-.475-.118-.712-.236-.357-.118-.594-.236-.95-.236-.238-.119-.475-.119-.713-.237-.356-.118-.593-.118-.949-.236-.238-.118-.475-.118-.832-.237-.356-.118-.593-.118-.949-.236-.238 0-.475-.118-.831-.118-.357-.118-.594-.118-.95-.237-.238 0-.475-.118-.713-.118l-2.137-.355h-.237c-.594-.118-1.306-.118-1.9-.236-.237 0-.475 0-.712-.118-.356 0-.831-.118-1.188-.118h-.712c-.475 0-.831 0-1.306-.119h-6.174c-.356 0-.831 0-1.187.119h-.594c-.593 0-1.068.118-1.662.118h-.119c-.593.118-1.187.118-1.781.236h-.356c-.475.118-.95.118-1.424.237-.238 0-.475.118-.594.118-.356.118-.713.118-1.187.236-.238 0-.357.119-.594.119-.356.118-.831.236-1.187.236-.238 0-.475.118-.713.118l-1.068.355a.91.91 0 00-.594.236c-.594.118-1.187.355-1.781.591-.119 0-.237.118-.237.118-.713.237-1.306.473-2.019.71a5.792 5.792 0 01-.831.354c-.237.119-.356.119-.593.237-.238.118-.594.236-.832.354-.237.119-.356.119-.593.237-.356.118-.594.354-.95.473-.119.118-.356.118-.475.236-.475.237-.95.473-1.306.709-7.361 4.256-11.042 9.812-10.923 15.249v-8.156c-.119-5.201 3.562-10.757 10.923-15.013z" fill="#FF8A33"/><path d="M166.371 412.994v.591c0 .118 0 .354.119.473 0 .236 0 .354.119.591 0 .118.118.354.118.473 0 .236.119.354.119.591 0 .118.119.354.119.472 0 .237.118.355.237.592 0 .118.119.354.238.472.118.237.118.355.237.591.119.119.119.355.238.473.118.237.237.355.237.591.119.119.119.355.237.473.119.237.238.473.475.709.119.119.119.237.238.355.119.236.356.473.593.709.119.119.119.237.238.355l.119.118c.237.237.356.473.593.709l.238.237c.237.236.475.591.831.827l.119.119c.237.236.475.354.712.591.119.118.356.354.594.472.118.119.356.237.475.473.237.118.356.355.593.473.238.118.356.237.594.473.237.118.475.355.593.473.238.118.357.236.594.354.238.119.475.237.712.473.238.237.594.355.832.591.593.355 1.187.591 1.78.946.119.118.357.118.475.236l1.425.71c.119.118.356.118.475.236a32.18 32.18 0 001.9.709c.118 0 .237.119.356.119.594.236 1.068.354 1.662.591.238.118.475.118.712.236.357.118.594.236.95.236.238.119.475.119.831.237.357.118.594.118.95.236.238.118.475.119.831.237.357.118.594.118.95.236.238.118.475.118.831.118.356.119.713.119.95.237.238 0 .475.118.712.118l2.138.355h.237c.594.118 1.306.118 1.9.236.237 0 .475 0 .712.118.356 0 .831.118 1.187.118h.713c.475 0 .831 0 1.306.119h6.292c.357 0 .831 0 1.188-.119h.593c.594 0 1.069-.118 1.662-.118h.238c.594-.118 1.187-.118 1.781-.236.119 0 .237 0 .356-.118.475-.119.95-.119 1.425-.237.237 0 .475-.118.712-.118.356-.118.712-.118 1.187-.236.238 0 .475-.119.594-.119.475-.118.831-.236 1.306-.236.238 0 .475-.118.712-.118.357-.118.713-.237 1.188-.355.237-.118.475-.118.593-.236.594-.119 1.188-.355 1.781-.591.119 0 .238-.119.238-.119.712-.236 1.306-.472 2.018-.709.238-.118.475-.236.831-.354.238-.119.475-.119.594-.237.237-.118.594-.236.831-.355.237-.118.356-.118.594-.236.356-.118.593-.355.949-.473.119-.118.357-.118.475-.236.475-.237.95-.473 1.306-.71 7.48-4.255 11.161-9.929 11.161-15.485v8.156c0 5.675-3.681 11.23-11.161 15.486-.475.236-.949.473-1.306.709-.118.118-.356.118-.475.237-.356.118-.593.354-.949.473-.238.118-.357.118-.594.236s-.594.236-.831.355c-.238.118-.356.118-.594.236-.237.118-.356.118-.593.236-.119 0-.119 0-.238.119-.712.236-1.306.472-2.018.709-.119 0-.238.118-.238.118-.593.237-1.187.355-1.781.591-.118 0-.237.118-.237.118-.119 0-.238.119-.356.119-.356.118-.713.236-1.188.354-.237.118-.474.118-.712.118-.475.119-.831.237-1.306.237-.119 0-.356.118-.475.118h-.119c-.356.118-.712.118-1.187.236-.237 0-.475.119-.712.119-.475.118-.95.118-1.425.236h-.356c-.594.118-1.187.118-1.781.237h-.119c-.593.118-1.068.118-1.662.118h-.594c-.356 0-.831.118-1.187.118h-1.781-4.512c-.474 0-.831 0-1.306-.118h-.712c-.356 0-.831-.118-1.187-.118h-.713c-.593-.119-1.306-.119-1.899-.237h-.238l-2.137-.355h-.237c-.238 0-.356-.118-.594-.118-.356-.118-.712-.118-.95-.236-.237 0-.475-.118-.831-.118-.356-.119-.593-.119-.95-.237-.237-.118-.475-.118-.831-.236s-.593-.118-.95-.237c-.237-.118-.475-.118-.831-.236s-.593-.236-.95-.236c-.118 0-.237-.119-.356-.119-.118 0-.237-.118-.237-.118-.594-.236-1.069-.355-1.662-.591-.119 0-.238-.118-.357-.118-.593-.237-1.306-.473-1.899-.709-.119-.119-.356-.119-.475-.237l-1.425-.709c-.119-.118-.356-.118-.475-.237-.593-.354-1.187-.591-1.781-.945-.118-.118-.356-.237-.475-.237-.118-.118-.237-.118-.475-.236-.237-.118-.474-.236-.712-.473-.237-.118-.356-.236-.594-.355-.237-.118-.474-.236-.593-.472-.238-.119-.356-.237-.594-.473-.237-.118-.356-.355-.593-.473-.119-.118-.357-.236-.475-.473-.238-.118-.357-.355-.594-.473l-.237-.236-.475-.473-.119-.118-.831-.828-.238-.236c-.237-.237-.475-.473-.593-.709l-.119-.119v-.118l-.238-.236c-.237-.237-.356-.473-.593-.709-.119-.119-.119-.237-.238-.355-.118-.236-.237-.473-.475-.709 0-.119-.118-.119-.118-.237s-.119-.236-.119-.236c-.119-.237-.237-.355-.237-.591-.119-.118-.119-.355-.238-.473-.119-.236-.119-.355-.237-.591 0-.118-.119-.118-.119-.237 0-.118 0-.118-.119-.236-.119-.236-.119-.355-.237-.591 0-.118-.119-.355-.119-.473 0-.236-.119-.354-.119-.591 0-.118 0-.236-.118-.236v-.237c0-.236-.119-.354-.119-.591 0-.118 0-.354-.119-.473v-.591-.354V412.285v.709z" fill="#E17D32"/><path opacity=".22" d="M230.962 396.917c14.722 8.512 14.603 22.342-.119 30.853-14.841 8.511-38.705 8.511-53.428 0-14.722-8.511-14.603-22.341.119-30.853 14.722-8.511 38.706-8.511 53.428 0zm-.594 30.499c14.604-8.393 14.604-21.987.119-30.38s-38.112-8.393-52.716 0c-14.603 8.393-14.603 21.987-.118 30.38s38.112 8.393 52.715 0z" fill="#FF8A33"/><path d="M228.941 433.208v-.236-.237-.236-.237-.236-.237-.236-.355c0-.118 0-.118.119-.236 0-.118 0-.118.118-.236 0-.119 0-.119.119-.237 0-.118 0-.118.119-.236v-.119c0-.118 0-.118.119-.236 0-.118.118-.118.118-.236 0-.119.119-.119.119-.237s.119-.118.119-.236c.119-.118.237-.355.237-.473.119-.118.119-.236.238-.355 0-.118.118-.118.118-.236s.119-.118.119-.118l.119-.119.119-.118.118-.118.119-.118.119-.118.119-.119.118-.118h.119l.119-.118.119-.118.118-.118.119-.119s.119 0 .119-.118c0 0 .118 0 .118-.118 0 0 .119 0 .119-.118 0 0 .119 0 .119-.118h1.306c.119 0 .119 0 .237.118.119 0 .238.118.357.118l38.942 22.578c-.118-.118-.356-.118-.593-.236h-.594c-.237 0-.475.118-.712.118l-.713.355c-.237.118-.474.354-.712.472-.237.237-.475.355-.712.591-.238.237-.475.473-.594.71-.237.236-.356.591-.594.827-.118.237-.356.591-.474.828-.119.354-.238.591-.357.945-.118.355-.118.591-.237.946 0 .355-.119.591-.119.946 0 .236 0 .591.119.827 0 .237.119.473.237.709.119.119.119.355.238.473l.119.118.356.355-37.993-22.342-.357-.354-.118-.118-.119-.119c0-.118-.119-.118-.119-.236s0-.118-.119-.237c0-.118 0-.118-.118-.236v-.236-.119-.118-.236-.355-.236c-.119.236-.119.118-.119.118z" fill="#FF8A33"/><path d="M270.687 449.509c-2.019 1.182-3.8 4.019-3.681 6.383 0 2.364 1.662 3.31 3.799 2.128 2.019-1.182 3.8-4.019 3.681-6.383-.118-2.364-1.781-3.31-3.799-2.128z" fill="#E17D32"/><path d="M182.4 344.905l-47.254 40.191-82.16-52.485 32.175-11.467 97.239 23.761z" fill="url(#paint42_linear)"/><path d="M248.887 302.94v5.438l-106.262 61.351v-5.319l106.262-61.47z" fill="#C5C5C5"/><path d="M142.626 364.409v5.32l-70.763-40.664v-5.438l70.763 40.782z" fill="#898989"/><path d="M248.888 302.94l-106.262 61.469-70.762-40.782 106.262-61.351 70.762 40.664z" fill="#fff"/><path d="M236.422 302.467c.95.473.95 1.419 0 1.892-.95.472-2.375.472-3.325 0l-61.857-35.582c-.95-.591-.95-1.418 0-1.891.95-.591 2.374-.591 3.324 0l61.858 35.581zM228.822 307.787c.95.473.95 1.418 0 1.891-.949.473-2.374.473-3.324 0l-61.857-35.581c-.95-.591-.95-1.419 0-1.891.949-.591 2.374-.591 3.324 0l61.857 35.581zM220.275 312.988c.95.473.95 1.419 0 1.892-.95.473-2.375.473-3.325 0l-61.857-35.582c-.95-.591-.95-1.418 0-1.891.95-.591 2.375-.591 3.324 0l61.858 35.581zM212.794 318.308c.95.473.95 1.418 0 1.891-.95.473-2.375.473-3.324 0l-61.858-35.581c-.95-.591-.95-1.419 0-1.892.95-.591 2.375-.591 3.325 0l61.857 35.582zM195.58 326.819c.95.472.95 1.418 0 1.891-.95.473-2.375.473-3.325 0l-61.857-35.581c-.95-.591-.95-1.419 0-1.892.95-.591 2.374-.591 3.324 0l61.858 35.582zM187.98 332.138c.95.473.95 1.418 0 1.891-.95.473-2.375.473-3.324 0l-61.858-35.581c-.95-.591-.95-1.418 0-1.891.95-.591 2.375-.591 3.324 0l61.858 35.581zM179.432 337.339c.949.473.949 1.419 0 1.892-.95.472-2.375.472-3.325 0l-61.857-35.582c-.95-.591-.95-1.418 0-1.891.949-.591 2.374-.591 3.324 0l61.858 35.581zM171.952 342.541c.949.473.949 1.418 0 1.891-.95.473-2.375.473-3.325 0l-61.857-35.581c-.95-.591-.95-1.419 0-1.891.95-.592 2.374-.592 3.324 0l61.858 35.581zM158.536 351.288c.95.473.95 1.419 0 1.892-.949.472-2.374.472-3.324 0l-61.857-35.582c-.95-.591-.95-1.418 0-1.891.95-.591 2.374-.591 3.324 0l61.857 35.581zM150.343 354.835c.95.472.95 1.418 0 1.891-.95.473-2.375.473-3.324 0l-61.858-35.581c-.95-.591-.95-1.419 0-1.892.95-.591 2.375-.591 3.325 0l61.857 35.582z" fill="#1D13A2"/><path d="M223.124 288.873l-41.674 24.943c-1.187.709-.475 2.482.831 2.246l15.791-2.483c.831-.118 1.543.71 1.306 1.537l-2.968 10.639c-.356 1.064.95 1.891 1.781 1.3l41.911-27.07c.712-.473.712-1.655 0-2.009l-15.672-8.984c-.475-.355-.95-.355-1.306-.119z" fill="url(#paint43_linear)"/><path d="M393.499 453.658l-61.502 28.961 52.004 35.818 57.464-48.348-47.966-16.431z" fill="url(#paint44_linear)"/><path d="M441.94 394.553c-.593-.354-1.306-.709-2.018-1.064l-.713-.354c-.356-.237-.831-.355-1.187-.473-.119 0-.119 0-.237-.118-.119-.119-.356-.119-.475-.119-.594-.236-1.069-.354-1.662-.591-.238-.118-.357-.118-.594-.118-.119 0-.238-.118-.356-.118-.238-.118-.475-.118-.713-.118-.593-.118-1.068-.237-1.662-.355-.119 0-.237-.118-.475-.118-.237 0-.475-.118-.712-.118-.475-.118-.95-.118-1.425-.237-.237 0-.356-.118-.593-.118-.238 0-.475 0-.594-.118-.475 0-.95-.118-1.306-.118-.238 0-.475 0-.594-.119h-.593c-.475 0-.95 0-1.425-.118h-4.037c-.594 0-1.187.118-1.9.118h-1.068c-.238 0-.356 0-.594.119-.593.118-1.306.118-1.899.236-.119 0-.357 0-.475.118h-.238c-.237 0-.593.119-.831.237-.475.118-.95.236-1.543.354-.357.119-.713.237-1.069.237l-1.425.354c-.118 0-.237 0-.356.119-.594.236-1.068.354-1.662.591-.119 0-.119 0-.238.118l-1.78.709c-.119.118-.357.118-.475.237-.594.354-1.188.591-1.781.945-.119.118-.238.118-.356.237-.475.236-.95.591-1.425.945-.119 0-.119.119-.238.119l-1.424 1.063c-.119 0-.119.119-.238.119l-.237.236-.95.946-.238.236c-.118.237-.356.355-.475.591-.118.118-.237.355-.356.473 0 .118-.118.118-.118.118-.238.355-.357.591-.594.946-.119.118-.119.236-.119.355 0 .118-.119.118-.119.236-.118.355-.356.709-.474 1.064 0 .118 0 .118-.119.236 0 .119 0 .119-.119.237-.119.354-.237.709-.237 1.064v.473c-.119.354-.119.709-.119 1.182v.236l-.119 51.421c0-.472 0-.945.119-1.418v-.236c.119-.473.237-.828.356-1.301 0-.118 0-.118.119-.236.119-.473.356-.828.593-1.301 0-.118.119-.118.119-.236.238-.473.475-.827.713-1.3 0-.118.118-.118.118-.118.238-.355.594-.71.831-1.064l.238-.237 1.187-1.182c.119 0 .119-.118.238-.118l1.424-1.064c.119 0 .119-.118.238-.118.593-.355 1.068-.709 1.662-1.064.594-.355 1.187-.709 1.781-.946.119-.118.356-.118.475-.236l1.781-.709c.119 0 .118-.119.237-.119.594-.236 1.306-.473 1.9-.709l1.425-.355c.356-.118.712-.236 1.068-.236.475-.118.95-.236 1.544-.355.356-.118.712-.118 1.068-.236.119 0 .356 0 .475-.118.594-.118 1.187-.237 1.9-.237.237 0 .356 0 .593-.118.357 0 .713-.118 1.069-.118.594 0 1.187-.118 1.9-.118h3.918c.475 0 .949 0 1.424.118.475 0 .831.118 1.306.118.475 0 .95.118 1.306.118.357 0 .832.119 1.188.119.475.118.95.118 1.424.236.357.118.713.118 1.069.236.594.119 1.187.237 1.662.355.356.118.713.236 1.069.236.237 0 .356.119.593.119.594.118 1.069.354 1.663.591.118 0 .356.118.475.118.474.236.949.355 1.424.591l.713.355c.712.354 1.306.709 2.018 1.063 5.343 3.074 8.074 7.093 7.955 11.112l.119-51.421c.356-3.901-2.375-7.92-7.718-10.994z" fill="#202E6B"/><path d="M452.151 406.256v.827c0 .119 0 .237-.119.473 0 .118 0 .237-.119.355 0 .118-.118.236-.118.473 0 .118-.119.236-.119.354 0 .119-.119.237-.119.473 0 .118-.119.237-.119.355s-.118.354-.237.473c0 .118-.119.236-.119.354-.119.118-.119.237-.237.473-.119.118-.119.237-.238.355-.118.118-.237.354-.356.473-.119.118-.119.236-.237.354-.119.237-.238.355-.475.591-.119.118-.119.118-.119.237-.237.354-.475.591-.712.827l-.238.237-.712.709c-.119.118-.238.236-.356.236-.119.118-.238.237-.475.355l-.357.355c-.118.118-.356.236-.474.354-.119.118-.238.237-.475.355-.119.118-.357.236-.475.354-.119.119-.356.237-.475.355s-.356.236-.475.355c-.238.118-.475.236-.712.473-.594.354-1.306.709-2.019 1.063-.119.119-.356.119-.593.237-.594.236-1.306.591-1.9.827-.119 0-.119.119-.238.119l-2.137.709c-.475.118-.95.236-1.543.473a15.1 15.1 0 01-1.187.354 38.7 38.7 0 01-1.663.355c-.356.118-.831.118-1.187.236-.119 0-.356 0-.475.119-.712.118-1.306.236-2.018.236-.238 0-.356 0-.594.118-.356 0-.831.118-1.187.118-.713 0-1.306.119-2.019.119h-4.274c-.475 0-.95 0-1.543-.119-.475 0-.95-.118-1.306-.118-.475 0-.95-.118-1.425-.118-.475 0-.831-.118-1.306-.236-.475-.119-1.069-.119-1.543-.237-.357-.118-.832-.118-1.188-.236-.593-.119-1.187-.237-1.781-.473-.356-.118-.831-.237-1.187-.355-.237-.118-.356-.118-.594-.236-.593-.237-1.187-.355-1.781-.591-.118-.118-.356-.118-.474-.237-.475-.236-1.069-.473-1.544-.709l-.712-.355-2.137-1.063c-3.206-1.892-5.581-4.02-7.005-6.384-.594-1.064-1.069-2.128-1.306-3.191-.119-.237-.119-.592-.119-.828-.119-.591-.119-1.064-.119-1.655l-.119 51.422c0 4.373 2.85 8.747 8.668 12.057l2.137 1.064.712.354c.475.237.831.355 1.306.592.119 0 .119 0 .238.118.118.118.356.118.474.236.594.237 1.188.473 1.781.591.238.118.357.118.594.237.119 0 .237.118.356.118.238.118.475.118.713.236.593.118 1.187.355 1.78.473.119 0 .357.118.475.118.238 0 .475.119.713.119.475.118 1.068.236 1.543.236.238 0 .356.118.594.118.237 0 .475 0 .712.118.475.119.95.119 1.425.119.237 0 .475 0 .712.118h.713c.475 0 .95.118 1.543.118h4.274c.713 0 1.306-.118 2.019-.118H427.93c.238 0 .356 0 .594-.118.712-.119 1.306-.119 2.018-.237.119 0 .356 0 .475-.118h.238c.356 0 .593-.118.949-.236.594-.119 1.069-.237 1.663-.355.356-.118.831-.237 1.187-.355.475-.118 1.068-.236 1.543-.473.119 0 .238-.118.356-.118.594-.236 1.188-.354 1.781-.591.119 0 .119-.118.238-.118.594-.236 1.306-.473 1.9-.828.237-.118.356-.118.593-.236.713-.355 1.306-.709 2.019-1.064.118-.118.237-.118.356-.236.118-.118.237-.118.356-.237.119-.118.356-.236.475-.354s.356-.237.475-.355c.118-.118.356-.236.475-.355.118-.118.237-.236.475-.354.118-.118.356-.237.474-.355l.357-.354c.118-.119.237-.237.475-.355l.118-.118.119-.118.712-.71.238-.236c.237-.237.475-.591.712-.828 0-.118.119-.118.119-.236.119-.236.237-.355.475-.591.119-.118.119-.237.237-.355.119-.118.238-.354.357-.473 0 0 0-.118.118-.118 0-.118.119-.118.119-.236.119-.118.119-.237.237-.473.119-.118.119-.236.119-.355.119-.118.119-.354.238-.473 0-.118 0-.118.118-.236 0-.118 0-.118.119-.236 0-.119.119-.237.119-.473 0-.118.119-.237.119-.355s.118-.236.118-.473v-.354c0-.119 0-.237.119-.473v-.355-.473-.236-.236l.119-51.422v.473z" fill="#252F5A"/><path d="M443.484 393.608c11.517 6.619 11.517 17.376.119 23.996-11.398 6.62-30.038 6.62-41.555 0s-11.517-17.377-.119-23.996c11.398-6.62 30.039-6.502 41.555 0zm-39.774 23.051c10.567 6.147 27.901 6.147 38.35 0 10.448-6.147 10.448-16.077-.119-22.106-10.567-6.147-27.901-6.147-38.349 0-10.567 6.147-10.567 16.077.118 22.106z" fill="#0F183E"/><path d="M395.992 407.792s26.596-20.214 53.784-.118c0 0-2.73 13.476-28.494 13.476-22.678.118-25.29-13.358-25.29-13.358z" fill="#000115"/><path opacity=".31" d="M416.652 420.914s-25.052-8.039-14.841-25.415c10.21-17.496 50.934-19.623 43.098-44.093-7.836-24.351-49.747-18.322-38.824-43.501 0 0 8.192 18.322 28.139 6.265 19.827-11.939 35.499 48.111 14.366 65.134-21.134 17.022-4.512 25.179-3.918 30.498.475 5.319-12.111 14.54-28.02 11.112z" fill="#fff"/><path d="M447.639 421.269s24.339-5.202 24.339 15.84c0 20.332-13.297 21.632-22.321 20.096" stroke="#252F5A" stroke-width="6.554" stroke-miterlimit="10"/><path d="M249.483 321.026c0 .118 0 .118-.119.118l-.119.118s-.119 0-.119.119l-.118.118-2.375 1.418c-.119.118-.238.118-.475.118h-.594c-.237 0-.356 0-.475-.118-.119 0-.356-.118-.475-.236l-2.375-1.419c-.237-.118-.475-.354-.475-.591v5.911c0 .236.119.473.475.591l2.375 1.418c.119 0 .119.119.238.119 0 0 .118 0 .118.118h1.307c.118 0 .237-.118.356-.118l2.375-1.419h.118s.119 0 .119-.118l.119-.118v-.119V320.908c.119 0 .119.118.119.118z" fill="#7335A6"/><path d="M249.483 321.026c0 .118 0 .118-.119.118l-.119.118s-.119 0-.119.119l-.118.118-2.375 1.418c-.119.118-.238.118-.475.118h-.594c-.237 0-.356 0-.475-.118-.119 0-.356-.118-.475-.236l-2.375-1.419c-.237-.118-.475-.354-.475-.591v5.911c0 .236.119.473.475.591l2.375 1.418c.119 0 .119.119.238.119 0 0 .118 0 .118.118h1.307c.118 0 .237-.118.356-.118l2.375-1.419h.118s.119 0 .119-.118l.119-.118v-.119V320.908c.119 0 .119.118.119.118z" fill="#000F96"/><path d="M249.012 320.317c.594.354.594.827 0 1.182l-2.374 1.418a2.047 2.047 0 01-2.019 0l-2.375-1.418c-.594-.355-.594-.828 0-1.182l2.375-1.419a2.052 2.052 0 012.019 0l2.374 1.419z" fill="#000957"/><path d="M247.227 294.429c0 .118 0 .118-.119.118l-.119.118s-.119 0-.119.119c0 0-.118 0-.118.118-.119.118-.357.118-.475.236h-.119c-.119 0-.356.118-.594.118-.237 0-.356 0-.594-.118-.237 0-.356-.118-.474-.236-.357-.118-.475-.355-.475-.591l-.119 26.833c0 .237.119.473.475.591.119 0 .119.119.237.119.119 0 .119 0 .238.118h1.306c.119 0 .237-.118.356-.118h.119s.119 0 .119-.119l.118-.118v-.236l.119-26.834c.238-.236.238-.118.238-.118z" fill="#7335A6"/><path d="M247.227 294.429c0 .118 0 .118-.119.118l-.119.118s-.119 0-.119.119c0 0-.118 0-.118.118-.119.118-.357.118-.475.236h-.119c-.119 0-.356.118-.594.118-.237 0-.356 0-.594-.118-.237 0-.356-.118-.474-.236-.357-.118-.475-.355-.475-.591l-.119 26.833c0 .237.119.473.475.591.119 0 .119.119.237.119.119 0 .119 0 .238.118h1.306c.119 0 .237-.118.356-.118h.119s.119 0 .119-.119l.118-.118v-.236l.119-26.834c.238-.236.238-.118.238-.118z" fill="#000F96"/><path d="M246.755 293.601c.594.355.594.946 0 1.3-.594.355-1.663.355-2.256 0-.594-.354-.594-.945 0-1.3.712-.355 1.662-.355 2.256 0z" fill="#4F2473"/><path d="M309.558 297.148v.827c0 .118 0 .237-.119.473 0 .118 0 .236-.119.355 0 .118-.118.236-.118.472 0 .119-.119.237-.119.355s-.119.237-.119.473c0 .118-.119.236-.119.355 0 .118-.118.236-.237.472 0 .119-.119.237-.119.355-.119.118-.119.236-.237.473-.119.118-.119.236-.238.354-.118.119-.237.355-.356.473-.119.119-.119.237-.237.355-.119.236-.238.355-.357.591l-.237.236c-.237.237-.475.591-.712.828l-.238.236c-.237.237-.475.473-.712.591-.119.119-.238.237-.356.237-.119.118-.238.236-.475.354l-.356.355c-.119.118-.357.237-.475.355a1.649 1.649 0 01-.475.354c-.119.119-.357.237-.475.355-.119.118-.356.236-.475.355-.119.118-.356.236-.475.354l-.712.355c-.475.236-.832.473-1.306.709-.119.118-.238.118-.357.237-.356.118-.712.354-1.068.472-.119 0-.238.119-.356.119-.475.236-.95.354-1.425.591-.119 0-.119.118-.238.118-.356.118-.831.354-1.306.473-.118 0-.356.118-.475.118-.237.118-.474.118-.712.236-.237 0-.356.119-.594.119-.237.118-.474.118-.712.236-.237 0-.356.118-.594.118-.237 0-.474.118-.712.118-.237 0-.356.119-.594.119-.237 0-.474.118-.712.118-.237 0-.356.118-.594.118-.593.118-1.068.236-1.662.236h-.237c-.475.119-.95.119-1.425.119h-.594c-.356 0-.593 0-.949.118H276.433c-.357 0-.713-.118-1.069-.118h-.356c-.475 0-.95-.119-1.425-.119h-.237c-.357 0-.832-.118-1.188-.236-.118 0-.356-.118-.475-.118-.356 0-.593-.118-.831-.118-.118 0-.356-.119-.475-.119-.356-.118-.593-.118-.949-.236-.238 0-.357-.118-.594-.118-.238-.118-.594-.118-.831-.237-.119 0-.356-.118-.475-.118-.475-.118-.95-.236-1.306-.473-.119 0-.119 0-.238-.118-.475-.118-1.068-.355-1.543-.591-.119 0-.238-.118-.356-.118-.713-.237-1.306-.591-1.9-.828-.119 0-.119-.118-.237-.118-.594-.355-1.306-.591-1.9-.946-5.699-3.309-8.548-7.565-8.548-11.939l-.119 26.952c0 4.256 2.849 8.629 8.548 11.939.594.355 1.306.71 1.9.946.119 0 .119.118.237.118.594.355 1.306.591 1.9.828 0 0 .119 0 .119.118h.118c.475.236 1.069.355 1.544.591.119 0 .119 0 .237.118.475.118.95.237 1.425.473.119 0 .119 0 .238.118.118 0 .118 0 .237.118.238.119.594.119.831.237.119 0 .356.118.475.118.356.118.594.118.95.237.119 0 .237 0 .356.118h.119c.356.118.593.118.95.118.118 0 .356.118.475.118.356.118.831.118 1.187.237h.237c.475.118.95.118 1.425.118h.356c.356 0 .713.118 1.069.118h.475c.237 0 .593 0 .831.118H284.031c.356 0 .594 0 .95-.118h.594c.475 0 .949-.118 1.424-.118h.238c.593-.118 1.068-.118 1.662-.237h.119c.118 0 .237 0 .475-.118.237 0 .475-.118.712-.118s.356-.118.594-.118c.237 0 .475-.118.712-.118s.356-.119.594-.119c.237-.118.475-.118.712-.236.237 0 .356-.118.594-.118.237-.119.475-.119.712-.237.119 0 .238-.118.356-.118.119 0 .119 0 .238-.118a5.815 5.815 0 001.306-.473c.118 0 .118-.118.237-.118.475-.237.95-.355 1.425-.591.119 0 .237-.118.356-.118.356-.119.712-.355 1.069-.473.118-.119.237-.119.356-.237.475-.236.95-.473 1.306-.709.119-.118.237-.118.356-.236.119-.119.237-.119.356-.237s.356-.236.475-.354c.119-.119.356-.237.475-.355s.356-.237.475-.355.237-.236.475-.354c.119-.119.356-.237.475-.355l.356-.355c.119-.118.237-.236.475-.354l.119-.118.118-.119.713-.709.237-.236c.238-.237.475-.591.713-.828 0-.118.118-.118.118-.236.119-.237.238-.355.356-.591.119-.118.119-.237.238-.355s.237-.355.356-.473l.119-.118c0-.118.119-.118.119-.236.118-.119.118-.237.237-.473.119-.118.119-.237.119-.355.118-.118.118-.236.237-.473 0-.118 0-.118.119-.236v-.118c0-.119.119-.237.119-.473 0-.118.118-.237.118-.355s.119-.236.119-.473v-.354c0-.119 0-.237.119-.473v-.355-.473-.236-.236l.119-26.952c.474.236.474.354.356.591z" fill="#7335A6"/><path d="M309.558 297.148v.827c0 .118 0 .237-.119.473 0 .118 0 .236-.119.355 0 .118-.118.236-.118.472 0 .119-.119.237-.119.355s-.119.237-.119.473c0 .118-.119.236-.119.355 0 .118-.118.236-.237.472 0 .119-.119.237-.119.355-.119.118-.119.236-.237.473-.119.118-.119.236-.238.354-.118.119-.237.355-.356.473-.119.119-.119.237-.237.355-.119.236-.238.355-.357.591l-.237.236c-.237.237-.475.591-.712.828l-.238.236c-.237.237-.475.473-.712.591-.119.119-.238.237-.356.237-.119.118-.238.236-.475.354l-.356.355c-.119.118-.357.237-.475.355a1.649 1.649 0 01-.475.354c-.119.119-.357.237-.475.355-.119.118-.356.236-.475.355-.119.118-.356.236-.475.354l-.712.355c-.475.236-.832.473-1.306.709-.119.118-.238.118-.357.237-.356.118-.712.354-1.068.472-.119 0-.238.119-.356.119-.475.236-.95.354-1.425.591-.119 0-.119.118-.238.118-.356.118-.831.354-1.306.473-.118 0-.356.118-.475.118-.237.118-.474.118-.712.236-.237 0-.356.119-.594.119-.237.118-.474.118-.712.236-.237 0-.356.118-.594.118-.237 0-.474.118-.712.118-.237 0-.356.119-.594.119-.237 0-.474.118-.712.118-.237 0-.356.118-.594.118-.593.118-1.068.236-1.662.236h-.237c-.475.119-.95.119-1.425.119h-.594c-.356 0-.593 0-.949.118H276.433c-.357 0-.713-.118-1.069-.118h-.356c-.475 0-.95-.119-1.425-.119h-.237c-.357 0-.832-.118-1.188-.236-.118 0-.356-.118-.475-.118-.356 0-.593-.118-.831-.118-.118 0-.356-.119-.475-.119-.356-.118-.593-.118-.949-.236-.238 0-.357-.118-.594-.118-.238-.118-.594-.118-.831-.237-.119 0-.356-.118-.475-.118-.475-.118-.95-.236-1.306-.473-.119 0-.119 0-.238-.118-.475-.118-1.068-.355-1.543-.591-.119 0-.238-.118-.356-.118-.713-.237-1.306-.591-1.9-.828-.119 0-.119-.118-.237-.118-.594-.355-1.306-.591-1.9-.946-5.699-3.309-8.548-7.565-8.548-11.939l-.119 26.952c0 4.256 2.849 8.629 8.548 11.939.594.355 1.306.71 1.9.946.119 0 .119.118.237.118.594.355 1.306.591 1.9.828 0 0 .119 0 .119.118h.118c.475.236 1.069.355 1.544.591.119 0 .119 0 .237.118.475.118.95.237 1.425.473.119 0 .119 0 .238.118.118 0 .118 0 .237.118.238.119.594.119.831.237.119 0 .356.118.475.118.356.118.594.118.95.237.119 0 .237 0 .356.118h.119c.356.118.593.118.95.118.118 0 .356.118.475.118.356.118.831.118 1.187.237h.237c.475.118.95.118 1.425.118h.356c.356 0 .713.118 1.069.118h.475c.237 0 .593 0 .831.118H284.031c.356 0 .594 0 .95-.118h.594c.475 0 .949-.118 1.424-.118h.238c.593-.118 1.068-.118 1.662-.237h.119c.118 0 .237 0 .475-.118.237 0 .475-.118.712-.118s.356-.118.594-.118c.237 0 .475-.118.712-.118s.356-.119.594-.119c.237-.118.475-.118.712-.236.237 0 .356-.118.594-.118.237-.119.475-.119.712-.237.119 0 .238-.118.356-.118.119 0 .119 0 .238-.118a5.815 5.815 0 001.306-.473c.118 0 .118-.118.237-.118.475-.237.95-.355 1.425-.591.119 0 .237-.118.356-.118.356-.119.712-.355 1.069-.473.118-.119.237-.119.356-.237.475-.236.95-.473 1.306-.709.119-.118.237-.118.356-.236.119-.119.237-.119.356-.237s.356-.236.475-.354c.119-.119.356-.237.475-.355s.356-.237.475-.355.237-.236.475-.354c.119-.119.356-.237.475-.355l.356-.355c.119-.118.237-.236.475-.354l.119-.118.118-.119.713-.709.237-.236c.238-.237.475-.591.713-.828 0-.118.118-.118.118-.236.119-.237.238-.355.356-.591.119-.118.119-.237.238-.355s.237-.355.356-.473l.119-.118c0-.118.119-.118.119-.236.118-.119.118-.237.237-.473.119-.118.119-.237.119-.355.118-.118.118-.236.237-.473 0-.118 0-.118.119-.236v-.118c0-.119.119-.237.119-.473 0-.118.118-.237.118-.355s.119-.236.119-.473v-.354c0-.119 0-.237.119-.473v-.355-.473-.236-.236l.119-26.952c.474.236.474.354.356.591z" fill="#0015D0"/><path d="M301.128 284.736c11.398 6.501 11.398 17.14.119 23.642-11.279 6.501-29.563 6.501-40.961 0-11.398-6.502-11.398-17.141-.119-23.642 11.279-6.502 29.563-6.502 40.961 0z" fill="#AD74A1"/><path d="M323.449 295.966v.473c0 .118 0 .118-.119.236 0 .118 0 .118-.118.236 0 .119-.119.119-.119.237l-.119.118c0 .118-.119.236-.237.236l-.119.119-.356.354-.119.119-.237.236c-.119 0-.119.118-.238.118-.119.118-.237.118-.237.237-.119.118-.238.118-.238.236l-35.618 20.569-.713.354c-.118 0-.118.118-.237.118-.238.119-.356.119-.594.237-.118 0-.118 0-.237.118-.119 0-.238.118-.356.118-.119 0-.238 0-.357.118-.118 0-.237.119-.474.119-.119 0-.238 0-.238.118-.237 0-.594.118-.831.118H278.214c-.119 0-.238 0-.357-.118-.118 0-.237 0-.356-.118-.119 0-.356-.119-.475-.119-.118 0-.237 0-.237-.118-.238-.118-.594-.118-.831-.236h-.119c-.356-.118-.712-.355-1.069-.473l-35.856-20.569c-1.543-.827-2.255-2.009-2.255-3.191v3.782c0 1.183.712 2.365 2.255 3.192l35.856 20.569c.357.236.713.354 1.069.473h.119c.237.118.593.236.831.236h.356c.119 0 .356.118.475.118h.356c.119 0 .238 0 .356.118H281.775c.357 0 .594-.118.832-.118h.237c.119 0 .237 0 .475-.118.119 0 .237 0 .356-.118.119 0 .238-.118.356-.118h.238c.237-.119.356-.119.593-.237.119 0 .119-.118.238-.118l.712-.355 35.619-20.568h.118c.119 0 .119-.118.238-.118.119-.119.237-.119.237-.237.119 0 .119-.118.238-.118l.237-.237.119-.118.356-.354.119-.119v-.118c.119-.118.119-.236.237-.236 0 0 0-.118.119-.118 0-.119.119-.119.119-.237 0 0 0-.118.119-.118 0-.118 0-.118.118-.236v-.119-.354-3.901c-.237-.118-.356 0-.356 0z" fill="#000F96"/><path d="M321.193 292.538c3.087 1.773 3.087 4.61 0 6.383l-35.618 20.569c-3.087 1.773-7.955 1.773-11.042 0l-35.856-20.569c-3.087-1.773-3.087-4.61 0-6.383l35.618-20.569c3.087-1.773 7.955-1.773 11.042 0l35.856 20.569z" fill="#9D64CC"/><path d="M321.193 292.538c3.087 1.773 3.087 4.61 0 6.383l-35.618 20.569c-3.087 1.773-7.955 1.773-11.042 0l-35.856-20.569c-3.087-1.773-3.087-4.61 0-6.383l35.618-20.569c3.087-1.773 7.955-1.773 11.042 0l35.856 20.569z" fill="#0015D0"/><path d="M330.455 364.764h-3.918v7.683h3.918v-7.683z" fill="#EFDDD4"/><path d="M326.536 370.32s-1.899 4.728 2.019 4.728c3.799 0 3.918-2.6 8.548-6.265 3.087-2.482-3.087-3.546-6.055-1.3-2.85 2.128-3.206 3.901-4.512 2.837z" fill="#13169E"/><path d="M346.958 374.812h-3.919v7.683h3.919v-7.683z" fill="#EFDDD4"/><path d="M343.039 380.249s-1.899 4.729 2.019 4.729c3.799 0 3.918-2.601 8.548-6.265 3.087-2.483-3.087-3.547-6.055-1.301-2.85 2.246-3.206 4.019-4.512 2.837z" fill="#13169E"/><path d="M323.212 288.518s-4.987 21.751 5.343 25.297c10.329 3.665 2.018-25.297 2.018-25.297h-7.361z" fill="#FFD79C"/><path d="M349.451 313.224l-1.187 63.597c-.356 1.892-2.256 3.074-3.918 2.719-1.544-.355-2.612-1.891-2.375-3.546v-23.879l-4.393-20.214s-1.068 6.856-2.731 15.249c-1.662 8.512-3.087 19.86-3.087 19.86-.118 2.009-2.018 3.31-3.561 3.073-1.306-.236-2.375-1.537-2.375-3.191v-4.847c0-3.428.237-8.866.594-17.022 0 0-1.188-31.562 3.68-38.892l19.353 7.093z" fill="#1C21EF"/><path d="M383.051 289.7l2.493-.591c1.662-.354 2.256-2.482.95-3.664l-1.306-1.182c-.356-.237-.238-.828 0-1.064l2.612-2.128c.475-.591.475-1.3.119-1.773-.594-.591-1.9-.473-2.375.827-1.187.946-2.256 1.773-3.443 2.719l-2.612.355-.119 3.191 2.85 3.074c.356.236.593.236.831.236z" fill="#FFD79C"/><path d="M350.638 290.646s5.58 13.713 9.498 13.713c3.918 0 21.134-11.467 22.321-14.777l-2.85-3.073s-12.585 6.501-17.334 10.284c0 0-3.443-5.674-5.224-6.974-1.781-1.182-6.174-2.601-6.411.827z" fill="#FFD79C"/><path d="M341.971 270.905s2.493-1.064 7.48 4.846c4.867 5.911 10.685 15.013 12.941 18.441l-8.074 6.029-4.749-7.684 1.069 21.042s-16.503 10.52-22.677-5.202v-14.421s-4.156.236-6.53-3.665c0 0 1.543-19.859 9.498-21.987 8.073-2.009 11.042 2.601 11.042 2.601z" fill="#FF8271"/><path d="M351.113 254.355c0 4.847-3.799 11.94-8.667 11.94s-8.786-7.211-8.786-11.94c0-4.846 3.918-8.747 8.786-8.747 4.749 0 8.667 3.901 8.667 8.747z" fill="#FFD79C"/><path d="M338.647 274.687h-.356a3.185 3.185 0 01-3.206-3.191v-14.895h6.768v14.895a3.185 3.185 0 01-3.206 3.191z" fill="#FFD79C"/><path d="M345.414 253.41s7.48 7.566 8.429 2.601c.95-4.965-3.68-9.221-3.68-9.221s7.361 2.365 6.174-1.182c-1.188-3.546-11.754-2.128-11.754-2.128s-.357-3.191-2.256-2.364c-1.9.828-2.019 3.783-2.019 3.783s-3.205-2.364-4.393-.946c-1.306 1.419 1.188 2.364 1.188 2.364s-7.005 1.537-5.818 7.566c1.187 6.029 3.681 10.639 8.43 9.93 0 0-3.918-2.365-2.137-7.92 1.781-5.556 3.918-2.246 3.68-1.301-.237.946-2.256 2.601-.119 3.665 2.138 1.182 4.275-4.847 4.275-4.847z" fill="#13169E"/><path d="M75.782 225.04s12.11 19.741 9.26 24.824c-2.85 5.083-13.178-19.86-13.178-19.86l3.918-4.964z" fill="#FFD79C"/><path d="M44.556 223.385s-5.699 6.738-9.617 13.948c-3.918 7.211 9.973 0 13.773-6.974l-4.156-6.974z" fill="#FFCB7C"/><path d="M65.69 211.327s9.973.709 15.672 20.214c.119.355 0 .709-.356.828l-6.649 3.428c-.356.236-.831 0-.95-.355l-1.662-5.201.712 6.62 1.188 21.75s-26.477 4.61-26.477-10.757c0 0 6.53-1.891 6.53-8.275l-.83-10.52-6.412 5.674c-.475.354-1.069.354-1.425-.118l-4.868-6.266a1.07 1.07 0 010-1.182c2.019-2.6 10.092-13.003 17.097-15.367 7.955-2.955 8.43-.473 8.43-.473z" fill="url(#paint45_linear)"/><path d="M48.712 198.56c0 4.847 3.799 11.94 8.667 11.94s8.786-7.211 8.786-11.94c0-4.846-3.918-8.747-8.786-8.747-4.75.118-8.667 4.019-8.667 8.747z" fill="#FFD79C"/><path d="M61.178 219.011h.357a3.186 3.186 0 003.206-3.192v-14.894h-6.769v14.894c0 1.655 1.425 3.192 3.206 3.192z" fill="#FFD79C"/><path d="M48.711 197.497c-.83-.71-.95 4.137 5.58 5.437 0 0-2.137-1.182-.95-3.31 0 0 1.307 3.665 5.58 3.31 0 0-2.017-.472 0-3.31 2.02-2.837.357 7.211 2.376 5.556 2.018-1.536-1.425-6.028.83-6.501 2.256-.473 2.494 5.083 1.663 7.329 0 0 5.699-5.438 4.393-10.403-1.306-4.846-2.256-7.802-7.362-9.929l.476 2.246s-4.275-4.492-10.805-1.182l-3.443 3.073 5.937-.355s-6.293 1.419-6.65 9.221l2.375-1.182z" fill="#13169E"/><path d="M72.1 252.346s12.942 5.202 12.942 19.269c0 14.067-45.829 7.329-45.829 7.329v-6.147s22.44-1.655 37.518-3.428c0 0-10.092-3.547-17.215-8.275 0 .118-6.768-8.748 12.585-8.748z" fill="#1C21EF"/><path d="M53.343 252.346s-16.622-21.75-21.253-17.731c-8.548 7.447 2.494 30.734 22.44 45.984l3.68-3.192-18.996-22.933s16.622 8.511 20.303 6.738c3.68-1.891-6.174-8.866-6.174-8.866z" fill="#1C21EF"/><path d="M39.214 272.797s-10.805-5.202-13.18-1.537c-2.492 3.665 1.307 8.748 13.18 7.684 11.991-1.182 0-6.147 0-6.147z" fill="#0B0D5E"/><path d="M36.482 271.614s4.513-1.182 5.819.946l-2.731.355-3.088-1.301z" fill="#0B0D5E"/><path d="M47.168 247.736l2.018 5.674s-7.955-6.62 0 0 24.34 3.901 24.34 3.901l-.594-10.402-20.303-3.429s-1.543 2.956-5.461 4.256z" fill="#1C21EF"/><path d="M85.517 247.027c-.712-3.192-5.105 0-5.105 0l-11.754 7.683c-.475.355-1.069.237-1.544-.118-.831-.709-2.374-1.773-2.968-1.182-.475.473.356 1.064 1.187 1.655-2.256-.118-6.411.591-6.292 2.246.475 5.319 9.617 0 9.617 0 13.535-3.665 17.571-7.093 16.859-10.284zM40.52 235.206c-3.324-2.956-10.33-9.221-16.266-14.067-1.068-.237-2.018.591-2.018 1.536v.71c0 .118 10.33 15.012 16.74 15.603 2.02.237 3.088-2.364 1.544-3.782z" fill="#FFD79C"/><path d="M23.898 215.938l5.698 1.3c.12 0 .238.118.238.236l3.206 12.176c.118.236-.238.591-.475.355l-5.937-2.838c-.119 0-.119-.118-.237-.236l-2.968-10.639c0-.118.237-.354.475-.354z" fill="#000A68"/><path d="M22.117 224.567c-.712-1.892.712-4.02 2.731-4.02 1.9 0 3.8.355 4.275 2.01 1.069 3.31-6.056 4.492-7.006 2.01z" fill="#FFD79C"/><defs><linearGradient id="paint23_linear" x1="214.878" y1="124.545" x2="230.57" y2="169.336" gradientUnits="userSpaceOnUse"><stop stop-color="#249BFF"/><stop offset="1" stop-color="#249BFF" stop-opacity=".31"/></linearGradient><linearGradient id="paint0_linear" x1="49.38" y1="277.46" x2="86.76" y2="242.934" gradientUnits="userSpaceOnUse"><stop stop-color="#E7E3FF" stop-opacity="0"/><stop offset=".965" stop-color="#A59BDE"/></linearGradient><linearGradient id="paint2_linear" x1="60.167" y1="70.688" x2="79.526" y2="127.857" gradientUnits="userSpaceOnUse"><stop stop-color="#249BFF"/><stop offset="1" stop-color="#249BFF"/></linearGradient><linearGradient id="paint3_linear" x1="62.797" y1="58.705" x2="179.436" y2="152.807" gradientUnits="userSpaceOnUse"><stop stop-color="#249BFF"/><stop offset="1" stop-color="#249BFF" stop-opacity="0"/></linearGradient><linearGradient id="paint4_linear" x1="80.114" y1="83.1" x2="99.473" y2="140.269" gradientUnits="userSpaceOnUse"><stop stop-color="#249BFF"/><stop offset="1" stop-color="#249BFF"/></linearGradient><linearGradient id="paint5_linear" x1="82.862" y1="70.976" x2="199.632" y2="165.05" gradientUnits="userSpaceOnUse"><stop stop-color="#249BFF"/><stop offset="1" stop-color="#249BFF" stop-opacity="0"/></linearGradient><linearGradient id="paint6_linear" x1="52.539" y1="103.604" x2="103.873" y2="118.112" gradientUnits="userSpaceOnUse"><stop stop-color="#008BFF"/><stop offset="1" stop-color="#249BFF"/></linearGradient><linearGradient id="paint7_linear" x1="52.897" y1="114.24" x2="60.227" y2="134.549" gradientUnits="userSpaceOnUse"><stop stop-color="#249BFF"/><stop offset="1" stop-color="#249BFF"/></linearGradient><linearGradient id="paint8_linear" x1="55.3" y1="124.771" x2="87.217" y2="131.995" gradientUnits="userSpaceOnUse"><stop stop-color="#249BFF"/><stop offset="1" stop-color="#249BFF"/></linearGradient><linearGradient id="paint9_linear" x1="341.11" y1="154.651" x2="476.527" y2="346.938" gradientUnits="userSpaceOnUse"><stop stop-color="#249BFF"/><stop offset="1" stop-color="#249BFF" stop-opacity=".31"/></linearGradient><linearGradient id="paint10_linear" x1="335.659" y1="195.754" x2="409.217" y2="267.802" gradientUnits="userSpaceOnUse"><stop stop-color="#249BFF"/><stop offset="1" stop-color="#249BFF" stop-opacity=".31"/></linearGradient><linearGradient id="paint11_linear" x1="399.403" y1="266.539" x2="442.649" y2="308.982" gradientUnits="userSpaceOnUse"><stop stop-color="#249BFF"/><stop offset="1" stop-color="#249BFF" stop-opacity=".31"/></linearGradient><linearGradient id="paint12_linear" x1="442.501" y1="290.996" x2="485.832" y2="333.437" gradientUnits="userSpaceOnUse"><stop stop-color="#249BFF"/><stop offset="1" stop-color="#249BFF" stop-opacity=".31"/></linearGradient><linearGradient id="paint13_linear" x1="333.78" y1="191.855" x2="351.744" y2="241.773" gradientUnits="userSpaceOnUse"><stop stop-color="#249BFF"/><stop offset="1" stop-color="#249BFF" stop-opacity=".31"/></linearGradient><linearGradient id="paint14_linear" x1="408.824" y1="252.173" x2="430.689" y2="314.505" gradientUnits="userSpaceOnUse"><stop stop-color="#249BFF"/><stop offset="1" stop-color="#249BFF" stop-opacity=".31"/></linearGradient><linearGradient id="paint15_linear" x1="408.824" y1="257.327" x2="430.552" y2="319.486" gradientUnits="userSpaceOnUse"><stop stop-color="#249BFF"/><stop offset="1" stop-color="#249BFF" stop-opacity=".31"/></linearGradient><linearGradient id="paint16_linear" x1="408.824" y1="261.984" x2="430.689" y2="324.316" gradientUnits="userSpaceOnUse"><stop stop-color="#249BFF"/><stop offset="1" stop-color="#249BFF" stop-opacity=".31"/></linearGradient><linearGradient id="paint17_linear" x1="424.962" y1="244.577" x2="442.926" y2="294.494" gradientUnits="userSpaceOnUse"><stop stop-color="#249BFF"/><stop offset="1" stop-color="#249BFF" stop-opacity=".31"/></linearGradient><linearGradient id="paint18_linear" x1="185.809" y1="62.385" x2="262.732" y2="172.812" gradientUnits="userSpaceOnUse"><stop stop-color="#249BFF"/><stop offset="1" stop-color="#249BFF" stop-opacity=".31"/></linearGradient><linearGradient id="paint19_linear" x1="185.886" y1="95.544" x2="202.547" y2="115.003" gradientUnits="userSpaceOnUse"><stop stop-color="#003E73"/><stop offset="1" stop-color="#004177"/></linearGradient><linearGradient id="paint20_linear" x1="183.887" y1="106.55" x2="201.442" y2="131.835" gradientUnits="userSpaceOnUse"><stop stop-color="#003E73"/><stop offset="1" stop-color="#004177"/></linearGradient><linearGradient id="paint21_linear" x1="214.878" y1="114.26" x2="230.57" y2="159.052" gradientUnits="userSpaceOnUse"><stop stop-color="#249BFF"/><stop offset="1" stop-color="#249BFF" stop-opacity=".31"/></linearGradient><linearGradient id="paint22_linear" x1="214.979" y1="119.935" x2="230.697" y2="164.706" gradientUnits="userSpaceOnUse"><stop stop-color="#249BFF"/><stop offset="1" stop-color="#249BFF" stop-opacity=".31"/></linearGradient><linearGradient id="paint1_linear" x1="85.71" y1="302.639" x2="129.565" y2="261.213" gradientUnits="userSpaceOnUse"><stop stop-color="#E7E3FF" stop-opacity="0"/><stop offset=".965" stop-color="#A59BDE"/></linearGradient><linearGradient id="paint24_linear" x1="214.878" y1="130.101" x2="230.57" y2="174.892" gradientUnits="userSpaceOnUse"><stop stop-color="#249BFF"/><stop offset="1" stop-color="#249BFF" stop-opacity=".31"/></linearGradient><linearGradient id="paint25_linear" x1="214.878" y1="135.656" x2="230.57" y2="180.448" gradientUnits="userSpaceOnUse"><stop stop-color="#249BFF"/><stop offset="1" stop-color="#249BFF" stop-opacity=".31"/></linearGradient><linearGradient id="paint26_linear" x1="214.981" y1="105.749" x2="230.698" y2="150.521" gradientUnits="userSpaceOnUse"><stop stop-color="#249BFF"/><stop offset="1" stop-color="#249BFF" stop-opacity=".31"/></linearGradient><linearGradient id="paint27_linear" x1="226.591" y1="107.591" x2="239.449" y2="143.354" gradientUnits="userSpaceOnUse"><stop stop-color="#249BFF"/><stop offset="1" stop-color="#249BFF" stop-opacity=".31"/></linearGradient><linearGradient id="paint28_linear" x1="217.985" y1="157.78" x2="294.908" y2="268.207" gradientUnits="userSpaceOnUse"><stop stop-color="#249BFF"/><stop offset="1" stop-color="#249BFF" stop-opacity=".31"/></linearGradient><linearGradient id="paint29_linear" x1="288" y1="463" x2="327.146" y2="389.507" gradientUnits="userSpaceOnUse"><stop stop-color="#E7E3FF" stop-opacity="0"/><stop offset=".965" stop-color="#A59BDE"/></linearGradient><linearGradient id="paint30_linear" x1="340.314" y1="425.197" x2="404.723" y2="425.197" gradientUnits="userSpaceOnUse"><stop stop-color="#1E13A5"/><stop offset="1" stop-color="#0C084F"/></linearGradient><linearGradient id="paint31_linear" x1="225.376" y1="410.793" x2="340.323" y2="410.793" gradientUnits="userSpaceOnUse"><stop stop-color="#1E13A5"/><stop offset="1" stop-color="#0C084F"/></linearGradient><linearGradient id="paint32_linear" x1="225.385" y1="390.633" x2="404.723" y2="390.633" gradientUnits="userSpaceOnUse"><stop stop-color="#1E13A5"/><stop offset="1" stop-color="#0C084F"/></linearGradient><linearGradient id="paint33_linear" x1="229.366" y1="374.63" x2="404.54" y2="374.63" gradientUnits="userSpaceOnUse"><stop stop-color="#1E13A5"/><stop offset="1" stop-color="#080533"/></linearGradient><linearGradient id="paint34_linear" x1="340.314" y1="407.377" x2="404.723" y2="407.377" gradientUnits="userSpaceOnUse"><stop stop-color="#1E13A5"/><stop offset="1" stop-color="#0C084F"/></linearGradient><linearGradient id="paint35_linear" x1="225.376" y1="392.974" x2="340.323" y2="392.974" gradientUnits="userSpaceOnUse"><stop stop-color="#1E13A5"/><stop offset="1" stop-color="#0C084F"/></linearGradient><linearGradient id="paint36_linear" x1="225.385" y1="372.813" x2="404.723" y2="372.813" gradientUnits="userSpaceOnUse"><stop stop-color="#1E13A5"/><stop offset="1" stop-color="#0C084F"/></linearGradient><linearGradient id="paint37_linear" x1="402.652" y1="398.253" x2="404.723" y2="398.253" gradientUnits="userSpaceOnUse"><stop stop-color="#1E13A5"/><stop offset="1" stop-color="#0C084F"/></linearGradient><linearGradient id="paint38_linear" x1="253.348" y1="401.647" x2="276.897" y2="401.647" gradientUnits="userSpaceOnUse"><stop stop-color="#1E13A5"/><stop offset="1" stop-color="#0C084F"/></linearGradient><linearGradient id="paint39_linear" x1="223.361" y1="308.378" x2="413.299" y2="334.654" gradientUnits="userSpaceOnUse"><stop stop-color="#FF9649"/><stop offset="1" stop-color="#FF4588"/></linearGradient><linearGradient id="paint40_linear" x1="223.361" y1="290.528" x2="413.299" y2="316.804" gradientUnits="userSpaceOnUse"><stop stop-color="#FF9649"/><stop offset="1" stop-color="#FF4588"/></linearGradient><linearGradient id="paint41_linear" x1="217" y1="482" x2="265.597" y2="421.596" gradientUnits="userSpaceOnUse"><stop stop-color="#E7E3FF" stop-opacity="0"/><stop offset=".965" stop-color="#A59BDE"/></linearGradient><linearGradient id="paint42_linear" x1="118" y1="385" x2="152.373" y2="330.385" gradientUnits="userSpaceOnUse"><stop stop-color="#E7E3FF" stop-opacity="0"/><stop offset=".965" stop-color="#A59BDE"/></linearGradient><linearGradient id="paint43_linear" x1="180.845" y1="288.709" x2="244.43" y2="296.572" gradientUnits="userSpaceOnUse"><stop stop-color="#FF9649"/><stop offset="1" stop-color="#FF4588"/></linearGradient><linearGradient id="paint44_linear" x1="406.77" y1="507.328" x2="435.368" y2="453.765" gradientUnits="userSpaceOnUse"><stop stop-color="#E7E3FF" stop-opacity="0"/><stop offset=".965" stop-color="#A59BDE"/></linearGradient><linearGradient id="paint45_linear" x1="39.985" y1="210.352" x2="84.506" y2="213.358" gradientUnits="userSpaceOnUse"><stop stop-color="#FF9649"/><stop offset="1" stop-color="#FF4588"/></linearGradient></defs></svg>