<svg width="20" height="20" fill="none" xmlns="http://www.w3.org/2000/svg"><path d="M19.817 6.242l-4.112 3.963-.844-.894 3.112-2.999a.756.756 0 00.02-1.07l-2.78-2.88a.754.754 0 00-.531-.23.755.755 0 00-.54.211L11.69 4.706l2.13 2.204a.474.474 0 01-.497.77l-3.09-3.274 4.043-3.9a.623.623 0 01.875.024l4.672 4.84a.62.62 0 01-.006.872zM5.856 17.991a.745.745 0 01-.538.21.765.765 0 01-.532-.229l-2.779-2.88a.754.754 0 01.02-1.069l1.277 1.327a.46.46 0 00.647.014.454.454 0 00.01-.646L2.685 13.39l.34-.329 1.278 1.327a.457.457 0 10.657-.634l-1.277-1.325.34-.329L5.3 13.426a.46.46 0 00.647.013.455.455 0 00.012-.646L4.68 11.466l.34-.329 1.278 1.325a.456.456 0 00.777-.22L4.71 9.734l-4.527 4.36a.622.622 0 00-.008.873l4.672 4.844c.235.243.63.256.873.02l4.46-4.296-.844-.894-3.48 3.35zM14.02 6.089a1.536 1.536 0 112.21-2.13 1.536 1.536 0 01-2.21 2.13zm.66-.636c.237.244.628.25.875.015a.618.618 0 10-.875-.015zm2.481 7.864l-4.021 3.787L4.178 7.6 8.2 3.813l8.961 9.504zM8.875 6.463a.345.345 0 00-.095-.247l-.438-.463a.346.346 0 00-.488-.015l-.237.223a.345.345 0 00-.016.488l.436.466c.065.067.15.107.243.108.092.004.486-.317.486-.317a.355.355 0 00.11-.243zm6.226 6.961a.344.344 0 00.014-.489L10.08 7.597a.348.348 0 00-.489-.016l-.238.224a.344.344 0 00-.014.489l5.034 5.338a.348.348 0 00.493.015l.235-.223zM3.771 7.167l4.022-3.789-1.04-1.1-4.02 3.788 1.038 1.1zM.94 4.163a1.194 1.194 0 01.05-1.69L3.27.327a1.194 1.194 0 011.69.049l1.413 1.498L2.35 5.66.94 4.163zm.718-.824l.738.784 2.438-2.296-.74-.783L1.657 3.34zm17.545 15.387a.594.594 0 01-.78.734l-4.773-1.82 4.017-3.788 1.536 4.874zm-1.276-1.636l-.604-1.916-2.335 2.201 1.879.717 1.06-1.002z" fill="url(#paint0_linear)"/><defs><linearGradient id="paint0_linear" x1="0" y1="20" x2="21.247" y2="18.572" gradientUnits="userSpaceOnUse"><stop stop-color="#2B74E2"/><stop offset="1" stop-color="#5A9CFF"/></linearGradient></defs></svg>