<svg width="20" height="20" fill="none" xmlns="http://www.w3.org/2000/svg"><path d="M0 9.655h9.655V0H0v9.655zm2.758-5.517h1.38v-1.38a.69.69 0 011.379 0v1.38h1.38a.69.69 0 010 1.379h-1.38v1.38a.69.69 0 01-1.38 0v-1.38H2.759a.69.69 0 010-1.38z" fill="url(#paint0_linear)"/><path d="M10.345 0v9.655h9.654V0h-9.654zm6.896 5.517h-4.138a.69.69 0 010-1.38h4.138a.69.69 0 010 1.38z" fill="url(#paint1_linear)"/><path d="M10.345 20h9.654v-9.655h-9.654v9.654zm2.758-6.552h4.138a.69.69 0 010 1.38h-4.138a.69.69 0 010-1.38zm0 2.069h4.138a.69.69 0 010 1.38h-4.138a.69.69 0 010-1.38z" fill="url(#paint2_linear)"/><path d="M0 20h9.655v-9.655H0v9.654zm2.616-6.064a.69.69 0 11.975-.976l1.237 1.237 1.236-1.236a.69.69 0 11.975.975l-1.236 1.236 1.236 1.237a.69.69 0 11-.975.975l-1.236-1.237-1.237 1.237a.686.686 0 01-.975 0 .69.69 0 010-.975l1.237-1.237-1.237-1.236z" fill="url(#paint3_linear)"/><defs><linearGradient id="paint0_linear" x1="0" y1="9.655" x2="10.257" y2="8.965" gradientUnits="userSpaceOnUse"><stop stop-color="#2B74E2"/><stop offset="1" stop-color="#5A9CFF"/></linearGradient><linearGradient id="paint1_linear" x1="10.345" y1="9.655" x2="20.602" y2="8.965" gradientUnits="userSpaceOnUse"><stop stop-color="#2B74E2"/><stop offset="1" stop-color="#5A9CFF"/></linearGradient><linearGradient id="paint2_linear" x1="10.345" y1="19.999" x2="20.602" y2="19.31" gradientUnits="userSpaceOnUse"><stop stop-color="#2B74E2"/><stop offset="1" stop-color="#5A9CFF"/></linearGradient><linearGradient id="paint3_linear" x1="0" y1="19.999" x2="10.258" y2="19.31" gradientUnits="userSpaceOnUse"><stop stop-color="#2B74E2"/><stop offset="1" stop-color="#5A9CFF"/></linearGradient></defs></svg>