<svg width="15" height="13" fill="none" xmlns="http://www.w3.org/2000/svg"><path d="M14.888.135a.466.466 0 00-.504-.101L.264 5.737A.407.407 0 000 6.099a.403.403 0 00.246.373l3.371 1.53.84 4.65a.424.424 0 00.374.344c.14.018.28-.027.377-.119l2.662-2.456 3.798 2.504c.122.08.28.097.418.047a.416.416 0 00.269-.298L14.99.484a.383.383 0 00-.103-.349zM3.965 7.255L1.483 6.13l9.809-3.961-7.327 5.088zm1.376 1.206l-.41 1.885-.44-2.44 5.39-3.743-4.42 4.091a.403.403 0 00-.12.207zm.267 2.9l.461-2.126 1.076.708-1.537 1.418zm6.018.539L6.448 8.488l7.397-6.846-2.22 10.258z" fill="#666"/></svg>