<svg width="13" height="13" fill="none" xmlns="http://www.w3.org/2000/svg"><path d="M10.2 7.7c.187 0 .365.036.534.108.173.067.326.167.457.298l1.396 1.396c.132.132.231.284.299.457a1.394 1.394 0 010 1.073 1.33 1.33 0 01-.299.45l-.088.09a25.8 25.8 0 01-.629.61c-.19.177-.39.327-.597.45-.207.118-.438.21-.691.273a3.78 3.78 0 01-.908.095 5.742 5.742 0 01-1.632-.248 9.135 9.135 0 01-1.669-.685 12.215 12.215 0 01-1.625-1.041c-.529-.402-1.03-.84-1.504-1.314-.47-.478-.904-.982-1.302-1.51A12.098 12.098 0 01.914 6.575 9.203 9.203 0 01.241 4.92 5.69 5.69 0 010 3.32c0-.35.03-.65.089-.9a2.73 2.73 0 01.273-.686c.123-.207.27-.404.444-.59.178-.19.381-.4.61-.629l.101-.101C1.648.28 1.8.18 1.967.108c.17-.072.35-.108.54-.108.187 0 .364.036.534.108.173.072.325.173.457.305l1.396 1.396c.131.131.23.284.298.457.072.17.108.347.108.533 0 .187-.031.354-.095.502a1.828 1.828 0 01-.235.393 2.25 2.25 0 01-.31.324c-.11.097-.212.193-.306.286a1.786 1.786 0 00-.234.285.562.562 0 00.076.717l3.497 3.498a.562.562 0 00.718.076c.097-.063.192-.141.285-.234.093-.094.189-.195.286-.305a2.25 2.25 0 01.324-.311c.118-.093.25-.172.393-.235.148-.064.316-.095.502-.095zm-.526 4.487c.305 0 .558-.027.761-.082.208-.06.394-.142.56-.248.164-.11.325-.245.482-.406.156-.16.336-.343.54-.546a.562.562 0 00.17-.412.523.523 0 00-.095-.267 2.094 2.094 0 00-.235-.33 4.921 4.921 0 00-.33-.35 6.632 6.632 0 00-.355-.342 9.285 9.285 0 00-.324-.298 15.215 15.215 0 01-.228-.222.57.57 0 00-.724-.077 1.96 1.96 0 00-.28.235c-.092.093-.19.197-.291.311A2.46 2.46 0 019 9.458a1.775 1.775 0 01-.4.235 1.216 1.216 0 01-.495.095c-.186 0-.366-.034-.54-.101a1.414 1.414 0 01-.45-.305L3.618 5.884a1.414 1.414 0 01-.305-.45 1.471 1.471 0 01-.101-.54c0-.186.032-.351.095-.495.064-.148.142-.281.235-.4a2.46 2.46 0 01.305-.324c.114-.101.218-.199.31-.292a1.96 1.96 0 00.236-.279.57.57 0 00-.076-.724c-.056-.055-.13-.13-.223-.228a9.277 9.277 0 00-.298-.324 6.674 6.674 0 00-.343-.355 4.944 4.944 0 00-.349-.33 2.093 2.093 0 00-.33-.235.524.524 0 00-.267-.096.562.562 0 00-.412.172c-.203.203-.385.383-.546.54a3.51 3.51 0 00-.406.482 1.98 1.98 0 00-.254.558 2.938 2.938 0 00-.083.756c0 .474.076.963.229 1.466.156.504.37 1.007.64 1.51.276.504.6 1.002.972 1.493a13.835 13.835 0 002.609 2.59c.49.368.986.687 1.485.958a8.628 8.628 0 001.498.628c.5.148.978.223 1.435.223z" fill="#666"/></svg>