<svg width="17" height="17" fill="none" xmlns="http://www.w3.org/2000/svg"><path d="M13.165 17A13.17 13.17 0 01.27 6.48 13.179 13.179 0 01.42.528L.56 0h4.894l1.653 7.678H5.454a8.722 8.722 0 003.87 3.871V9.895L17 11.55v4.895l-.531.138c-1.08.278-2.19.419-3.304.418zM1.67 1.417a11.761 11.761 0 008.54 13.812c1.76.445 3.598.482 5.375.106v-2.642L10.74 11.65v1.976l-.945-.337a9.97 9.97 0 01-6.08-6.084l-.336-.946h1.976L4.31 1.417H1.67z" fill="url(#paint0_linear)"/><defs><linearGradient id="paint0_linear" x1="0" y1="0" x2="18.239" y2="1.454" gradientUnits="userSpaceOnUse"><stop stop-color="#FF9649"/><stop offset="1" stop-color="#FF4588"/></linearGradient></defs></svg>