<svg width="20" height="20" fill="none" xmlns="http://www.w3.org/2000/svg"><path d="M12.858 10a.714.714 0 11-1.429 0 .714.714 0 011.429 0z" fill="url(#paint0_linear)"/><path d="M11.786 12.143a.714.714 0 11-1.428 0 .714.714 0 011.428 0z" fill="url(#paint1_linear)"/><path d="M8.215.714a.714.714 0 11-1.429 0 .714.714 0 011.429 0z" fill="url(#paint2_linear)"/><path d="M10 4.12c-.919.374-1.811.808-2.673 1.301a22.826 22.826 0 00-2.44 1.61 18.108 18.108 0 000 5.939A22.743 22.743 0 0010 15.88c.92-.374 1.812-.809 2.673-1.301a22.84 22.84 0 002.44-1.61 18.132 18.132 0 000-5.939A22.73 22.73 0 0010 4.12zM13.572 10a1.425 1.425 0 01-1.278 1.414A1.422 1.422 0 0110 13.078a1.422 1.422 0 01-2.293-1.664 1.42 1.42 0 010-2.827A1.422 1.422 0 0110 6.922a1.422 1.422 0 012.294 1.665A1.425 1.425 0 0113.572 10z" fill="url(#paint3_linear)"/><path d="M13.028 4.8c.652.374 1.278.775 1.874 1.194-.237-1.03-.6-2.027-1.082-2.968-.97.16-1.923.404-2.85.73.692.31 1.381.658 2.058 1.045z" fill="url(#paint4_linear)"/><path d="M10.715 10a.714.714 0 11-1.429 0 .714.714 0 011.429 0z" fill="url(#paint5_linear)"/><path d="M11.786 7.857a.714.714 0 11-1.428 0 .714.714 0 011.428 0z" fill="url(#paint6_linear)"/><path d="M18.64 9.41c1.347-1.926 1.715-3.703 1.006-4.919-.744-1.273-2.578-1.835-5.075-1.571.567 1.179.97 2.43 1.198 3.718a17.807 17.807 0 012.87 2.771z" fill="url(#paint7_linear)"/><path d="M18.195 10a16.535 16.535 0 00-2.266-2.31c.095.767.143 1.538.143 2.31 0 .773-.048 1.544-.143 2.31A16.537 16.537 0 0018.195 10z" fill="url(#paint8_linear)"/><path d="M9.643 7.857a.714.714 0 11-1.428 0 .714.714 0 011.428 0z" fill="url(#paint9_linear)"/><path d="M8.572 10a.714.714 0 11-1.429 0 .714.714 0 011.429 0z" fill="url(#paint10_linear)"/><path d="M9.643 12.143a.714.714 0 11-1.428 0 .714.714 0 011.428 0z" fill="url(#paint11_linear)"/><path d="M6.559 17.632C7.529 19.162 8.739 20 10 20c1.262 0 2.47-.838 3.442-2.368A18.472 18.472 0 0110 16.647a18.464 18.464 0 01-3.441.985z" fill="url(#paint12_linear)"/><path d="M13.442 2.367C12.471.837 11.262 0 10 0a2.978 2.978 0 00-1.157.242c.055.151.084.311.086.472 0 .79-.64 1.429-1.429 1.429a1.41 1.41 0 01-.666-.173c-.094.129-.185.26-.273.398 1.176.216 2.328.545 3.44.984a18.473 18.473 0 013.441-.985z" fill="url(#paint13_linear)"/><path d="M18.64 10.59a17.793 17.793 0 01-2.87 2.772 14.408 14.408 0 01-1.197 3.714 9.27 9.27 0 002.221-.01 1.419 1.419 0 012.38-.974 2.57 2.57 0 00.473-.583c.709-1.216.34-2.992-1.008-4.918z" fill="url(#paint14_linear)"/><path d="M6.973 15.2a23.777 23.777 0 01-1.875-1.194c.237 1.03.6 2.027 1.083 2.968.969-.16 1.922-.405 2.849-.73a23.41 23.41 0 01-2.057-1.045z" fill="url(#paint15_linear)"/><path d="M18.93 17.143a.714.714 0 11-1.43 0 .714.714 0 011.43 0z" fill="url(#paint16_linear)"/><path d="M13.028 15.2c-.678.386-1.366.734-2.057 1.043.927.327 1.881.571 2.85.732.483-.942.846-1.939 1.083-2.97-.598.42-1.225.82-1.876 1.194z" fill="url(#paint17_linear)"/><path d="M6.972 4.8A23.712 23.712 0 019.03 3.758c-.927-.327-1.88-.571-2.85-.731a12.807 12.807 0 00-1.082 2.968c.596-.42 1.224-.82 1.874-1.193z" fill="url(#paint18_linear)"/><path d="M4.231 6.638c.228-1.288.631-2.54 1.198-3.719-2.497-.264-4.331.3-5.076 1.572-.71 1.216-.34 2.992 1.01 4.917a17.654 17.654 0 012.868-2.77z" fill="url(#paint19_linear)"/><path d="M1.364 10.591C.014 12.516-.355 14.292.354 15.51a2.993 2.993 0 001.633 1.272 1.419 1.419 0 012.602.35c.278-.008.558-.026.838-.056a14.399 14.399 0 01-1.196-3.714 17.668 17.668 0 01-2.867-2.77z" fill="url(#paint20_linear)"/><path d="M3.929 17.5a.714.714 0 11-1.429 0 .714.714 0 011.429 0z" fill="url(#paint21_linear)"/><path d="M1.808 10a16.406 16.406 0 002.264 2.31 18.789 18.789 0 010-4.62A16.364 16.364 0 001.808 10z" fill="url(#paint22_linear)"/><defs><linearGradient id="paint11_linear" x1="8.214" y1="12.858" x2="9.732" y2="12.756" gradientUnits="userSpaceOnUse"><stop stop-color="#2B74E2"/><stop offset="1" stop-color="#5A9CFF"/></linearGradient><linearGradient id="paint0_linear" x1="11.429" y1="10.715" x2="12.947" y2="10.613" gradientUnits="userSpaceOnUse"><stop stop-color="#2B74E2"/><stop offset="1" stop-color="#5A9CFF"/></linearGradient><linearGradient id="paint2_linear" x1="6.786" y1="1.429" x2="8.304" y2="1.327" gradientUnits="userSpaceOnUse"><stop stop-color="#2B74E2"/><stop offset="1" stop-color="#5A9CFF"/></linearGradient><linearGradient id="paint3_linear" x1="4.643" y1="15.881" x2="16.035" y2="15.183" gradientUnits="userSpaceOnUse"><stop stop-color="#2B74E2"/><stop offset="1" stop-color="#5A9CFF"/></linearGradient><linearGradient id="paint4_linear" x1="10.971" y1="5.994" x2="15.133" y2="5.624" gradientUnits="userSpaceOnUse"><stop stop-color="#2B74E2"/><stop offset="1" stop-color="#5A9CFF"/></linearGradient><linearGradient id="paint5_linear" x1="9.286" y1="10.715" x2="10.804" y2="10.613" gradientUnits="userSpaceOnUse"><stop stop-color="#2B74E2"/><stop offset="1" stop-color="#5A9CFF"/></linearGradient><linearGradient id="paint6_linear" x1="10.358" y1="8.572" x2="11.876" y2="8.47" gradientUnits="userSpaceOnUse"><stop stop-color="#2B74E2"/><stop offset="1" stop-color="#5A9CFF"/></linearGradient><linearGradient id="paint7_linear" x1="14.571" y1="9.409" x2="20.347" y2="9.088" gradientUnits="userSpaceOnUse"><stop stop-color="#2B74E2"/><stop offset="1" stop-color="#5A9CFF"/></linearGradient><linearGradient id="paint8_linear" x1="15.929" y1="12.311" x2="18.345" y2="12.231" gradientUnits="userSpaceOnUse"><stop stop-color="#2B74E2"/><stop offset="1" stop-color="#5A9CFF"/></linearGradient><linearGradient id="paint9_linear" x1="8.214" y1="8.572" x2="9.732" y2="8.47" gradientUnits="userSpaceOnUse"><stop stop-color="#2B74E2"/><stop offset="1" stop-color="#5A9CFF"/></linearGradient><linearGradient id="paint10_linear" x1="7.143" y1="10.715" x2="8.661" y2="10.613" gradientUnits="userSpaceOnUse"><stop stop-color="#2B74E2"/><stop offset="1" stop-color="#5A9CFF"/></linearGradient><linearGradient id="paint1_linear" x1="10.358" y1="12.858" x2="11.876" y2="12.756" gradientUnits="userSpaceOnUse"><stop stop-color="#2B74E2"/><stop offset="1" stop-color="#5A9CFF"/></linearGradient><linearGradient id="paint12_linear" x1="6.559" y1="20" x2="13.767" y2="19.005" gradientUnits="userSpaceOnUse"><stop stop-color="#2B74E2"/><stop offset="1" stop-color="#5A9CFF"/></linearGradient><linearGradient id="paint13_linear" x1="6.561" y1="3.352" x2="13.768" y2="2.358" gradientUnits="userSpaceOnUse"><stop stop-color="#2B74E2"/><stop offset="1" stop-color="#5A9CFF"/></linearGradient><linearGradient id="paint14_linear" x1="14.573" y1="17.138" x2="20.347" y2="16.816" gradientUnits="userSpaceOnUse"><stop stop-color="#2B74E2"/><stop offset="1" stop-color="#5A9CFF"/></linearGradient><linearGradient id="paint15_linear" x1="5.098" y1="16.974" x2="9.261" y2="16.604" gradientUnits="userSpaceOnUse"><stop stop-color="#2B74E2"/><stop offset="1" stop-color="#5A9CFF"/></linearGradient><linearGradient id="paint16_linear" x1="17.501" y1="17.857" x2="19.018" y2="17.755" gradientUnits="userSpaceOnUse"><stop stop-color="#2B74E2"/><stop offset="1" stop-color="#5A9CFF"/></linearGradient><linearGradient id="paint17_linear" x1="10.971" y1="16.974" x2="15.136" y2="16.604" gradientUnits="userSpaceOnUse"><stop stop-color="#2B74E2"/><stop offset="1" stop-color="#5A9CFF"/></linearGradient><linearGradient id="paint18_linear" x1="5.098" y1="5.994" x2="9.261" y2="5.624" gradientUnits="userSpaceOnUse"><stop stop-color="#2B74E2"/><stop offset="1" stop-color="#5A9CFF"/></linearGradient><linearGradient id="paint19_linear" x1="0" y1="9.408" x2="5.776" y2="9.087" gradientUnits="userSpaceOnUse"><stop stop-color="#2B74E2"/><stop offset="1" stop-color="#5A9CFF"/></linearGradient><linearGradient id="paint20_linear" x1=".001" y1="17.131" x2="5.774" y2="16.809" gradientUnits="userSpaceOnUse"><stop stop-color="#2B74E2"/><stop offset="1" stop-color="#5A9CFF"/></linearGradient><linearGradient id="paint21_linear" x1="2.5" y1="18.215" x2="4.018" y2="18.113" gradientUnits="userSpaceOnUse"><stop stop-color="#2B74E2"/><stop offset="1" stop-color="#5A9CFF"/></linearGradient><linearGradient id="paint22_linear" x1="1.808" y1="12.311" x2="4.221" y2="12.231" gradientUnits="userSpaceOnUse"><stop stop-color="#2B74E2"/><stop offset="1" stop-color="#5A9CFF"/></linearGradient></defs></svg>