<svg width="770" height="514" fill="none" xmlns="http://www.w3.org/2000/svg"><mask id="a" maskUnits="userSpaceOnUse" x="0" y="0" width="770" height="514"><rect width="770" height="514" rx="6" fill="#fff"/></mask><g mask="url(#a)"><path d="M1063 468.738s-41.64-187.783-279.976-36.389c-238.34 151.395-424.405-73.178-344.027-274.78C514.379-31.5 829.247-75.041 1063 49.086v419.652z" fill="url(#paint0_linear)"/><g filter="url(#filter0_d)"><path d="M855.702 466.221H482.05c-2.005 0-3.81-1.605-3.81-3.812 0-2.006 1.604-3.812 3.81-3.812h373.852c2.006 0 3.811 1.605 3.811 3.812-.201 2.207-1.805 3.812-4.011 3.812z" fill="#E2E2F7"/><path d="M765.649 125.974c-.602 0-1.404 0-2.006-.201-9.627-1.204-17.249-10.232-18.452-11.636-1.404 1.404-10.429 9.429-19.455 8.627-4.613-.402-8.424-3.21-11.633-8.025-6.618-10.232 1.404-25.68 9.427-36.713 10.229-14.043 23.667-26.281 32.09-31.698l.401-.2v.401c.402 15.849 8.825 29.29 16.046 41.327 8.824 14.244 15.644 25.479 4.813 34.105-3.61 2.608-7.22 4.013-11.231 4.013zm-20.458-12.639l.201.2c0 .201 8.223 10.432 18.451 11.636 4.613.602 8.825-.802 12.837-4.012 10.429-8.426 3.61-19.46-5.015-33.503-7.22-11.837-15.644-25.278-16.245-41.127-8.424 5.617-21.661 17.654-31.489 31.497-11.232 15.448-14.441 28.287-9.426 36.111 3.008 4.614 6.819 7.222 11.231 7.624h1.404c9.026 0 17.85-8.627 17.85-8.627l.201.201z" fill="#fff"/><path d="M757.626 168.304c-.201-.201-10.831-14.645-12.836-54.568-2.006-39.923 6.418-59.383 6.618-59.584l.401.201c0 .2-8.624 19.66-6.618 59.383 2.005 39.722 12.635 54.167 12.836 54.167l-.401.401z" fill="#fff"/><path d="M769.258 107.316c-6.819-7.623-19.855-8.627-24.468-5.216l-.201-.401c4.814-3.611 18.051-2.608 25.071 5.216l-.402.401zM744.79 92.27s-9.427-6.821-22.664-.401l-.201-.402c13.438-6.42 23.065.402 23.065.602l-.2.2zM758.428 77.825s-4.412-5.617-11.633-3.009l-.2-.401c7.621-2.809 12.234 3.21 12.234 3.21l-.401.2zM748.6 63.782s-2.206-1.805-6.819-.2l-.2-.402c4.813-1.805 7.22.2 7.22.2l-.201.402zM720.521 102.501l-.2-.401c13.438-7.423 24.469-1.605 24.669-1.605l-.2.401c-.201 0-11.031-5.617-24.269 1.605zM764.044 91.066c-9.226-7.022-18.653-2.608-18.653-2.608l-.2-.401s9.828-4.414 19.254 2.608l-.401.401zM745.792 79.029s-5.615-5.015-14.44-1.404l-.201-.401c9.026-3.612 14.842 1.604 15.042 1.604l-.401.201zM755.62 66.19c-2.808-2.608-7.22-.201-7.22-.201l-.201-.401s4.613-2.608 7.822.4l-.401.201zM750.205 57.964s-.802-.802-3.008-.2l-.201-.402c2.407-.802 3.41.402 3.61.402l-.401.2z" fill="#fff"/><path d="M522.163 410.65h-1.604c-13.839-1.003-14.441-14.244-15.243-30.895-.602-14.044-1.404-29.892-9.828-43.133l-.2-.401h.401c10.028-.201 28.079 2.207 44.325 8.225 12.836 4.614 28.279 12.84 28.48 25.077.2 5.618-1.605 10.031-5.014 13.04-7.02 5.818-19.054 4.213-20.859 4.013-.201 2.006-1.404 13.642-8.825 20.061-3.209 2.608-7.02 4.013-11.633 4.013zm-26.073-74.229c8.424 13.241 9.025 29.09 9.828 43.133.802 16.451 1.404 29.491 14.641 30.494 5.014.401 9.426-1.003 12.836-4.012 7.822-6.821 8.624-19.862 8.624-20.062v-.201h.201c.2 0 13.438 2.408 20.859-3.812 3.409-2.808 5.014-7.222 5.014-12.638-.201-9.429-10.229-18.056-28.079-24.676-15.644-5.618-32.893-8.226-43.122-8.226h-.802z" fill="#33FF9D"/><path d="M562.477 438.134h-.602c0-.2.802-18.055-19.856-51.96-20.658-34.105-38.709-45.339-38.909-45.339l.2-.401c.201.2 18.252 11.435 38.91 45.54 21.059 34.105 20.257 51.96 20.257 52.16z" fill="#33FF9D"/><path d="M518.553 394.199h-.401c1.404-10.231 11.432-18.457 17.65-18.457h.2v.602h-.2c-5.817 0-15.845 8.025-17.249 17.855zM530.387 368.119l-.402-.201c0-.2 4.212-11.234 18.854-13.441v.401c-14.441 2.207-18.452 13.04-18.452 13.241zM510.932 363.705h-.602s.602-7.623 8.424-9.429l.2.402c-7.42 1.805-8.022 9.027-8.022 9.027zM511.333 346.653l-.401-.201c0-.2.802-3.009 5.816-4.413l.201.401c-4.814 1.404-5.616 4.012-5.616 4.213zM535.401 375.14l-.401-.2c0-.201 6.017-11.034 21.259-12.639v.401c-15.042 1.605-20.658 12.438-20.858 12.438zM513.94 377.749l-.401-.201c3.811-11.235 14.24-13.04 14.24-13.04v.401c0 .201-10.228 2.006-13.839 12.84zM521.963 357.687l-.401-.201s2.005-7.623 11.432-9.83l.2.401c-9.225 2.207-11.231 9.429-11.231 9.63zM506.921 352.471l-.401-.201c1.002-4.213 6.217-4.614 6.217-4.614v.602c-.201 0-5.014.401-5.816 4.213zM506.72 342.64h-.401s.201-1.604 2.607-2.206l.201.401c-2.206.602-2.407 1.805-2.407 1.805z" fill="#33FF9D"/><path d="M691.141 117.251l.515.247-.005.011.005-.011h.001l.004.002.017.009.072.033.285.13c.252.113.624.275 1.1.471.954.393 2.326.921 3.996 1.462 3.344 1.083 7.866 2.21 12.606 2.408 4.742.198 9.663-.535 13.846-3.135 4.168-2.591 7.66-7.073 9.489-14.489 1.756-7.37-.888-15.055-6.432-22.606-5.542-7.55-13.935-14.898-23.527-21.552-18.822-13.059-42.146-23.369-57.259-27.244 6.587 21.436 1.761 43.825-2.345 62.873a938.68 938.68 0 00-1.195 5.59c-2.146 10.246-3.683 19.274-2.605 26.455.537 3.577 1.72 6.673 3.785 9.225 2.063 2.552 5.033 4.595 9.198 6.025h.001l-.163.473c25.582 8.778 37.256-21.047 38.745-25.204l-.134-1.173zm0 0l-.177.543m.177-.543l-.177.543m0 0l.476.155-.476-.155z" stroke="#fff"/><path d="M700.265 197.393l-.401-.2c0-.201 7.621-24.676-8.625-79.244-16.245-54.568-36.904-76.837-37.104-77.037l.401-.401c.201.2 21.059 22.469 37.305 77.237 16.045 54.769 8.424 79.445 8.424 79.645z" fill="#fff"/><path d="M655.539 120.757l-.401-.2c5.615-13.843 23.064-21.466 31.288-18.858l-.201.401c-8.023-2.407-25.271 5.216-30.686 18.657zM681.411 88.659l-.401-.201c0-.2 9.828-13.843 30.887-11.636v.401c-20.859-2.206-30.285 11.436-30.486 11.436zM656.14 75.619l-.401-.201c0-.2 3.41-10.03 14.641-10.03h.201v.6h-.201c-10.83 0-14.24 9.63-14.24 9.63zM662.759 51.946l-.401-.201c0-.2 2.206-3.812 9.627-3.812v.602c-7.02-.2-9.226 3.41-9.226 3.41zM685.824 100.294l-.401-.4c.2-.201 12.234-13.242 33.895-9.43v.401c-21.46-3.41-33.293 9.429-33.494 9.429zM655.138 96.082l-.402-.201c9.226-14.043 24.269-12.639 24.469-12.639v.401c-.2 0-15.042-1.404-24.067 12.439zM673.59 71.205l-.402-.2s5.215-9.23 18.051-9.23h1.404v.603c-13.638-.803-18.853 8.827-19.053 8.827zM654.536 58.566l-.401-.2c2.808-5.217 10.229-4.013 10.229-4.013v.401c-.201 0-7.221-1.003-9.828 3.812zM657.945 44.924l-.401-.2s.803-2.007 4.413-2.207v.601c-3.209.201-4.012 1.806-4.012 1.806z" fill="#fff"/><path d="M509.07 396.11h0l-.567.064.139.554h0v.002l.002.009.01.04.037.162c.032.144.077.356.129.629.104.545.236 1.33.346 2.285.219 1.912.348 4.488-.009 7.168-.356 2.681-1.194 5.438-2.887 7.738-1.685 2.289-4.237 4.154-8.085 5.031l-.004.001c-2.358.559-4.322.476-6.005-.102-1.684-.577-3.128-1.664-4.421-3.178-2.606-3.049-4.541-7.752-6.564-13.258a570.74 570.74 0 01-1.083-2.982c-3.663-10.149-7.986-22.125-17.31-30.345 8.281-2.559 22.131-4.548 34.699-3.993 6.503.287 12.628 1.254 17.448 3.154 4.823 1.901 8.263 4.702 9.551 8.614 1.32 4.061 1.001 7.198-.167 9.631-1.173 2.447-3.233 4.244-5.5 5.555-2.265 1.31-4.706 2.117-6.589 2.597a30.42 30.42 0 01-2.295.492c-.28.048-.501.081-.651.102l-.169.023-.042.005-.01.002h-.003z" stroke="#fff"/><path d="M536.403 431.715c0-.201-3.61-13.843-27.477-34.908s-40.313-25.278-40.313-25.478l.2-.401c.201 0 16.647 4.413 40.715 25.478 24.067 21.065 27.678 35.108 27.678 35.108l-.803.201z" fill="#fff"/><path d="M492.48 408.644c-1.404-8.226 4.613-17.053 9.226-18.457l.2.401c-4.412 1.204-10.228 9.83-8.824 17.855l-.602.201zM495.689 385.773h-.602s.401-9.629 11.232-14.845l.2.401c-10.228 5.216-10.83 14.444-10.83 14.444zM479.443 387.178s-1.404-5.818 4.212-9.229l.201.401c-5.215 3.21-4.012 8.627-3.811 8.828h-.602zM475.432 373.937c0-.201 0-2.608 3.409-4.815l.201.401c-3.209 2.006-3.209 4.213-3.209 4.213l-.401.201zM501.305 389.986h-.401s1.805-10.03 13.237-14.645l.2.402c-11.231 4.614-13.036 14.243-13.036 14.243zM485.46 397.208h-.601c.2-9.429 7.822-13.441 7.822-13.441l.2.401c.201.201-7.22 3.812-7.421 13.04zM486.463 379.955s-.401-6.419 6.418-10.231l.201.401c-6.619 3.611-6.218 9.63-6.218 9.83h-.401zM473.627 379.554c-.201-3.41 3.61-5.015 3.61-5.015l.201.401s-3.61 1.605-3.41 4.614h-.401zM471.22 372.131s-.201-1.203 1.605-2.407l.2.401c-1.404 1.003-1.404 2.006-1.404 2.006h-.401z" fill="#fff"/><path d="M769.86 401.823l-.2-.401c.2 0 24.87-9.229 59.166-56.374 34.297-47.145 39.511-77.84 39.511-78.241h.401c0 .401-5.214 31.096-39.711 78.442-34.297 47.546-58.966 56.574-59.167 56.574z" fill="#252F5A"/><path d="M497.694 454.786c7.822 0 7.822-61.791 0-61.791h231.452c7.822 0 7.822 61.791 0 61.791H497.694z" fill="#F5F5F7"/><path d="M733.759 403.428H501.706c-.602 0-1.003-.402-1.003-1.004 0-.601.401-1.003 1.003-1.003h231.852c.602 0 1.003.402 1.003 1.003.201.602-.401 1.004-.802 1.004zM733.759 415.665H501.706c-.602 0-1.003-.401-1.003-1.003 0-.602.401-1.003 1.003-1.003h231.852c.602 0 1.003.401 1.003 1.003 0 .602-.401 1.003-.802 1.003zM733.759 433.921H501.706c-.602 0-1.003-.401-1.003-1.003 0-.602.401-1.003 1.003-1.003h231.852c.602 0 1.003.401 1.003 1.003.201.602-.401 1.003-.802 1.003zM733.759 446.159H501.706c-.602 0-1.003-.401-1.003-1.003 0-.602.401-1.003 1.003-1.003h231.852c.602 0 1.003.401 1.003 1.003.201.602-.401 1.003-.802 1.003zM733.759 409.647H501.706c-.602 0-1.003-.402-1.003-1.003 0-.602.401-1.004 1.003-1.004h231.852c.602 0 1.003.402 1.003 1.004 0 .601-.401 1.003-.802 1.003zM733.759 421.684H501.706c-.602 0-1.003-.402-1.003-1.003 0-.602.401-1.004 1.003-1.004h231.852c.602 0 1.003.402 1.003 1.004.201.601-.401 1.003-.802 1.003zM733.759 427.903H501.706c-.602 0-1.003-.401-1.003-1.003 0-.602.401-1.003 1.003-1.003h231.852c.602 0 1.003.401 1.003 1.003.201.401-.401 1.003-.802 1.003zM733.759 439.94H501.706c-.602 0-1.003-.401-1.003-1.003 0-.602.401-1.003 1.003-1.003h231.852c.602 0 1.003.401 1.003 1.003.201.602-.401 1.003-.802 1.003z" fill="#EBEBED"/><path d="M729.146 454.786c7.822 0 7.822-61.791 0-61.791h113.118c7.822 0 7.822 61.791 0 61.791H729.146z" fill="#2B74E2"/><path d="M842.264 388.783H729.146a4.023 4.023 0 00-4.011 4.012c0 1.806 1.203 3.21 2.807 3.812 4.212 6.62 4.212 47.747 0 54.367-1.604.602-2.807 2.006-2.807 3.812a4.023 4.023 0 004.011 4.012h113.118c2.407 0 9.828 0 9.828-34.907 0-35.108-7.421-35.108-9.828-35.108zm-1.203 61.99H736.366c1.605-5.015 2.607-13.441 2.607-26.882 0-13.642-1.203-21.868-2.607-26.883h104.695c4.011 7.022 4.011 46.543 0 53.765z" fill="#2B74E2"/><path d="M729.146 458.797H497.695a4.023 4.023 0 01-4.012-4.012 4.024 4.024 0 014.012-4.013h230.247c4.012-7.222 4.012-46.743 0-53.765H497.695a4.024 4.024 0 01-4.012-4.012 4.024 4.024 0 014.012-4.013h231.451c2.406 0 9.827 0 9.827 34.908 0 34.907-7.421 34.907-9.827 34.907z" fill="#1965D7"/><path d="M700.866 409.246v27.083c0 1.003 1.003 1.805 2.006 1.404l6.418-2.207 6.418 2.207c1.003.401 2.006-.401 2.006-1.404v-27.083c0-.803-.602-1.405-1.404-1.405h-14.24c-.602 0-1.204.602-1.204 1.405z" fill="#EBEBED"/><path d="M702.27 438.736c-.602 0-1.003-.2-1.404-.401-.602-.401-1.003-1.204-1.003-2.006v-27.083c0-1.204 1.003-2.408 2.407-2.408h14.24c1.204 0 2.407 1.003 2.407 2.408v27.083c0 .802-.401 1.605-1.003 2.006-.602.401-1.404.602-2.206.401l-6.218-2.006-6.217 2.006h-1.003zm7.02-4.213h.401l6.418 2.207h.401s.201-.2.201-.401v-27.083c0-.201-.201-.402-.401-.402h-14.241c-.2 0-.401.201-.401.402v27.083c0 .201.201.401.201.401s.2.201.401 0l6.418-2.207h.602z" fill="#EBEBED"/><path d="M699.864 408.443v27.083c0 1.004 1.002 1.806 2.005 1.405l6.418-2.207 6.418 2.207c1.003.401 2.006-.401 2.006-1.405v-27.083c0-.802-.602-1.404-1.404-1.404h-14.24c-.602.2-1.203.802-1.203 1.404z" fill="#EDE40B"/><path d="M715.106 438.134c-.2 0-.601 0-.802-.2l-6.217-2.006-6.218 2.006c-.802.2-1.604.2-2.206-.401-.602-.402-1.003-1.204-1.003-2.007v-27.083c0-1.204 1.003-2.407 2.407-2.407h14.24c1.203 0 2.407 1.003 2.407 2.407v27.083c0 .803-.402 1.605-1.003 2.007-.401.401-1.003.601-1.605.601zm-14.039-29.892c-.201 0-.401.201-.401.402v27.083c0 .201.2.401.2.401s.201.201.401 0l6.418-2.207h.602l6.418 2.207h.401s.201-.2.201-.401v-27.083c0-.201-.201-.402-.401-.402h-13.839z" fill="#E8DE00"/><path d="M853.496 384.77c-7.822 0-7.822-61.79 0-61.79H709.491c-7.822 0-7.822 61.79 0 61.79h144.005z" fill="#EBEBED"/><path d="M704.878 333.613h144.406c.602 0 1.003-.402 1.003-1.003 0-.602-.401-1.003-1.003-1.003H704.878c-.602 0-1.003.401-1.003 1.003 0 .401.401 1.003 1.003 1.003zM704.877 345.65h144.407c.601 0 1.003-.401 1.003-1.003 0-.602-.402-1.003-1.003-1.003H704.877c-.601 0-1.002.401-1.002 1.003 0 .602.401 1.003 1.002 1.003zM704.877 364.107h144.407c.601 0 1.003-.402 1.003-1.004 0-.601-.402-1.003-1.003-1.003H704.877c-.601 0-1.002.402-1.002 1.003 0 .602.401 1.004 1.002 1.004zM704.877 376.144h144.407c.601 0 1.003-.402 1.003-1.003 0-.602-.402-1.004-1.003-1.004H704.877c-.601 0-1.002.402-1.002 1.004 0 .601.401 1.003 1.002 1.003zM704.877 339.631h144.407c.601 0 1.003-.401 1.003-1.003 0-.602-.402-1.003-1.003-1.003H704.877c-.601 0-1.002.401-1.002 1.003 0 .602.401 1.003 1.002 1.003zM704.877 351.869h144.407c.601 0 1.003-.401 1.003-1.003 0-.602-.402-1.003-1.003-1.003H704.877c-.601 0-1.002.401-1.002 1.003 0 .602.401 1.003 1.002 1.003zM704.877 357.887h144.407c.601 0 1.003-.401 1.003-1.003 0-.602-.402-1.003-1.003-1.003H704.877c-.601 0-1.002.401-1.002 1.003 0 .602.401 1.003 1.002 1.003zM704.877 370.125h144.407c.601 0 1.003-.401 1.003-1.003 0-.602-.402-1.003-1.003-1.003H704.877c-.601 0-1.002.401-1.002 1.003 0 .602.401 1.003 1.002 1.003z" fill="#F5F5F7"/><path d="M709.49 384.77c-7.822 0-7.822-61.79 0-61.79H550.042c-7.822 0-7.822 61.79 0 61.79H709.49z" fill="#FF8A33"/><path d="M550.042 318.968H709.49a4.023 4.023 0 014.012 4.012c0 1.806-1.204 3.21-2.808 3.812-4.212 6.62-4.212 47.747 0 54.367 1.604.602 2.808 2.006 2.808 3.812a4.023 4.023 0 01-4.012 4.012H550.042c-2.407 0-9.828 0-9.828-34.907 0-34.908 7.421-35.108 9.828-35.108zm1.203 61.79H702.27c-1.604-5.016-2.607-13.442-2.607-26.883 0-13.642 1.203-21.867 2.607-26.883H551.245c-4.011 7.223-4.011 46.544 0 53.766z" fill="#FF8A33"/><path d="M572.104 380.758c.602 3.21 1.203 6.018 2.005 8.025h15.444c-.802-2.007-1.404-4.815-2.006-8.025-2.406-14.645-2.406-39.321 0-53.766.602-3.209 1.204-6.018 2.006-8.024h-15.444c-.802 2.006-1.403 4.815-2.005 8.024-2.407 14.645-2.407 39.121 0 53.766zM662.759 380.758c.602 3.21 1.203 6.018 2.006 8.025h15.443c-.802-2.007-1.404-4.815-2.006-8.025-2.406-14.645-2.406-39.321 0-53.766.602-3.209 1.204-6.018 2.006-8.024h-15.443c-.803 2.006-1.404 4.815-2.006 8.024-2.407 14.645-2.407 39.121 0 53.766zM593.765 380.758c.602 3.21 1.203 6.018 2.006 8.025h9.627c-.803-2.007-1.404-4.815-2.006-8.025-2.407-14.645-2.407-39.321 0-53.766.602-3.209 1.203-6.018 2.006-8.024h-9.627c-.803 2.006-1.404 4.815-2.006 8.024-2.407 14.645-2.407 39.121 0 53.766z" fill="#FFA76C"/><path d="M607.403 380.758c.602 3.21 1.204 6.018 2.006 8.025h9.627c-.802-2.007-1.404-4.815-2.006-8.025-2.406-14.645-2.406-39.321 0-53.766.602-3.209 1.204-6.018 2.006-8.024h-9.627c-.802 2.006-1.404 4.815-2.006 8.024-2.607 14.645-2.607 39.121 0 53.766z" fill="#FFA76C"/><path d="M709.49 388.783h144.006a4.024 4.024 0 004.011-4.013 4.023 4.023 0 00-4.011-4.012H710.694c-4.011-7.222-4.011-46.744 0-53.766h142.802a4.023 4.023 0 004.011-4.012 4.023 4.023 0 00-4.011-4.012H709.49c-2.406 0-9.827 0-9.827 34.907 0 34.908 7.421 34.908 9.827 34.908z" fill="#D86212"/><path d="M737.77 339.431v27.083c0 1.003-1.003 1.806-2.006 1.404l-6.418-2.207-6.418 2.207c-1.003.402-2.005-.401-2.005-1.404v-27.083c0-.803.601-1.405 1.404-1.405h14.24c.601 0 1.203.602 1.203 1.405z" fill="#EBEBED"/><path d="M736.366 368.921c.602 0 1.003-.2 1.404-.401.602-.401 1.003-1.204 1.003-2.006v-27.083c0-1.204-1.003-2.408-2.407-2.408h-14.24c-1.203 0-2.407 1.003-2.407 2.408v27.083c0 .802.401 1.605 1.003 2.006.602.401 1.404.602 2.206.401l6.218-2.006 6.217 2.006h1.003zm-7.02-4.213h-.401l-6.418 2.207h-.401s-.201-.2-.201-.401v-27.083c0-.201.201-.402.402-.402h14.24c.2 0 .401.201.401.402v27.083c0 .201-.201.401-.201.401s-.2.201-.401 0l-6.418-2.207h-.602z" fill="#EBEBED"/><path d="M738.773 338.628v27.084c0 1.003-1.003 1.805-2.006 1.404l-6.418-2.207-6.418 2.207c-1.003.401-2.006-.401-2.006-1.404v-27.084c0-.802.602-1.404 1.404-1.404h14.24c.602 0 1.204.602 1.204 1.404z" fill="#1761D0"/><path d="M723.33 368.119c.2 0 .601 0 .802-.201l6.217-2.006 6.218 2.006c.802.201 1.604.201 2.206-.401.602-.401 1.003-1.204 1.003-2.006v-27.084c0-1.203-1.003-2.407-2.407-2.407h-14.24c-1.203 0-2.407 1.003-2.407 2.407v27.084c0 .802.401 1.605 1.003 2.006.602.602 1.203.602 1.605.602zm14.039-29.892c.201 0 .401.2.401.401v27.083c0 .201-.2.402-.2.402s-.201.2-.402 0l-6.418-2.207h-.601l-6.418 2.207h-.401s-.201-.201-.201-.402v-27.083c0-.201.2-.401.401-.401h13.839z" fill="#2B74E2"/><path d="M568.494 278.242h264.745c14.24 0 14.24 37.716 0 37.716H568.494" fill="#E2D900"/><path d="M833.238 319.168H568.494c-1.805 0-3.209-1.404-3.209-3.21 0-1.805 1.404-3.21 3.209-3.21h264.744c4.814 0 7.622-8.024 7.622-15.648 0-7.623-2.607-15.648-7.622-15.648H568.494c-1.805 0-3.209-1.404-3.209-3.21 0-1.805 1.404-3.21 3.209-3.21h264.744c9.628 0 13.839 11.436 13.839 22.068 0 10.633-4.412 22.068-13.839 22.068z" fill="#E2D900"/><path d="M489.672 315.958c14.24 0 14.24-37.716 0-37.716h183.316c14.24 0 14.24 37.716 0 37.716H489.672z" fill="#F5F5F7"/><path d="M676.397 290.681H498.898c-.401 0-.802-.402-.802-.803s.401-.802.802-.802h177.7c.401 0 .802.401.802.802-.2.401-.401.803-1.003.803zM676.397 305.125H498.898c-.401 0-.802-.401-.802-.802 0-.402.401-.803.802-.803h177.7c.401 0 .802.401.802.803-.2.401-.401.802-1.003.802zM676.397 285.866H497.695c-.402 0-.803-.402-.803-.803s.401-.802.803-.802h178.702c.401 0 .803.401.803.802s-.201.803-.803.803zM676.397 295.495H499.901c-.401 0-.802-.401-.802-.802s.401-.802.802-.802h176.496c.402 0 .803.401.803.802s-.201.802-.803.802zM676.397 300.31H499.901c-.401 0-.802-.401-.802-.802 0-.402.401-.803.802-.803h176.496c.402 0 .803.401.803.803 0 .401-.201.802-.803.802zM676.397 309.94H497.695c-.402 0-.803-.401-.803-.803 0-.401.401-.802.803-.802h178.702c.401 0 .803.401.803.802 0 .402-.201.803-.803.803z" fill="#EBEBED"/><path d="M672.988 319.168H489.672c-1.805 0-3.209-1.404-3.209-3.21 0-1.805 1.404-3.21 3.209-3.21h183.316c4.813 0 7.621-8.024 7.621-15.648 0-7.623-2.607-15.648-7.621-15.648H489.672c-1.805 0-3.209-1.404-3.209-3.21 0-1.805 1.404-3.21 3.209-3.21h183.316c9.627 0 13.839 11.436 13.839 22.068 0 10.633-4.413 22.068-13.839 22.068z" fill="#EDE40B"/><path d="M652.129 286.668v13.04c0 .803.802 1.405 1.604 1.204l5.215-1.806 5.215 1.806c.802.201 1.604-.401 1.604-1.204v-13.04c0-.602-.401-1.003-1.002-1.003h-11.232c-1.003 0-1.404.602-1.404 1.003z" fill="#EBEBED"/><path d="M653.131 301.714c-.401 0-.802-.201-1.203-.402-.602-.401-.803-1.003-.803-1.605v-13.04c0-1.003.803-1.805 1.806-1.805h11.231c1.003 0 1.805.802 1.805 1.805v13.04c0 .602-.401 1.204-.802 1.605-.602.402-1.203.402-1.805.201l-4.814-1.605-4.813 1.605c0 .201-.401.201-.602.201zm0-15.247c-.2 0-.2.2-.2.2v13.04c0 .201.2.201.2.402 0 0 .201.2.401 0l5.215-1.806h.602l5.214 1.806h.401s.201-.201.201-.402v-13.04c0-.2-.201-.2-.201-.2h-11.833z" fill="#EBEBED"/><path d="M651.327 286.267v13.04c0 .803.802 1.404 1.604 1.204l5.215-1.806 5.215 1.806c.802.2 1.604-.401 1.604-1.204v-13.04c0-.602-.401-1.003-1.003-1.003h-11.231c-1.003-.201-1.404.401-1.404 1.003z" fill="#FF8A33"/><path d="M652.53 301.113c-.401 0-.802-.201-1.203-.402-.602-.401-.802-1.003-.802-1.605v-13.04c0-1.003.802-1.805 1.805-1.805h11.231c1.003 0 1.805.802 1.805 1.805v13.04c0 .602-.401 1.204-.802 1.605-.602.402-1.203.402-1.805.201l-4.814-1.605-4.813 1.605c-.201.201-.401.201-.602.201zm5.415-3.411h.201l5.215 1.806h.401s.2-.201.2-.402v-13.04c0-.2-.2-.2-.2-.2H652.53c-.2 0-.2.2-.2.2v13.04c0 .201.2.201.2.402 0 0 .201.2.401 0l5.215-1.806h-.201z" fill="#FF8A33"/><path d="M828.224 302.116H704.677c-2.607 0-5.014-2.207-5.014-5.016 0-2.608 2.206-5.015 5.014-5.015h123.547c2.608 0 5.015 2.207 5.015 5.015-.201 2.608-2.407 5.016-5.015 5.016z" fill="#E2D900"/><path d="M544.827 271.02h71.802c9.828-5.417 17.249-17.454 17.249-33.303l34.096-120.972h204.977l-34.096 120.972c0 15.849-7.421 27.886-17.249 33.303H704.878" fill="#462BE2"/><path d="M821.606 275.032H704.878a4.023 4.023 0 01-4.012-4.012 4.023 4.023 0 014.012-4.012h115.525c8.824-5.216 14.24-16.451 14.24-29.291 0-.401 0-.802.2-1.003l32.692-115.957H670.982l-33.093 117.562c-.2 16.05-7.621 29.892-19.254 36.112-.602.401-1.203.401-2.006.401h-71.802a4.024 4.024 0 01-4.011-4.013 4.024 4.024 0 014.011-4.012h70.799c8.825-5.216 14.241-16.451 14.241-29.29 0-.401 0-.803.2-1.003l34.096-120.973c.401-1.805 2.006-3.009 3.811-3.009H872.95c1.204 0 2.407.602 3.209 1.605.803 1.003 1.003 2.207.602 3.411l-33.895 120.37c-.201 16.05-7.622 29.892-19.254 36.111-.803.803-1.404 1.003-2.006 1.003z" fill="#2B5EE2"/><path d="M633.276 254.77c-5.415-6.019 31.689-135.417 42.52-135.417h194.146l-37.305 134.815-199.361.602z" fill="#F5F5F7"/><path d="M649.321 232.504s-.2 0 0 0c-.602 0-1.003-.602-1.003-1.203 4.212-31.096 14.642-64.8 31.489-103.118.2-.602.802-.802 1.404-.602.602.201.802.803.602 1.405-16.848 38.117-27.077 71.821-31.288 102.716-.402.401-.803.802-1.204.802z" fill="#EBEBED"/><path d="M655.539 232.501s-.201 0 0 0c-.602 0-1.003-.601-1.003-1.203 4.212-31.297 14.641-65 31.489-103.118.2-.602.802-.802 1.404-.602.601.201.802.803.601 1.405-16.847 37.916-27.076 71.62-31.288 102.716-.401.401-.802.802-1.203.802z" fill="#EBEBED"/><path d="M661.756 232.501s-.2 0 0 0c-.601 0-1.003-.601-1.003-1.203 4.212-31.497 14.441-65.201 31.489-103.118.201-.602.802-.802 1.404-.602.602.201.802.803.602 1.405-16.848 37.916-27.077 71.42-31.288 102.716-.402.401-.803.802-1.204.802z" fill="#EBEBED"/><path d="M667.974 232.501c-.201 0-.201 0 0 0-.602 0-1.003-.601-1.003-1.203 4.212-31.096 14.842-65.803 31.489-103.118.2-.602.802-.802 1.403-.602.602.201.803.803.602 1.405-16.647 37.114-27.076 71.62-31.288 102.716-.401.401-.802.802-1.203.802z" fill="#EBEBED"/><path d="M674.191 232.501c-.2 0-.2 0 0 0-.602 0-1.003-.601-1.003-1.203 4.212-31.297 14.842-66.003 31.489-103.118.201-.602.802-.802 1.404-.602.602.201.802.803.602 1.405-16.647 36.913-27.077 71.62-31.288 102.716-.402.401-.803.802-1.204.802z" fill="#EBEBED"/><path d="M680.409 232.501c-.201 0-.201 0 0 0-.602 0-1.003-.601-1.003-1.203 4.212-31.497 14.842-66.204 31.488-103.318.201-.602.803-.803 1.404-.402.602.201.803.803.602 1.405-16.647 36.913-27.277 71.42-31.288 102.716-.401.401-.802.802-1.203.802z" fill="#EBEBED"/><path d="M686.426 232.501c-.602 0-1.003-.601-1.003-1.203 4.212-31.698 14.641-66.405 31.489-103.318.2-.602.802-.803 1.404-.402.601.201.802.803.401 1.405-16.647 36.713-27.277 71.219-31.288 102.716 0 .401-.401.802-1.003.802z" fill="#EBEBED"/><path d="M692.643 232.501c-.602 0-1.003-.601-1.003-1.203 4.212-31.698 14.641-66.405 31.489-103.318.2-.602.802-.803 1.404-.402.601.201.802.803.401 1.405-16.647 36.512-27.277 71.018-31.288 102.716 0 .401-.401.802-1.003.802z" fill="#EBEBED"/><path d="M698.86 232.501c-.601 0-1.002-.601-1.002-1.203 4.212-31.898 14.641-66.605 31.488-103.318.201-.602.803-.803 1.404-.402.602.201.802.803.401 1.405-16.646 36.512-27.276 71.018-31.288 102.716 0 .401-.401.802-1.003.802z" fill="#EBEBED"/><path d="M705.078 232.501c-.602 0-1.003-.601-1.003-1.203 3.009-24.275 9.627-48.951 19.856-75.633.201-.602.802-.803 1.204-.602.601.201.802.803.601 1.204-10.229 26.481-16.647 50.957-19.655 75.031 0 .802-.401 1.203-1.003 1.203zM711.296 232.501c-.602 0-1.003-.601-1.003-1.203 4.011-32.099 14.641-67.007 31.488-103.318.201-.602.802-.803 1.404-.402.602.201.802.803.401 1.405-16.646 36.111-27.276 70.617-31.288 102.716 0 .401-.401.802-1.002.802z" fill="#EBEBED"/><path d="M717.513 232.501c-.601 0-1.003-.601-1.003-1.203 4.012-32.3 14.642-67.007 31.489-103.318.201-.602.802-.803 1.404-.402.602.201.802.803.401 1.405-16.647 35.91-27.277 70.617-31.288 102.716 0 .401-.401.802-1.003.802z" fill="#EBEBED"/><path d="M723.731 232.501c-.602 0-1.003-.601-1.003-1.203 4.011-32.5 14.641-67.207 31.488-103.318.201-.602.803-.803 1.404-.402.602.201.803.803.401 1.405-16.646 35.91-27.276 70.417-31.288 102.716 0 .401-.601.802-1.002.802z" fill="#EBEBED"/><path d="M729.948 232.501c-.602 0-1.003-.601-1.003-1.203 4.012-32.5 14.642-67.408 31.489-103.318.2-.602.802-.803 1.404-.402.602.201.802.803.401 1.405-16.647 35.71-27.277 70.216-31.288 102.716 0 .401-.602.802-1.003.802z" fill="#EBEBED"/><path d="M736.166 232.501s-.201 0 0 0c-.602 0-1.003-.601-1.003-1.203 4.011-32.701 14.641-67.408 31.488-103.318.201-.402.803-.803 1.404-.402.602.201.803.803.401 1.405-16.847 35.509-27.276 70.216-31.288 102.716-.2.401-.601.802-1.002.802z" fill="#EBEBED"/><path d="M742.383 232.501s-.201 0 0 0c-.602 0-1.003-.601-1.003-1.203 4.011-32.902 14.641-67.608 31.488-103.318.201-.602.803-.803 1.404-.402.602.201.803.803.401 1.405-16.847 35.509-27.276 70.015-31.287 102.716-.201.401-.602.802-1.003.802z" fill="#EBEBED"/><path d="M748.6 232.501s-.2 0 0 0c-.601 0-1.002-.601-1.002-1.203 2.607-22.068 8.223-44.939 16.646-68.01.201-.601.803-.802 1.204-.601.602.2.802.802.602 1.203-8.424 23.071-13.839 45.741-16.647 67.608 0 .602-.401 1.003-.803 1.003zM754.818 232.501c-.2 0-.2 0 0 0-.602 0-1.003-.601-1.003-1.203 4.012-33.102 14.641-67.809 31.489-103.318.2-.402.802-.803 1.404-.402.401.201.802.803.401 1.405-16.847 35.108-27.277 69.815-31.288 102.716-.201.401-.602.802-1.003.802z" fill="#EBEBED"/><path d="M761.035 232.501c-.2 0-.2 0 0 0-.601 0-1.002-.601-1.002-1.203 4.011-33.303 14.641-68.01 31.488-103.318.201-.602.802-.803 1.404-.402.401.201.802.803.401 1.405-16.847 35.108-27.276 69.614-31.288 102.716-.2.401-.601.802-1.003.802z" fill="#EBEBED"/><path d="M767.052 232.501c-.601 0-1.002-.601-1.002-1.203 4.011-33.303 14.641-68.21 31.488-103.318.201-.402.802-.803 1.404-.402.401.201.802.803.401 1.405-16.847 34.907-27.277 69.413-31.288 102.716 0 .401-.401.802-1.003.802z" fill="#EBEBED"/><path d="M512.737 271.02s10.229-10.633 14.641-19.46c.602-1.003 1.805-1.805 3.009-1.605 10.228 1.204 56.158 6.019 108.705 2.408 32.091-2.207 139.794-17.855 187.929-7.022 6.017 1.404 9.026 8.025 6.218 13.441-2.808 5.417-6.819 11.034-11.633 12.238H512.737z" fill="#fff"/><path d="M710.092 248.751c-.2 8.025-3.008 18.859-3.81 22.269h115.324c5.014-1.204 9.026-6.821 11.633-12.238 2.808-5.416-.401-12.237-6.418-13.441-27.076-6.019-72.604-3.812-113.319-.201-1.805 0-3.209 1.605-3.41 3.611z" fill="#DDD"/><path d="M764.646 275.032H499.901a4.023 4.023 0 01-4.011-4.012 4.023 4.023 0 014.011-4.012h264.745a4.023 4.023 0 014.011 4.012 4.023 4.023 0 01-4.011 4.012z" fill="#5E4EF9"/><path d="M821.606 275.032H704.877a4.023 4.023 0 01-4.011-4.012 4.023 4.023 0 014.011-4.012h115.525c8.825-5.216 14.241-16.451 14.241-29.291 0-.401 0-.802.2-1.003l34.096-120.972c.602-2.207 2.808-3.41 5.014-2.809 2.206.602 3.41 2.809 2.808 5.016l-33.895 120.37c-.201 16.05-7.622 29.892-19.254 36.112-.803.401-1.404.601-2.006.601z" fill="#2B5EE2"/><path d="M588.951 364.708c-4.813 0-9.827-5.617-11.031-12.438l-15.042-77.037c-1.404-6.821 1.404-12.438 6.218-12.438 4.813 0 9.827 5.617 11.031 12.438l15.042 77.037c1.404 6.821-1.404 12.438-6.218 12.438zM564.884 364.708c-4.814 0-10.229-5.617-12.235-12.438l-22.664-77.037c-2.005-6.821.201-12.438 5.014-12.438 4.814 0 10.229 5.617 12.235 12.438l22.664 77.037c2.005 6.821-.201 12.438-5.014 12.438z" fill="#C0C0CE"/><path d="M589.152 151.051c1.203 9.228 1.404 18.256 1.203 27.484-.2 4.615-.601 9.229-1.404 14.044a47.461 47.461 0 01-1.805 7.222c-.802 2.407-1.805 4.815-2.807 7.021-2.207 4.414-5.015 8.426-8.023 12.238-3.009 3.611-6.619 7.022-10.429 10.031-3.811 3.009-8.023 5.617-12.636 7.423-4.613 1.805-9.627 3.009-14.842 2.608-2.005-.201-3.409-1.806-3.409-3.812.2-1.805 1.604-3.21 3.209-3.21 3.81-.401 7.621-1.605 11.031-3.611 3.409-1.805 6.819-4.413 9.827-7.021 5.817-5.618 11.031-12.439 14.24-19.661a28.634 28.634 0 001.806-5.417c.401-1.805.802-3.811 1.203-5.818.602-4.012.802-8.225 1.003-12.639.2-4.212.2-8.626 0-12.839 0-4.213-.201-8.827-.401-12.84v-.2c-.201-3.411 2.406-6.219 5.816-6.219 3.209-.201 6.017 2.006 6.418 5.216z" fill="#EF9D7F"/><path d="M587.146 137.008c4.012-1.004 6.619 11.836 8.223 18.657 1.204 4.815 1.806 15.447 2.006 21.265 0 2.207-1.604 3.812-3.811 3.612l-16.847-1.405c-1.805-.2-3.209-1.605-3.209-3.41-.401-8.827-.602-35.108 13.638-38.719z" fill="#256EDC"/><path d="M548.237 343.443c2.407 5.015 6.619 16.25 6.619 16.25l7.019-1.806s-3.209-13.642-4.613-17.654l-9.025 3.21zM576.115 349.06c1.805 5.016 4.814 16.25 4.814 16.25l6.418-1.805s-2.006-13.642-3.009-17.655l-8.223 3.21z" fill="#FFBEA4"/><path d="M638.491 147.038c-2.006-9.629-10.63-16.651-20.458-16.651h-.401l-18.452.401c-1.003 0-1.805.201-2.607.602l-10.229 5.417c-7.421 3.812-11.232 12.238-9.426 20.262 8.824 40.525 7.621 73.627 7.621 74.028 0 1.806.602 3.411 2.006 4.614 1.203 1.003 2.607 1.605 4.011 1.605h.602l46.731-5.216c2.808-.401 5.215-2.608 5.415-5.617 2.608-36.111-2.005-65.201-4.813-79.445z" fill="#2B74E2"/><path d="M599.982 148.844c-6.217 0-11.432-5.216-11.432-11.435s5.215-11.435 11.432-11.435c6.218 0 11.433 5.216 11.433 11.435-.201 6.219-5.215 11.435-11.433 11.435zm0-22.469a10.787 10.787 0 00-10.83 10.833 10.786 10.786 0 0010.83 10.833 10.787 10.787 0 0010.831-10.833c0-5.818-4.814-10.833-10.831-10.833zM600.383 160.48c-1.002 0-1.805-.401-2.406-1.405-.602-.802-1.003-2.006-1.003-3.209 0-2.608 1.404-4.615 3.409-4.815 1.003 0 1.806.401 2.407 1.404.602.803 1.003 2.006 1.003 3.21 0 1.204-.201 2.407-1.003 3.21-.601 1.204-1.404 1.605-2.407 1.605zm-.2-8.827c-1.605 0-3.009 2.006-3.009 4.213 0 1.203.402 2.206 1.003 3.009.602.802 1.204 1.204 2.006 1.204.802 0 1.404-.402 2.006-1.204.601-.803.802-1.806.802-3.009a4.93 4.93 0 00-1.003-3.01c-.201-.802-1.003-1.203-1.805-1.203zM601.988 172.116c-1.805 0-3.41-2.007-3.41-4.615 0-1.203.402-2.407 1.003-3.209.602-1.004 1.404-1.405 2.407-1.405 1.003 0 1.805.401 2.407 1.405.601.802 1.003 2.006 1.003 3.209 0 1.204-.201 2.408-1.003 3.21-.602.803-1.404 1.405-2.407 1.405zm0-8.828c-.201 0-.201 0 0 0-.802 0-1.605.402-2.006 1.204-.601.803-.802 1.806-.802 3.009 0 2.207 1.404 4.213 3.009 4.213.802 0 1.404-.401 2.005-1.203.602-.803.802-1.806.802-3.01a4.934 4.934 0 00-1.002-3.009c-.602-.802-1.404-1.204-2.006-1.204z" fill="#fff"/><path d="M590.757 235.31h-5.416c-3.61 0-7.019.201-10.63.401-7.019.402-14.24 1.003-21.46 2.007-7.22 1.003-14.441 2.407-21.661 4.413-7.22 2.006-14.641 4.815-22.062 9.028l-1.404.802c-.602.402-1.404.803-2.006 1.405-5.214 4.413-5.816 12.237-1.403 17.453.401.402 1.002 1.204 1.403 1.806l1.404 2.207c1.003 1.404 2.006 3.009 3.009 4.413 2.006 3.01 3.811 6.22 5.816 9.229 3.811 6.219 7.421 12.839 10.831 19.259 3.409 6.62 6.819 13.241 10.028 20.062 3.209 6.821 6.217 13.642 9.226 20.463l12.435-4.213a458.25 458.25 0 00-6.017-22.269c-2.206-7.423-4.412-14.845-6.819-22.068-2.407-7.422-5.014-14.645-8.023-21.867-1.003-2.407-2.005-5.015-3.008-7.423 1.203-.401 2.607-.802 3.81-1.203 5.616-1.605 11.834-2.809 17.851-3.612a285.88 285.88 0 0118.853-1.805c3.209-.201 6.418-.201 9.627-.201h4.813c2.407 0 4.613-2.006 4.613-4.413l1.204-23.473c-1.605-.401-3.209-.401-5.014-.401z" fill="#17203A"/><path d="M646.513 240.125l-1.203-14.846c-.2-1.605-1.003-3.21-2.206-4.213-1.204-1.003-2.808-1.605-4.413-1.404l-49.94 5.617c-3.209.401-5.415 3.009-5.415 6.219l.2 6.22c-4.412 1.003-9.025 2.206-13.638 3.41-7.02 2.006-14.24 4.414-21.46 7.623l-1.204.402c-.401.2-.802.401-1.404.602-6.017 3.41-8.022 11.234-4.613 17.253.401.602.803 1.404 1.204 2.206l1.203 2.408 2.407 5.015c1.604 3.411 3.008 6.821 4.613 10.432 3.008 7.022 5.816 14.044 8.423 21.266 2.808 7.222 5.215 14.444 7.822 21.667 2.407 7.222 4.814 14.645 7.221 22.067l13.036-3.009c-1.203-7.824-2.406-15.447-3.61-23.271-1.404-7.824-2.808-15.448-4.412-23.272-1.605-7.824-3.41-15.448-5.215-23.272-.802-3.21-1.604-6.419-2.407-9.429 2.006-.602 4.212-1.404 6.218-2.006 6.217-1.805 12.635-3.21 19.054-4.614a309.137 309.137 0 0119.655-3.611c2.005-.401 3.811-.602 5.816-.803l7.822-.401c2.006-.2 4.011-.602 5.817-1.404h.401v-.201c2.206-1.003 4.412-2.407 6.017-4.413 3.008-3.01 4.613-7.423 4.211-12.238z" fill="#252F5A"/><path d="M583.336 222.069c0 2.207 0 6.219-.201 8.627 0 .201.201.602.602.602 5.214-.201 45.528-2.408 61.372-5.618.201 0 .402-.2.402-.401 0-1.003 0-4.413-.402-8.626-.2-1.605-1.604-2.809-3.209-2.408-8.824 1.204-36.101 4.815-57.16 6.42-.803 0-1.404.602-1.404 1.404z" fill="#3021BF"/><path d="M599.381 144.832c-2.006 0-3.811-.602-5.416-2.007-10.83-9.83-11.833-25.077-12.033-26.882-.201-4.414 3.209-8.226 7.621-8.426 4.412-.201 8.223 3.21 8.424 7.623.2 2.809 1.805 11.235 6.618 15.849 3.209 3.009 3.611 8.025.602 11.435-1.604 1.605-3.61 2.408-5.816 2.408z" fill="#FFBEA4"/><path d="M595.369 124.168s-20.658 4.815-6.819 15.046c11.834 8.827 15.444-10.231 6.819-15.046z" fill="#DD8B66"/><path d="M594.968 106.915c0 1.404.201 3.21.401 4.614l.402 4.815c.2 1.605.401 3.009.601 4.614.201 1.404.401 2.809.602 4.012l.2 1.004c1.605 7.824-3.61 15.246-11.231 16.851-6.819 1.405-13.438-2.407-16.045-8.626-.803-2.207-1.605-4.013-2.206-6.019-.602-1.805-1.204-3.811-1.605-5.617-.602-1.806-1.003-3.611-1.404-5.417-.401-1.805-.802-3.611-1.404-5.617v-.401c-2.006-8.627 3.61-17.253 12.235-19.26 8.624-2.006 17.248 3.612 19.254 12.238 0 .803.2 1.806.2 2.809z" fill="#FFBEA4"/><path d="M580.327 119.955c.201.602.802 1.003 1.605.803.601-.201 1.003-.803.802-1.605-.201-.602-.802-1.004-1.605-.803-.601.401-1.002 1.003-.802 1.605zM567.29 123.566c.201.602.803 1.003 1.605.803.602-.201 1.003-.803.802-1.605-.2-.602-.802-1.003-1.604-.803-.602.201-1.003 1.003-.803 1.605zM577.519 115.742l-.401-.802c.201-.201 4.613-2.608 8.223-.402l-.401.602c-3.209-1.805-7.421.602-7.421.602zM583.292 132.591l-.401-.602c2.962-1.588 5.058-5.213 5.058-5.213l.802.401c-.401 0-2.051 3.542-5.459 5.414zM563.279 119.153l-.802-.201s1.203-4.012 5.415-3.411v.803c-3.61-.602-4.412 2.608-4.613 2.809z" fill="#252F5A"/><path d="M577.319 130.387h-3.61v-.401c.601-3.21.2-6.42-1.204-9.63l.802-.401c1.404 3.21 1.805 6.42 1.404 9.63h2.608v.802z" fill="#DD8B66"/><path d="M600.584 107.115c-.2-6.821-.2-9.83-3.81-10.03l2.807-1.605s-1.404-.602-2.807.2c1.203-2.407-.201-4.213-.201-4.213l-1.404 4.615c-2.206-5.016-9.025-9.43-19.655-4.414-9.627 4.614-16.045 4.413-16.045 4.413s1.203 1.405 3.61 2.608c-4.012.402-8.023 0-8.023 0 1.003 1.806 2.808 3.21 5.014 4.013-3.209.201-5.616.201-5.616.201 1.404 2.407 4.212 3.811 7.421 4.212-2.406 1.204-4.011 1.806-4.011 1.806 4.814 4.414 17.249 1.003 24.068-5.417 4.011 7.624 10.83 16.25 13.839 16.05 4.813 0 5.014-1.605 4.813-12.439z" fill="#252F5A"/><path d="M589.352 117.347c1.605-5.015 4.413-7.824 7.421-3.812 4.613 5.618-.401 14.846-3.81 11.636-3.209-3.21-3.611-7.824-3.611-7.824z" fill="#FFBEA4"/><path opacity=".2" d="M583.737 349.863c-7.822-42.331-17.048-72.824-20.659-84.059-.802-2.608.402-5.417 3.009-6.42 28.279-11.636 68.392-16.049 68.793-16.049v.401c-.401 0-40.514 4.414-68.592 16.05-2.207 1.003-3.41 3.41-2.608 5.817 3.61 11.235 12.836 41.729 20.658 84.059l-.601.201z" fill="#fff"/><path d="M586.344 358.489c-1.605 1.806-4.412 3.411-6.017 4.013-.401.2-.802.601-.802 1.003-.802 3.009-4.413 14.043-8.624 17.052-4.613 3.411 7.019 3.21 10.83-2.407 3.811-5.818 6.619-9.229 9.226-11.235 2.206-1.605 1.003-5.216-2.407-8.225-.602-1.003-1.604-.803-2.206-.201zM560.872 355.079c-2.005 1.404-5.214 2.207-6.819 2.407-.401 0-.802.401-1.003.803-1.404 2.808-7.621 12.639-12.234 14.645-5.215 2.207 6.217 4.815 11.031 0 5.014-4.815 8.424-7.423 11.633-8.827 2.406-1.204 2.206-4.815-.402-8.627-.601-.802-1.403-.802-2.206-.401z" fill="#31457C"/><path d="M575.714 366.915c-.401 0-1.003-.2-1.404-.401s-.601-.602-.401-1.003c0-.802.802-1.605 1.805-2.006 1.404-.602 2.808-.201 4.212.802v.402c-.2.2-2.206 2.206-4.212 2.206zm1.404-3.009c-.401 0-.802.201-1.203.201-1.003.401-1.404 1.003-1.605 1.605 0 .2 0 .401.201.601 1.604 1.004 4.011-.802 4.813-1.404-.802-.802-1.604-1.003-2.206-1.003z" fill="#fff"/><path d="M579.725 364.909c-.2 0-3.008-.201-4.412-1.605-.401-.401-.602-1.003-.602-1.805 0-.803.602-1.204 1.204-1.405 1.203 0 3.209 1.405 3.81 4.414.201.2.201.2 0 .401.201 0 0 0 0 0zm-3.61-4.213c-.601 0-.802.401-.802.803 0 .601.201 1.003.401 1.404.802 1.003 2.808 1.404 3.61 1.404-.601-2.207-2.206-3.611-3.209-3.611zM549.039 361.298c-.602 0-1.404-.201-1.805-.602-.401-.201-.401-.602-.2-1.003.2-.802 1.203-1.404 2.206-1.605 1.404-.401 2.808.201 4.011 1.605v.201s0 .2-.201.2c-.2-.2-2.005 1.204-4.011 1.204zm.802-3.009h-.601c-1.003.2-1.605.802-1.805 1.203 0 .201 0 .402.2.602 1.404 1.405 4.212-.2 4.814-.602-.802-1.003-1.805-1.203-2.608-1.203z" fill="#fff"/><path d="M552.85 359.894c-.201 0-3.009-.602-4.011-2.408-.402-.602-.402-1.203-.201-1.805.201-.803.802-1.204 1.404-1.003 1.203.2 3.008 2.006 3.209 5.015-.201 0-.201 0-.401.201.2 0 0 0 0 0zm-3.009-4.815c-.401 0-.601.401-.802.802-.2.602 0 1.003.201 1.405.802 1.203 2.607 1.805 3.409 2.006-.2-2.608-1.805-4.013-2.808-4.213z" fill="#fff"/><path d="M644.107 168.504c-2.006-9.429-5.014-18.055-9.026-26.882-1.203-2.809-4.613-4.213-7.621-3.21-3.209 1.204-4.613 4.614-3.61 7.824v.201c1.404 4.012 3.008 8.225 4.212 12.237 1.403 4.213 2.406 8.225 3.409 12.438.802 4.213 1.605 8.226 1.805 12.238.201 4.012-.2 7.824-1.404 10.232-.2.401-.802 1.605-1.404 2.407l-1.604 2.809-3.61 5.416c-2.407 3.411-5.215 6.621-8.023 9.63-5.816 5.818-12.836 9.83-20.658 11.034-2.607-.401-6.017-.803-9.828-2.006a3.409 3.409 0 00-2.005 0c-3.811.802-8.023 8.626-7.02 12.438.602 2.407 4.011.602 7.621.201 8.023-1.204 17.449-1.204 17.65-3.01v-.802c3.008-.401 5.816-1.204 8.624-2.207 4.613-2.006 9.026-4.614 12.836-7.824 3.811-3.009 7.221-6.62 10.229-10.432 1.605-1.806 3.009-3.812 4.212-5.617l2.006-3.01c.601-1.003 1.203-1.805 2.005-3.41 1.404-2.809 2.206-5.617 2.608-8.426.401-2.608.601-5.417.401-7.824 0-4.815-.602-9.63-1.805-14.445z" fill="#FFBEA4"/><path d="M622.847 130.989c-4.012-.401-1.605 13.642-1.204 20.664.401 7.021 2.608 20.262 2.608 20.262l20.457-3.411c1.404-.2 2.407-1.604 2.206-3.009-1.404-8.225-7.019-32.7-24.067-34.506z" fill="#2269D4"/><path d="M623.85 171.915c0-.201-2.207-13.241-2.608-20.262 0-.803 0-1.405-.2-2.408-.201-3.41-.401-7.423-.401-10.833h.601c-.2 3.41.201 7.623.401 10.833 0 .803 0 1.605.201 2.408.401 7.021 2.607 20.061 2.607 20.262h-.601z" fill="#fff"/><path d="M572.104 350.063l1.404 5.216 15.844-2.608-1.002-6.62-16.246 4.012z" fill="#37477C"/><path d="M543.624 344.446l1.604 5.216 15.644-3.21-1.003-6.419-16.245 4.413z" fill="#252F5A"/><path d="M609.008 95.68h-.602v11.636h.602V95.68z" fill="#fff"/><path d="M608.607 108.921h-.401c-.402-.201-.602-.401-.803-.802-.2-.402-.2-.803 0-1.004.201-.401.401-.601.803-.802.401-.201.802-.201 1.002 0 .401.201.602.401.803.802.2.402.2.803 0 1.004-.201.401-.402.601-.803.802-.2-.201-.401 0-.601 0zm0-2.407h-.401c-.201.2-.402.2-.402.601v.803c.201.201.201.401.602.401h.802c.201-.2.401-.2.401-.602v-.802c-.2-.201-.2-.401-.601-.401h-.401zM598.378 107.717c-4.011 0-10.229-1.404-16.246-3.611-9.226-3.21-18.051-8.426-17.048-11.234l2.607-7.423.402.2-2.407 7.423c-.802 2.006 5.816 6.821 16.647 10.633 10.83 3.812 19.053 4.414 19.655 2.407l2.607-7.422.401.2-2.607 7.423c-.2 1.003-1.805 1.404-4.011 1.404z" fill="#fff"/><path d="M616.228 96.683s-.201 0 0 0l-28.28-3.009c-1.203-.2-2.406-.602-3.409-1.204l-23.667-15.648c-.802-.401-.802-1.204-.601-1.805.2-.602.802-1.204 1.604-1.003l28.079 3.009c1.204.2 2.407.602 3.41 1.204l23.666 15.648c.803.401.803 1.203.602 1.805-.201.602-.602 1.003-1.404 1.003zm-54.553-22.068c-.602 0-.803.402-1.003.803-.201.401 0 .802.401 1.204l23.666 15.648c1.003.602 2.207 1.003 3.209 1.204l28.079 3.009c.602 0 1.003-.401 1.204-.602.2-.401 0-.803-.401-1.204L593.163 79.03c-1.003-.602-2.206-1.003-3.209-1.204l-28.279-3.21z" fill="#fff"/><path d="M610.211 93.273l-21.26-2.207c-1.203-.2-2.406-.602-3.409-1.204l-12.235-8.024.201-.402 12.234 8.025c1.003.602 2.207 1.003 3.209 1.204l21.26 2.207v.4z" fill="#fff"/><path d="M602.389 233.505c-.602 0-1.003-.602-1.003-1.004.201-2.206-.2-3.811-1.203-4.814-1.003-1.003-2.808-1.605-5.616-1.605-.602 0-1.003-.402-1.003-1.003 0-.602.401-1.003 1.003-1.003 3.41 0 5.616.802 7.02 2.206 1.404 1.405 1.805 3.611 1.805 6.42 0 .401-.401.803-1.003.803z" fill="#252F5A"/><path d="M604.194 224.878c0 1.003-2.407 1.806-5.415 2.207-3.009.2-5.616-.201-5.816-1.204v-.802l11.231-1.003v.802z" fill="#F5F5F7"/><path d="M604.194 224.076c0 1.003-2.407 1.805-5.415 2.206-3.009.201-5.616-.2-5.816-1.203 0-1.003 2.406-1.806 5.415-2.207 3.008-.201 5.616.201 5.816 1.204z" fill="#252F5A"/><path d="M602.79 224.276c0 .602-1.805 1.204-4.212 1.404-2.406.201-4.412 0-4.412-.601 0-.602 1.805-1.204 4.212-1.405 2.407-.2 4.412 0 4.412.602z" fill="#F5F5F7"/><path d="M493.683 247.748c.201 1.806 2.006 3.21 4.012 3.01l116.527-17.053c1.806-.2 3.209-2.006 3.009-4.012l-123.548 18.055z" fill="#1E64CD"/><path d="M576.316 235.711c.602 2.007 2.407 3.21 4.412 2.809l33.093-4.815c1.806-.2 3.209-2.006 3.009-4.012l-40.514 6.018z" fill="#0A4DB1"/><path d="M574.711 237.116l-77.618 11.435c-3.41.401-7.02-1.806-8.023-5.016l-15.644-51.759c-1.003-3.21 1.003-6.42 4.212-6.821l77.618-11.435c3.41-.401 7.02 1.805 8.023 5.015l15.644 51.76c1.003 3.41-.802 6.419-4.212 6.821z" fill="#1E64CD"/><path d="M572.906 237.516l-77.618 11.235c-3.41.401-7.02-1.806-8.023-5.016l-15.644-51.759c-1.002-3.21 1.003-6.42 4.212-6.821l77.819-11.435c3.41-.402 7.02 1.805 8.023 5.015l15.644 51.759c1.003 3.411-1.003 6.42-4.413 7.022z" fill="#2B74E2"/><path d="M494.085 247.146c-2.207 0-4.413-1.604-5.015-3.611l-15.644-51.759c-.401-1.204-.2-2.207.402-3.21.601-1.003 1.604-1.605 2.807-1.805l77.619-11.436c2.407-.401 5.014 1.204 5.616 3.612l15.644 51.759c.401 1.204.2 2.407-.401 3.21-.602 1.003-1.605 1.605-2.808 1.805l-77.619 11.435h-.601zm.601-.601v.2-.2l77.619-11.436c1.002-.2 1.805-.601 2.406-1.404.602-.802.602-1.805.402-2.809l-15.644-51.759c-.602-2.207-3.009-3.611-5.015-3.21l-77.618 11.435c-1.003.201-1.805.602-2.407 1.405-.601.802-.601 1.805-.401 2.808l15.644 51.76c.602 2.207 2.808 3.611 5.014 3.21z" fill="#fff"/><path d="M524.169 224.276c-1.003 0-1.805 0-2.808-.2-1.203-.201-2.206-1.004-2.607-2.207-.401-1.003-.401-2.207.2-3.21 1.204-2.006 1.404-4.414.602-6.821-.802-2.408-2.407-4.614-4.613-6.019-1.203-.802-1.604-2.006-1.604-3.41.2-1.404 1.002-2.408 2.206-3.009 1.003-.402 2.005-.602 3.008-.803 7.02-1.003 14.441 3.812 16.647 10.633 1.003 3.41.602 6.821-1.203 9.629-1.805 2.809-4.613 4.414-8.023 5.016-.401.401-1.003.401-1.805.401zm-4.412-5.015c-.401.602-.401 1.404 0 2.207.401.802 1.002 1.404 2.005 1.604 1.404.201 3.009.402 4.413.201 3.209-.401 5.816-2.006 7.22-4.614 1.605-2.608 2.006-5.617 1.003-8.827-2.006-6.42-9.026-11.034-15.444-10.031-1.002.2-1.805.401-2.807.802-.803.402-1.404 1.204-1.605 2.207-.201 1.003.401 1.806 1.203 2.407 2.407 1.605 4.212 4.013 4.814 6.621.802 2.608.602 5.216-.802 7.423z" fill="#fff"/><path d="M531.59 153.257l-.2-.401-4.212-15.849 16.245 4.414-.401.401-11.432 11.435zm-3.811-15.447l4.012 14.645 10.63-10.633-14.642-4.012zM456.284 243.1l-.284.284 21.698 21.704.284-.284-21.698-21.704z" fill="#FFA76C"/></g></g><defs><linearGradient id="paint0_linear" x1="1131.67" y1="51.126" x2="537.53" y2="499.022" gradientUnits="userSpaceOnUse"><stop stop-color="#249BFF"/><stop offset="1" stop-color="#249BFF" stop-opacity="0"/></linearGradient><filter id="filter0_d" x="452" y="32.285" width="464.662" height="441.936" filterUnits="userSpaceOnUse" color-interpolation-filters="sRGB"><feFlood flood-opacity="0" result="BackgroundImageFix"/><feColorMatrix in="SourceAlpha" values="0 0 0 0 0 0 0 0 0 0 0 0 0 0 0 0 0 0 127 0"/><feOffset dy="4"/><feGaussianBlur stdDeviation="2"/><feColorMatrix values="0 0 0 0 0 0 0 0 0 0 0 0 0 0 0 0 0 0 0.25 0"/><feBlend in2="BackgroundImageFix" result="effect1_dropShadow"/><feBlend in="SourceGraphic" in2="effect1_dropShadow" result="shape"/></filter></defs></svg>