<svg width="166" height="138" fill="none" xmlns="http://www.w3.org/2000/svg"><path fill-rule="evenodd" clip-rule="evenodd" d="M107.796 17.145c-1.615-.44-3.23.44-3.671 2.056-.44 1.614.441 3.23 2.056 3.67 1.615.44 3.231-.44 3.671-2.056.441-1.614-.44-3.23-2.056-3.67z" fill="#3D1526"/><path d="M57.282 10.392c-.293.587-1.027.734-1.615.44-.587-.293-.734-1.027-.44-1.614 1.321-2.202 3.083-4.111 5.14-5.726C62.421 2.024 64.771.996 67.414.41c3.964-.88 7.93-.293 11.453 1.321 3.525 1.615 6.462 4.258 8.517 7.781.294.588.147 1.322-.44 1.615-.588.294-1.322.147-1.615-.44-1.616-3.083-4.259-5.432-7.343-6.753-2.936-1.322-6.46-1.762-9.985-1.028-2.35.44-4.405 1.468-6.167 2.642-1.91 1.175-3.525 2.79-4.553 4.845z" fill="#3D1526"/><path d="M61.541 13.034c-.294.588-1.028.734-1.615.44-.588-.293-.735-1.027-.44-1.614a17.642 17.642 0 013.817-4.257c1.469-1.028 3.23-1.909 5.14-2.35 2.936-.587 5.873-.293 8.517.881 2.643 1.175 4.845 3.23 6.314 5.726.293.587.147 1.321-.44 1.615-.588.293-1.322.147-1.616-.44-1.175-2.056-3.084-3.818-5.14-4.845-2.055-1.028-4.552-1.322-7.048-.734-1.615.293-3.084 1.027-4.258 1.908-1.322 1.175-2.35 2.35-3.231 3.67z" fill="#3D1526"/><path fill-rule="evenodd" clip-rule="evenodd" d="M34.375 17.145c1.615-.44 3.23.44 3.671 2.056.44 1.614-.44 3.23-2.056 3.67-1.615.44-3.23-.44-3.67-2.056-.441-1.614.587-3.23 2.055-3.67zM51.409 90.402c4.111 0 7.342 3.377 7.342 7.34 0 4.111-3.377 7.341-7.342 7.341-4.112 0-7.342-3.376-7.342-7.34-.147-4.11 3.23-7.34 7.342-7.34zM90.91 90.402c4.11 0 7.341 3.377 7.341 7.34 0 4.111-3.377 7.341-7.342 7.341-4.111 0-7.342-3.376-7.342-7.34 0-4.11 3.23-7.34 7.342-7.34z" fill="#3D1526"/><path fill-rule="evenodd" clip-rule="evenodd" d="M71.086 119.031c-5.287 0-11.307-2.203-13.657-7.194l-3.818-9.102c-1.615-3.23-2.79-6.607-4.258-9.836-.587-1.468-1.175-2.936-1.028-4.405.147-1.174.734-2.055 1.615-2.789 1.469-1.321 4.112-2.496 5.874-3.523.734 1.027 1.468 1.908 2.203 2.789 3.23 4.257 7.93 6.02 13.216 6.166 5.14-.147 9.838-1.909 13.215-6.166.735-1.028 1.469-1.909 2.203-2.79 1.909 1.028 4.405 2.203 5.874 3.524.88.734 1.468 1.615 1.615 2.79.147 1.614-.44 3.082-1.028 4.404-1.468 3.23-2.79 6.606-4.258 9.836l-3.965 8.955c-2.496 5.138-8.517 7.341-13.803 7.341z" fill="#F3C432"/><path fill-rule="evenodd" clip-rule="evenodd" d="M71.38 132.684c-6.608 0-11.895 1.174-11.895 2.642s5.287 2.643 11.894 2.643c6.608 0 11.895-1.175 11.895-2.643 0-1.468-5.287-2.642-11.895-2.642z" fill="#3D1526"/><path fill-rule="evenodd" clip-rule="evenodd" d="M84.742 97.156c-.734 7.781-3.818 14.828-8.517 20.553.294-.146.734-.293 1.028-.44 2.496-1.174 4.552-2.936 5.727-5.285l5.286-11.158v-.146c1.028-2.056 2.056-4.111 2.937-6.166-2.056 1.027-4.112 1.908-6.461 2.642z" fill="#D8A816"/><path d="M63.45 115.653c2.35 1.175 5.14 1.762 7.636 1.762 2.643 0 5.286-.587 7.636-1.762 1.909-1.027 3.67-2.495 4.552-4.551L87.092 102c1.028-2.202 1.909-4.404 2.79-6.606.44-1.175 1.027-2.35 1.321-3.23.294-.734.588-1.321.734-1.909.147-.587.294-1.174.147-1.614 0-.294-.147-.735-.293-1.028-.147-.294-.44-.587-.735-.881-1.028-1.028-2.936-1.909-4.405-2.79-.44.588-1.028 1.175-1.468 1.762a18.176 18.176 0 01-6.168 4.992c-2.496 1.174-5.286 1.762-8.223 1.762h-.147c-2.937-.147-5.727-.588-8.223-1.762-2.35-1.028-4.405-2.643-6.167-4.992-.44-.587-.881-1.174-1.469-1.761-1.615.88-3.377 1.761-4.405 2.789-.294.294-.587.587-.734.88-.147.294-.294.588-.294 1.029-.147.587 0 1.174.147 1.614.147.588.44 1.322.734 1.909.44 1.028.881 2.055 1.322 3.23.88 2.202 1.909 4.404 2.79 6.606l3.818 9.102c1.615 2.056 3.23 3.524 5.286 4.551zm7.636 4.992c-3.084 0-6.314-.587-9.251-2.202-2.497-1.322-4.7-3.377-6.02-6.019l-3.819-9.103c-1.028-2.202-2.056-4.404-2.937-6.606a73.038 73.038 0 01-1.321-3.23 40.633 40.633 0 01-.881-2.349c-.294-.88-.44-1.908-.294-2.936.147-.734.294-1.468.734-2.055.294-.587.881-1.175 1.469-1.762 1.321-1.174 3.377-2.349 5.14-3.23.146-.147.44-.293 1.027-.587l1.175-.587.88 1.028c.735.88 1.47 1.761 2.203 2.789 1.322 1.762 3.084 3.083 4.993 3.964 2.056 1.027 4.405 1.468 6.902 1.468 2.496 0 4.846-.587 6.901-1.468 1.91-.881 3.525-2.202 4.993-3.964.734-1.028 1.468-1.909 2.203-2.936l.88-1.028 1.175.587c.588.294.735.44 1.028.588 1.762.88 3.818 2.055 5.14 3.23.587.44 1.028 1.027 1.468 1.761.294.587.588 1.321.735 2.055.146 1.028 0 2.056-.294 2.937-.294.88-.587 1.614-.881 2.348-.588 1.175-.881 2.203-1.322 3.23a134.25 134.25 0 01-2.937 6.753l-3.818 9.103a13.284 13.284 0 01-6.02 6.019c-2.79 1.468-6.168 2.202-9.251 2.202z" fill="#3D1526"/><path fill-rule="evenodd" clip-rule="evenodd" d="M48.032 92.605c-4.259-2.056-10.867-13.507-12.188-18.351-7.636-26.866 13.803-45.51 35.389-45.951 21.586.44 42.878 19.085 35.389 45.95-1.322 4.846-7.93 16.296-12.188 18.352-11.307 5.432-35.242 5.432-46.402 0z" fill="#F3C432"/><path fill-rule="evenodd" clip-rule="evenodd" d="M71.086 81.448c-7.049-.147-18.209-1.028-21.733-5.432-3.524-4.698-4.405-12.038-2.35-17.177 3.965-9.69 44.053-9.69 48.018 0 2.203 5.285 1.322 12.626-2.35 17.177-3.23 4.404-14.537 5.285-21.585 5.432z" fill="#fff"/><path fill-rule="evenodd" clip-rule="evenodd" d="M71.086 81.448c-7.049-.147-18.209-1.028-21.733-5.432-3.524-4.698-4.405-12.038-2.35-17.177.294-.587.588-1.174 1.175-1.761-1.322 5.138-.44 11.598 2.496 15.855 3.231 4.551 13.51 5.432 19.971 5.432 6.461-.147 16.887-1.028 19.97-5.432 3.084-4.404 3.966-11.451 2.35-16.59.881.735 1.615 1.616 1.91 2.496 2.202 5.286 1.32 12.626-2.35 17.177-3.084 4.404-14.391 5.285-21.44 5.432z" fill="#E6E6E6"/><path fill-rule="evenodd" clip-rule="evenodd" d="M48.032 76.016c-2.056-4.552-3.818-10.57-2.937-14.681.88-4.698 2.79-7.928 9.25-9.543 12.042-3.23 18.65-1.174 27.754-1.321-2.35-8.221-8.37-11.158-13.803-12.038-16.887-2.937-37.151 19.525-20.265 37.583z" fill="#FFDA69"/><path d="M59.191 78.805c3.965.734 8.517 1.028 11.895 1.028 3.377 0 7.93-.294 11.894-1.028 3.818-.734 7.048-1.908 8.517-3.817 1.615-2.055 2.643-4.845 2.937-7.487.44-2.79.147-5.726-.881-8.075-.588-1.32-2.203-2.642-4.7-3.523-4.551-1.762-11.16-2.79-17.914-2.79-6.755 0-13.363.881-17.915 2.79-2.35 1.028-4.112 2.202-4.699 3.523-1.028 2.35-1.322 5.285-.881 8.075.44 2.79 1.322 5.432 2.937 7.487 1.762 1.909 4.992 3.083 8.81 3.817zm11.895 4.257c-3.671 0-8.224-.293-12.482-1.174-4.405-.88-8.517-2.349-10.426-4.991-1.909-2.496-3.084-5.726-3.524-9.103-.44-3.376-.147-6.753 1.028-9.689.88-2.202 3.23-3.964 6.46-5.285 4.847-2.055 12.042-2.936 19.09-2.936 7.049 0 14.244 1.027 19.09 2.936 3.23 1.321 5.433 3.083 6.461 5.285 1.175 2.936 1.469 6.313 1.028 9.69-.44 3.376-1.615 6.606-3.524 9.102-2.056 2.642-6.02 4.11-10.426 4.991-4.405.88-9.104 1.028-12.775 1.174z" fill="#3D1526"/><path d="M67.561 73.08c-.293-.881 0-1.762.882-2.056.88-.293 1.762 0 2.055.881.294.587.588 1.028.735 1.321 0 0 0 .147.146.147l.147-.147c.294-.293.588-.734.881-1.321.44-.734 1.322-1.174 2.056-.734.734.44 1.175 1.321.734 2.055-.587 1.028-1.174 1.909-1.762 2.35-.734.587-1.468.88-2.202.733-.735 0-1.469-.293-2.056-.88a7.342 7.342 0 01-1.616-2.35zM18.81 92.606a13.691 13.691 0 002.202 3.523c1.762 2.055 4.406 3.964 7.49 4.991 3.083 1.028 6.754 1.175 10.572-.293 2.203-.881 4.552-2.202 6.902-4.404l2.056 2.348c-2.644 2.349-5.287 3.964-7.93 4.992-4.699 1.762-8.957 1.468-12.775.294a23.248 23.248 0 01-8.958-5.873c-1.321-1.468-2.35-3.083-2.937-4.404l3.378-1.174zM93.846 100.973c-1.175 2.349-2.937 4.257-5.14 5.579-2.055 1.321-4.552 2.055-7.195 2.055-1.174 0-2.35-.147-3.524-.44-1.175-.294-2.203-.734-3.23-1.322l1.468-2.789c.734.44 1.615.734 2.496 1.028.881.293 1.763.293 2.79.293a10.34 10.34 0 005.58-1.615c1.616-1.027 3.084-2.495 3.965-4.257l2.79 1.468z" fill="#3D1526"/><path fill-rule="evenodd" clip-rule="evenodd" d="M80.337 65.739c0-1.175.44-2.496 2.055-3.964 1.469-1.321 4.553-1.762 6.608.44 1.91 1.909 1.763 5.139-.293 7.194-2.79 2.642-8.223 1.028-8.37-3.67zM62.862 66.18c0-1.175-.44-2.497-2.055-3.965-1.469-1.321-4.552-1.761-6.608.44-1.91 1.91-1.762 5.139.294 7.194 2.79 2.79 8.223 1.175 8.37-3.67z" fill="#3D1526"/><path fill-rule="evenodd" clip-rule="evenodd" d="M55.667 63.39c-.587.147-1.028.881-.734 1.468.147.588.881 1.028 1.468.735.588-.147 1.028-.882.735-1.469-.147-.587-.735-.88-1.469-.734zM83.42 62.95c-.587.146-1.027.88-.734 1.468.147.587.881 1.028 1.469.734.587-.147 1.028-.88.734-1.468-.147-.588-.881-.881-1.468-.734z" fill="#fff"/><path fill-rule="evenodd" clip-rule="evenodd" d="M93.7 92.898c-.147.147-.441.147-.588.294-.147 0-.294.147-.587.147-.147 0-.294.147-.588.147-.147 0-.293.147-.587.147-.147 0-.294.146-.587.146-.147 0-.441.147-.588.147h-.147c-.147 0-.44.147-.587.147-.147 0-.44.147-.587.147h-.147c-.147 0-.44.147-.588.147h-.147c-.146 0-.44.146-.587.146h-.147c-.147 0-.44.147-.587.147h-.147c-.147 0-.44.147-.587.147h-.147c-.147 0-.44.147-.587.147h-.147c-.147 0-.44.147-.588.147h-.146c-.147 0-.441 0-.588.147h-.147c-.147 0-.44 0-.587.146h-.147c-.147 0-.44 0-.587.147H78.72c14.097-5.138 24.23-18.791 24.23-34.647 0-10.57-4.406-20.112-11.601-26.866.734.44 1.468 1.028 2.203 1.468 10.719 7.928 17.18 21.434 12.481 38.17-1.321 4.845-7.93 16.296-12.188 18.352.294.734 0 .734-.147.88z" fill="#D8A816"/><path d="M42.892 84.824c2.056 3.083 4.111 5.578 5.727 6.46 5.286 2.642 13.803 3.816 22.467 3.816 8.517 0 17.034-1.321 22.467-3.817 1.615-.734 3.818-3.376 5.727-6.46 2.643-3.816 4.845-8.367 5.58-11.01 1.028-3.377 1.468-6.606 1.468-9.69.147-8.367-2.79-15.561-7.489-21.14-4.699-5.578-11.307-9.69-18.355-11.598-3.084-.88-6.314-1.32-9.545-1.468-3.23 0-6.461.587-9.545 1.468-7.048 2.056-13.656 6.02-18.355 11.598-4.7 5.579-7.636 12.773-7.49 21.14 0 3.084.588 6.313 1.47 9.69 1.027 2.643 3.23 7.047 5.873 11.01zm4.405 9.249c-2.202-1.028-4.699-4.111-7.048-7.488-2.79-4.11-5.14-8.955-6.02-11.891-1.029-3.67-1.616-7.194-1.616-10.57-.147-9.102 2.937-17.03 8.223-23.196 5.14-6.166 12.188-10.57 19.97-12.626 3.378-.88 6.902-1.468 10.427-1.614 3.524 0 7.048.587 10.425 1.614 7.636 2.203 14.832 6.607 19.971 12.626 5.14 6.166 8.37 14.094 8.223 23.196 0 3.376-.587 6.9-1.615 10.57-.734 2.79-3.231 7.78-6.021 11.891-2.349 3.524-4.845 6.46-7.048 7.488-6.02 2.789-15.125 4.257-24.082 4.257-8.958 0-17.915-1.468-23.789-4.257z" fill="#3D1526"/><path d="M107.062 18.32a1.63 1.63 0 011.615 1.615 1.63 1.63 0 01-1.615 1.615c-3.671 0-7.048 1.175-9.838 2.936a17.054 17.054 0 00-6.608 8.075c-.294.734-1.322 1.174-2.056.88-.734-.293-1.175-1.32-.881-2.055 1.615-3.817 4.258-7.193 7.783-9.542 3.23-2.202 7.342-3.524 11.6-3.524zM35.256 21.55a1.63 1.63 0 01-1.615-1.615c0-.88.734-1.615 1.615-1.615 4.259 0 8.37 1.322 11.6 3.524 3.378 2.349 6.168 5.578 7.783 9.542.294.734 0 1.762-.88 2.056-.735.293-1.763 0-2.056-.881-1.322-3.23-3.672-6.02-6.608-8.075-2.79-1.761-6.168-2.936-9.839-2.936zM74.316 106.405s0-.147 0 0c-.147 0-.147 0 0 0zm-6.755-2.643c-.88.294-1.762-.293-1.908-1.174-.294-.881.293-1.762 1.174-1.909 1.175-.293 3.378-.293 5.433.147 1.175.294 2.497.734 3.378 1.321 1.175.734 1.909 1.762 2.056 3.23 0 .587 0 1.175-.294 1.909-.44 1.174-1.175 1.908-1.909 2.202-1.028.293-1.909 0-2.79-.734-.587-.588-1.175-1.762-1.028-2.79 0-.44.147-.88.294-1.321 0-.147.147-.294.147-.294-.147 0-.294 0-.44-.146-1.763-.588-3.378-.588-4.113-.441z" fill="#3D1526"/><path d="M24.15 69.97L12.91 75.151a1.893 1.893 0 00-.93 2.491l9.91 21.848a1.866 1.866 0 002.478.922l11.241-5.181a1.893 1.893 0 00.93-2.491l-9.91-21.849a1.866 1.866 0 00-2.478-.92zm-6.86 4.65l3.596-1.658a.225.225 0 01.3.112.228.228 0 01-.113.301l-3.596 1.658a.225.225 0 01-.3-.112.229.229 0 01.112-.302zM29.6 96.967a.93.93 0 01-1.238-.461.943.943 0 01.464-1.246.93.93 0 011.239.461.944.944 0 01-.465 1.246zm5.094-5.133l-12.278 5.658-8.798-19.397 12.278-5.659 8.798 19.398z" fill="#455A65"/><path fill="#F0F0F0" d="M13.62 78.095L25.9 72.44l8.782 19.344-12.282 5.655z"/><path d="M18.075 92.312c.735-.294 1.616-.881 2.497-1.762h-.147c-.881.734-1.615 1.321-2.35 1.762zm-.293-7.34c.88-.294 1.762.146 2.055 1.027.294.881-.146 1.762-1.027 2.055-2.203.734-3.378 1.909-3.818 2.937.88-1.028 2.35-2.056 3.818-2.937.734-.44 1.762-.146 2.202.588.294.587.294 1.32-.147 1.761l.147-.146c.588-.588 1.616-.588 2.203 0 .587.587.587 1.32.294 1.908 0 .147-.147.294-.147.44-.147.147-.147.294-.294.294 0 .147-2.79 2.496-5.286 3.083-1.322.294-2.35.294-2.937 0-.44-.147-.734-.44-.881-.587-.588-.294-1.028-.881-1.469-1.321-.587-1.028-.88-2.203-.587-3.524.44-2.055 2.203-4.257 5.874-5.579z" fill="#3D1526"/></svg>