<svg width="114" height="132" fill="none" xmlns="http://www.w3.org/2000/svg"><path fill-rule="evenodd" clip-rule="evenodd" d="M12.332 1c2.071-.282 3.954 1.22 4.142 3.283a3.653 3.653 0 01-3.295 4.127c-2.07.281-3.954-1.22-4.142-3.283C8.85 3.157 10.355 1.28 12.332 1zM105.245 14.319c-1.882-.844-4.142.094-4.895 1.97-.847 1.876.094 4.127 1.977 4.877 1.883.844 4.142-.094 4.895-1.97.847-1.876-.094-4.127-1.977-4.877zM70.509 103.612c-5.178-.75-9.979 2.814-10.732 7.973-.753 5.158 2.824 9.942 8.002 10.692 5.177.751 9.978-2.814 10.731-7.972.753-5.159-2.824-9.943-8.001-10.693zM20.522 96.39c-5.178-.75-9.979 2.814-10.732 7.972-.753 5.159 2.824 9.943 8.002 10.693 5.177.75 9.978-2.814 10.732-7.973.753-5.158-2.825-9.942-8.002-10.692z" fill="#3D1526"/><path fill-rule="evenodd" clip-rule="evenodd" d="M57.894 131c.377-.469.848-.938 1.13-1.501l6.495-10.786c2.542-3.846 4.801-7.785 7.155-11.725 1.035-1.688 2.07-3.376 2.07-5.44 0-1.407-.564-2.72-1.505-3.845-1.695-1.97-4.707-3.94-6.872-5.534-1.13 1.032-2.26 2.157-3.39 3.189-4.894 4.783-11.202 6.096-17.791 5.346-6.496-1.125-12.144-4.22-15.533-10.13-.753-1.313-1.506-2.626-2.353-4.033-2.542.938-5.93 1.97-8.096 3.377a5.416 5.416 0 00-2.448 3.282c-.564 1.97 0 3.94.471 5.816 1.224 4.408 2.26 8.91 3.577 13.225l3.295 12.193c.753 2.533 2.26 4.69 4.236 6.472h29.56V131z" fill="#F3C432"/><path fill-rule="evenodd" clip-rule="evenodd" d="M27.017 106.051c-.376 8.91 1.695 17.539 5.649 24.949h-2.071c-1.883-1.688-3.295-3.658-4.048-5.909l-4.613-15.007v-.188c-.941-2.814-1.883-5.534-2.636-8.348a57.193 57.193 0 007.72 4.503z" fill="#D8A816"/><path d="M60.436 131c.094-.094.188-.281.282-.375v-.094l6.496-10.693c1.694-2.626 3.295-5.252 4.895-7.878.753-1.22 1.412-2.439 2.353-3.846.565-.844 1.13-1.782 1.507-2.814.47-1.125.847-2.345.847-3.658 0-.938-.188-1.876-.47-2.72a12.646 12.646 0 00-1.413-2.438c-1.506-1.783-3.954-3.471-6.025-4.972-.188-.281-.47-.469-1.13-.938l-1.317-1.031-1.224 1.125-.094.094c-1.13 1.032-2.165 1.97-3.295 3.189-2.07 2.064-4.424 3.377-7.06 4.127-2.824.844-5.93 1.032-9.037.656-3.107-.562-6.025-1.594-8.473-3.188-2.259-1.501-4.142-3.377-5.554-5.91-.847-1.5-1.6-2.72-2.353-4.033l-.848-1.407-1.6.563-1.412.469c-2.447.844-5.177 1.782-7.154 3.095-.848.563-1.506 1.126-2.071 1.876-.565.75-.942 1.595-1.224 2.533-.377 1.219-.377 2.532-.188 3.752.188 1.125.376 2.157.659 3.189.47 1.594.753 3.001 1.13 4.314.752 3.002 1.6 6.003 2.447 9.004l3.2 12.1v.094c.66 2.251 1.883 4.221 3.295 5.909h6.12c-.19-.188-.472-.282-.66-.469-2.259-1.688-4.142-3.846-4.989-6.566l-3.2-12.099v-.094c-.942-2.908-1.695-5.815-2.448-8.817-.377-1.501-.848-3.095-1.13-4.408a13.099 13.099 0 01-.565-2.627c-.094-.75-.094-1.406.094-2.157.095-.469.283-.844.565-1.125.283-.376.66-.657 1.036-.938 1.506-1.032 3.953-1.876 6.119-2.627.564.845 1.035 1.782 1.506 2.533 1.788 3.095 4.142 5.534 6.872 7.316 3.012 1.97 6.401 3.095 10.073 3.752h.094c3.671.469 7.342.187 10.731-.751a20.717 20.717 0 008.66-5.158c.66-.657 1.413-1.313 2.166-2.064 1.883 1.313 3.954 2.814 5.084 4.22.376.376.564.845.753 1.22.188.375.188.844.188 1.313 0 .657-.188 1.407-.47 2.064-.283.75-.848 1.594-1.319 2.345-.753 1.125-1.506 2.532-2.353 3.939-1.6 2.626-3.107 5.253-4.801 7.785v.094l-6.496 10.693c-.659 1.031-1.506 1.875-2.353 2.626h5.554V131z" fill="#3D1526"/><path fill-rule="evenodd" clip-rule="evenodd" d="M74.368 107.082c5.743-1.782 16.192-15.1 18.734-20.916 14.497-32.547-9.226-59.935-36.337-64.344-27.3-3.376-57.8 16.32-53.094 51.588.848 6.378 7.06 22.041 12.144 25.324 13.18 8.817 43.491 13.132 58.553 8.348z" fill="#F3C432"/><path fill-rule="evenodd" clip-rule="evenodd" d="M47.163 88.792c8.943 1.126 23.252 2.064 28.43-3.001 5.365-5.253 7.812-14.35 6.024-21.292-3.295-13.037-53.94-20.26-60.719-8.629-3.67 6.097-3.86 15.57-.188 22.042 3.483 6.378 17.51 9.473 26.453 10.88z" fill="#fff"/><path fill-rule="evenodd" clip-rule="evenodd" d="M47.163 88.792c8.943 1.126 23.252 2.064 28.43-3.001 5.365-5.253 7.813-14.351 6.024-21.292-.188-.844-.565-1.594-1.13-2.438.848 6.659-1.506 14.725-6.119 19.603-4.8 5.158-18.074 4.314-26.264 3.282-8.19-1.313-21.087-4.22-24.287-10.505-3.2-6.19-3.013-15.1.094-21.385-1.318.75-2.354 1.689-2.918 2.72-3.766 6.19-3.954 15.664-.283 22.136 3.483 6.378 17.51 9.473 26.453 10.88z" fill="#E6E6E6"/><path fill-rule="evenodd" clip-rule="evenodd" d="M77.38 86.166c3.39-5.346 6.684-12.662 6.402-18.009-.282-6.19-2.071-10.411-9.978-13.694-14.686-6.19-23.346-4.783-34.925-6.66 4.518-9.941 12.708-12.568 19.58-12.755 22.028-.75 43.492 31.233 18.922 51.118z" fill="#FFDA69"/><path d="M62.695 87.573c-5.177.281-10.92-.281-15.25-.75-4.33-.657-9.978-1.782-14.874-3.47-4.612-1.595-8.66-3.659-10.166-6.379-1.6-2.908-2.448-6.472-2.354-10.036 0-3.658.942-7.222 2.542-10.036.941-1.688 3.295-2.814 6.59-3.658 6.024-1.5 14.59-1.407 23.063-.282 8.472 1.22 16.756 3.565 22.122 6.66 2.824 1.688 4.801 3.47 5.272 5.346.847 3.19.659 6.847-.377 10.412-.941 3.47-2.73 6.659-5.083 9.004-2.165 2.063-6.59 2.907-11.485 3.189zM46.88 90.762c4.613.563 10.544 1.126 16.003.844 5.837-.281 11.109-1.5 14.121-4.408 2.918-2.814 4.99-6.66 6.213-10.787 1.13-4.127 1.318-8.535.377-12.474-.753-3.002-3.39-5.628-7.155-7.88-5.836-3.376-14.591-5.908-23.534-7.221-8.943-1.314-18.168-1.314-24.664.28-4.236 1.033-7.53 2.909-9.037 5.535-1.977 3.47-3.107 7.691-3.107 12.006 0 4.22.942 8.535 2.919 12.1 2.07 3.657 6.872 6.283 12.332 8.16 5.083 1.969 10.92 3.095 15.532 3.845z" fill="#3D1526"/><path d="M53.093 78.756c.565-.938.189-2.157-.753-2.72-.941-.563-2.165-.188-2.73.75-.47.75-.847 1.22-1.224 1.501l-.094.094-.094-.094a5.679 5.679 0 01-.941-1.876 2.133 2.133 0 00-2.542-1.313 2.121 2.121 0 00-1.318 2.532c.47 1.501 1.13 2.533 1.789 3.377.753.844 1.694 1.313 2.636 1.407.941.094 1.976-.188 2.824-.75.941-.657 1.694-1.595 2.447-2.908zM99.409 106.801c-.471 3.564-2.354 6.472-5.084 8.441-2.636 1.97-6.024 2.908-9.602 2.439a14.43 14.43 0 01-4.895-1.688c-1.506-.938-2.824-2.064-3.765-3.471l-3.295 2.345c1.318 1.876 3.012 3.377 4.99 4.596 1.882 1.126 4.047 1.97 6.4 2.251 4.613.657 9.132-.656 12.615-3.189 3.483-2.626 5.931-6.472 6.589-11.161l-3.953-.563z" fill="#3D1526"/><path d="M101.856 98.266c-1.129 0-1.977.938-1.977 2.063 0 1.126.942 1.97 2.071 1.97.659 0 1.224.281 1.695.656.471.376.753 1.032.753 1.689 0 .656-.282 1.219-.659 1.688-.377.469-1.036.75-1.694.75-.659 0-1.224-.281-1.695-.656-.47-.375-.753-1.032-.753-1.689 0-1.125-.941-1.969-2.071-1.969-1.13 0-1.977.938-1.977 2.063 0 1.782.753 3.377 1.977 4.502a6.734 6.734 0 004.613 1.783 6.122 6.122 0 004.518-1.97 6.683 6.683 0 001.789-4.596 6.077 6.077 0 00-1.977-4.502 6.735 6.735 0 00-4.613-1.782z" fill="#3D1526"/><path d="M104.492 103.987c-.376 1.032.283 2.157 1.318 2.532 1.036.376 2.165-.281 2.542-1.313l2.447-7.69c.377-1.033-.282-2.158-1.318-2.533-1.035-.376-2.165.281-2.541 1.313l-2.448 7.691z" fill="#3D1526"/><path d="M103.363 106.613c-.848.657-1.036 1.97-.377 2.814.659.844 1.977 1.032 2.824.375l7.343-5.815c.847-.656 1.035-1.97.376-2.814-.659-.844-1.977-1.031-2.824-.375l-7.342 5.815zM14.12 104.362a19.187 19.187 0 00-8.19 5.628c-2.07 2.532-3.482 5.534-3.953 9.004-.188 1.595-.283 3.096-.094 4.596a17.537 17.537 0 001.13 4.502l3.765-1.5a11.037 11.037 0 01-.847-3.471 16.11 16.11 0 01.094-3.658c.376-2.72 1.506-5.065 3.106-7.034 1.695-1.97 3.86-3.565 6.307-4.409l-1.317-3.658z" fill="#3D1526"/><path d="M8.66 130.25a1.76 1.76 0 00-.188.75h4.142c.377-1.407.283-2.814-.282-4.127-.659-1.501-1.883-2.814-3.483-3.47-1.6-.657-3.389-.563-4.895 0-1.506.656-2.824 1.876-3.483 3.47-.565 1.313-.565 2.72-.283 4.033h4.519a2.848 2.848 0 01-.47-.656c-.19-.563-.283-1.126-.095-1.689 0-.093.094-.093.094-.187a2.567 2.567 0 011.224-1.219c.565-.188 1.13-.282 1.694-.094.095 0 .095.094.189.094.565.281.941.656 1.224 1.219.282.563.282 1.219.094 1.876z" fill="#3D1526"/><path fill-rule="evenodd" clip-rule="evenodd" d="M38.408 67.22c.282-1.595-.094-3.283-1.883-5.44-1.6-1.877-5.366-3.096-8.472-.751-2.824 2.157-3.2 6.19-.942 9.192 3.013 4.127 10.167 3.095 11.297-3.002zM60.342 71.065c.188-1.595.941-3.095 3.295-4.69 2.07-1.407 6.024-1.407 8.378 1.689 2.07 2.813 1.318 6.847-1.695 9.098-4.048 3.001-10.637 0-9.978-6.097z" fill="#3D1526"/><path fill-rule="evenodd" clip-rule="evenodd" d="M69.944 68.814c.753.375 1.13 1.313.753 2.063-.377.75-1.318 1.126-2.071.75-.753-.374-1.13-1.312-.753-2.063a1.507 1.507 0 012.07-.75zM34.925 63.186c.753.375 1.13 1.313.753 2.064-.377.75-1.318 1.125-2.071.75-.753-.375-1.13-1.313-.753-2.063.376-.75 1.318-1.126 2.07-.75z" fill="#fff"/><path fill-rule="evenodd" clip-rule="evenodd" d="M16.474 99.11c.282.187.47.281.659.375.188.094.377.281.659.375h.094c.188.094.377.282.66.375h.093c.189.094.47.188.66.376h.093c.189.093.471.187.66.375h.093c.189.094.471.187.66.281h.093c.189.094.471.188.66.282h.094c.188.093.47.187.659.281l.094.094c.188.093.47.187.659.281h.094c.188.094.47.188.659.281l.188.094c.188.094.47.188.659.282l.188.093c.189.094.47.188.66.282l.188.094c.282.093.47.187.753.281l.188.094c.282.094.47.187.753.281l.188.094c.283.094.47.188.753.188l.189.093c.188.094.47.188.659.188l.282.094c.188.094.47.094.659.187l.282.094c.189.094.471.094.66.188l.376.094c.188.093.47.093.659.187l.188.094c.282.094.47.094.753.187l.283.094c.188.094.47.094.658.188l.283.094C17.321 96.952 7.06 78.006 9.884 57.934c1.883-13.413 9.32-24.668 19.581-31.89l-3.107 1.406C11.391 35.61.753 51.462 3.766 73.41c.847 6.378 7.06 22.042 12.143 25.325.094.187.377.281.565.375z" fill="#D8A816"/><path d="M82.276 98.172c-3.107 3.47-6.307 6.378-8.473 7.034-7.248 2.251-18.262 2.345-29.088.844-10.826-1.5-21.369-4.689-27.676-8.91-1.883-1.313-4.142-4.971-6.213-9.098-2.636-5.44-4.613-11.537-5.084-14.914-.564-4.502-.659-8.629-.094-12.568 1.318-10.505 6.307-19.04 13.18-25.325 6.966-6.284 16.003-10.13 25.322-11.443 4.142-.563 8.284-.563 12.332-.094 4.048.657 8.002 1.876 11.862 3.564 8.66 3.846 16.191 10.13 21.086 18.01 4.895 7.878 7.249 17.445 5.554 27.95-.659 3.846-1.788 7.879-3.671 12.006-1.412 3.189-5.084 8.441-9.037 12.944zm-7.249 10.88c2.918-.938 6.778-4.221 10.261-8.16 4.236-4.69 8.19-10.412 9.696-13.882 1.977-4.408 3.295-8.817 3.954-13.038 1.883-11.536-.659-22.041-6.119-30.67-5.366-8.63-13.556-15.477-22.875-19.604a53.957 53.957 0 00-12.897-3.845h-.094c-4.425-.563-8.943-.47-13.368.093-10.166 1.314-19.863 5.628-27.488 12.381C8.472 39.081 3.012 48.46 1.6 59.998c-.565 4.22-.47 8.817.094 13.6.471 3.752 2.73 10.318 5.46 16.04 2.26 4.783 4.99 9.004 7.531 10.786 6.872 4.596 17.98 7.972 29.371 9.567 11.39 1.688 23.064 1.501 30.971-.938z" fill="#3D1526"/><path d="M13.085 2.782c-1.13-.187-2.165.563-2.26 1.688-.188 1.126.566 2.158 1.695 2.252 4.613.656 8.755 2.72 11.956 5.533 3.294 3.002 5.742 6.941 6.872 11.35.282 1.031 1.412 1.688 2.447 1.5 1.036-.281 1.695-1.313 1.506-2.438-1.318-5.159-4.142-9.849-8.095-13.32-3.766-3.47-8.661-5.814-14.121-6.565zM103.457 19.759c1.129.188 2.165-.563 2.259-1.688.188-1.126-.565-2.158-1.695-2.252-5.46-.75-10.731.188-15.438 2.345-4.801 2.251-8.755 5.91-11.485 10.6a1.924 1.924 0 00.753 2.72 1.939 1.939 0 002.73-.751c2.26-3.94 5.743-7.035 9.79-9.004a22.911 22.911 0 0113.086-1.97z" fill="#3D1526"/></svg>