<svg width="20" height="17" fill="none" xmlns="http://www.w3.org/2000/svg"><path d="M10 11.212c-2.904 0-5.357 1.325-5.357 2.894C4.643 15.675 7.096 17 10 17c2.904 0 5.357-1.325 5.357-2.894 0-1.569-2.453-2.894-5.357-2.894zm-.385 4.483A.355.355 0 019 15.77l-.964-1.301h-.179v1.085c0 .2-.16.362-.357.362a.36.36 0 01-.357-.362v-2.894c0-.096.037-.188.104-.256a.355.355 0 01.253-.106H8.57c.53-.001.98.39 1.06.92.079.53-.237 1.04-.743 1.197l.683.922c.077.103.094.24.044.36zm3.242-.866a1.08 1.08 0 01-1.071 1.086h-.358a1.08 1.08 0 01-1.071-1.085v-2.17c0-.2.16-.363.357-.363a.36.36 0 01.357.362v2.17c0 .2.16.362.357.362h.357a.36.36 0 00.358-.362v-2.17c0-.2.16-.362.357-.362a.36.36 0 01.357.362v2.17z" fill="url(#paint0_linear)"/><path d="M8.571 13.022h-.714v.723h.714a.36.36 0 00.357-.361.36.36 0 00-.357-.362z" fill="url(#paint1_linear)"/><path d="M0 13.383c0 .2.16.362.357.362h3.601C4.254 11.893 6.801 10.49 10 10.49c3.2 0 5.746 1.403 6.041 3.255h3.602a.36.36 0 00.357-.362V9.766H0v3.617z" fill="url(#paint2_linear)"/><path d="M19.642 0H.357A.36.36 0 000 .362v3.617h20V.362A.36.36 0 0019.642 0z" fill="url(#paint3_linear)"/><path d="M20 4.702H0v4.34h20v-4.34z" fill="url(#paint4_linear)"/><defs><linearGradient id="paint0_linear" x1="4.643" y1="17" x2="15.903" y2="15.598" gradientUnits="userSpaceOnUse"><stop stop-color="#2B74E2"/><stop offset="1" stop-color="#5A9CFF"/></linearGradient><linearGradient id="paint1_linear" x1="7.857" y1="13.745" x2="8.989" y2="13.633" gradientUnits="userSpaceOnUse"><stop stop-color="#2B74E2"/><stop offset="1" stop-color="#5A9CFF"/></linearGradient><linearGradient id="paint2_linear" x1="0" y1="13.745" x2="19.157" y2="7.272" gradientUnits="userSpaceOnUse"><stop stop-color="#2B74E2"/><stop offset="1" stop-color="#5A9CFF"/></linearGradient><linearGradient id="paint3_linear" x1="0" y1="3.979" x2="19.157" y2="-2.494" gradientUnits="userSpaceOnUse"><stop stop-color="#2B74E2"/><stop offset="1" stop-color="#5A9CFF"/></linearGradient><linearGradient id="paint4_linear" x1="0" y1="9.043" x2="19.476" y2="3.011" gradientUnits="userSpaceOnUse"><stop stop-color="#2B74E2"/><stop offset="1" stop-color="#5A9CFF"/></linearGradient></defs></svg>