<svg width="20" height="16" fill="none" xmlns="http://www.w3.org/2000/svg"><path d="M10.114 5.798c.33 0 .644.072.93.202.022-.488.183-.938.44-1.311-.181-.04-.368-.061-.56-.061H9.106c-.192 0-.38.02-.56.06A2.5 2.5 0 018.988 6.1a2.252 2.252 0 011.126-.3z" fill="url(#paint0_linear)"/><path d="M10.014 4.475c1.184 0 2.143-1.002 2.143-2.237 0-1.236-.96-2.238-2.143-2.238-1.183 0-2.142 1.002-2.142 2.238 0 1.235.959 2.237 2.142 2.237z" fill="url(#paint1_linear)"/><path d="M13.38 8.293c1.09 0 1.974-.923 1.974-2.061 0-1.139-.884-2.062-1.974-2.062-1.08 0-1.957.907-1.973 2.03a2.57 2.57 0 011.139 1.898c.253.124.535.195.834.195z" fill="url(#paint2_linear)"/><path d="M6.65 4.17c-1.091 0-1.975.922-1.975 2.06 0 1.14.884 2.062 1.974 2.062.387 0 .746-.118 1.05-.318a2.577 2.577 0 01.919-1.627c.002-.039.005-.077.005-.116 0-1.139-.884-2.062-1.974-2.062z" fill="url(#paint3_linear)"/><path d="M14.662 4.127A2.569 2.569 0 0115.8 6.024c.254.124.536.196.835.196 1.09 0 1.974-.923 1.974-2.062 0-1.138-.884-2.061-1.974-2.061-1.08 0-1.957.906-1.973 2.03z" fill="url(#paint4_linear)"/><path d="M10.114 10.422c1.09 0 1.974-.923 1.974-2.062 0-1.139-.884-2.062-1.974-2.062-1.09 0-1.975.923-1.975 2.062 0 1.139.884 2.062 1.975 2.062z" fill="url(#paint5_linear)"/><path d="M14.218 8.434h-1.663a2.593 2.593 0 01-.751 1.77c1.239.384 2.145 1.584 2.145 3.001v.66c1.642-.064 2.588-.55 2.65-.582l.132-.07h.014v-2.14c0-1.455-1.134-2.64-2.527-2.64z" fill="url(#paint6_linear)"/><path d="M17.472 6.36H15.81a2.593 2.593 0 01-.75 1.769c1.238.385 2.144 1.585 2.144 3.002v.659c1.642-.063 2.588-.548 2.65-.582l.132-.07H20V9c0-1.455-1.134-2.64-2.528-2.64z" fill="url(#paint7_linear)"/><path d="M8.422 10.203a2.595 2.595 0 01-.75-1.76c-.062-.004-.123-.01-.186-.01H5.812c-1.394 0-2.528 1.185-2.528 2.64v2.14l.005.033.14.047c1.068.348 2.02.508 2.847.558v-.646c0-1.417.907-2.617 2.146-3.002z" fill="url(#paint8_linear)"/><path d="M10.951 10.563H9.276c-1.394 0-2.528 1.184-2.528 2.64v2.139l.005.033.141.046c1.33.434 2.486.58 3.437.58 1.858 0 2.935-.554 3.001-.59l.132-.07h.014v-2.139c0-1.455-1.133-2.64-2.527-2.64z" fill="url(#paint9_linear)"/><path d="M3.365 6.284c.3 0 .581-.071.835-.195.08-.8.516-1.49 1.138-1.898-.016-1.123-.892-2.03-1.973-2.03-1.09 0-1.974.923-1.974 2.062 0 1.138.884 2.061 1.974 2.061z" fill="url(#paint10_linear)"/><path d="M4.94 8.195a2.594 2.594 0 01-.75-1.77H2.528C1.134 6.425 0 7.61 0 9.065v2.14h.014l.132.07c.062.032 1.008.518 2.65.581v-.659c0-1.417.906-2.617 2.145-3.002z" fill="url(#paint11_linear)"/><path d="M5.674 3.966c.237-.1.599-.223.944-.223.401 0 .794.108 1.144.313.078-.08.15-.167.215-.26a2.73 2.73 0 01-.274-2.713A1.89 1.89 0 006.397.56c-.888 0-1.66.627-1.887 1.51a2.464 2.464 0 011.164 1.897z" fill="url(#paint12_linear)"/><path d="M12.069 3.68c.068.113.148.22.24.32.324-.169.68-.257 1.039-.257.353 0 .691.094.913.173.07-.856.565-1.61 1.307-1.994-.272-.81-1.008-1.364-1.842-1.364a1.91 1.91 0 00-1.418.637c.13.323.195.662.195 1.009 0 .532-.15 1.039-.434 1.475z" fill="url(#paint13_linear)"/><defs><linearGradient id="paint7_linear" x1="15.059" y1="11.79" x2="20.312" y2="11.469" gradientUnits="userSpaceOnUse"><stop stop-color="#2B74E2"/><stop offset="1" stop-color="#5A9CFF"/></linearGradient><linearGradient id="paint0_linear" x1="8.546" y1="6.099" x2="11.627" y2="5.686" gradientUnits="userSpaceOnUse"><stop stop-color="#2B74E2"/><stop offset="1" stop-color="#5A9CFF"/></linearGradient><linearGradient id="paint2_linear" x1="11.407" y1="8.293" x2="15.602" y2="8.023" gradientUnits="userSpaceOnUse"><stop stop-color="#2B74E2"/><stop offset="1" stop-color="#5A9CFF"/></linearGradient><linearGradient id="paint3_linear" x1="4.675" y1="8.292" x2="8.871" y2="8.022" gradientUnits="userSpaceOnUse"><stop stop-color="#2B74E2"/><stop offset="1" stop-color="#5A9CFF"/></linearGradient><linearGradient id="paint4_linear" x1="14.662" y1="6.22" x2="18.857" y2="5.95" gradientUnits="userSpaceOnUse"><stop stop-color="#2B74E2"/><stop offset="1" stop-color="#5A9CFF"/></linearGradient><linearGradient id="paint5_linear" x1="8.139" y1="10.422" x2="12.336" y2="10.152" gradientUnits="userSpaceOnUse"><stop stop-color="#2B74E2"/><stop offset="1" stop-color="#5A9CFF"/></linearGradient><linearGradient id="paint6_linear" x1="11.804" y1="13.864" x2="17.057" y2="13.543" gradientUnits="userSpaceOnUse"><stop stop-color="#2B74E2"/><stop offset="1" stop-color="#5A9CFF"/></linearGradient><linearGradient id="paint1_linear" x1="7.872" y1="4.475" x2="12.426" y2="4.182" gradientUnits="userSpaceOnUse"><stop stop-color="#2B74E2"/><stop offset="1" stop-color="#5A9CFF"/></linearGradient><linearGradient id="paint8_linear" x1="3.284" y1="13.851" x2="8.745" y2="13.503" gradientUnits="userSpaceOnUse"><stop stop-color="#2B74E2"/><stop offset="1" stop-color="#5A9CFF"/></linearGradient><linearGradient id="paint9_linear" x1="6.748" y1="16" x2="13.881" y2="15.407" gradientUnits="userSpaceOnUse"><stop stop-color="#2B74E2"/><stop offset="1" stop-color="#5A9CFF"/></linearGradient><linearGradient id="paint10_linear" x1="1.391" y1="6.284" x2="5.586" y2="6.014" gradientUnits="userSpaceOnUse"><stop stop-color="#2B74E2"/><stop offset="1" stop-color="#5A9CFF"/></linearGradient><linearGradient id="paint11_linear" x1="0" y1="11.856" x2="5.253" y2="11.535" gradientUnits="userSpaceOnUse"><stop stop-color="#2B74E2"/><stop offset="1" stop-color="#5A9CFF"/></linearGradient><linearGradient id="paint12_linear" x1="4.51" y1="4.056" x2="8.193" y2="3.811" gradientUnits="userSpaceOnUse"><stop stop-color="#2B74E2"/><stop offset="1" stop-color="#5A9CFF"/></linearGradient><linearGradient id="paint13_linear" x1="12.069" y1="4" x2="15.785" y2="3.746" gradientUnits="userSpaceOnUse"><stop stop-color="#2B74E2"/><stop offset="1" stop-color="#5A9CFF"/></linearGradient></defs></svg>