<svg width="18" height="11" fill="none" xmlns="http://www.w3.org/2000/svg"><path d="M9.109 11c2.604 0 1.675-1.612 1.876-2.075-.003-.346-.006-.68.006-.882.165.046.554.239 1.358 1.003C13.591 10.27 13.908 11 14.911 11h1.845c.585 0 .89-.237 1.042-.436.147-.192.291-.53.134-1.054-.412-1.264-2.814-3.448-2.963-3.678.023-.042.059-.099.077-.128h-.001c.474-.612 2.283-3.263 2.55-4.323v-.006c.145-.484.013-.798-.124-.975-.205-.266-.532-.4-.974-.4H14.65c-.618 0-1.087.304-1.324.86-.396.986-1.51 3.014-2.346 3.732a45.961 45.961 0 01.005-2.37C11.013 1.095 11.1 0 9.906 0H7.003c-.748 0-1.465.8-.69 1.748.679.832.245 1.295.39 3.602-.57-.597-1.583-2.211-2.3-4.274C4.203.518 3.898 0 3.041 0H1.195C.447 0 0 .4 0 1.068 0 2.568 3.397 11 9.109 11zM3.04 1.1c.163 0 .18 0 .3.336.734 2.114 2.381 5.242 3.584 5.242.904 0 .904-.905.904-1.246V2.717c-.05-.898-.385-1.346-.604-1.617l2.63.003c.002.012-.014 3.003.008 3.727 0 1.03.836 1.619 2.14.328 1.376-1.518 2.328-3.789 2.366-3.881.056-.132.105-.177.282-.177h1.853l-.001.007c-.169.77-1.835 3.223-2.392 3.985a.62.62 0 00-.025.037c-.246.392-.445.824.033 1.433h.001c.044.051.157.171.322.339.513.517 2.272 2.288 2.428 2.992-.103.016-.216.004-1.96.008-.37 0-.66-.543-1.769-1.636-.996-.947-1.642-1.334-2.23-1.334-1.144 0-1.06.907-1.05 2.004.004 1.19-.004.813.004.888-.066.026-.258.077-.756.077-4.76 0-7.858-7.385-7.977-8.797.041-.004.609-.002 1.91-.002z" fill="#666"/></svg>