<svg width="37" height="37" fill="none" xmlns="http://www.w3.org/2000/svg"><circle cx="18.5" cy="18.5" r="18.5" fill="url(#paint0_linear)"/><path d="M8.405 13.651h3.638c.16 0 .28.075.32.188a20.368 20.368 0 003.078 4.629c.12.15.36.15.44-.038.4-.865 1.079-3.01-.28-4.553-.12-.15-.08-.339.12-.414 1.399-.565 2.758-.64 4.077-.075.28.113.48.376.48.677l.32 4.403c0 .188.2.339.4.301 1.519-.301 2.438-2.446 3.318-4.704.12-.263.4-.452.72-.452h3.357c.28 0 .48.226.44.49-.32 1.58-2.039 3.65-2.918 4.666a.876.876 0 000 1.204l2.998 3.387c.2.226.04.602-.32.602h-3.798c-.32 0-.6-.113-.84-.338l-2.678-2.07c-.12-.15-.4-.188-.52-.038-.32.377-.32.828-.479 1.92-.04.338-.36.564-.72.564H16.96c-.36 0-.72-.075-1.08-.226-1.479-.677-5.596-3.048-7.875-9.634a.419.419 0 01.4-.489z" fill="#fff"/><defs><linearGradient id="paint0_linear" x1="0" y1="0" x2="39.697" y2="3.165" gradientUnits="userSpaceOnUse"><stop stop-color="#FF9649"/><stop offset="1" stop-color="#FF4588"/></linearGradient></defs></svg>