<svg width="37" height="37" fill="none" xmlns="http://www.w3.org/2000/svg"><circle cx="18.5" cy="18.5" r="18.5" fill="url(#paint0_linear)"/><path d="M26.726 13.66a1.548 1.548 0 00-1.386-1.404 91.438 91.438 0 00-13.68 0c-.73.038-1.277.646-1.386 1.405a42.936 42.936 0 000 9.678c.073.76.656 1.329 1.386 1.405 4.56.341 9.12.341 13.68 0 .73-.038 1.277-.645 1.386-1.405a42.936 42.936 0 000-9.678zm-5.508 4.783l-4.122 2.467c-.146.076-.329-.038-.329-.19v-4.934c0-.19.183-.303.329-.19l4.122 2.43c.146.113.146.341 0 .417z" fill="#fff"/><defs><linearGradient id="paint0_linear" x1="0" y1="0" x2="39.697" y2="3.165" gradientUnits="userSpaceOnUse"><stop stop-color="#FF9649"/><stop offset="1" stop-color="#FF4588"/></linearGradient></defs></svg>